<svg xmlns="http://www.w3.org/2000/svg" width="512" height="512" viewBox="0 0 512 512" version="1.1">
	<path d="M 209.500 26.689 C 186.261 29.701, 157.615 40.506, 137 54.035 C 113.774 69.278, 103.216 81.128, 98.545 97.196 C 96.611 103.850, 96.251 104.202, 88.652 106.867 C 80.407 109.758, 73.893 114.219, 67.118 121.613 C 45.853 144.820, 29.751 184.320, 25.881 222.773 C 24.562 235.874, 25.780 245.385, 30.009 255.021 C 33.548 263.085, 33.654 265.393, 30.878 274 C 25.030 292.131, 31.274 325.222, 46.445 356.500 C 59.851 384.137, 74.891 401.587, 88.787 405.626 C 93.777 407.077, 94.356 407.565, 96.183 411.850 C 101.946 425.370, 103.471 427.622, 113.924 438.058 C 133.721 457.820, 159.157 471.864, 188.141 479.034 C 214.993 485.676, 232.436 483.693, 249.500 472.059 C 251.150 470.934, 253.037 470.010, 253.692 470.007 C 254.348 470.003, 257.723 471.767, 261.192 473.927 C 270.848 479.939, 278.678 482.219, 291.500 482.754 C 305.247 483.327, 316.670 481.457, 333.285 475.911 C 357.515 467.824, 382.576 453.318, 397.047 439.005 C 402.808 433.308, 405.643 429.485, 408.818 423.134 C 411.118 418.533, 413 413.796, 413 412.607 C 413 409.259, 415.638 406.271, 419.753 404.956 C 427.760 402.398, 435.228 397.557, 441.177 391.070 C 457.983 372.741, 473.003 342.806, 479.982 313.733 C 484.816 293.597, 485.905 282.985, 486.215 253 C 486.457 229.675, 486.219 223.982, 484.652 215.500 C 476.993 174.069, 461.390 139.102, 440.965 117.600 C 433.546 109.790, 424.267 104.015, 419.090 103.985 C 413.773 103.955, 411.879 101.955, 409.584 93.945 C 408.393 89.790, 406.239 84.377, 404.798 81.918 C 400.963 75.374, 386.970 62.417, 375.479 54.769 C 334.827 27.711, 289.233 18.786, 261.920 32.540 L 255.126 35.961 247.785 32.475 C 236.291 27.017, 222.754 24.971, 209.500 26.689 M 209 42.613 C 184.505 47.201, 164.671 55.102, 145 68.111 C 132.168 76.596, 116.958 91.666, 113.416 99.403 C 110.860 104.985, 110.813 105.384, 112.328 108.562 C 115.786 115.813, 132.693 125.978, 142.671 126.806 C 145.580 127.047, 152.985 126.471, 159.125 125.525 C 175.877 122.945, 185.626 124.780, 198.688 132.970 C 202.223 135.187, 205.450 137, 205.859 137 C 206.267 137, 207.083 133.659, 207.671 129.575 C 208.953 120.678, 213.324 110.868, 218.638 104.960 C 220.762 102.599, 226.708 97.311, 231.851 93.208 C 245.602 82.241, 250 74.047, 250 59.395 C 250 53.073, 249.673 51.765, 247.425 49.093 C 243.792 44.776, 236.820 42.889, 223 42.483 C 216.675 42.297, 210.375 42.355, 209 42.613 M 275.230 43.550 C 268.229 45.435, 264.636 47.382, 261.978 50.730 C 259.983 53.243, 259.822 54.344, 260.241 62.587 C 260.992 77.330, 265.096 84.416, 279.024 95.018 C 291.451 104.478, 298.889 116.662, 301.159 131.274 L 302.366 139.048 305.933 135.681 C 311.052 130.849, 314.713 128.574, 321.288 126.141 C 328.739 123.384, 336.376 123.397, 350.275 126.189 C 359.770 128.096, 362.018 128.232, 367.778 127.245 C 375.767 125.877, 387.106 120.453, 393.099 115.133 C 397.197 111.495, 397.495 110.890, 397.432 106.344 C 397.134 84.990, 351.052 51.983, 309.792 43.571 C 300.294 41.635, 282.385 41.624, 275.230 43.550 M 204.618 60.137 C 177.574 63.607, 144.951 84.969, 138.956 103.134 C 138.281 105.178, 138.012 107.588, 138.358 108.489 C 138.881 109.853, 139.949 109.388, 144.743 105.705 C 155.861 97.164, 172.608 86.661, 183.500 81.397 C 194.533 76.065, 214.435 69.674, 223.926 68.415 C 229.278 67.705, 230.228 66.381, 227.250 63.783 C 222.799 59.901, 215.554 58.734, 204.618 60.137 M 287.357 61.091 C 285.628 61.592, 283.932 62.734, 283.589 63.628 C 282.769 65.765, 284.702 68, 287.372 68.002 C 290.682 68.004, 310.775 73.622, 317.978 76.560 C 329.290 81.173, 335.595 84.753, 353.048 96.474 C 362.412 102.763, 370.697 107.670, 371.459 107.377 C 375.917 105.667, 372.856 99.819, 361.527 88.405 C 356.562 83.402, 349.628 77.383, 346.119 75.028 C 337.775 69.431, 325.148 63.625, 316.936 61.610 C 309.794 59.858, 292.650 59.557, 287.357 61.091 M 250.611 91.217 C 247.390 98.166, 245.369 100.869, 238.056 108 C 227.968 117.838, 225.855 120.671, 223.570 127.427 C 220.396 136.812, 221.453 146.982, 227.633 166.500 C 230.477 175.484, 232.890 178.703, 237.410 179.545 C 241.629 180.331, 248.192 178.007, 249.570 175.239 C 250.189 173.996, 251.009 165.221, 251.393 155.739 C 251.777 146.258, 252.966 129.275, 254.035 118 C 256.055 96.709, 256.356 87.757, 255.155 84.717 C 254.625 83.374, 253.501 84.982, 250.611 91.217 M 258.348 103.656 C 258.707 109.516, 259 127.956, 259 144.633 L 259 174.954 261.464 176.569 C 264.631 178.644, 274.971 179.621, 277.791 178.112 C 279.282 177.314, 280.783 174.227, 282.834 167.738 C 287.439 153.174, 288.282 148.435, 287.789 139.908 C 287.130 128.534, 281.920 118.322, 270.603 106.225 C 265.982 101.286, 261.690 96.289, 261.065 95.122 C 260.441 93.955, 259.427 93, 258.813 93 C 258.020 93, 257.885 96.086, 258.348 103.656 M 409.285 116.631 C 404.638 118.922, 396.800 127.114, 393.561 133.065 C 389.399 140.713, 388.013 147.001, 387.075 162.500 C 386.146 177.850, 384.094 185.810, 378.859 194.359 C 377.223 197.031, 376.023 199.293, 376.192 199.386 C 376.362 199.478, 379.650 200.340, 383.500 201.301 C 392.409 203.524, 403.521 208.763, 408.382 213.030 C 410.460 214.855, 414.585 220.030, 417.550 224.532 C 425.148 236.069, 430.982 240.115, 445.613 243.989 C 455.880 246.709, 465.507 247.654, 467.351 246.123 C 474.147 240.483, 463.920 190.937, 449.781 161 C 442.839 146.303, 427.226 123.994, 418.811 116.750 C 416.308 114.595, 413.485 114.560, 409.285 116.631 M 91.141 121.553 C 65.475 140.847, 43.765 190.658, 42.250 233.727 L 41.749 247.954 44.215 248.891 C 45.869 249.520, 49.104 249.367, 54.049 248.425 C 76.788 244.092, 84.510 239.428, 100.931 220.111 C 107.318 212.598, 115.573 206.971, 124.627 203.958 C 129.872 202.212, 131.002 201.473, 130.454 200.146 C 130.080 199.241, 128.362 194.900, 126.637 190.500 L 123.500 182.500 123.456 161.500 C 123.425 146.308, 123.024 139.286, 122.007 136.112 C 120.321 130.853, 112.236 121.671, 106.887 118.942 C 100.969 115.923, 97.969 116.420, 91.141 121.553 M 130.475 134.735 C 136.193 149.131, 138.954 163.604, 139.014 179.500 C 139.075 195.777, 144.446 200.974, 170.484 209.953 C 184.843 214.904, 190.490 215.237, 194.364 211.364 C 198.667 207.060, 197.902 205.084, 187.170 192.774 C 175.236 179.087, 151 148.907, 151 147.734 C 151 144.321, 169.587 160.932, 188.451 181.204 C 195.977 189.291, 203.026 196.191, 204.116 196.537 C 206.251 197.215, 209.756 195.363, 214.250 191.183 C 218.148 187.558, 217.813 183.892, 212.429 171.241 C 206.438 157.161, 204.086 153.256, 198.496 148.103 C 188.714 139.087, 177.914 136.610, 158.682 138.972 C 147.379 140.361, 143.415 139.771, 134.637 135.394 C 130.423 133.293, 129.868 133.205, 130.475 134.735 M 96.556 139.613 C 84.449 148.857, 69.860 175.049, 63.972 198.111 C 60.748 210.736, 61.639 227, 65.554 227 C 66.231 227, 67.097 226.213, 67.476 225.250 C 67.856 224.287, 70.558 216.975, 73.481 209 C 80.169 190.752, 87.190 174.416, 96.062 156.458 C 102.417 143.596, 104.675 136, 102.144 136 C 101.673 136, 99.158 137.626, 96.556 139.613 M 372.500 139.134 C 366.030 142.218, 358.510 142.916, 353.315 140.916 C 351.767 140.320, 347.258 139.207, 343.296 138.442 C 330.757 136.021, 320.552 139.219, 312.551 148.076 C 308.715 152.321, 292.947 183.694, 293.057 186.861 C 293.129 188.928, 302.301 196, 304.910 196 C 306.046 196, 313.624 189.645, 323.094 180.750 C 332.023 172.363, 342.517 162.715, 346.414 159.311 C 353.674 152.971, 363.657 146.324, 364.562 147.228 C 365.541 148.208, 345.811 170.943, 326.127 191.518 C 312.872 205.373, 313.581 204.288, 315.438 207.879 C 318.361 213.532, 319.647 213.548, 333.725 208.100 C 357.389 198.942, 362.083 196.165, 366.351 188.792 C 369.700 183.008, 370.730 178.579, 371.895 164.940 C 372.628 156.361, 373.669 151.225, 375.934 145.017 C 377.613 140.417, 378.877 136.568, 378.743 136.464 C 378.610 136.360, 375.800 137.561, 372.500 139.134 M 412 138.325 C 412 141.518, 415.787 152.200, 421.988 166.500 C 424.850 173.100, 430.696 188.882, 434.978 201.572 C 439.260 214.261, 443.550 226.163, 444.511 228.021 L 446.258 231.400 448.034 229.206 C 453.340 222.654, 450.078 198.460, 440.924 176.471 C 435.039 162.336, 422.713 143.066, 416.359 138.067 C 412.971 135.402, 412 135.460, 412 138.325 M 258.642 189.490 C 258.289 190.410, 258 193.572, 258 196.517 C 258 202.838, 256.634 207, 254.560 207 C 252.266 207, 251 203.674, 251 197.648 C 251 190.586, 250.333 189, 247.361 189 C 240.077 189, 214.010 202.850, 213.992 206.730 C 213.987 207.703, 216.076 210.323, 218.634 212.551 C 222.767 216.151, 223.157 216.838, 222.143 218.733 C 220.042 222.658, 217.394 222.484, 211.832 218.055 C 207.101 214.289, 206.558 214.090, 204.958 215.538 C 200.185 219.858, 191.692 243.719, 193.956 246.447 C 194.566 247.182, 197.187 248.099, 199.782 248.485 C 205.412 249.323, 207 250.449, 207 253.603 C 207 256.202, 205.532 256.795, 198 257.236 L 193.500 257.500 193.191 261.780 C 192.556 270.578, 200.001 292, 203.694 292 C 204.607 292, 207.746 290.352, 210.670 288.339 C 215.847 284.773, 216.038 284.725, 217.993 286.494 C 220.976 289.193, 220.480 291.065, 215.500 295.891 C 213.025 298.289, 211 300.697, 211 301.241 C 211 303.306, 218.662 309.117, 226.509 313.005 C 230.997 315.228, 238.603 318.018, 243.413 319.205 C 253.309 321.648, 253.957 321.379, 253.985 314.817 C 253.996 311.992, 254.477 310.983, 256.048 310.485 C 258.619 309.669, 261 311.567, 261 314.431 C 261 315.634, 261.593 317.429, 262.318 318.420 C 263.582 320.148, 263.956 320.133, 271.549 318.050 C 287.290 313.732, 304 303.887, 304 298.931 C 304 297.921, 302.200 295.648, 300 293.880 C 295.393 290.178, 295.056 288.209, 298.370 284.356 L 300.740 281.601 305.541 285.827 C 308.181 288.151, 310.823 289.892, 311.412 289.696 C 314.813 288.562, 320 271.767, 320 261.890 L 320 256.100 314.250 255.800 C 308.565 255.503, 308.496 255.463, 308.187 252.249 C 307.924 249.521, 308.296 248.838, 310.502 247.999 C 311.947 247.450, 314.451 247, 316.065 247 C 319.530 247, 319.636 246.281, 317.433 237.644 C 315.625 230.552, 309.689 217.933, 307.028 215.525 C 305.314 213.974, 305.024 214.140, 301.936 218.440 C 300.135 220.948, 298.074 223, 297.356 223 C 296.639 223, 295.335 221.614, 294.459 219.921 C 292.918 216.941, 292.964 216.691, 295.866 212.230 C 299.614 206.469, 299.223 205.632, 289.900 199.434 C 277.722 191.338, 260.086 185.727, 258.642 189.490 M 361.500 216.525 C 358.200 217.254, 350.325 219.669, 344 221.893 C 329.860 226.865, 327.478 229.020, 328.506 235.910 C 328.882 238.434, 329.770 241.892, 330.478 243.593 C 331.736 246.613, 331.963 246.701, 340.133 247.337 C 344.735 247.695, 363.893 247.991, 382.707 247.994 L 416.914 248 411.878 243.289 C 409.108 240.698, 405.086 235.571, 402.939 231.895 C 398.385 224.098, 392.948 219.991, 383.187 216.976 C 375.925 214.733, 370.161 214.613, 361.500 216.525 M 132 217.363 C 122.230 220.214, 116.822 224.411, 108.022 235.971 C 102.106 243.743, 98.238 246.945, 89.535 251.281 L 84.570 253.754 90.839 256.919 C 94.913 258.975, 100.588 263.413, 107.041 269.588 C 114.286 276.521, 118.803 279.959, 123.737 282.296 C 130.080 285.301, 131.183 285.499, 141.500 285.487 C 151.062 285.475, 153.546 285.099, 160.500 282.607 C 171.844 278.541, 179.691 274.401, 181.614 271.467 C 182.908 269.492, 183.122 267.695, 182.597 263.221 C 182.228 260.074, 181.380 256.969, 180.713 256.319 C 179.024 254.674, 112.580 252.506, 100.735 253.709 C 95.914 254.199, 91.414 254.247, 90.735 253.815 C 89.821 253.234, 89.890 253.024, 91 253.006 C 91.825 252.992, 104.200 251.863, 118.500 250.497 C 132.800 249.132, 152.525 247.714, 162.332 247.346 C 182.424 246.594, 182.232 246.675, 183.570 238.297 C 185.027 229.166, 183.748 228.083, 163.200 221.049 C 149.366 216.313, 139.567 215.155, 132 217.363 M 389.500 252.064 C 377.400 253.645, 360.176 255.249, 351.225 255.627 C 341.974 256.019, 334.292 256.797, 333.426 257.430 C 331.483 258.851, 330.458 268.586, 331.869 272.217 C 333.178 275.583, 341.876 280.168, 352.201 282.935 C 363.075 285.849, 367.899 286.288, 374.971 285.005 C 385.524 283.092, 391.585 279.329, 401.479 268.551 C 407.312 262.196, 412.749 257.429, 417.635 254.383 C 421.686 251.859, 425 249.615, 425 249.396 C 425 248.303, 409.182 249.492, 389.500 252.064 M 442.605 256.523 C 431.200 259.654, 423.186 265.325, 415.265 275.870 C 404.086 290.753, 396.832 295.310, 377.735 299.447 L 374.970 300.046 378.940 305.305 C 387.414 316.529, 390.943 328.584, 391 346.500 C 391.046 361.098, 392.926 369.429, 398.907 381.533 C 405.303 394.479, 406.619 395.717, 412.253 394.084 C 421.097 391.521, 440.656 366.804, 450.328 345.967 C 460.601 323.835, 469.041 289.053, 468.968 269.151 C 468.935 260.182, 468.246 258.256, 464.316 256.163 C 461.426 254.624, 448.755 254.834, 442.605 256.523 M 54.802 256.912 C 49.290 258.039, 48.288 259.361, 47.703 266.277 C 47.413 269.700, 46.622 275.828, 45.946 279.896 C 42.858 298.455, 52.382 334.515, 67.248 360.551 C 74.498 373.249, 88.203 392.432, 91.628 394.676 C 98.601 399.245, 109.364 387.634, 114.968 369.500 C 116.402 364.859, 117.436 357.782, 118.037 348.500 C 119.425 327.057, 122.437 317.604, 131.891 305.022 L 136.004 299.548 127.773 297.778 C 113.118 294.625, 109.091 291.788, 89.500 270.814 C 83.537 264.430, 81.389 262.864, 75 260.247 C 66.640 256.823, 60.333 255.782, 54.802 256.912 M 443.157 276.750 C 442.655 277.712, 440.348 285.226, 438.029 293.446 C 432.963 311.411, 427.307 326.209, 419.089 343 C 415.725 349.875, 412.303 357.719, 411.486 360.432 C 409.704 366.345, 409.529 373, 411.155 373 C 413.659 373, 425.615 358.535, 432.233 347.500 C 446.005 324.535, 453.658 290.317, 447.866 277.605 C 446.495 274.596, 444.473 274.229, 443.157 276.750 M 64.797 282.250 C 62.918 285.570, 63.273 302.001, 65.429 311.500 C 68.093 323.236, 73.549 338.321, 78.630 348 C 84.948 360.033, 94.051 372.500, 96.518 372.500 C 100.268 372.500, 98.924 364.229, 92.457 347.500 C 89.268 339.250, 83.349 322.600, 79.303 310.500 C 69.462 281.065, 69.048 280, 67.452 280 C 66.692 280, 65.497 281.012, 64.797 282.250 M 175.500 290.356 C 161.980 295.966, 151.056 301.907, 146.446 306.156 C 139.490 312.568, 135 324.269, 135 335.984 C 135 343.473, 132.537 353.507, 128.061 364.245 C 125.828 369.604, 124 374.185, 124 374.424 C 124 374.664, 125.915 373.789, 128.256 372.480 C 136.354 367.954, 143.019 366.911, 159.177 367.639 C 179.542 368.557, 188.045 366.005, 197.190 356.228 C 202.488 350.564, 215 326.389, 215 321.817 C 215 319.635, 213.954 318.252, 210.250 315.535 C 207.637 313.618, 204.682 312.038, 203.683 312.025 C 202.683 312.011, 198.408 315.660, 194.183 320.133 C 183.285 331.668, 169.172 344.079, 157.710 352.206 C 152.291 356.048, 147.680 359.013, 147.462 358.796 C 146.829 358.162, 161.112 341.874, 178.267 323.665 C 186.990 314.406, 194.497 305.856, 194.950 304.665 C 195.462 303.317, 195.271 301.278, 194.442 299.261 C 192.250 293.926, 187.022 286.999, 185.202 287.018 C 184.266 287.028, 179.900 288.530, 175.500 290.356 M 322.676 291.250 C 319.939 294.918, 318 298.441, 318 299.747 C 318 300.230, 323.903 306.897, 331.119 314.562 C 348.701 333.242, 371.812 362, 369.243 362 C 367.249 362, 353.159 349.312, 334.536 330.745 C 323.555 319.798, 313.824 310.441, 312.910 309.952 C 311.657 309.281, 309.684 310.300, 304.875 314.101 C 294.506 322.295, 294.643 322.007, 297.498 329.591 C 303.606 345.819, 314.047 359.193, 324.500 364.177 C 330.421 367.001, 330.724 367.037, 347.500 366.898 C 365.780 366.747, 368.912 367.250, 379.626 372.056 C 383.290 373.700, 386.427 374.906, 386.598 374.736 C 386.768 374.565, 384.642 369.334, 381.874 363.110 C 376.924 351.981, 376.160 348.943, 374.060 332.018 C 372.164 316.737, 366.828 309.456, 352.101 302.051 C 347.732 299.854, 340.327 295.794, 335.645 293.029 C 330.962 290.263, 326.674 288, 326.116 288 C 325.558 288, 324.010 289.462, 322.676 291.250 M 267.578 330.120 C 260.686 331.737, 260.742 331.564, 261.521 348.946 C 262.228 364.731, 260.488 408.814, 259.100 410.266 C 258.697 410.688, 257.812 403.038, 257.133 393.266 C 254.559 356.224, 252.969 338.811, 251.993 336.988 C 250.071 333.395, 246.798 332, 240.293 332 C 234.873 332, 233.617 332.370, 230.950 334.754 C 227.024 338.262, 224.116 348.077, 223.314 360.533 C 222.348 375.530, 225.469 383.330, 237.508 396 C 240.904 399.575, 245.150 404.673, 246.944 407.328 C 250.693 412.881, 255 422.942, 255 426.147 C 255 429.685, 256.027 427.645, 257.565 421.052 C 259.706 411.874, 261.316 409.448, 272.686 398.272 C 285.738 385.442, 288.222 380.696, 288.797 367.500 C 289.216 357.886, 287.840 349.992, 283.919 339.512 C 280.194 329.556, 277.235 327.856, 267.578 330.120 M 200.913 368.865 C 185.267 380.038, 173.353 382.650, 150.692 379.874 C 142.869 378.916, 140.532 378.993, 135 380.390 C 123.159 383.380, 111.476 394.035, 110.282 402.934 C 109.456 409.093, 112.984 415.167, 123.412 425.542 C 159.808 461.753, 223.194 478.472, 246.298 457.955 L 250.500 454.223 250.444 443.862 C 250.370 430.199, 248.593 426.135, 238.757 417.138 C 226.698 406.109, 218.629 397.666, 215.202 392.492 C 211.198 386.447, 208 376.412, 208 369.895 C 208 367.203, 207.623 365, 207.163 365 C 206.702 365, 203.890 366.739, 200.913 368.865 M 303.291 373.113 C 302.795 387.550, 297.277 396.647, 280.641 410.453 C 268.199 420.779, 264.953 425.226, 262.166 435.760 C 256.713 456.377, 258.185 459.288, 277.012 465.116 C 299.446 472.059, 336.495 462.236, 368.712 440.802 C 388.620 427.557, 400.082 413.471, 398.420 404.293 C 396.371 392.984, 387.174 383.843, 374.530 380.550 C 367.417 378.697, 361.104 378.604, 348.401 380.165 C 333.802 381.959, 321.267 378.784, 308.632 370.091 C 306.161 368.391, 303.996 367.004, 303.820 367.009 C 303.644 367.014, 303.406 369.761, 303.291 373.113 M 136.377 400.459 C 135.574 402.554, 137.749 408.738, 141.241 414.284 C 147.524 424.266, 165.288 437.714, 180.085 443.690 C 196.248 450.219, 221.240 450.631, 227.033 444.464 C 230.660 440.605, 229.176 439.541, 218.263 438.180 C 191.713 434.866, 176.111 427.792, 148.631 406.608 C 143.203 402.424, 138.351 399, 137.849 399 C 137.348 399, 136.685 399.656, 136.377 400.459 M 369.924 400.784 C 367.983 401.773, 362.594 405.544, 357.947 409.164 C 336.222 426.088, 323.354 432.205, 298.312 437.510 C 291.816 438.887, 285.488 440.244, 284.250 440.525 C 280.493 441.381, 281.496 444.469, 286.223 446.598 C 292.753 449.539, 311.910 449.307, 322 446.165 C 337.166 441.442, 352.953 432.184, 363.824 421.636 C 371.358 414.327, 374.942 408.643, 375.264 403.497 C 375.549 398.934, 374.549 398.426, 369.924 400.784" stroke="none" fill="black" fill-rule="evenodd"/>
</svg>