<svg xmlns="http://www.w3.org/2000/svg" width="512" height="512" viewBox="0 0 512 512" version="1.1">
	<path d="M 240 21.461 C 239.175 21.659, 235.125 22.362, 231 23.025 C 197.184 28.459, 163.729 47.603, 149.547 69.637 C 146.713 74.040, 144.088 76.677, 140.256 78.968 C 126.309 87.310, 108.656 103.148, 96.336 118.371 C 62.075 160.706, 42.701 221.800, 46.897 274.271 C 50.087 314.159, 59.802 345.379, 78.665 376.355 C 95.066 403.288, 118.631 428.023, 143.500 444.408 C 196.276 479.179, 259.555 487.988, 317.219 468.591 C 384.195 446.060, 433.446 395.221, 455.454 325.898 C 471.621 274.971, 468.470 221.334, 446.299 170.057 C 429.005 130.061, 400.337 95.173, 370.619 77.955 C 366.332 75.472, 363.529 72.927, 361.256 69.455 C 353.292 57.289, 337.928 44.540, 321 36.049 C 300.566 25.799, 284.457 21.980, 259.500 21.471 C 249.600 21.269, 240.825 21.264, 240 21.461 M 237.099 43.118 C 220.748 45.014, 204.202 50.896, 190.717 59.608 C 181.909 65.298, 162.718 80.051, 163.329 80.662 C 163.572 80.906, 173.911 76.131, 186.304 70.052 C 198.697 63.974, 209.564 59, 210.453 59 C 213.156 59, 210.606 62.496, 199.597 73.886 C 194.044 79.633, 190.175 83.945, 191 83.469 C 193.380 82.097, 205.739 73.235, 214.902 66.331 C 227.248 57.029, 227.868 57.725, 217.560 69.311 C 211.133 76.535, 196.496 89.730, 189 95.058 C 181.650 100.282, 182.033 100.557, 190.442 96.092 C 209.491 85.979, 226.280 73.419, 234.171 63.377 C 236.964 59.823, 239.423 57.089, 239.635 57.302 C 240.505 58.172, 236.644 66.903, 232.327 73.829 C 225.446 84.869, 217.015 95.032, 209.054 101.885 C 200.841 108.953, 201.070 109.812, 209.584 103.875 C 225.080 93.071, 238.287 80.065, 245.244 68.758 C 246.854 66.141, 248.486 64, 248.870 64 C 249.254 64, 250.345 65.314, 251.293 66.919 C 259.530 80.864, 285.321 101.897, 310.319 115.057 C 315.708 117.894, 320.391 119.942, 320.725 119.608 C 321.060 119.274, 320.829 119, 320.212 119 C 319.595 119, 313.760 115.437, 307.245 111.083 C 294.124 102.312, 278.729 88.368, 269.839 77.203 C 263.760 69.568, 258.448 61.219, 259.194 60.473 C 259.434 60.233, 263.201 62.657, 267.565 65.860 C 281.353 75.979, 306.151 92.476, 315.724 97.897 C 324.012 102.590, 339.283 109, 342.177 109 C 342.792 109, 338.392 106.587, 332.398 103.638 C 319.680 97.380, 309.776 90.242, 294.430 76.274 C 283.094 65.956, 278.816 61, 281.245 61 C 283.375 61, 297.093 70.616, 314 83.962 C 322.261 90.483, 323.089 90.942, 320.349 87.480 C 318.616 85.291, 312.629 78.550, 307.045 72.500 C 301.460 66.450, 296.417 60.652, 295.838 59.615 C 294.886 57.910, 295.059 57.795, 297.642 58.414 C 301.998 59.458, 331.695 74.320, 338.624 78.923 C 341.992 81.161, 347.563 85.806, 351.004 89.246 C 357.983 96.223, 356.869 93.554, 348.395 82.996 C 336.003 67.555, 310.039 51.509, 288.559 46.015 C 273.202 42.087, 254.880 41.056, 237.099 43.118 M 243.089 92.525 C 241.236 95.106, 235.620 101.507, 230.610 106.748 C 215.115 122.958, 200.449 133.937, 182.065 143.089 C 175.429 146.393, 170 149.554, 170 150.115 C 170 150.675, 170.969 157.066, 172.153 164.317 C 173.751 174.105, 174.268 181.328, 174.161 192.364 C 174.028 205.938, 174.325 208.674, 177.580 223.864 C 182.138 245.134, 186.318 257.728, 191.366 265.399 C 196.517 273.227, 216.037 292.690, 227 300.928 C 239.650 310.434, 246.723 313.500, 256 313.500 C 262.143 313.500, 264.495 313.008, 269 310.784 C 278.196 306.242, 294.862 292.907, 307.006 280.374 C 322.977 263.891, 326.362 257.053, 333.180 227.500 C 336.219 214.324, 336.417 212.293, 336.541 193 C 336.645 176.903, 337.125 170.030, 338.778 161 C 339.936 154.675, 340.572 149.220, 340.192 148.878 C 339.811 148.536, 336.125 147.459, 332 146.487 C 309.962 141.288, 288.130 129.778, 269.865 113.726 C 264.802 109.277, 259.777 103.760, 248.480 90.249 L 246.459 87.833 243.089 92.525 M 382.495 123.401 C 378.909 134.754, 370.227 139.958, 350.581 142.529 C 344.700 143.299, 345.975 144.603, 353.533 145.547 C 363.683 146.816, 376.435 142.685, 382.025 136.319 C 385.280 132.612, 386.631 126.200, 385.262 120.958 L 384.358 117.500 382.495 123.401 M 390 119.707 C 390 120.347, 392.680 128.111, 395.955 136.960 C 406.155 164.523, 409.021 177.832, 408.965 197.381 C 408.900 219.955, 405.141 233.409, 390.909 262 C 377.829 288.277, 375.731 295.846, 380.016 301.293 C 384.251 306.677, 393.510 307.215, 403.419 302.653 C 415.067 297.290, 418.859 288.920, 415.384 276.250 C 414.327 272.398, 416.599 273.770, 420.351 279.250 C 431.848 296.044, 428.677 313.246, 412.744 320.506 C 407.218 323.024, 397.397 324.980, 390.219 324.992 C 385.179 325.001, 383.788 327, 386.629 330.148 C 387.658 331.289, 392.059 334.013, 396.409 336.202 C 411.323 343.707, 415.605 348.066, 416.160 356.307 C 416.297 358.338, 416.717 360, 417.093 360 C 418.331 360, 426.037 344.180, 430.129 333.238 C 435.299 319.412, 441.490 295.195, 443.036 282.746 C 444.583 270.291, 443.792 240.596, 441.591 228.500 C 434.880 191.630, 419.705 155.286, 401.587 132.695 C 392.280 121.090, 390 118.534, 390 119.707 M 115.464 127.787 C 94.537 153.404, 81.244 179.883, 73.649 211.080 C 65.926 242.805, 66.030 280.783, 73.924 311.702 C 82.322 344.595, 99.189 375.603, 120.904 398.069 C 129.430 406.890, 130.690 406.455, 128.390 395.486 C 126.497 386.454, 126.867 371.003, 129 370.022 C 129.825 369.642, 138.150 366.798, 147.500 363.703 C 166.107 357.542, 192.051 347.081, 196 344.148 C 197.375 343.127, 199.283 340.954, 200.240 339.320 C 202.830 334.898, 203.987 320.477, 202.958 305.428 C 202.472 298.318, 202.058 291.868, 202.037 291.095 C 202.017 290.322, 190.610 278.172, 176.690 264.095 C 145.726 232.783, 136.464 220.867, 126.098 199 C 119.414 184.903, 116.806 174.464, 116.241 159.550 C 115.722 145.834, 116.809 136.775, 120.133 127.112 C 121.163 124.120, 121.814 121.481, 121.580 121.247 C 121.346 121.013, 118.594 123.956, 115.464 127.787 M 124.713 125.620 C 122.064 128.269, 125.940 139.981, 130.790 143.978 C 137.862 149.808, 152.569 150.232, 162 144.877 C 164.738 143.322, 164.956 143.018, 163 143.480 C 161.625 143.806, 157.350 144.333, 153.500 144.652 C 140.562 145.724, 134.200 142.310, 128.659 131.319 C 126.881 127.792, 125.106 125.228, 124.713 125.620 M 383.456 150.662 C 378.005 156.272, 370.802 158.398, 359.291 157.794 C 354.676 157.551, 350.650 157.757, 350.345 158.251 C 349.362 159.841, 354.249 163.990, 358.435 165.118 C 370.518 168.376, 385.727 161.301, 387.552 151.575 C 388.544 146.288, 387.855 146.135, 383.456 150.662 M 186.396 157.090 C 184.139 157.623, 181.214 159.233, 179.896 160.667 L 177.500 163.274 180.500 162.605 C 192.984 159.824, 197.593 160.856, 214.037 170.114 C 227.694 177.802, 230.965 178.951, 232.823 176.713 C 235.039 174.043, 232.907 172.111, 221.155 166.139 C 203.516 157.175, 195.197 155.009, 186.396 157.090 M 303 159.318 C 292.663 163.093, 276.954 170.956, 276.290 172.688 C 275.402 175.002, 277.446 177.539, 279.965 177.249 C 281.165 177.111, 287.347 174.011, 293.704 170.362 C 300.061 166.712, 307.299 163.112, 309.790 162.363 C 315.160 160.746, 322.802 160.594, 326.574 162.028 C 330.204 163.408, 330.878 162.434, 328.167 159.722 C 324.746 156.300, 311.831 156.093, 303 159.318 M 294.353 179.596 C 286.468 182.356, 281.244 186.641, 277.992 193.016 C 276.009 196.903, 275.413 200, 276.649 200 C 277.006 200, 279.805 197.936, 282.870 195.413 C 286.619 192.326, 288.575 191.263, 288.848 192.163 C 290.640 198.060, 298.327 199.942, 301.927 195.365 C 303.067 193.916, 304 192.116, 304 191.365 C 304 190.614, 304.438 190, 304.973 190 C 305.744 190, 314.165 193.628, 315.889 194.703 C 316.104 194.836, 315.137 196.442, 313.742 198.271 C 312.168 200.336, 309.811 201.958, 307.529 202.549 C 302.841 203.762, 302.859 205.257, 307.576 206.382 C 310.573 207.096, 311.446 206.954, 312.186 205.632 C 312.688 204.734, 313.752 204, 314.550 204 C 316.326 204, 316.472 202.337, 314.750 201.714 C 314.052 201.462, 314.826 200.654, 316.500 199.886 C 321.736 197.484, 329.980 188.220, 329.993 184.724 C 330 183.079, 329.782 183.061, 327.047 184.476 C 324.245 185.925, 323.969 185.878, 321.650 183.559 C 319.273 181.182, 312.094 178.610, 305 177.595 C 302.725 177.270, 298.998 177.970, 294.353 179.596 M 199.734 179.088 C 194.985 180.207, 188.307 183.579, 187.794 185.117 C 187.500 186.001, 186.882 186.007, 185.268 185.143 C 181.731 183.250, 180.995 183.688, 182.149 186.998 C 183.306 190.317, 190.263 198.061, 193.713 199.870 C 194.930 200.508, 195.729 201.586, 195.490 202.265 C 195.250 202.944, 196.195 204.330, 197.591 205.345 C 199.760 206.922, 200.554 207.013, 203.064 205.974 C 206.634 204.495, 206.798 203.417, 203.577 202.609 C 200.618 201.866, 194.796 197.113, 195.234 195.798 C 195.511 194.967, 205.207 191.122, 207.250 191.033 C 207.662 191.015, 208 191.867, 208 192.927 C 208 195.036, 212.397 199, 214.735 199 C 215.541 199, 217.775 197.425, 219.700 195.500 C 221.625 193.575, 223.514 192, 223.897 192 C 224.280 192, 226.352 193.800, 228.500 196 C 230.648 198.200, 232.813 200, 233.311 200 C 234.674 200, 233.225 195.316, 230.553 191.084 C 224.233 181.072, 211.821 176.241, 199.734 179.088 M 296.088 188.945 C 295.349 189.402, 295.053 190.277, 295.431 190.888 C 296.254 192.219, 298.663 192.355, 299.430 191.113 C 300.281 189.737, 297.610 188.005, 296.088 188.945 M 214 191 C 214 192.506, 214.522 193.046, 215.750 192.810 C 216.713 192.624, 217.500 191.810, 217.500 191 C 217.500 190.190, 216.713 189.376, 215.750 189.190 C 214.522 188.954, 214 189.494, 214 191 M 209 205.500 C 209 207.445, 213.004 207.464, 215.559 205.532 C 217.365 204.166, 217.204 204.061, 213.250 204.032 C 210.125 204.008, 209 204.397, 209 205.500 M 293.441 205.490 C 295.832 207.350, 301.346 207.546, 300.756 205.750 C 300.528 205.059, 298.369 204.384, 295.922 204.240 C 291.808 203.997, 291.635 204.084, 293.441 205.490 M 163 212.435 C 163 218.488, 167.262 224, 171.941 224 C 173.559 224, 175.109 223.633, 175.386 223.185 C 175.890 222.369, 164.880 210, 163.651 210 C 163.293 210, 163 211.096, 163 212.435 M 344.116 216.391 C 337.813 222.311, 337.290 223.085, 338.983 223.991 C 341.878 225.540, 343.585 225.220, 346.786 222.527 C 349.577 220.178, 353.015 211.682, 351.705 210.371 C 351.391 210.057, 347.976 212.766, 344.116 216.391 M 231 239.477 C 231 242.683, 235.058 245.453, 238.493 244.591 C 241.945 243.725, 241.631 242.291, 237.622 240.615 C 235.764 239.839, 233.938 238.708, 233.563 238.102 C 232.373 236.176, 231 236.912, 231 239.477 M 272.742 239.901 C 268.598 242.577, 268.501 242.860, 271.361 243.947 C 275.197 245.406, 279.236 243.679, 278.819 240.759 C 278.415 237.926, 276.270 237.624, 272.742 239.901 M 220.145 263.128 C 220.998 264.433, 224.802 268.147, 228.598 271.383 C 243.295 283.909, 256.071 286.686, 269.220 280.212 C 275.648 277.048, 290.912 264.829, 291.793 262.142 C 292.291 260.625, 293.671 260.484, 269.311 264.442 L 254.122 266.910 241.811 264.544 C 235.040 263.242, 227.046 261.857, 224.047 261.467 L 218.594 260.757 220.145 263.128 M 244.494 273.021 C 251.115 276.102, 256.644 276.370, 264.347 273.982 C 268.112 272.815, 270.986 271.653, 270.733 271.400 C 270.480 271.147, 267.026 271.443, 263.059 272.059 C 257.809 272.873, 254.141 272.882, 249.590 272.089 C 241.047 270.601, 239.790 270.831, 244.494 273.021 M 290 308.624 C 275.872 318.787, 260.181 328.005, 257.054 327.978 C 252.237 327.937, 236.859 319.426, 223.368 309.335 C 219.445 306.401, 215.756 304, 215.170 304 C 214.462 304, 214.141 308.770, 214.211 318.250 C 214.331 334.392, 212.952 342.715, 209.472 346.851 C 207.852 348.776, 202.356 351.700, 192.295 355.990 C 170.188 365.417, 165 367.999, 165 369.572 C 165 370.358, 165.338 371.003, 165.750 371.008 C 166.162 371.012, 169.200 371.439, 172.500 371.956 C 175.800 372.474, 185.700 373.381, 194.500 373.972 C 226.968 376.152, 235.067 378.588, 242.089 388.281 C 244.822 392.055, 246.196 399, 244.208 399 C 243.773 399, 241.439 396.985, 239.022 394.523 C 230.065 385.396, 223.446 383.886, 179.218 380.878 C 156.802 379.353, 157.138 379.208, 158.947 389.655 C 161.265 403.038, 170.137 424.102, 177.984 434.853 C 181.575 439.773, 190.818 444.640, 206.533 449.886 C 223.932 455.695, 234.645 457.383, 254.500 457.444 C 274.668 457.507, 285.283 455.814, 304.796 449.424 C 320.335 444.336, 330.268 438.820, 333.979 433.218 C 341.625 421.674, 350.344 400.640, 353.186 386.878 C 354.839 378.873, 353.862 378.023, 344.298 379.153 C 340.559 379.594, 327.749 380.856, 315.830 381.956 C 284.497 384.847, 281.337 385.802, 272.273 395.106 L 267.134 400.381 266.473 397.748 C 265.539 394.029, 270.408 385.400, 275.711 381.375 C 281.126 377.264, 284.990 376.456, 311 373.989 C 322.825 372.868, 335.165 371.524, 338.422 371.003 C 350.706 369.038, 348.965 366.829, 326.687 356.116 C 308.980 347.601, 308.277 347.150, 306.733 343.290 C 303.989 336.433, 302 323.235, 302 311.890 C 302 305.900, 301.663 301.016, 301.250 301.035 C 300.837 301.054, 295.775 304.469, 290 308.624 M 383.007 368.796 C 385.145 371.687, 385.256 372.543, 384.690 381.696 C 384.356 387.088, 383.359 394.148, 382.475 397.384 C 381.258 401.839, 381.149 403.539, 382.027 404.384 C 382.893 405.217, 385.077 403.481, 390.634 397.546 C 404.048 383.220, 405.916 378.783, 400.827 373.331 C 398.317 370.640, 390.696 367.295, 385.005 366.385 L 380.718 365.699 383.007 368.796 M 367.657 411.250 C 364.318 416.657, 360.258 425, 360.966 425 C 361.391 425, 364.049 423.161, 366.872 420.913 C 372.272 416.613, 374.056 412.978, 371.989 410.487 C 370.291 408.441, 369.281 408.619, 367.657 411.250 M 141.250 410.662 C 138.541 411.755, 140.022 415.951, 144.699 420.433 C 147.283 422.909, 149.562 424.771, 149.763 424.570 C 150.123 424.210, 143.198 409.926, 142.737 410.079 C 142.607 410.122, 141.938 410.385, 141.250 410.662" stroke="none" fill="black" fill-rule="evenodd"/>
</svg>