<svg xmlns="http://www.w3.org/2000/svg" width="512" height="512" viewBox="0 0 512 512" version="1.1">
	<path d="M 220 30.080 C 200.170 31.751, 175.898 40.186, 161.648 50.359 C 153.374 56.266, 141.581 68.786, 135.119 78.523 C 128.621 88.314, 116.690 112.622, 110.958 127.750 C 108.613 133.938, 106.173 139, 105.536 139 C 104.899 139, 103.411 138.100, 102.230 137 C 101.050 135.900, 99.840 135, 99.542 135 C 98.191 135, 99.219 140.113, 101.389 144.196 C 103.544 148.248, 103.776 149.909, 103.754 161.095 C 103.735 170.409, 104.260 175.700, 105.864 182.329 C 110.530 201.618, 107.139 211, 95.500 211 C 87.292 211, 83.016 206.403, 82.967 197.527 L 82.933 191.500 80.999 193.821 C 76.847 198.802, 77.438 209.242, 82.450 219.486 C 88.055 230.944, 101.752 240.607, 114.229 241.907 C 117.678 242.267, 121.063 242.911, 121.750 243.339 C 123.817 244.627, 123.221 251.376, 120.711 255.102 C 117.245 260.248, 110.850 263.345, 103.516 263.430 C 99.193 263.479, 96.598 262.966, 94.620 261.670 C 93.083 260.664, 91.580 260.087, 91.279 260.388 C 90.165 261.502, 93.570 267.621, 97.474 271.524 C 103.235 277.282, 109.895 280.113, 119.178 280.750 L 126.910 281.280 125.387 284.890 C 122.931 290.714, 123.444 299.339, 126.634 305.885 C 131.716 316.309, 146.415 328, 154.438 328 C 157.805 328, 157.674 326.874, 153.989 324.150 C 149.619 320.919, 145.973 314.899, 145.813 310.652 C 145.635 305.907, 148.407 302.909, 156.789 298.783 C 168.170 293.180, 178.680 294.146, 182.974 301.190 C 186.671 307.253, 185.430 310.900, 177.901 316.103 L 175.581 317.706 178.041 319.094 C 179.393 319.858, 183.875 320.712, 188 320.992 L 195.500 321.500 195.493 332 C 195.482 348.278, 195.105 348.804, 172.897 363.500 C 146.501 380.967, 138.657 385.261, 127.302 388.455 C 114.261 392.123, 110.713 394.267, 104.897 401.991 C 97.485 411.834, 95.651 417.380, 95.636 430 C 95.627 437.007, 96.102 441.566, 97.062 443.704 C 98.525 446.963, 109.899 459.434, 110.688 458.645 C 110.926 458.407, 109.912 453.778, 108.436 448.358 C 106.160 440.004, 105.833 437.207, 106.290 430.001 C 106.862 420.982, 109.011 413.346, 112.302 408.631 C 114.627 405.301, 123.078 399.643, 124.075 400.748 C 124.447 401.162, 125.764 404.650, 127.001 408.500 C 130.541 419.518, 136.574 430.328, 142.036 435.436 C 146.298 439.424, 147.470 440, 151.314 440 C 154.616 440, 158.804 441.472, 168.106 445.902 C 182.623 452.814, 192.625 456.107, 209.343 459.477 C 227.783 463.194, 245.994 464.405, 263.167 463.058 C 294.342 460.611, 316.830 453.186, 336 439.008 C 339.575 436.364, 344.621 433.174, 347.212 431.920 C 349.804 430.665, 352.190 428.947, 352.514 428.102 C 352.838 427.257, 352.546 422.629, 351.865 417.817 C 350.406 407.507, 351.683 394.766, 354.905 387.482 C 357.113 382.491, 358.708 381.459, 362.674 382.454 C 367.288 383.612, 370.062 387.968, 374.485 401 C 376.818 407.875, 379.698 416.103, 380.885 419.285 C 385.601 431.932, 387.072 445.076, 384.995 456.025 C 384.443 458.939, 384.229 461.563, 384.521 461.855 C 384.813 462.147, 387.725 459.740, 390.993 456.507 C 398.269 449.306, 398.491 448.236, 397.130 426.874 C 396.260 413.213, 395.750 410.258, 393.072 403.374 C 391.387 399.043, 390.007 395.129, 390.005 394.675 C 390.002 394.221, 395.512 388.146, 402.250 381.175 C 408.988 374.204, 417.447 364.571, 421.049 359.768 C 440.089 334.382, 452.684 305.984, 459.235 273.670 C 462.406 258.026, 462.393 224.309, 459.207 207 C 451.541 165.340, 432.782 126.671, 407.182 99.761 C 390.709 82.443, 369.618 67.129, 347.500 56.425 C 323.872 44.991, 303.694 39.644, 278.107 38.037 C 266.122 37.285, 263.627 36.806, 257.176 34.022 C 250.648 31.205, 237.001 28.669, 231 29.158 C 230.175 29.225, 225.225 29.640, 220 30.080 M 252.652 55.947 C 253.118 56.357, 257.775 58.154, 263 59.941 C 283.388 66.915, 299.079 76.096, 309.516 87.158 C 314.720 92.673, 315.541 93.215, 315.811 91.318 C 317.372 80.351, 287.418 61.872, 259.652 56.673 C 255.335 55.864, 252.185 55.538, 252.652 55.947 M 182.436 58.021 C 177.712 59.470, 171.999 65.713, 172.006 69.417 L 172.013 72.500 176.022 67.822 C 185.650 56.590, 195.924 58.612, 228 78.053 C 251.426 92.251, 262.074 96.354, 265.806 92.623 C 267.313 91.115, 267.288 90.853, 265.468 89.144 C 264.386 88.127, 260.800 86.264, 257.500 85.004 C 254.200 83.744, 239.813 77.044, 225.529 70.115 C 200.470 57.959, 199.311 57.509, 192.529 57.299 C 188.663 57.179, 184.121 57.504, 182.436 58.021 M 311.660 61.855 C 314.322 63.975, 317.400 66.724, 318.500 67.964 C 319.600 69.204, 324.133 72.842, 328.572 76.049 C 343.898 87.118, 349.800 101.489, 345.397 117.015 C 344.057 121.739, 343.635 126.085, 343.843 133.021 C 344.501 155.007, 338.261 177.161, 324.324 202.327 L 321.651 207.154 323.057 217.327 C 323.831 222.922, 324.472 231.413, 324.482 236.196 L 324.500 244.891 315.843 261.696 C 311.081 270.938, 305.582 283.116, 303.624 288.758 C 299.302 301.205, 298.603 302.609, 294.662 306.773 C 292.491 309.066, 289.518 310.654, 284.728 312.081 C 280.969 313.201, 277.634 314.789, 277.319 315.612 C 276.397 318.014, 278.788 327.951, 281.876 334.549 C 286.113 343.603, 294.575 349.735, 315 358.554 C 333.428 366.511, 344.962 369.978, 353.040 369.989 C 362.045 370.002, 371.113 372.174, 376.229 375.544 C 378.279 376.895, 380.959 378, 382.185 378 C 385.772 378, 405.265 357.430, 413.859 344.575 C 436.570 310.604, 448.109 268.318, 445.027 230.363 C 440.677 176.783, 419.712 130.501, 386.345 100.816 C 366.862 83.483, 343.270 69.300, 321.062 61.570 C 307.439 56.828, 305.426 56.889, 311.660 61.855 M 236.500 64.408 C 238.150 65.093, 243.775 67.191, 249 69.071 C 254.225 70.951, 264.125 75.372, 271 78.894 C 277.875 82.417, 288.470 87.851, 294.544 90.969 C 300.618 94.088, 308.340 97.223, 311.705 97.937 C 319.797 99.655, 331.418 99.010, 333.711 96.717 C 335.334 95.094, 334.983 95, 327.304 95 C 316.310 95, 306.300 91.620, 283.500 80.211 C 273.600 75.256, 262.132 70.004, 258.016 68.538 C 246.776 64.537, 228.231 60.977, 236.500 64.408 M 182.106 74.523 C 176.217 79.843, 175.010 83.330, 174.052 97.776 C 173.076 112.484, 170.707 119.733, 163.951 128.682 C 152.337 144.064, 128.709 151.944, 113.586 145.478 C 112.302 144.930, 111.891 145.015, 112.337 145.736 C 113.550 147.699, 122.266 150, 128.428 149.985 C 148.691 149.936, 168.394 137.854, 176.750 120.354 L 180.500 112.500 180.277 98.648 C 180.041 84.030, 180.603 81.479, 184.921 77.572 C 187.161 75.544, 191.977 74.994, 195.750 76.335 C 197.399 76.921, 198 76.757, 198 75.722 C 198 73.127, 194.475 71, 190.174 71 C 186.810 71, 185.254 71.679, 182.106 74.523 M 161.423 78.750 C 162.849 84.723, 163.188 95.897, 162.098 100.980 C 158.854 116.103, 147.970 129.487, 132.835 136.964 C 125.696 140.490, 125.074 140.985, 128.500 140.410 C 138.606 138.716, 149.319 132.586, 157.747 123.674 C 169.590 111.151, 172.944 94.715, 166.403 81.250 C 163.624 75.530, 160.250 73.836, 161.423 78.750 M 313 114.758 C 308.325 117.722, 301.416 121.719, 297.648 123.638 C 293.879 125.558, 290.998 127.331, 291.245 127.579 C 292.003 128.336, 305.169 123.938, 311 120.980 C 317.128 117.870, 322.365 112.945, 321.842 110.783 C 321.597 109.768, 319.097 110.892, 313 114.758 M 306.862 134.939 C 293.700 147.984, 273.131 159.539, 248.249 167.866 C 236.679 171.739, 220.891 175, 213.715 175 C 207.639 175, 206.367 175.914, 205.347 181.013 C 204.749 184.006, 204.872 184.257, 206.591 183.542 C 207.641 183.105, 211.875 181.638, 216 180.281 C 225.472 177.167, 234.035 177.516, 245.500 181.486 C 260.024 186.515, 263.216 188.916, 259.492 192.007 C 257.364 193.773, 252.423 192.750, 243.274 188.649 C 232.950 184.023, 227.454 182.667, 222.010 183.406 C 217.050 184.078, 205.158 187.748, 203.366 189.159 C 202.743 189.650, 200.796 194.203, 199.040 199.276 C 197.283 204.349, 193.856 212.208, 191.423 216.740 C 188.990 221.273, 187 225.923, 187 227.074 C 187 231.840, 191.399 246.095, 195.478 254.544 C 202.700 269.504, 217.582 283.687, 237.310 294.414 C 250.015 301.321, 259.843 304.279, 270 304.252 C 286.613 304.208, 293.164 300.286, 295.476 289 C 296.312 284.923, 307.691 259.248, 312.541 250.500 C 318.174 240.336, 318.596 236.903, 315.919 223.009 C 314.647 216.404, 313.274 211, 312.868 211 C 312.462 211, 310.976 211.439, 309.565 211.975 C 306.432 213.167, 306.300 212.196, 308.996 207.774 C 311.501 203.666, 311.491 202.894, 308.898 199.597 C 307.240 197.490, 306.502 197.168, 305.407 198.077 C 304.604 198.744, 304.253 200.160, 304.574 201.439 C 305.167 203.803, 302.809 206.618, 301.113 205.570 C 300.577 205.238, 299.826 205.473, 299.444 206.091 C 299.002 206.805, 297.286 206.981, 294.740 206.574 C 291.781 206.101, 290.268 206.352, 288.965 207.532 C 287.855 208.536, 286.964 208.751, 286.567 208.109 C 285.430 206.269, 288.610 200.576, 292.975 196.637 C 299.181 191.037, 304.591 188.924, 311.919 189.239 C 317.929 189.497, 318 189.534, 318.081 192.500 C 318.154 195.180, 318.463 194.860, 320.977 189.500 C 325.278 180.330, 325.543 178.204, 322.551 176.841 C 318.913 175.184, 312.624 177.898, 305.194 184.332 C 297.131 191.315, 294.186 192.907, 292.950 190.954 C 291.464 188.604, 291.765 187.999, 296.656 183.509 C 304.570 176.242, 311.659 172.497, 317.460 172.519 C 320.232 172.529, 323.248 172.900, 324.163 173.342 C 325.598 174.037, 325.925 173.217, 326.552 167.356 C 326.991 163.264, 326.809 157.490, 326.095 152.825 C 324.279 140.964, 318.578 125.577, 316.227 126.189 C 315.827 126.293, 311.613 130.231, 306.862 134.939 M 179.557 145.845 C 191.096 156.844, 218.228 159.108, 235.432 150.507 C 242.980 146.734, 243.145 146.771, 229.500 149.181 C 226.200 149.764, 217.425 150.259, 210 150.282 C 195.382 150.326, 188.432 148.965, 180 144.409 L 175.500 141.978 179.557 145.845 M 272.250 148.562 C 266.528 151.177, 264.938 152.889, 270.320 150.640 C 274.909 148.722, 279.709 146.071, 278.500 146.122 C 277.950 146.145, 275.137 147.243, 272.250 148.562 M 151.500 162.509 C 155.295 165.657, 161.680 168.686, 167.209 169.961 C 172.034 171.074, 181.019 171.314, 183.418 170.393 C 186.155 169.343, 185.140 168, 181.610 168 C 176.211 168, 162.262 165.076, 155.090 162.441 L 148.500 160.020 151.500 162.509 M 138 170.184 C 141.647 173.258, 151.536 177.687, 158.994 179.587 C 166.894 181.599, 183.581 181.130, 189 178.744 C 192.334 177.276, 191.930 177.228, 180.500 177.727 C 165.872 178.366, 155.499 176.635, 143.693 171.582 C 137.326 168.858, 136.057 168.546, 138 170.184 M 224 198.504 C 218.225 200.468, 212.960 202.788, 212.301 203.659 C 211.494 204.725, 210.288 205.038, 208.612 204.618 C 207.243 204.274, 205.873 204.396, 205.568 204.890 C 205.263 205.383, 206.136 206.068, 207.507 206.412 C 210.786 207.235, 210.780 209.382, 207.500 208.755 C 206.125 208.492, 205 208.568, 205 208.923 C 205 209.278, 207.363 211.869, 210.250 214.682 C 217.198 221.449, 222.457 224, 229.460 224 C 235.187 224, 236.734 222.625, 232.750 221.076 C 231.512 220.595, 229.150 218.771, 227.500 217.024 L 224.500 213.846 227.368 211.369 C 229.586 209.454, 230.898 209.038, 233.159 209.535 C 235.077 209.956, 236.914 209.631, 238.505 208.588 C 242.075 206.250, 244.608 206.640, 246.919 209.887 L 248.975 212.773 246.887 213.319 C 245.738 213.620, 245.096 214.346, 245.458 214.933 C 246.512 216.637, 247.472 216.205, 249.888 212.938 C 251.829 210.312, 252.002 209.421, 251.097 206.688 C 250.080 203.616, 250.205 203.677, 254.521 208.347 C 258.970 213.161, 259 213.174, 258.984 210.347 C 258.962 206.692, 255.293 200.276, 251.699 197.611 C 249.603 196.056, 247.089 195.458, 241.699 195.233 C 235.587 194.978, 232.915 195.472, 224 198.504 M 220.433 218.109 C 219.627 219.413, 221.716 220.963, 224.309 220.985 C 226.406 221.002, 225.732 219.462, 223.005 218.003 C 221.698 217.303, 220.911 217.336, 220.433 218.109 M 165.649 239.471 C 164.996 241.174, 167.463 244, 169.603 244 C 171.637 244, 172.474 241.276, 170.989 239.487 C 169.406 237.579, 166.379 237.570, 165.649 239.471 M 264.032 251.177 C 263.995 254.270, 268.052 258, 271.453 258 C 272.654 258, 276.063 258.720, 279.027 259.601 L 284.417 261.201 288.179 256.851 C 290.248 254.458, 291.954 252.190, 291.970 251.811 C 291.987 251.433, 286.363 251.389, 279.472 251.715 C 267.936 252.260, 266.831 252.156, 265.504 250.403 C 264.134 248.593, 264.062 248.631, 264.032 251.177 M 287 264.603 C 272.676 267.987, 257.747 271, 255.299 271 C 254.099 271, 252.822 271.478, 252.461 272.063 C 251.373 273.823, 254.664 276.544, 263.128 280.884 C 270.091 284.454, 272.013 285, 277.627 285 C 285.279 285, 289.319 283.219, 291.579 278.847 C 294.347 273.495, 297.985 263.105, 297.225 262.723 C 296.826 262.522, 292.225 263.368, 287 264.603 M 273.500 275 C 270.994 275.638, 271.405 275.780, 276 275.866 C 279.025 275.923, 282.175 275.533, 283 275 C 284.827 273.820, 278.139 273.820, 273.500 275 M 258.500 324.398 C 244.033 329.159, 231.389 334.302, 228.138 336.746 C 224.176 339.724, 224.167 338.788, 228.423 367.361 C 232.631 395.615, 231.266 405.461, 224.094 398.591 C 219.100 393.805, 213.349 392.927, 182.799 392.287 C 157.551 391.758, 154.862 391.860, 152.438 393.448 C 149.947 395.081, 149.805 395.579, 150.184 401.345 C 150.713 409.387, 156.194 420.862, 163.131 428.453 C 169.536 435.461, 179.466 440.469, 196.884 445.473 C 219.593 451.998, 230.019 453.484, 252 453.332 C 268.696 453.216, 273.154 452.839, 283 450.707 C 303.223 446.330, 322.105 437.851, 327.314 430.806 C 329.203 428.253, 329.239 427.643, 328.009 419.062 C 326.617 409.351, 327.031 401.048, 329.492 389.315 C 331.266 380.859, 330.411 377, 326.763 377 C 325.506 377, 319.083 378.110, 312.489 379.466 C 305.895 380.822, 292.400 383.092, 282.500 384.511 C 261.478 387.524, 258.008 388.332, 252.124 391.583 C 249.717 392.912, 247.580 394, 247.374 394 C 247.168 394, 247 392.735, 247 391.190 C 247 387.854, 251.787 382.534, 256.596 380.524 C 258.377 379.780, 271.234 377.529, 285.167 375.522 C 299.100 373.515, 310.861 371.519, 311.301 371.085 C 312.288 370.115, 309.662 368.359, 299.985 363.515 C 281.958 354.492, 275.121 347.973, 271.652 336.500 C 270.821 333.750, 269.547 329.507, 268.820 327.072 C 268.094 324.636, 267.050 322.520, 266.500 322.369 C 265.950 322.218, 262.350 323.131, 258.500 324.398 M 207.079 340.500 C 206.979 350.452, 206.027 354.876, 202.264 362.876 L 199.735 368.252 194.269 367.688 C 191.263 367.378, 187.610 367.570, 186.152 368.114 C 182.996 369.292, 162 383.003, 162 383.887 C 162 384.995, 219.946 384.583, 220.372 383.472 C 221.479 380.589, 212.883 343.965, 209.228 335.992 L 207.169 331.500 207.079 340.500" stroke="none" fill="black" fill-rule="evenodd"/>
</svg>