<svg xmlns="http://www.w3.org/2000/svg" width="512" height="512" viewBox="0 0 512 512" version="1.1">
	<path d="M 130.207 56.509 C 127.869 57.525, 126.334 59.251, 124.915 62.460 C 122.934 66.938, 122.918 68.837, 123.207 260.241 C 123.525 469.920, 123.153 456.828, 128.904 460.736 C 131.340 462.391, 138.413 462.516, 243.830 462.767 C 317.643 462.942, 357.456 462.685, 359.936 462.017 C 364.868 460.689, 372.190 455.041, 375.149 450.281 C 377.066 447.198, 377.503 445.116, 377.516 439 C 377.525 434.875, 377.637 401.066, 377.766 363.869 L 378 296.239 387.511 295.823 C 394.503 295.517, 397.449 294.980, 398.633 293.795 C 400.052 292.377, 400.252 288.002, 400.300 257.342 L 400.355 222.500 398.055 221.346 C 396.789 220.712, 391.832 219.882, 387.039 219.503 L 378.325 218.813 377.663 165.657 C 377.300 136.421, 377.002 102.747, 377.001 90.828 L 377 69.155 373.732 64.870 C 371.855 62.410, 368.187 59.396, 365.118 57.793 L 359.772 55 246.636 55.039 C 150.773 55.072, 132.997 55.297, 130.207 56.509 M 140.496 67.250 C 140.197 68.487, 140.076 153.875, 140.227 257 L 140.500 444.500 144.750 444.807 L 149 445.115 149 255.057 L 149 65 145.019 65 C 141.718 65, 140.945 65.384, 140.496 67.250 M 156.770 253.245 C 156.622 356.785, 156.665 442.288, 156.867 443.250 C 157.213 444.903, 162.820 445, 257.617 445 L 358 445 358 370.500 L 358 296 351.196 296 C 345.882 296, 343.256 295.434, 339.199 293.412 C 333.884 290.763, 327.327 284.153, 326.418 280.527 C 325.912 278.513, 325.420 278.500, 247.705 278.500 C 196.402 278.500, 169.414 278.156, 169.250 277.500 C 169.085 276.841, 195.794 276.413, 247.500 276.244 L 326 275.988 326 262.494 L 326 249 247 249 C 202.718 249, 168 248.617, 168 248.128 C 168 246.206, 179.367 245.912, 249.965 246.002 C 290.409 246.055, 324.063 246.075, 324.750 246.049 C 325.620 246.015, 326 243.977, 326 239.348 L 326 232.696 331.250 227.598 C 334.137 224.794, 337.400 221.964, 338.500 221.309 C 340.058 220.381, 321.454 220.105, 254.250 220.059 C 197.456 220.020, 168 219.658, 168 219 C 168 218.341, 198.314 218, 256.941 218 C 315.156 218, 346.095 218.345, 346.500 219 C 346.840 219.550, 349.569 220, 352.565 220 L 358.012 220 357.756 142.750 L 357.500 65.500 257.270 65.245 L 157.041 64.990 156.770 253.245 M 198.863 84.762 C 168.420 85.027, 168.222 85.042, 167.661 87.188 C 167.351 88.375, 167.326 89.719, 167.607 90.174 C 167.888 90.628, 182.520 91, 200.122 91 L 232.127 91 231.813 87.827 C 231.641 86.082, 231.050 84.618, 230.500 84.574 C 229.950 84.531, 215.713 84.615, 198.863 84.762 M 309.750 84.733 L 280 85.030 280 88.015 L 280 91 312.063 91 L 344.127 91 343.813 87.750 C 343.576 85.285, 343.017 84.492, 341.500 84.468 C 340.400 84.451, 326.113 84.570, 309.750 84.733 M 168.672 126.661 C 168.302 127.031, 168 127.711, 168 128.172 C 168 128.633, 207.713 128.896, 256.250 128.755 C 314.456 128.587, 344.415 128.160, 344.250 127.500 C 343.967 126.368, 169.798 125.536, 168.672 126.661 M 169 156 C 169 156.659, 198.833 157, 256.500 157 C 314.167 157, 344 156.659, 344 156 C 344 155.341, 314.167 155, 256.500 155 C 198.833 155, 169 155.341, 169 156 M 168.667 189.667 C 168.300 190.033, 168 190.715, 168 191.183 C 168 192.113, 341.079 192.291, 343.497 191.363 C 344.317 191.048, 344.740 190.388, 344.435 189.895 C 343.798 188.865, 169.695 188.638, 168.667 189.667 M 359.666 229 L 345.831 229.500 342.916 232.766 L 340 236.032 340 258.427 L 340 280.822 343.077 283.411 C 346.076 285.934, 346.519 286, 360.577 286 L 375 286 375 257.559 C 375 241.916, 374.663 228.979, 374.250 228.809 C 373.837 228.639, 367.275 228.725, 359.666 229 M 168.672 305.661 C 168.302 306.031, 168 306.711, 168 307.172 C 168 307.633, 207.713 307.896, 256.250 307.755 C 314.456 307.587, 344.415 307.160, 344.250 306.500 C 343.967 305.368, 169.798 304.536, 168.672 305.661 M 168.592 355.851 C 167.563 357.515, 188.447 357.990, 262.500 357.984 C 335.241 357.978, 345.558 357.712, 344.421 355.872 C 343.723 354.743, 169.290 354.722, 168.592 355.851 M 168 384 C 168 384.659, 198.186 385, 256.559 385 C 315.344 385, 344.910 384.664, 344.500 384 C 344.096 383.346, 313.490 383, 255.941 383 C 197.980 383, 168 383.341, 168 384 M 193.750 422.749 L 168 423.034 168 425.517 L 168 428 200 428 L 232 428 232 425 L 232 422 225.750 422.232 C 222.313 422.360, 207.912 422.593, 193.750 422.749 M 309.750 422.733 L 280 423.030 280 425.515 L 280 428 312.066 428 L 344.133 428 343.816 425.250 C 343.590 423.286, 342.929 422.491, 341.500 422.468 C 340.400 422.451, 326.113 422.570, 309.750 422.733 M 147 451.087 C 143.975 451.410, 189.762 451.747, 248.750 451.837 C 320.697 451.946, 356 451.666, 356 450.986 C 356 449.898, 157.236 449.995, 147 451.087" stroke="none" fill="black" fill-rule="evenodd"/>
</svg>