<svg xmlns="http://www.w3.org/2000/svg" width="512" height="512" viewBox="0 0 512 512" version="1.1">
	<path d="M 243.286 51.040 C 215.682 54.480, 187.853 67.678, 167.716 86.879 C 148.182 105.505, 140.226 125.328, 141.232 152.868 C 141.673 164.926, 141.957 166.317, 147.492 183.500 C 154.083 203.961, 156.660 213.674, 155.739 214.594 C 155.391 214.943, 153.566 214.277, 151.685 213.114 C 143.548 208.085, 134.932 212.585, 133.558 222.580 C 131.898 234.647, 141.203 258.841, 151.926 270.337 C 156.939 275.712, 160.327 277.767, 167 279.476 C 171.492 280.627, 171.502 280.639, 172.662 286.565 C 173.301 289.829, 174.607 296.490, 175.564 301.368 C 177.766 312.588, 183.112 323.747, 190.401 332.340 C 193.481 335.970, 195.990 339.516, 195.978 340.220 C 195.967 340.924, 193.441 343.300, 190.367 345.500 C 182.728 350.966, 177.581 357.404, 172.418 367.949 C 168.502 375.949, 167.416 377.309, 161.778 381.271 C 151.268 388.657, 137.978 395.719, 111.600 407.934 C 75.783 424.521, 66 430.377, 66 435.234 C 66 437.038, 66.484 437.206, 70.408 436.763 C 77.898 435.919, 144.573 404.870, 159.281 395.377 C 163.011 392.970, 166.273 391, 166.531 391 C 166.789 391, 167.002 397.863, 167.005 406.250 C 167.013 427.575, 171.621 457.874, 175.202 460.146 C 176.690 461.090, 182.138 461.268, 184.289 460.443 C 185.536 459.964, 185.473 458.867, 183.843 452.693 C 177.056 426.967, 176.264 393.182, 182.016 374.701 C 183.881 368.709, 189.793 358, 191.236 358 C 191.683 358, 192.500 359.238, 193.051 360.750 C 197.621 373.296, 209.242 385.332, 230.916 399.969 C 235.637 403.157, 240.572 406.923, 241.883 408.338 L 244.265 410.911 241.246 415.706 C 239.585 418.343, 233.504 427.956, 227.732 437.070 C 215.876 455.789, 213.813 459.480, 214.707 460.373 C 215.051 460.718, 217.503 461, 220.154 461 C 224.748 461, 225.098 460.800, 227.595 456.750 C 234.100 446.196, 239.549 438.025, 240.090 438.013 C 240.415 438.006, 241.846 439.638, 243.270 441.640 L 245.860 445.280 243.779 450.390 C 242.635 453.201, 241.490 456.738, 241.236 458.250 L 240.773 461 254.887 461 C 270.582 461, 270.070 461.284, 267.500 454 C 266.675 451.662, 266 448.259, 266 446.439 C 266 442.743, 267.537 437.991, 268.725 438.017 C 269.151 438.026, 272.388 442.188, 275.918 447.267 C 285.341 460.823, 285.537 461, 291.174 461 C 293.963 461, 296 460.544, 296 459.920 C 296 459.326, 290.902 451.339, 284.672 442.170 C 268.969 419.062, 265.676 413.391, 266.401 410.708 C 266.759 409.384, 272.651 404.299, 281.125 398.002 C 301.990 382.496, 315 367.786, 315 359.699 C 315 355.680, 316.514 355.682, 320.048 359.708 C 327.652 368.368, 330.863 380.458, 331.692 403.554 C 332.292 420.261, 331.275 433.243, 328.291 446.954 C 327.388 451.104, 326.616 455.850, 326.575 457.500 C 326.503 460.367, 326.704 460.513, 331.088 460.798 C 334.023 460.989, 336.076 460.614, 336.788 459.755 C 339.525 456.457, 342.227 435.588, 342.865 412.812 L 343.500 390.125 355.790 397.452 C 366.118 403.609, 401.393 420.859, 428.446 432.980 C 436.160 436.436, 444 438.009, 444 436.101 C 444 430.798, 434.234 424.744, 396.796 406.839 C 365.884 392.055, 355.575 386.410, 346.543 379.322 C 342.021 375.772, 340.235 373.398, 336.756 366.314 C 331.756 356.133, 324.717 347.986, 317.309 343.805 C 314.389 342.157, 312 340.493, 312 340.107 C 312 339.722, 313.831 337.627, 316.069 335.453 C 321.511 330.167, 327.379 321.257, 330.043 314.236 C 331.240 311.081, 333.289 302.468, 334.597 295.096 C 335.905 287.724, 337.138 281.528, 337.339 281.328 C 337.539 281.128, 340.009 280.366, 342.827 279.635 C 353.312 276.915, 361.869 268.199, 369.467 252.500 C 378.302 234.242, 379.163 221.009, 371.983 213.829 C 368.343 210.190, 363.693 210.108, 356.873 213.564 L 351.813 216.129 352.501 212.993 C 352.880 211.269, 356.069 200.832, 359.588 189.800 C 363.107 178.768, 366.498 166.802, 367.124 163.209 C 370.019 146.584, 363.970 118.280, 353.917 101.416 C 349.190 93.487, 335.480 79.271, 326.765 73.261 C 302.908 56.812, 269.129 47.820, 243.286 51.040 M 165.290 105.965 C 161.313 108.390, 157.658 113.803, 155.139 121.001 C 154.081 124.026, 152.494 127.850, 151.613 129.500 C 149.487 133.484, 149.586 136.204, 151.966 139.230 C 155.379 143.569, 158.992 144.433, 165.679 142.508 C 170.408 141.148, 172.565 139.744, 177.179 135.027 C 183.418 128.647, 185.455 123.773, 186.615 112.449 L 187.259 106.166 181.316 106.705 C 176.945 107.101, 174.542 106.815, 172.236 105.622 C 168.426 103.652, 169.141 103.617, 165.290 105.965 M 195.431 108.677 C 195.814 110.424, 195.651 115.274, 195.070 119.455 C 193.480 130.881, 188.418 139.654, 180.536 144.640 L 176.261 147.345 175.702 161.923 C 175.253 173.634, 174.526 178.958, 172.008 189 C 166.860 209.527, 167.692 226.131, 175.038 249.500 C 177.310 256.730, 180.206 269.158, 181.561 277.500 C 187.351 313.137, 188.702 316.735, 200.907 329.034 C 221.364 349.649, 249.985 357.293, 276 349.090 C 290.431 344.540, 307.398 332.328, 315.368 320.756 C 320.617 313.135, 323.477 303.800, 326.015 286 C 327.231 277.475, 329.791 264.425, 331.705 257 C 333.618 249.575, 336.054 240.125, 337.118 236 C 338.314 231.360, 339.265 223.353, 339.610 215 C 340.158 201.777, 340.096 201.239, 336.617 188.769 C 331.890 171.826, 330.840 165.213, 331.199 154.635 L 331.500 145.769 337 144.053 C 349.081 140.282, 355 135.517, 355 129.561 C 355 125.731, 350.343 116, 348.509 116 C 347.788 116, 346.315 117.497, 345.235 119.326 C 342.033 124.754, 330.437 128.986, 318.701 129.011 C 311.241 129.027, 306 130.064, 306 131.524 C 306 133.486, 308.462 134, 317.872 134 C 328.352 134, 336.793 131.987, 343.406 127.912 C 348.434 124.813, 349.946 125.085, 349.985 129.095 C 350.024 133.241, 338.332 138.723, 324.783 140.912 C 317.126 142.149, 315.016 142.832, 315.236 144 C 315.434 145.053, 317.050 145.589, 320.657 145.799 C 325.689 146.091, 325.810 146.172, 326.471 149.695 C 327.359 154.429, 326.344 154.967, 316.500 154.981 C 301.754 155.001, 286.593 151.899, 262 143.829 C 233.142 134.360, 215.323 125.048, 202.182 112.571 C 195.073 105.821, 194.766 105.644, 195.431 108.677 M 187.505 191.603 C 182.479 193.442, 175.377 200.327, 173.905 204.787 C 172.162 210.071, 174.052 210.846, 178.644 206.730 C 184.151 201.793, 188.195 200, 193.825 200 C 200.150 200, 205.210 201.825, 216 208 C 229.663 215.819, 235.891 217.331, 237.471 213.215 C 238.476 210.597, 234.349 207.613, 219.272 200.057 C 198.043 189.418, 195.398 188.714, 187.505 191.603 M 304.494 192.876 C 301.741 193.867, 293.511 197.718, 286.206 201.433 C 272.394 208.456, 268.654 211.673, 271.004 214.505 C 273.248 217.209, 277.039 216.093, 291.543 208.461 C 307.293 200.172, 312.619 198.793, 320.435 200.982 C 322.900 201.672, 326.694 203.758, 328.867 205.618 C 333.409 209.506, 335 209.851, 335 206.950 C 335 199.462, 323.940 190.963, 314.290 191.036 C 311.655 191.056, 307.247 191.884, 304.494 192.876 M 200.030 214.113 C 193.937 216.544, 186.911 224.428, 188.518 227.029 C 189.556 228.709, 191.139 228.107, 195.104 224.525 C 197.219 222.614, 200.149 220.750, 201.615 220.382 C 205.505 219.406, 209.436 221.091, 209.837 223.907 C 210.281 227.014, 208.342 228.155, 203.840 227.438 C 200.762 226.947, 200.079 227.176, 199.539 228.877 C 198.780 231.270, 201.241 236.495, 203.545 237.379 C 206.351 238.456, 211.993 238.055, 214.855 236.575 C 218.424 234.729, 220.224 230.711, 219.415 226.396 C 219.064 224.528, 219.037 223, 219.354 223 C 219.671 223, 221.521 224.397, 223.465 226.104 C 226.582 228.840, 227 228.976, 227 227.251 C 227 221.034, 215.678 212.947, 207.136 213.063 C 204.586 213.098, 201.388 213.570, 200.030 214.113 M 293.748 214.427 C 288.272 216.381, 282.997 220.764, 281.335 224.740 C 280.536 226.652, 280.081 228.415, 280.324 228.658 C 280.567 228.900, 282.492 227.927, 284.601 226.496 L 288.437 223.893 289.624 229.160 C 291.105 235.739, 293.679 238, 299.688 238 C 303.291 238, 304.719 237.435, 307.077 235.077 C 310.145 232.009, 310.784 229.184, 308.847 227.247 C 308.043 226.443, 307.123 226.399, 305.809 227.102 C 302.974 228.620, 300 227.271, 300 224.468 C 300 221.864, 302.540 220, 306.090 220 C 308.319 220, 314.803 224.252, 316.300 226.695 C 317.259 228.261, 319.630 228.408, 320.527 226.956 C 321.292 225.719, 318.622 221.232, 315.625 218.716 C 309.043 213.190, 301.408 211.693, 293.748 214.427 M 360.437 222.799 C 352.529 228.530, 348.816 235.178, 343.067 253.904 C 337.343 272.547, 337.575 273.558, 346.314 268.016 C 358.271 260.433, 372.092 227.680, 365.937 221.512 C 364.519 220.091, 364.010 220.210, 360.437 222.799 M 143 226.532 C 143 236.846, 150.982 255.880, 158.628 263.799 C 163.037 268.365, 168.207 271.126, 169.649 269.685 C 170.558 268.775, 163.038 244.074, 159.505 236.362 C 155.801 228.279, 149.108 221, 145.379 221 C 143.160 221, 143 221.373, 143 226.532 M 220 296.500 C 218.393 298.436, 219.531 299.849, 226.079 304.051 C 243.123 314.988, 269.172 313.823, 283.857 301.466 C 289.332 296.860, 287.523 293.717, 281.272 296.975 C 275.925 299.762, 263.092 301.287, 249.206 300.785 C 239.742 300.443, 236.078 299.848, 230.076 297.681 C 221.381 294.541, 221.604 294.567, 220 296.500 M 203.625 349.125 C 201.847 358.013, 205.157 365.484, 215.290 375.454 C 224.058 384.081, 254.132 404.653, 256.156 403.408 C 263.758 398.732, 287.932 380.177, 293.103 375.049 C 301.284 366.934, 304.005 361.868, 303.985 354.790 C 303.960 346.248, 303.700 346.200, 291.411 352.470 C 278.898 358.855, 272.062 360.849, 259.798 361.692 C 244.266 362.759, 227.873 358.686, 213.193 350.113 C 209.320 347.851, 205.723 346, 205.201 346 C 204.678 346, 203.969 347.406, 203.625 349.125" stroke="none" fill="black" fill-rule="evenodd"/>
</svg>