<svg xmlns="http://www.w3.org/2000/svg" width="512" height="512" viewBox="0 0 512 512" version="1.1">
	<path d="M 266 31.583 C 218.322 39.221, 182.670 71.782, 168.031 121.058 C 166.382 126.610, 164.525 134.064, 163.905 137.623 C 162.656 144.796, 161.487 145.322, 158.752 139.940 L 157.003 136.500 157.002 141.128 C 157.001 143.673, 157.675 147.371, 158.500 149.346 C 160.528 154.199, 160.387 159.144, 157.972 167.859 C 155.259 177.650, 151.790 184.237, 146.166 190.276 C 140.583 196.271, 136.141 198.477, 132.756 196.935 C 130.209 195.774, 125 188.231, 125 185.704 C 125 184.832, 124.550 183.840, 124 183.500 C 122.478 182.559, 122.774 192.930, 124.425 198.417 C 126.492 205.284, 124.559 214.070, 121.904 209.878 C 120.081 207.001, 121.046 217.048, 123.126 222.607 C 125.622 229.277, 134.535 238.736, 142.813 243.500 C 146.314 245.515, 148.210 247.321, 148.586 249 C 148.893 250.375, 151.189 257.350, 153.687 264.500 C 157.470 275.330, 158.314 279.097, 158.739 287.065 C 159.551 302.271, 155.269 312.890, 145.393 320.160 C 142.898 321.997, 139.653 324.471, 138.183 325.659 L 135.511 327.818 139.481 328.562 C 147.753 330.114, 162.371 325.273, 169.870 318.498 C 176.045 312.919, 174.849 316.019, 168.002 323.338 C 164.052 327.561, 159.529 331.073, 154.752 333.625 C 147.866 337.304, 147.046 337.500, 138.500 337.491 C 130.647 337.483, 128.839 337.134, 124.312 334.755 C 117.626 331.242, 113.981 326.368, 111.922 318.190 C 110.337 311.893, 110.217 311.726, 108.956 314.064 C 106.673 318.296, 107.442 325.246, 110.899 331.630 L 114.032 337.414 108.054 343.457 C 101.350 350.234, 98.993 355.424, 99.012 363.376 C 99.025 369.219, 100.870 376.918, 103.451 381.907 C 107.669 390.060, 120.085 400, 126.050 400 C 129.095 400, 128.169 398.480, 122.526 394.215 C 115.130 388.625, 111.830 382.687, 111.867 375.032 C 111.900 368.152, 113.746 364.017, 118.298 360.624 C 120.823 358.742, 122.626 358.518, 136.798 358.333 L 152.500 358.128 149 360.002 C 147.075 361.033, 141.569 363.307, 136.764 365.056 C 131.959 366.805, 128.265 368.620, 128.556 369.091 C 128.847 369.561, 130.978 370.457, 133.292 371.082 C 141.767 373.371, 156.845 370.112, 171.228 362.884 C 175.478 360.748, 179.191 359, 179.478 359 C 181.150 359, 179.617 366.201, 177.124 370.054 C 172.576 377.086, 167.207 381.473, 139.500 400.795 C 107.926 422.814, 100.893 428.524, 98.012 434.475 C 96.822 436.934, 96.128 439.398, 96.469 439.950 C 96.824 440.525, 100.191 438.800, 104.326 435.926 C 110.101 431.910, 112.883 430.669, 118.116 429.773 C 126.597 428.320, 132.781 429.778, 155 438.470 C 179.624 448.103, 229.070 463.693, 231.073 462.455 C 232.484 461.583, 230.303 458.171, 224.331 451.909 L 218.998 446.318 224.749 446.341 C 230.385 446.364, 234.582 445.004, 240.269 441.312 C 243.026 439.522, 243.069 439.532, 250.769 443.667 C 259.061 448.122, 277.013 456, 278.871 456 C 283.278 456, 273.203 437.726, 263.694 428.471 C 257.107 422.059, 224.545 385.507, 217 376.055 C 208.348 365.215, 206.491 362.010, 207.797 360.168 C 213.342 352.346, 217.435 338.521, 218.969 322.427 C 219.595 315.867, 220.325 309.754, 220.591 308.842 C 221.832 304.600, 224.265 306.057, 236.348 318.280 C 255.461 337.615, 272.461 349.888, 287.329 355.087 C 291.635 356.593, 295.349 358.016, 295.582 358.248 C 295.815 358.481, 295.172 361.108, 294.153 364.086 C 289.371 378.066, 287.901 401.973, 291.352 409.656 L 293.205 413.780 299.760 414.197 C 305.758 414.579, 306.555 414.903, 309.141 418 C 313.828 423.614, 315.313 429.732, 314.495 440.063 C 313.857 448.124, 313.956 449, 315.509 449 C 318.764 449, 326.975 443.708, 328.973 440.321 C 332.066 435.079, 333.534 435.121, 339.157 440.613 C 343.005 444.373, 350.871 453.641, 354.680 458.902 C 355.048 459.411, 369.314 459.019, 369.848 458.486 C 370.563 457.770, 365.284 449.593, 360.851 444.552 C 357.948 441.251, 357.165 439.862, 358.500 440.378 C 363.904 442.467, 391.324 450.010, 391.796 449.537 C 392.094 449.239, 387.819 444.609, 382.295 439.248 C 372.809 430.039, 368.180 424.487, 369.168 423.499 C 370.121 422.546, 390.927 435.153, 393.800 438.425 C 395.483 440.341, 397.852 444.630, 399.064 447.955 C 400.276 451.280, 401.681 454, 402.185 454 C 403.663 454, 406 447.392, 406 443.210 C 406 436.882, 403.235 430.445, 398.791 426.431 C 394.268 422.344, 392.524 421.516, 365.182 410.480 C 354.557 406.192, 343.852 401.350, 341.392 399.721 C 338.932 398.091, 334.381 393.672, 331.278 389.901 C 328.175 386.129, 322.782 380.947, 319.293 378.386 C 311.708 372.817, 307.992 368.626, 308.022 365.673 C 308.034 364.478, 308.912 361.587, 309.973 359.250 L 311.902 355 319.001 355 C 323.244 355, 327.227 354.417, 328.901 353.551 C 332.815 351.527, 337.189 346.284, 341.617 338.308 C 345.158 331.927, 361.863 306.253, 365.744 301.224 C 366.873 299.761, 372.143 297.224, 380.500 294.121 C 397.311 287.877, 407.045 282.917, 412.730 277.697 C 418.132 272.737, 422.998 263.211, 422.999 257.593 L 423 253.685 420.686 258.093 C 419.221 260.884, 417 263.234, 414.630 264.500 C 411.001 266.439, 410.846 266.444, 409.512 264.653 C 408.756 263.637, 408.332 262.287, 408.570 261.653 C 408.808 261.019, 409.172 253.300, 409.378 244.500 C 409.722 229.799, 410.082 227.189, 413.807 212.355 C 418.906 192.051, 420.445 179.143, 419.691 163 C 418.849 144.976, 416.355 137.678, 407.122 126.223 C 404.192 122.587, 401.615 118.168, 401 115.723 C 395.930 95.577, 389.760 84.794, 374.500 69.412 C 357.881 52.659, 336.110 39.378, 315.500 33.419 C 303.896 30.064, 280.825 29.208, 266 31.583 M 280.500 51.980 C 271.812 52.994, 263.849 55.552, 252.500 60.975 C 239.632 67.124, 236.141 69.732, 245 66.580 C 248.575 65.308, 253.300 64.004, 255.500 63.683 C 257.700 63.361, 254.241 64.816, 247.813 66.916 C 239.320 69.691, 234.400 71.976, 229.813 75.276 C 222.739 80.364, 212.192 90.815, 217.500 87.476 C 227.871 80.952, 231.866 78.965, 239.241 76.660 C 248.104 73.891, 262.553 70.962, 266.860 71.061 C 269.762 71.128, 268.417 71.865, 250.796 79.872 C 241.641 84.032, 226.105 94.109, 221.951 98.582 C 220.068 100.610, 221.553 100.013, 228.360 96.007 C 239.886 89.223, 253.669 83.041, 247.264 87.527 C 246.065 88.367, 242.267 92.530, 238.825 96.777 C 235.383 101.025, 229.893 107.313, 226.625 110.750 C 223.357 114.188, 221.092 116.987, 221.591 116.972 C 223.211 116.923, 229.579 111.626, 240.248 101.456 C 250.305 91.869, 261.280 83.085, 259.482 86.062 C 259.004 86.853, 256.068 90.470, 252.958 94.100 C 249.848 97.730, 245.803 102.905, 243.970 105.600 C 242.137 108.295, 239.031 112.500, 237.068 114.944 C 233.208 119.751, 233.490 119.671, 242.500 113.406 C 249.850 108.296, 268.447 98.910, 280.283 94.338 C 296.517 88.067, 308.799 85.597, 324 85.546 C 336.819 85.502, 337.789 85.642, 343.224 88.310 C 353.854 93.529, 359.003 102.382, 358.996 115.428 C 358.992 123.589, 357.345 127.110, 351.416 131.632 C 347.300 134.772, 347.304 134.771, 321.500 133.964 C 314.501 133.745, 308.863 134.089, 306 134.910 C 297.183 137.436, 287.408 143.127, 277.500 151.503 C 272 156.152, 264.062 161.809, 259.860 164.072 C 252.505 168.034, 252.120 168.424, 249.519 174.545 C 246.293 182.134, 230.236 211.214, 224.941 219.056 C 222.877 222.112, 218.530 227.287, 215.281 230.557 C 212.031 233.827, 208.558 237.745, 207.563 239.263 C 206.569 240.781, 204.572 242.319, 203.127 242.681 C 201.682 243.042, 198.638 244.161, 196.362 245.166 C 192.995 246.654, 192.106 247.623, 191.592 250.363 C 190.833 254.409, 191.587 256.709, 194.118 258.063 C 195.566 258.838, 196 258.730, 196 257.594 C 196 256.782, 195.550 255.840, 195 255.500 C 193.432 254.531, 193.829 253.208, 195.642 253.361 C 196.546 253.438, 197.507 252.866, 197.779 252.091 C 198.115 251.131, 197.767 250.875, 196.687 251.290 C 195.626 251.697, 195.272 251.456, 195.616 250.560 C 196.641 247.887, 200.592 250.248, 200.118 253.250 C 200.053 253.663, 200.337 253.947, 200.750 253.882 C 202.658 253.580, 202.988 254.155, 201.983 256.032 C 201.385 257.149, 200.191 257.937, 199.330 257.782 C 196.971 257.357, 195.087 260.790, 197 262.027 C 199.188 263.442, 201.333 262.779, 201.956 260.495 C 202.255 259.398, 203.063 258.455, 203.750 258.400 C 204.438 258.345, 205.434 258.233, 205.964 258.150 C 206.494 258.067, 208.012 256.405, 209.337 254.454 L 211.746 250.909 213.298 254.786 C 214.151 256.919, 216.479 264.702, 218.471 272.082 C 220.614 280.019, 223.402 287.740, 225.297 290.983 C 229.772 298.645, 251.361 320.044, 264.500 329.842 C 283.487 344.002, 298.304 349.943, 314.730 349.983 C 327.581 350.014, 330.773 347.714, 338.855 332.600 C 341.178 328.255, 348.397 316.545, 354.896 306.578 C 368.127 286.286, 368.948 284.840, 372.329 275.859 C 375.697 266.909, 377.784 257.047, 378.594 246.250 C 379.262 237.331, 379.213 237, 377.211 237 C 375.994 237, 374.865 237.851, 374.482 239.057 C 373.684 241.570, 370.671 241.246, 370.160 238.593 C 369.887 237.174, 370.213 236.868, 371.482 237.355 C 372.621 237.792, 372.978 237.596, 372.584 236.751 C 372.264 236.063, 371.724 234.713, 371.384 233.750 C 370.457 231.122, 368.694 231.643, 369.372 234.344 C 370.588 239.191, 361.940 243.483, 355.750 241.106 C 354.238 240.525, 353 239.302, 353 238.389 C 353 236.997, 353.725 236.828, 357.489 237.343 C 359.958 237.682, 363.108 237.529, 364.489 237.004 C 366.591 236.205, 367 235.400, 367 232.060 C 367 229.139, 366.482 227.793, 365.066 227.035 C 361.933 225.358, 361 225.816, 361 229.031 C 361 232.748, 358.653 233.901, 355.992 231.492 C 354.135 229.812, 353.919 229.864, 350.595 232.783 C 347.145 235.812, 343.299 237.632, 342.351 236.684 C 341.575 235.908, 344.554 230.736, 347.155 228.343 C 352.298 223.611, 357.610 221.742, 364.645 222.190 L 371.236 222.610 368.886 220.707 C 366.967 219.152, 365.617 218.925, 361.518 219.468 C 358.758 219.833, 354.587 220.977, 352.250 222.010 C 347.297 224.198, 346.953 223.407, 350.294 217.507 C 352.747 213.177, 360.417 208.371, 372.753 203.436 C 379.018 200.929, 380.582 200.830, 386.612 202.556 C 389.476 203.376, 389.691 202.560, 391.054 185.662 C 392.265 170.666, 391.449 158.275, 388.881 152.638 C 388.198 151.140, 384.589 148.081, 380.487 145.524 C 372.845 140.761, 366.313 134.395, 363.394 128.864 C 362.158 126.524, 361.422 122.081, 360.975 114.266 C 360.420 104.549, 359.939 102.266, 357.416 97.364 C 353.603 89.954, 349.334 86.665, 337.901 82.331 C 324.474 77.240, 311.103 76.755, 293 80.703 C 290.728 81.198, 290.640 81.101, 292.028 79.632 C 292.868 78.743, 297.359 77.054, 302.008 75.879 C 309.023 74.105, 312.376 73.826, 321.730 74.239 C 327.928 74.512, 332.999 74.458, 332.998 74.118 C 332.995 73.073, 324.577 68.115, 320.159 66.556 C 317.861 65.745, 312.584 64.774, 308.433 64.398 C 296.852 63.348, 300.677 61.596, 314.240 61.738 C 338.161 61.987, 353.466 69.379, 361.067 84.353 L 364.187 90.500 363.797 83.771 C 363.325 75.608, 360.157 70.430, 352.260 64.913 C 343.758 58.973, 322.890 53.777, 302.500 52.521 C 297 52.183, 291.150 51.765, 289.500 51.593 C 287.850 51.421, 283.800 51.595, 280.500 51.980 M 310.500 90.402 C 289.891 94.379, 262.523 107.310, 250 118.987 L 244.500 124.115 250 120.212 C 259.730 113.306, 261.447 112.737, 275 111.917 C 281.875 111.502, 294.605 110.225, 303.288 109.081 C 311.972 107.936, 324.109 107, 330.261 107 C 340.027 107, 341.195 106.826, 339.473 105.629 C 333.999 101.825, 318.419 101.074, 295.500 103.509 C 278.101 105.357, 277.453 105.324, 283 102.860 C 291.390 99.133, 318.725 93.134, 328.381 92.900 C 330.646 92.845, 333.625 92.483, 335 92.094 L 337.500 91.387 335 90.681 C 329.856 89.229, 317.319 89.086, 310.500 90.402 M 190.567 122 C 193.494 133.427, 207.921 145.135, 224 149.133 C 231.473 150.990, 252.402 150.696, 262 148.598 C 270.225 146.800, 285.353 142.020, 284.744 141.410 C 284.533 141.200, 281.242 141.886, 277.430 142.935 C 266.210 146.023, 254.746 147.276, 242.205 146.785 C 232.424 146.402, 228.947 145.799, 221.054 143.117 C 206.477 138.163, 196.271 131.024, 191.578 122.500 C 190.130 119.869, 190.006 119.808, 190.567 122 M 298.197 126.559 C 292.443 128.108, 279.418 133.359, 277 135.105 C 275.250 136.369, 275.957 136.150, 285.885 132.356 C 295.317 128.751, 304.927 127.009, 315.815 126.930 C 322.157 126.884, 324.810 126.563, 323.500 126 C 320.322 124.634, 304.010 124.994, 298.197 126.559 M 386.500 131.039 C 383.200 132.101, 379.600 132.993, 378.500 133.021 C 376.718 133.065, 376.772 133.227, 379 134.500 C 382.093 136.268, 384.704 136.339, 390.417 134.811 C 393.707 133.931, 395.789 133.907, 398.431 134.717 C 401.350 135.613, 402 135.557, 402 134.406 C 402 132.043, 398.159 128.997, 395.250 129.054 C 393.738 129.083, 389.800 129.977, 386.500 131.039 M 167.585 157.489 C 169.987 161.156, 180.063 167.525, 187.234 169.911 C 196.768 173.082, 208.276 174.215, 218.823 173.020 C 233.451 171.363, 233.267 170.409, 218.315 170.388 C 201.362 170.363, 192.716 168.254, 177.154 160.347 C 171.366 157.406, 166.478 155, 166.292 155 C 166.106 155, 166.688 156.120, 167.585 157.489 M 159.683 195.750 C 162.495 203.678, 174.823 207.563, 194.721 206.792 C 204.322 206.419, 207.385 205.911, 211.288 204.039 C 213.922 202.777, 215.900 201.566, 215.683 201.350 C 215.466 201.133, 212.412 201.634, 208.895 202.463 C 195.069 205.722, 177.562 203.691, 166.349 197.528 C 158.930 193.450, 158.861 193.431, 159.683 195.750 M 262.366 198.516 C 259.542 199.277, 255.717 200.591, 253.866 201.436 C 250.583 202.934, 250.685 202.956, 258 202.332 C 272.433 201.101, 277.285 202.364, 291.500 211.048 C 299.043 215.656, 306.635 219, 309.554 219 C 311.454 219, 314 216.147, 314 214.017 C 314 212.666, 311.010 210.712, 302.750 206.665 C 283.007 196.991, 274.436 195.262, 262.366 198.516 M 129.303 206.619 C 133.024 213.814, 144.499 221.593, 155.693 224.508 C 167.321 227.537, 187.499 225.730, 191.130 221.336 C 192.367 219.838, 192.209 219.743, 189.500 220.348 C 182.942 221.813, 163.447 222.248, 157.737 221.056 C 149.999 219.441, 139.679 214.115, 133.130 208.356 C 128.249 204.065, 127.900 203.907, 129.303 206.619 M 375.500 206.652 C 373.850 207.517, 370.278 209.625, 367.563 211.337 L 362.626 214.449 367.063 215.752 C 369.534 216.478, 373.162 216.783, 375.250 216.440 C 378.776 215.861, 379 215.979, 379 218.412 C 379 221.580, 379.902 221.652, 383.558 218.775 C 385.839 216.981, 386.252 216.884, 385.693 218.275 C 383.899 222.740, 383.988 223.241, 386.035 220.203 C 389.018 215.775, 389.780 208.922, 387.538 206.681 C 385.425 204.568, 379.504 204.554, 375.500 206.652 M 276.500 216.015 C 272.650 216.462, 267.475 217.575, 265 218.487 C 262.525 219.400, 259.038 220.159, 257.250 220.174 C 253.707 220.202, 253.172 221.068, 255.500 223 C 258.022 225.093, 257.227 226.208, 253.750 225.455 L 250.500 224.750 252.467 227.125 C 257.647 233.378, 261.563 237, 263.144 237 C 265.226 237, 266.850 234.783, 265.177 234.226 C 264.530 234.010, 264 233.163, 264 232.343 C 264 229.977, 267.461 231.244, 267.817 233.740 C 268.785 240.523, 284.036 243.823, 285.243 237.511 C 285.721 235.008, 284.674 234.100, 283.500 236 C 282.451 237.697, 276.431 237.133, 274.655 235.171 C 272.711 233.023, 272.507 229.893, 274.200 228.200 C 276.040 226.360, 278 226.772, 278 229 C 278 231.832, 280.817 231.495, 282.182 228.500 C 284.149 224.183, 289.179 225.831, 296.750 233.272 C 304.497 240.886, 303.521 235.508, 295.607 226.976 C 290.301 221.255, 286.612 219.862, 278.898 220.668 C 274.308 221.148, 272.873 221.015, 273.402 220.159 C 274.314 218.682, 285.167 218.647, 290.500 220.104 C 292.700 220.705, 295.962 222.300, 297.750 223.649 C 299.538 224.998, 301 225.648, 301 225.093 C 301 223.192, 293.311 216, 291.280 216 C 290.163 216, 287.956 215.821, 286.375 215.602 C 284.794 215.382, 280.350 215.569, 276.500 216.015 M 266 240.500 C 266 241.325, 266.620 242, 267.378 242 C 268.135 242, 269.315 241.325, 270 240.500 C 271.053 239.232, 270.840 239, 268.622 239 C 266.958 239, 266 239.548, 266 240.500 M 366.459 243.067 C 365.539 244.556, 366.606 245.365, 368.520 244.631 C 369.404 244.292, 369.847 243.561, 369.504 243.007 C 368.694 241.696, 367.289 241.723, 366.459 243.067 M 271 244 C 271 244.550, 271.873 245, 272.941 245 C 274.009 245, 275.160 244.550, 275.500 244 C 275.851 243.433, 275.010 243, 273.559 243 C 272.152 243, 271 243.450, 271 244 M 192.729 250.604 C 192.328 251.005, 192 252.023, 192 252.867 C 192 253.992, 192.296 254.104, 193.113 253.288 C 193.724 252.676, 194.053 251.657, 193.842 251.025 C 193.631 250.393, 193.130 250.203, 192.729 250.604 M 305 279.045 C 305 282.577, 308.848 287, 311.921 287 C 314.343 287, 321 283.950, 321 282.840 C 321 282.405, 319.667 282.317, 318.037 282.643 C 313.554 283.539, 310.299 282.315, 308.338 278.994 C 306.083 275.177, 305 275.194, 305 279.045 M 341.096 278.828 C 340.129 281.123, 338.032 283.094, 334.346 285.174 C 331.406 286.833, 329 288.598, 329 289.095 C 329 290.700, 334.406 290.050, 337.686 288.050 C 341.673 285.619, 343.208 282.819, 342.810 278.704 L 342.500 275.500 341.096 278.828 M 284 300.818 C 284 302.618, 299.009 313.730, 306.738 317.653 C 321.754 325.275, 329.746 323.320, 340.493 309.398 C 344.072 304.762, 347 300.750, 347 300.484 C 347 299.475, 341.857 300.072, 333.554 302.043 C 328.822 303.167, 324.480 303.796, 323.905 303.441 C 323.330 303.086, 315.804 302.412, 307.180 301.943 C 298.556 301.474, 289.813 300.786, 287.750 300.414 C 285.315 299.975, 284 300.117, 284 300.818 M 306.500 308.755 C 308.104 310.325, 317.057 313, 320.710 313 C 324.496 313, 330.377 310.818, 331.503 308.995 C 332.054 308.104, 331.625 307.997, 329.875 308.589 C 327.263 309.472, 310.681 309.308, 307.500 308.367 C 306.187 307.978, 305.843 308.112, 306.500 308.755 M 178 328.354 C 171.893 335.085, 163.236 341.347, 152.750 346.620 C 147.938 349.040, 144 351.216, 144 351.456 C 144 352.365, 154.746 348.651, 160.464 345.765 C 166.819 342.558, 177.726 332.798, 181.154 327.250 C 182.295 325.405, 183.064 323.782, 182.864 323.645 C 182.664 323.507, 180.475 325.626, 178 328.354 M 163.466 396.945 C 164.581 398.749, 182.559 407.813, 194 412.339 C 206.030 417.098, 221.187 421.443, 223.278 420.733 C 225.131 420.103, 209.833 413.025, 187.219 404.049 C 168.257 396.524, 162.060 394.670, 163.466 396.945 M 323.056 410.500 C 322.991 411.836, 326.701 417.946, 329.279 420.750 C 332.828 424.608, 333.148 423.212, 329.743 418.725 C 327.960 416.373, 325.736 413.336, 324.802 411.975 C 323.869 410.614, 323.083 409.950, 323.056 410.500 M 142.500 417.742 C 136.553 419.567, 136.717 419.661, 152.157 423.292 C 158.018 424.670, 167.839 427.812, 173.982 430.274 C 180.124 432.735, 184.778 434.412, 184.325 433.999 C 181.200 431.154, 162.125 417.618, 160.221 416.894 C 156.764 415.579, 148.215 415.989, 142.500 417.742 M 197.877 425.750 C 198.399 426.712, 200.460 429.300, 202.458 431.500 L 206.090 435.500 202.403 429.750 C 200.376 426.587, 198.315 424, 197.823 424 C 197.319 424, 197.343 424.763, 197.877 425.750" stroke="none" fill="black" fill-rule="evenodd"/>
</svg>