<svg xmlns="http://www.w3.org/2000/svg" width="512" height="512" viewBox="0 0 512 512" version="1.1">
	<path d="M 238.500 10.027 C 207.622 11.996, 180.560 20.045, 146.050 37.527 C 113.609 53.960, 93.307 69.860, 71.867 95.622 C 50.545 121.244, 37.115 145.800, 25.452 180.492 C 15.771 209.285, 12.455 231.187, 13.273 260.933 C 14.242 296.184, 21.491 325.554, 38.218 362.003 C 55.290 399.204, 90.400 438.096, 128.040 461.501 C 155.822 478.777, 186.271 490.721, 216.087 496.040 C 233.805 499.201, 269.570 499.934, 287.598 497.506 C 321.504 492.941, 357.188 479.342, 388 459.245 C 421.801 437.198, 457.138 397.616, 473.479 363.500 C 497.525 313.297, 504.633 261.896, 494.498 211.500 C 480.360 141.194, 442.441 83.486, 387.841 49.180 C 339.334 18.702, 292.993 6.552, 238.500 10.027 M 229 19.523 C 215.274 21.426, 205.738 23.558, 192.857 27.605 C 178.262 32.190, 160.721 39.546, 158.482 42.020 C 156.850 43.823, 156.845 44.114, 158.391 46.474 C 159.301 47.863, 160.891 49, 161.925 49 C 162.958 49, 168.832 46.979, 174.978 44.509 C 195.979 36.069, 213.307 31.752, 233.500 29.930 C 240.100 29.334, 246.525 28.644, 247.779 28.397 C 250.379 27.884, 253.619 22.055, 252.673 19.591 C 251.913 17.609, 242.994 17.583, 229 19.523 M 273.593 20.549 C 271.478 22.664, 271.565 26.697, 273.750 27.864 C 274.712 28.377, 278.200 29.104, 281.500 29.479 C 301.793 31.783, 316.792 35.416, 337.566 43.060 C 351.551 48.207, 354.393 48.487, 355.552 44.837 C 356.525 41.769, 354.739 40.555, 340.981 34.936 C 321.685 27.055, 302.463 22.182, 280.343 19.566 C 276.361 19.095, 274.824 19.319, 273.593 20.549 M 260.914 24.602 C 258.112 27.975, 258.875 148.151, 261.802 164.418 C 262.190 166.573, 263.006 168.502, 263.615 168.705 C 266.120 169.540, 272.606 148.245, 275.067 131.105 C 276.840 118.759, 275.696 99.711, 271.939 79 C 269.437 65.212, 268.630 57.470, 268.132 42.500 L 267.500 23.500 264.914 23.199 C 263.396 23.023, 261.745 23.602, 260.914 24.602 M 251.182 38.306 C 248.811 40.830, 241.093 60.931, 238.084 72.422 C 234.834 84.828, 233.651 98.097, 234.337 114.441 C 235.018 130.681, 236.183 136.862, 241.497 152.441 C 246.043 165.764, 248.689 177.578, 249.502 188.175 C 250.007 194.766, 250.550 196.997, 251.761 197.462 C 252.638 197.798, 253.964 197.465, 254.708 196.721 C 255.837 195.591, 255.872 189.675, 254.920 160.934 C 254.292 141.995, 253.716 106.138, 253.639 81.252 C 253.563 56.366, 253.466 36.003, 253.424 36.002 C 253.383 36.001, 252.374 37.038, 251.182 38.306 M 278 46.314 C 275.611 47.541, 275.507 47.973, 275.653 56.049 C 275.749 61.404, 276.935 69.446, 278.889 78 C 283.020 96.083, 283.957 103.316, 283.980 117.292 C 284.005 132.159, 282.438 139.948, 274.952 162.163 C 271.678 171.878, 269 181.389, 269 183.299 C 269 186.266, 269.496 187.007, 272.401 188.386 C 274.272 189.274, 276.922 190, 278.291 190 C 281.088 190, 282.228 187.985, 288.923 171.210 C 309.330 120.082, 314.647 109.049, 330.953 84 C 336.861 74.925, 342.032 66.909, 342.445 66.187 C 343.787 63.840, 339.967 61.138, 329.616 57.112 C 315.982 51.810, 304.300 48.376, 293.619 46.533 C 282.898 44.682, 281.221 44.659, 278 46.314 M 210.500 49.432 C 196.066 53.148, 177.529 60.009, 173.620 63.084 C 170.351 65.656, 170.413 65.810, 182.421 84.978 C 193.913 103.321, 204.235 123.434, 213.995 146.500 C 228.036 179.683, 232.275 189.001, 233.381 189.111 C 239.391 189.705, 243 187.743, 243 183.881 C 243 177.626, 237.525 158.462, 232.463 147 C 226.252 132.934, 224.630 116.716, 227.050 92.856 C 228.291 80.628, 229.787 74.210, 234.746 59.857 C 237.869 50.817, 238.222 48.972, 237.089 47.607 C 234.922 44.996, 225.119 45.669, 210.500 49.432 M 146.667 47.667 C 144.790 49.543, 147.675 57.821, 162.290 92.500 C 171.508 114.372, 176.176 124.038, 185.172 139.884 C 188.429 145.621, 190.861 150.919, 190.578 151.657 C 187.998 158.380, 173.405 136.506, 161.959 108.760 C 149.814 79.320, 148.168 76.743, 142.796 78.771 C 134.956 81.730, 116.596 95.022, 114.298 99.403 C 112.551 102.734, 113.674 103.961, 133.798 120.697 C 155.054 138.375, 175.607 158.309, 197.186 182.175 C 205.975 191.896, 213.769 200.081, 214.505 200.363 C 215.241 200.646, 217.903 199.512, 220.421 197.844 C 223.866 195.563, 225 194.181, 225 192.266 C 225 189.897, 208.435 153.896, 194.789 126.608 C 191.518 120.067, 182.861 104.092, 175.550 91.108 C 168.239 78.123, 160.569 64.125, 158.504 60 C 156.439 55.875, 153.875 51.263, 152.806 49.750 C 150.971 47.152, 148.142 46.192, 146.667 47.667 M 352.497 65.750 C 327.053 106.257, 320.399 118.724, 297.534 168.732 C 286.028 193.896, 285.913 194.479, 291.942 196.976 C 297.492 199.275, 299.692 197.801, 315.465 181.226 C 342.049 153.290, 357.560 138.503, 375.242 124.236 C 391.930 110.773, 399 104.115, 399 101.866 C 399 98.443, 369.519 77.010, 364.801 77.003 C 360.905 76.997, 357.667 83.615, 347.434 112.500 C 344.901 119.650, 340.803 129.550, 338.327 134.500 C 333.367 144.418, 323.620 158.598, 320.681 160.171 C 318.965 161.089, 318.864 160.887, 319.517 157.838 C 319.910 156.002, 323.968 147.300, 328.534 138.500 C 333.210 129.489, 339.729 114.704, 343.459 104.651 C 347.102 94.835, 352.601 81.785, 355.681 75.651 C 361.586 63.888, 368 49.446, 368 47.911 C 368 47.410, 367.162 47, 366.138 47 C 364.806 47, 360.918 52.344, 352.497 65.750 M 129.553 56.495 C 113.951 66.290, 95 82.147, 95 85.406 C 95 86.220, 95.970 87.566, 97.155 88.396 C 99.904 90.321, 101.195 89.647, 110.785 81.283 C 117.518 75.412, 125.380 69.956, 137.438 62.788 C 141.401 60.433, 142 59.639, 142 56.738 C 142 53.690, 140.571 51, 138.953 51 C 138.597 51, 134.367 53.473, 129.553 56.495 M 370.557 53.223 C 367.420 57.701, 368.425 59.335, 378.250 65.736 C 383.337 69.051, 392.760 75.866, 399.189 80.882 C 405.617 85.897, 411.510 90, 412.284 90 C 413.831 90, 417 86.900, 417 85.387 C 417 84.248, 408.676 76.137, 401 69.796 C 393.561 63.651, 374.979 51, 373.393 51 C 372.689 51, 371.413 52, 370.557 53.223 M 89.742 96.190 C 91.259 97.944, 96.463 103.845, 101.307 109.303 C 106.152 114.761, 115.594 126.038, 122.292 134.363 C 128.989 142.688, 139.200 154.463, 144.984 160.528 C 150.768 166.593, 160.335 176.755, 166.244 183.110 C 172.153 189.465, 179.905 196.652, 183.470 199.082 C 189.643 203.289, 192.012 205.992, 188.250 204.537 C 183.911 202.859, 139.447 188.492, 120 182.485 C 108.175 178.833, 90.625 172.690, 81 168.834 C 52.987 157.613, 44 155.091, 44 158.452 C 44 161.470, 64.069 171.429, 93.500 183.016 C 109.797 189.432, 172.171 210.143, 188.500 214.560 C 199.433 217.518, 205.056 217.700, 207.345 215.171 C 210.509 211.675, 209.409 208.564, 202.250 200.762 C 198.537 196.716, 189.586 186.902, 182.357 178.953 C 159.139 153.420, 117.165 113.960, 94.356 96.222 C 88.759 91.870, 85.991 91.851, 89.742 96.190 M 409.441 104.010 C 403.973 108.965, 395 116.939, 389.500 121.729 C 369.764 138.919, 354.428 153.785, 338.161 171.495 C 329.065 181.398, 317.882 193.380, 313.311 198.121 C 303.832 207.954, 303.104 210.258, 307.944 215.098 C 310.597 217.751, 311.313 217.974, 315.194 217.362 C 327.678 215.391, 429.031 181.653, 454 171.156 C 468.114 165.223, 471.135 162.191, 468.354 156.750 C 466.695 153.503, 466.410 153.458, 462.500 155.820 C 460.850 156.818, 456.101 159.042, 451.946 160.764 C 447.791 162.486, 437.639 167.026, 429.385 170.854 C 414.348 177.827, 404.475 181.210, 376.500 188.972 C 368.250 191.262, 355.425 195.088, 348 197.474 C 332.569 202.435, 330 203.095, 330 202.099 C 330 200.923, 344.796 193.436, 355.586 189.152 C 361.133 186.949, 373.958 182.826, 384.086 179.990 C 398.173 176.044, 405.790 173.248, 416.500 168.089 C 435.700 158.840, 439 156.661, 439 153.237 C 439 150.040, 425.435 128.597, 418.989 121.603 C 414.867 117.132, 414.746 117.080, 411.928 118.537 C 410.350 119.353, 405.559 124.803, 401.280 130.648 C 380.902 158.484, 367.440 172.919, 352.666 182.774 C 344.724 188.072, 343 188.821, 343 186.974 C 343 186.410, 351.232 177.522, 361.293 167.224 C 371.354 156.926, 383.940 142.875, 389.261 136 C 394.583 129.125, 403.644 117.909, 409.397 111.076 C 418.879 99.814, 422.083 95, 420.097 95 C 419.703 95, 414.908 99.054, 409.441 104.010 M 426.102 98.597 C 424.946 100.067, 424 101.901, 424 102.673 C 424 103.445, 427.539 108.672, 431.864 114.288 C 440.327 125.277, 451.199 141.023, 455.031 147.842 C 456.532 150.511, 457.909 151.865, 458.783 151.530 C 459.542 151.238, 460.577 151, 461.082 151 C 465.986 151, 453.719 128.109, 436.958 105.981 C 429.082 95.584, 428.685 95.314, 426.102 98.597 M 76.462 104.750 C 66.695 116.559, 47 147.324, 47 150.771 C 47 151.339, 48.425 152.301, 50.166 152.908 C 54.588 154.449, 57.032 152.596, 61.571 144.264 C 66.516 135.185, 73.091 125.120, 80.147 115.827 C 87.997 105.488, 88.728 103.760, 86.619 100.541 C 85.703 99.143, 84.299 98, 83.499 98 C 82.699 98, 79.532 101.037, 76.462 104.750 M 93.978 122.750 C 88.509 128.947, 74.202 150.348, 73.405 153.524 C 73.063 154.883, 73.050 156.687, 73.374 157.532 C 74.301 159.949, 84.490 164.275, 103.741 170.426 C 113.509 173.547, 130.434 179.031, 141.353 182.614 C 152.272 186.196, 161.452 188.881, 161.753 188.580 C 162.054 188.279, 154.654 180.263, 145.309 170.767 C 133.262 158.524, 124.960 148.966, 116.780 137.918 C 106.328 123.803, 101.134 118, 98.950 118 C 98.521 118, 96.284 120.138, 93.978 122.750 M 41.639 166.289 C 36.445 170.132, 24.541 214.136, 22.472 237.143 C 21.854 244.017, 21.990 244.990, 23.818 246.818 C 25.070 248.070, 26.624 248.649, 27.861 248.326 C 31.890 247.272, 33.100 244.545, 34.059 234.348 C 35.399 220.113, 38.500 205.864, 44.057 188.420 C 48.263 175.216, 48.786 172.686, 47.862 170.033 C 46.526 166.202, 43.896 164.619, 41.639 166.289 M 468.750 175.572 C 467.238 176.393, 466 177.267, 466 177.515 C 466 177.763, 467.792 183.936, 469.981 191.233 C 474.917 207.680, 477.919 222.050, 478.604 232.500 C 479.344 243.796, 479.602 244.593, 482.988 245.995 C 489.275 248.599, 490.242 244.259, 487.478 225.852 C 484.765 207.792, 478.749 183.440, 475.347 176.750 C 473.766 173.641, 472.670 173.445, 468.750 175.572 M 65.500 184.954 C 58.479 187.858, 52.945 203.760, 48.977 232.436 C 47.764 241.199, 47.784 241.406, 49.975 243.181 C 52.598 245.305, 53.010 245.263, 77.500 240.431 C 99.686 236.053, 115.177 234.609, 132.500 235.305 C 147.503 235.909, 151 236.510, 151 238.489 C 151 239.416, 146.754 239.925, 134.750 240.436 C 112.376 241.388, 103.635 242.438, 80.500 246.951 C 69.500 249.096, 55.325 251.366, 49 251.995 C 31.514 253.732, 21.713 254.954, 21.209 255.458 C 20.958 255.709, 21.047 256.679, 21.406 257.615 C 22.003 259.170, 23.827 259.258, 42.779 258.648 C 54.176 258.282, 71.375 257.105, 81 256.033 C 101.125 253.792, 131.113 251.467, 158.500 250.023 C 198.518 247.913, 197.500 248.242, 197.500 237.383 L 197.500 230.588 192.500 228.617 C 189.750 227.532, 179.625 223.413, 170 219.463 C 160.375 215.512, 149.350 211.106, 145.500 209.671 C 78.545 184.716, 71.407 182.511, 65.500 184.954 M 425 188.849 C 393.126 199.645, 322.420 227.247, 319.608 229.993 C 317.828 231.730, 317.799 232.272, 319.108 239.160 L 320.500 246.480 324.500 247.155 C 326.700 247.526, 336.375 248.341, 346 248.967 C 355.625 249.592, 371.825 250.737, 382 251.511 C 392.175 252.285, 405.675 253.183, 412 253.506 C 418.325 253.829, 434.300 254.994, 447.500 256.094 C 460.700 257.194, 475.550 257.960, 480.500 257.797 C 489.496 257.500, 489.500 257.499, 489.817 254.744 C 490.006 253.097, 489.604 251.835, 488.817 251.606 C 488.093 251.395, 479.828 250.730, 470.451 250.127 C 461.073 249.524, 443.523 247.663, 431.451 245.992 C 419.378 244.320, 402.075 242.486, 393 241.916 C 372.257 240.612, 368 240.108, 368 238.958 C 368 237.071, 374.022 236.503, 393 236.597 C 408.717 236.675, 415.864 237.208, 429.843 239.347 C 449.287 242.322, 460.599 242.745, 463.521 240.609 C 465.993 238.801, 465.751 235.392, 461.921 218.038 C 455.612 189.457, 453.485 185.824, 442.733 185.273 C 437.590 185.010, 434.488 185.635, 425 188.849 M 91.009 205.250 C 91.025 207.614, 108.352 217.458, 123.038 223.447 C 130.836 226.627, 154.212 233.438, 162.434 234.926 C 169.985 236.293, 186 236.343, 186 235 C 186 234.450, 185.580 234, 185.067 234 C 184.553 234, 178.141 232.890, 170.817 231.534 C 153.312 228.292, 139.381 223.779, 113.388 212.930 C 101.620 208.019, 91.769 204, 91.496 204 C 91.223 204, 91.004 204.563, 91.009 205.250 M 408 210.697 C 388.374 219.534, 370.561 225.334, 352 228.932 C 328.328 233.522, 326 234.071, 326 235.072 C 326 236.534, 343.537 236.148, 354 234.455 C 373.315 231.331, 391.058 225.601, 407.171 217.285 C 419.152 211.101, 425.056 206.720, 423.500 205.167 C 422.834 204.503, 417.650 206.352, 408 210.697 M 243.398 209.889 C 221.529 216.150, 208.330 237.233, 211.688 260.539 C 214.355 279.053, 227.485 293.766, 245.535 298.467 C 273.538 305.761, 299.689 286.838, 301.736 257.798 C 303.028 239.470, 296.262 224.678, 282.366 215.455 C 271.342 208.138, 256.781 206.058, 243.398 209.889 M 150 258.686 C 147.525 258.882, 139.200 259.742, 131.500 260.596 C 123.800 261.451, 103.232 262.727, 85.793 263.432 C 46.982 265, 48.412 264.518, 49.359 275.718 C 50.242 286.168, 54.315 305.541, 58.249 318 C 60.976 326.639, 61.939 328.554, 63.679 328.806 C 64.968 328.993, 70.622 326.085, 78.147 321.365 C 101.077 306.984, 113.903 301.073, 136.472 294.488 C 145.782 291.772, 149.477 291.077, 150.290 291.890 C 151.859 293.459, 150.834 294.115, 140 298.482 C 126.331 303.993, 107.483 313.604, 92.500 322.705 C 85.350 327.047, 73.256 334.403, 65.624 339.050 C 57.992 343.698, 49.900 349.129, 47.643 351.119 C 44.058 354.279, 43.709 354.945, 44.891 356.369 C 45.636 357.266, 46.645 358, 47.134 358 C 49.195 358, 84.232 344.456, 92.500 340.463 C 97.450 338.073, 108.250 331.751, 116.500 326.414 C 139.101 311.794, 142.233 309.953, 169.384 295.335 C 183.198 287.898, 195.379 280.963, 196.454 279.925 C 198.273 278.167, 198.320 277.604, 197.138 271.768 C 196.439 268.321, 195.110 263.925, 194.184 262 L 192.500 258.500 173.500 258.414 C 163.050 258.367, 152.475 258.489, 150 258.686 M 323.035 259.771 C 321.136 261.308, 318.179 270.735, 318.035 275.711 C 317.972 277.881, 321.935 280.688, 341.867 292.594 C 352.665 299.044, 374.227 312.606, 389.783 322.732 C 419.353 341.982, 426.551 345.846, 442.090 350.810 C 455.880 355.216, 463.971 356.665, 465.048 354.922 C 466.211 353.041, 463.893 350.680, 456.551 346.263 C 453.223 344.261, 442.850 337.689, 433.500 331.659 C 413.881 319.006, 396.949 309.356, 378.744 300.449 C 365.504 293.972, 363 292.437, 363 290.798 C 363 289.358, 368.131 290.708, 381.500 295.666 C 398.755 302.065, 419.534 312.588, 434.381 322.447 C 441.465 327.151, 447.808 331, 448.476 331 C 450.756 331, 452.739 327.503, 455.849 318 C 460.765 302.976, 465.995 278.897, 465.999 271.273 C 466.001 265.427, 464.938 265.226, 431 264.666 C 409.231 264.307, 398.067 263.708, 392 262.573 C 377.319 259.827, 357.083 258.022, 340.861 258.011 C 327.376 258.001, 324.920 258.244, 323.035 259.771 M 482.754 265.979 C 480.590 267.681, 480.146 269.043, 479.571 275.729 C 478.126 292.548, 472.603 316.438, 467.050 329.888 C 465.372 333.951, 464 338.788, 464 340.638 C 464 344.434, 467.146 348.311, 469.811 347.798 C 476.427 346.524, 493.026 271.555, 488.026 265.532 C 486.379 263.547, 485.781 263.598, 482.754 265.979 M 24.510 266.989 C 22.998 268.660, 22.798 270.146, 23.262 276.281 C 24.157 288.117, 28.843 309.474, 33.842 324.500 C 37.751 336.250, 38.843 338.549, 40.635 338.804 C 42 338.999, 43.528 338.145, 44.873 336.434 C 47.228 333.441, 47.243 333.578, 42.979 318.947 C 38.808 304.637, 36.234 291.817, 34.959 279 C 34.330 272.675, 33.352 266.938, 32.785 266.250 C 31.213 264.342, 26.527 264.760, 24.510 266.989 M 166.500 266.706 C 153.584 267.413, 130.653 270.115, 128.699 271.161 C 126.673 272.246, 126.670 272.287, 128.570 273.735 C 130.146 274.936, 133.159 275.106, 145 274.659 C 164.927 273.908, 184.328 269.957, 182.513 267.021 C 181.906 266.039, 179.553 265.992, 166.500 266.706 M 333.529 267.954 C 330.657 272.599, 370.318 277.111, 377.980 273.011 C 382.839 270.410, 380.253 269.998, 343.351 267.488 C 337.200 267.070, 333.981 267.222, 333.529 267.954 M 205.758 292.740 C 193.163 304.415, 187.348 306.792, 196.911 296.355 C 203.253 289.435, 204.035 288, 201.467 288 C 198.415 288, 170.123 303.876, 131 327.543 C 120.275 334.030, 104.975 342.429, 97 346.206 C 89.025 349.983, 80.925 353.844, 79 354.786 C 76.993 355.769, 75.376 357.367, 75.209 358.532 C 74.710 362.020, 92.288 386.478, 97.174 389.093 C 101.884 391.614, 114.578 379.242, 131.265 355.869 C 145.334 336.161, 153.393 327.114, 163.993 319.126 C 171.828 313.222, 175.584 311.251, 176.758 312.425 C 177.092 312.759, 171.975 318.538, 165.386 325.266 C 151.274 339.678, 148.863 342.582, 134.054 363 C 121.660 380.089, 115.171 387.283, 104.169 396.129 C 92.196 405.757, 85 412.362, 85 413.722 C 85 414.425, 85.294 415, 85.654 415 C 87.048 415, 100.004 407.367, 110.500 400.362 C 125.552 390.317, 133.773 382.906, 148.064 366.500 C 163.862 348.365, 189.777 320.555, 204.428 306.016 C 213.563 296.951, 216 293.957, 216 291.801 C 216 290.097, 215.251 288.669, 214.008 288.004 C 212.298 287.089, 211.130 287.760, 205.758 292.740 M 307.233 290.077 C 300.770 296.395, 300.929 296.741, 322.302 322.921 C 338.177 342.365, 364.521 369.654, 379 381.652 C 396.651 396.279, 425 417.136, 425 415.495 C 425 410.954, 416.731 401.310, 403.992 390.994 C 394.205 383.067, 374.164 362.461, 351.345 336.860 C 334.697 318.182, 332.976 314.612, 345.101 323.904 C 352.470 329.553, 366.084 343.265, 381.432 360.500 C 397.573 378.625, 408.970 388, 414.863 388 C 418.652 388, 438.248 364.480, 437.749 360.532 C 437.561 359.049, 435.015 357.556, 427.434 354.484 C 415.236 349.542, 412.751 348.126, 388 332.018 C 367.371 318.592, 325.333 292.741, 318.273 289.140 C 312.682 286.287, 310.959 286.433, 307.233 290.077 M 188.861 334.778 C 174.210 350.025, 158.235 366.918, 153.361 372.318 C 142.922 383.884, 132.509 393.101, 121.790 400.264 C 117.531 403.110, 113.837 405.984, 113.581 406.650 C 112.373 409.796, 123.199 420.238, 137.301 429.529 C 142.228 432.775, 143.503 433.209, 145.770 432.412 C 149.567 431.077, 152.221 426.605, 156.532 414.279 C 163.244 395.087, 168.977 381.725, 175.160 370.860 C 182.061 358.734, 189.693 349.293, 191.297 350.897 C 192.399 351.999, 191.840 353.213, 179.272 377 C 171.368 391.957, 167.246 401.922, 158.051 428.299 C 150.011 451.360, 147.615 460.015, 148.911 461.311 C 149.583 461.983, 150.449 461.872, 151.528 460.977 C 156.646 456.730, 183.845 403.693, 200.018 366.427 C 204.331 356.486, 211.492 340.470, 215.930 330.834 C 220.369 321.198, 224 312.872, 224 312.332 C 224 310.655, 219.474 306.999, 217.436 307.028 C 216.228 307.046, 205.474 317.489, 188.861 334.778 M 290.250 310.115 C 287.880 311.633, 287 312.939, 287 314.937 C 287 316.444, 292.871 330.463, 300.047 346.089 C 318.489 386.250, 323.980 397.402, 333.200 413.415 C 343.404 431.136, 362.775 460.700, 364.656 461.421 C 367.689 462.585, 367.120 458.436, 363.042 449.651 C 360.706 444.618, 355.272 432.324, 350.968 422.330 C 342.547 402.779, 334.496 386.275, 324.463 368 C 317.306 354.962, 315.895 351, 318.408 351 C 321.989 351, 341.742 384.109, 351.168 405.910 C 361.218 429.155, 362.195 431.011, 364.718 431.644 C 368 432.468, 372.182 430.478, 381.164 423.818 C 390.357 417.002, 397.002 410.417, 396.995 408.129 C 396.987 405.527, 393.316 401.903, 380.374 391.721 C 350.712 368.383, 338.021 356.274, 315.145 329.483 C 294.744 305.590, 295.905 306.493, 290.250 310.115 M 251.070 312.416 C 250.384 313.242, 249.412 317.199, 248.909 321.209 C 247.564 331.934, 246.216 338.871, 242.390 354.743 C 236.942 377.347, 234.721 393.413, 234.681 410.500 C 234.632 431.321, 237.608 449.171, 245.435 475 C 247.352 481.325, 249.179 487.767, 249.496 489.316 C 249.899 491.289, 250.585 492.032, 251.786 491.795 C 253.363 491.485, 253.460 489.619, 253 468.479 C 252.187 431.102, 252.421 402.037, 253.740 376.500 C 254.422 363.300, 255.097 343.286, 255.240 332.024 C 255.469 313.964, 255.312 311.510, 253.908 311.231 C 253.032 311.057, 251.755 311.590, 251.070 312.416 M 228.592 320.823 C 227.789 322.375, 221.513 337.113, 214.644 353.573 C 198.124 393.166, 192.702 405.007, 183.744 421.066 C 172.325 441.536, 170.726 444.965, 171.926 446.411 C 177.342 452.937, 218.233 465.735, 231.643 465.101 C 234.923 464.946, 235.051 463.021, 232.456 452.865 C 228.042 435.587, 226.574 423.657, 226.626 405.500 C 226.683 385.642, 227.899 377.342, 235.029 348.142 C 237.763 336.946, 240 326.284, 240 324.449 C 240 318.108, 231.408 315.377, 228.592 320.823 M 269.571 320.572 C 267.737 322.406, 267.540 321.285, 274.035 346 C 281.498 374.395, 282.364 380.404, 282.398 404 C 282.420 420.284, 281.959 427.636, 280.156 439.748 C 278.907 448.134, 278.023 456.909, 278.192 459.248 L 278.500 463.500 283.137 463.800 C 293.687 464.483, 334.498 450.924, 338.707 445.337 C 340.194 443.364, 339.591 442.100, 329 424.987 C 319.180 409.119, 312.948 396.693, 301.926 371 C 289.825 342.793, 280.590 321.743, 279.660 320.250 C 278.549 318.465, 271.451 318.692, 269.571 320.572 M 260.592 336.250 C 258.899 352.359, 258.148 406.718, 259.090 445 C 259.651 467.825, 260.319 487.512, 260.574 488.750 C 260.905 490.354, 261.750 491, 263.519 491 C 264.884 491, 266.018 490.887, 266.041 490.750 C 266.152 490.067, 272.182 449.448, 273.203 442.500 C 273.850 438.100, 274.391 423.925, 274.405 411 C 274.427 391.132, 274.086 385.491, 272.195 374.500 C 269.916 361.254, 264.506 335.482, 263.398 332.594 C 262.241 329.579, 261.143 331.010, 260.592 336.250 M 53.750 363.080 C 51.110 364.618, 51.584 366.819, 56.365 375.208 C 64.902 390.188, 78.827 408, 82.001 408 C 83.998 408, 86 405.286, 86 402.579 C 86 401.725, 82.501 396.408, 78.225 390.763 C 73.949 385.119, 67.834 376.337, 64.636 371.250 C 58.817 361.994, 57.418 360.944, 53.750 363.080 M 454.349 364.250 C 453.249 365.488, 450.162 369.650, 447.488 373.500 C 444.814 377.350, 439.898 383.807, 436.563 387.849 C 427.825 398.440, 426 401.170, 426 403.650 C 426 405.817, 428.354 409, 429.957 409 C 432.633 409, 463 367.048, 463 363.350 C 463 361.030, 456.621 361.694, 454.349 364.250 M 97.571 419.571 C 96.707 420.436, 96 421.972, 96 422.986 C 96 427.979, 133.987 455.061, 141.425 455.372 C 144.074 455.482, 144.544 455.119, 144.816 452.753 C 145.085 450.416, 144.445 449.594, 140.530 447.253 C 127.302 439.342, 117.667 432.458, 110.243 425.613 C 105.701 421.426, 101.346 418, 100.564 418 C 99.782 418, 98.436 418.707, 97.571 419.571 M 403 424.069 C 396.545 430.002, 389.466 435.237, 377 443.297 C 370.224 447.679, 368.884 450.046, 370.972 453.948 C 371.576 455.077, 372.842 455.996, 373.785 455.990 C 377.441 455.970, 412.895 428.321, 414.445 424.282 C 415.153 422.438, 412.494 417.979, 410.727 418.047 C 410.052 418.073, 406.575 420.783, 403 424.069 M 162.198 459.750 C 159.020 462.498, 158.583 465.533, 161.036 467.819 C 163.761 470.357, 183.475 478.174, 197 482.077 C 208.275 485.332, 233.658 490, 240.079 490 C 243.885 490, 244 489.898, 244 486.539 C 244 481.806, 240.862 479.001, 235.561 478.996 C 220.409 478.982, 191.862 470.999, 173.004 461.502 C 164.957 457.450, 164.874 457.436, 162.198 459.750 M 332 464.170 C 318.439 470.086, 301.426 475.151, 287.500 477.418 C 273.210 479.744, 273.373 479.686, 272.043 482.897 C 271.112 485.144, 271.104 486.325, 272.007 488.013 C 273.079 490.016, 273.676 490.148, 278.841 489.523 C 296.590 487.375, 318.105 481.951, 336.979 474.864 C 348.635 470.488, 352 468.626, 352 466.554 C 352 464.415, 347.038 458.990, 345.161 459.077 C 344.247 459.119, 338.325 461.411, 332 464.170" stroke="none" fill="black" fill-rule="evenodd"/>
</svg>