<svg xmlns="http://www.w3.org/2000/svg" width="512" height="512" viewBox="0 0 512 512" version="1.1">
	<path d="M 229 12.090 C 194.421 15.610, 154.731 28.752, 124.444 46.711 C 91.996 65.951, 63.407 93.903, 45.240 124.150 C 15.348 173.918, 4.260 235.529, 15.086 291.698 C 20.280 318.644, 32.289 349.464, 46.886 373.313 L 50.784 379.682 46.815 385.923 C 36.993 401.372, 28 422.495, 28 430.117 C 28 434.395, 29.679 437, 32.436 437 C 35.671 437, 45.131 429.690, 53.855 420.448 C 57.841 416.225, 61.265 412.934, 61.462 413.135 C 61.660 413.336, 60.760 416.662, 59.461 420.527 C 54.834 434.307, 55.324 450.201, 60.482 453.580 C 62.544 454.931, 63.214 454.938, 66.324 453.638 C 73.010 450.845, 80.126 441.689, 88.401 425.235 L 91.049 419.970 98.523 426.488 C 132.005 455.689, 173.986 475.169, 219.500 482.626 C 235.129 485.186, 271.944 485.201, 288 482.653 C 340.537 474.317, 385.400 451.421, 423.394 413.555 C 457.069 379.994, 480.860 337.392, 491.841 290.987 C 494.264 280.749, 496 261.972, 496 246 C 496 208.348, 487.954 173.661, 471.528 140.500 C 460.224 117.678, 447.904 100.245, 431.234 83.481 C 391.944 43.967, 345.086 20.992, 288.500 13.498 C 273.740 11.543, 241.803 10.787, 229 12.090 M 221 30.628 C 181.429 35.990, 138.911 54.114, 107.500 79.009 C 67.716 110.539, 42.163 154.281, 31.854 208.500 C 28.906 224.004, 28.159 258.612, 30.404 275.695 C 32.426 291.082, 36.632 307.461, 42.607 323.210 C 47.469 336.029, 56.783 355.790, 59.885 359.867 L 61.686 362.235 70.736 347.367 C 89.411 316.686, 105.339 286.361, 104.791 282.530 C 104.270 278.892, 96.143 279.340, 76.829 284.071 C 58.360 288.595, 55.233 288.978, 53.902 286.875 C 50.777 281.942, 54.665 277.405, 69.588 268.574 C 83.241 260.495, 87.391 256.976, 88.796 252.287 C 91.161 244.391, 116.755 218.548, 147.500 193.010 C 155.200 186.614, 170.275 174.388, 181 165.842 C 191.725 157.296, 203.007 147.647, 206.071 144.402 C 209.135 141.156, 218.845 128.825, 227.647 117 C 249.915 87.087, 259.795 78.158, 276.163 73.155 C 296.787 66.852, 315.471 71.339, 331.555 86.457 C 335.375 90.048, 338.837 92.989, 339.250 92.993 C 339.663 92.997, 340 94.304, 340 95.899 C 340 98.532, 340.802 99.212, 348.750 103.317 C 353.563 105.803, 358.563 108.969, 359.862 110.352 L 362.224 112.867 358.362 113.517 C 349.956 114.931, 335 120.884, 335 122.817 C 335 123.248, 335.544 124.144, 336.209 124.809 C 337.155 125.755, 336.943 126.352, 335.238 127.546 C 332.490 129.471, 326.326 140.419, 323.306 148.739 C 320.500 156.467, 320.429 161.059, 322.949 171.571 C 328.459 194.553, 325.542 215.955, 313.553 240.500 C 297.114 274.154, 264.243 304.521, 229 318.609 C 216.564 323.581, 214.547 325.729, 217.163 331.215 C 218.394 333.797, 222.058 336.648, 233.130 343.643 C 248.488 353.346, 260.283 360.249, 263.447 361.388 C 268.300 363.134, 280.991 362.042, 296.301 358.561 C 304.915 356.602, 312.421 355, 312.981 355 C 315.989 355, 312.885 357.442, 303.443 362.507 C 291.029 369.166, 290.377 370.761, 299.262 372.732 C 307.587 374.579, 360.635 384.477, 373.250 386.537 L 384 388.293 384 401.646 C 384 409.063, 383.593 415, 383.084 415 C 380.783 415, 299.645 391.793, 287.054 387.534 C 279.255 384.896, 274.928 384, 269.984 384 C 263.859 384, 263.052 384.264, 259.271 387.500 C 257.022 389.425, 254.958 391, 254.685 391 C 254.411 391, 254.648 389.498, 255.211 387.663 C 256.127 384.680, 255.955 384.046, 253.587 381.678 L 250.939 379.030 249.970 381.580 C 247.705 387.535, 249.116 391.691, 254.474 394.852 C 256.413 395.996, 258 397.398, 258 397.966 C 258 399.838, 252.752 399.045, 248.448 396.522 L 244.220 394.044 236.964 396.512 C 232.973 397.870, 226.480 399.381, 222.535 399.871 C 211.550 401.235, 205.566 404.960, 196.630 416 C 189.976 424.220, 184.082 432.938, 178.900 442.225 L 174.840 449.500 175.396 440.433 C 176.071 429.428, 178.780 420.230, 184.608 409.154 C 191.225 396.580, 190.649 393.703, 178.872 380.500 C 174.947 376.100, 171.080 371.745, 170.278 370.822 C 168.971 369.317, 169.126 368.986, 171.792 367.608 C 173.426 366.762, 175.948 364.816, 177.396 363.282 L 180.029 360.492 190.806 371.162 C 204.210 384.432, 204.610 384.552, 219.216 379.664 C 232.454 375.234, 242.855 370.542, 243.571 368.675 C 244.848 365.347, 241.179 360.178, 233.838 354.965 C 224.052 348.016, 215.019 343.846, 208.146 343.105 C 202.511 342.496, 202.501 342.489, 202.806 339.311 C 203.245 334.727, 201.382 328.707, 198.761 326.245 C 197.342 324.912, 193.520 323.505, 188.500 322.469 C 184.100 321.560, 179.055 320.213, 177.288 319.475 C 172.139 317.325, 165.492 316.683, 161.617 317.961 C 159.674 318.603, 153.228 322.687, 147.292 327.038 C 141.356 331.389, 134.001 336.290, 130.947 337.928 C 123.538 341.903, 122.654 343.082, 119.647 353 C 118.230 357.675, 113.017 370.720, 108.063 381.989 L 99.056 402.479 104.278 407.320 C 120.955 422.780, 135.454 432.623, 158.405 444.066 C 189.513 459.574, 220.533 466.943, 254.872 466.982 C 287.665 467.018, 319.880 459.430, 350.500 444.454 C 416.978 411.942, 466.299 344.798, 476.493 272.933 C 478.607 258.028, 478.618 230.026, 476.515 215.426 C 468.850 162.206, 443.847 115.477, 406.110 83.844 C 371.147 54.537, 325.230 34.984, 279.789 30.054 C 266.349 28.595, 233.645 28.915, 221 30.628 M 297.763 97.565 C 294.113 99.546, 291.699 104.353, 292.507 108.031 C 293.376 111.991, 299.276 117, 303.070 117 C 308.861 117, 314.118 111.320, 313.898 105.300 C 313.798 102.584, 313.772 102.599, 313.016 105.791 C 311.528 112.070, 306.702 114.838, 300.818 112.787 C 295.480 110.926, 294.323 104.586, 298.551 100.358 C 300.681 98.228, 301.842 97.866, 305.583 98.163 C 309.383 98.465, 309.802 98.328, 308.341 97.260 C 306.052 95.586, 301.149 95.728, 297.763 97.565 M 328.500 113.577 C 326.850 114.989, 326.134 115.816, 326.909 115.415 C 327.685 115.013, 330.835 113.880, 333.909 112.896 L 339.500 111.108 335.500 111.059 C 332.604 111.023, 330.672 111.718, 328.500 113.577 M 163.583 203.069 C 161.979 204.681, 160.872 206.205, 161.122 206.456 C 161.924 207.257, 167.302 202.404, 166.893 201.249 C 166.675 200.634, 165.201 201.444, 163.583 203.069 M 164.250 209.816 C 160.002 212.476, 158.895 214.015, 161.250 213.984 C 163.166 213.958, 170.292 209.660, 170.756 208.250 C 171.396 206.304, 168.900 206.904, 164.250 209.816 M 168.819 214.531 C 166.244 215.871, 163.853 217.429, 163.505 217.991 C 162.282 219.971, 166.259 220.278, 169.361 218.443 C 171.088 217.422, 173.976 215.868, 175.780 214.990 C 177.583 214.111, 178.746 213.079, 178.363 212.696 C 177.067 211.401, 173.520 212.082, 168.819 214.531 M 176.340 218.404 C 169.332 221.763, 166.522 224, 169.311 224 C 171.585 224, 187.088 216.422, 186.341 215.675 C 185.162 214.496, 183.613 214.919, 176.340 218.404 M 189.632 218.608 C 180.204 222.657, 173.083 228, 177.112 228 C 179.396 228, 198.044 218.631, 197.716 217.648 C 197.117 215.852, 195.636 216.028, 189.632 218.608 M 201.500 219.835 C 199.850 220.839, 197.282 221.966, 195.793 222.339 C 192.562 223.148, 185.720 227.053, 186.379 227.712 C 186.634 227.967, 188.830 227.012, 191.259 225.588 C 196.353 222.603, 197.156 222.431, 196.365 224.492 C 195.397 227.014, 198.530 227.231, 203.330 224.975 C 208.431 222.577, 210.492 220.605, 209.527 219.044 C 208.537 217.442, 204.829 217.807, 201.500 219.835 M 215.500 220.642 C 209.094 224.077, 206.819 228.009, 211.250 227.991 C 214.304 227.978, 224.225 222.180, 223.737 220.693 C 223.139 218.871, 218.852 218.845, 215.500 220.642 M 228.500 220.563 C 224.223 222.774, 222.832 224.399, 223.570 226.322 C 224.428 228.559, 226.701 228.437, 231.515 225.898 C 236.990 223.009, 237.368 222.510, 235.493 220.636 C 233.466 218.609, 232.304 218.597, 228.500 220.563 M 141 227.032 C 138.916 227.489, 140.737 227.584, 145.500 227.265 C 149.900 226.971, 153.688 226.566, 153.917 226.365 C 154.653 225.719, 144.619 226.237, 141 227.032 M 133.750 228.662 C 134.438 228.940, 135.563 228.940, 136.250 228.662 C 136.938 228.385, 136.375 228.158, 135 228.158 C 133.625 228.158, 133.063 228.385, 133.750 228.662 M 151 231.679 C 142.632 232.537, 127.099 235.180, 122.500 236.528 C 119.164 237.507, 118.665 237.815, 121 237.454 C 138.033 234.821, 143.852 234.090, 152.750 233.464 C 158.387 233.067, 163 232.350, 163 231.871 C 163 231.025, 158.139 230.947, 151 231.679 M 222.500 236.117 C 216.450 238.325, 208.887 241.051, 205.694 242.176 C 202.501 243.301, 200.074 244.407, 200.301 244.634 C 200.768 245.101, 231.139 234.603, 233.786 233.060 C 237.076 231.142, 233.420 232.132, 222.500 236.117 M 153 237.533 C 132.948 239.469, 111.303 243.631, 108.615 246.068 C 108.128 246.509, 111.053 246.011, 115.115 244.962 C 119.177 243.912, 132.400 241.893, 144.500 240.475 C 156.600 239.056, 167.850 237.515, 169.500 237.050 L 172.500 236.204 169.500 236.217 C 167.850 236.224, 160.425 236.816, 153 237.533 M 162 243.558 C 156.225 244.280, 149.025 245.336, 146 245.903 L 140.500 246.934 146 246.464 C 155.863 245.621, 178.490 242.837, 178.917 242.413 C 179.608 241.728, 173.103 242.168, 162 243.558 M 135.250 247.689 C 136.213 247.941, 137.787 247.941, 138.750 247.689 C 139.713 247.438, 138.925 247.232, 137 247.232 C 135.075 247.232, 134.287 247.438, 135.250 247.689 M 211 249.531 C 206.657 250.875, 204.576 251.883, 206.056 251.926 C 208.536 251.998, 221 248.230, 221 247.408 C 221 246.669, 218.599 247.179, 211 249.531 M 128.250 248.689 C 129.213 248.941, 130.787 248.941, 131.750 248.689 C 132.713 248.438, 131.925 248.232, 130 248.232 C 128.075 248.232, 127.287 248.438, 128.250 248.689 M 154.500 251.531 C 124.295 255.940, 116.336 257.279, 117.678 257.726 C 118.761 258.087, 181.519 249.343, 183.500 248.555 C 186.491 247.366, 174.849 248.561, 154.500 251.531 M 122.813 249.683 C 123.534 249.972, 124.397 249.936, 124.729 249.604 C 125.061 249.272, 124.471 249.036, 123.417 249.079 C 122.252 249.127, 122.015 249.364, 122.813 249.683 M 178 255.108 C 175.525 255.597, 161.350 257.828, 146.500 260.066 C 116.554 264.580, 104.387 266.719, 107.691 266.888 C 111.245 267.070, 180.043 256.362, 184 255.011 C 187.398 253.851, 184.094 253.904, 178 255.108 M 112.750 258.662 C 113.438 258.940, 114.563 258.940, 115.250 258.662 C 115.938 258.385, 115.375 258.158, 114 258.158 C 112.625 258.158, 112.063 258.385, 112.750 258.662 M 107.750 259.662 C 108.438 259.940, 109.563 259.940, 110.250 259.662 C 110.938 259.385, 110.375 259.158, 109 259.158 C 107.625 259.158, 107.063 259.385, 107.750 259.662 M 102.813 260.683 C 103.534 260.972, 104.397 260.936, 104.729 260.604 C 105.061 260.272, 104.471 260.036, 103.417 260.079 C 102.252 260.127, 102.015 260.364, 102.813 260.683 M 178 262.068 C 172.579 263.406, 121.416 271.917, 113 272.881 C 107.725 273.486, 106.739 273.779, 109.678 273.870 C 115.171 274.041, 124.741 272.695, 152 267.920 C 174.266 264.019, 187.369 261.229, 183.500 261.213 C 182.400 261.208, 179.925 261.593, 178 262.068 M 99.762 267.707 C 101.006 267.946, 102.806 267.937, 103.762 267.687 C 104.718 267.437, 103.700 267.241, 101.500 267.252 C 99.300 267.263, 98.518 267.468, 99.762 267.707 M 78 272.834 C 78 274.598, 81.110 275.001, 93.332 274.820 L 105.500 274.641 93 274.070 C 86.125 273.757, 79.938 273.136, 79.250 272.691 C 78.559 272.244, 78 272.308, 78 272.834 M 239.250 380.970 C 238.012 382.129, 237 383.308, 237 383.589 C 237 384.684, 239.938 389.703, 241.185 390.738 C 242.247 391.620, 242.444 390.930, 242.208 387.165 C 241.651 378.282, 241.796 378.585, 239.250 380.970" stroke="none" fill="black" fill-rule="evenodd"/>
</svg>