<svg xmlns="http://www.w3.org/2000/svg" width="512" height="512" viewBox="0 0 512 512" version="1.1">
	<path d="M 0 256.002 L 0 512.004 256.250 511.752 L 512.500 511.500 512.752 255.750 L 513.004 0 256.502 0 L 0 0 0 256.002 M 0.492 256.500 C 0.492 397.300, 0.608 454.751, 0.750 384.170 C 0.892 313.588, 0.892 198.388, 0.750 128.170 C 0.608 57.951, 0.492 115.700, 0.492 256.500 M 230 22.447 C 199.622 26.412, 168.433 37.446, 139.541 54.450 C 125.457 62.739, 107.586 76.565, 93.895 89.765 C 80.364 102.811, 72.509 112.152, 63.428 126 C 35.905 167.967, 22.689 213.245, 24.314 260 C 25.609 297.255, 32.059 325.434, 45.982 354.656 C 64.507 393.540, 86.298 418.797, 121.500 442.184 C 148.744 460.284, 180.642 472.806, 215.500 479.087 C 230.602 481.808, 267.839 482.886, 282.790 481.034 C 326.110 475.669, 366.778 459.598, 400.304 434.595 C 427.855 414.048, 446.012 392.083, 461.550 360.500 C 477.252 328.585, 484.323 299.848, 485.665 262.500 C 488.026 196.741, 462.882 134.936, 414.876 88.496 C 379.703 54.471, 333.004 30.437, 288.500 23.455 C 274.538 21.265, 243.196 20.725, 230 22.447 M 237.915 34.074 C 227.414 34.944, 209.011 38.784, 196.500 42.716 C 160.213 54.121, 125.577 74.748, 100.091 100.133 C 72.862 127.253, 55.082 157.458, 44.044 195.348 C 37.211 218.806, 34.992 234.322, 35.018 258.474 C 35.045 283.619, 38.200 302.678, 46.170 325.844 C 66.004 383.500, 100.794 422.825, 155.500 449.428 C 176.370 459.578, 196.648 466.244, 218.087 470.002 C 233.844 472.765, 263.997 473.785, 279.016 472.064 C 310.069 468.506, 345.786 456.462, 371.780 440.784 C 409.008 418.330, 434.995 390.306, 452.447 353.793 C 468.547 320.109, 475 293.460, 475 260.656 C 475 222.061, 465.737 186.325, 446.375 150.222 C 424.155 108.790, 392.269 78.313, 348.818 56.975 C 322.302 43.954, 294.523 36.080, 267.754 33.998 C 254.072 32.934, 251.596 32.941, 237.915 34.074 M 229.238 50.503 C 169.220 59.651, 111.143 98.095, 81.014 148.623 C 60.357 183.264, 48.657 228.794, 50.336 268 C 51.597 297.444, 57.178 318.950, 71.045 347.803 C 86.601 380.169, 105.024 401.403, 134.742 421.219 C 167.238 442.888, 198.218 454.783, 233.313 459.065 C 245.805 460.590, 276.339 459.767, 288.500 457.579 C 318.463 452.188, 347.240 440.658, 372.243 424.027 C 404.365 402.662, 423.947 379.477, 441.332 342.230 C 467.315 286.558, 465.827 224.642, 437.085 165.500 C 415.792 121.685, 383.045 89.523, 337.991 68.174 C 320.292 59.788, 305.812 55.117, 285.991 51.398 C 274.107 49.169, 241.379 48.653, 229.238 50.503 M 220.200 84.200 C 218.579 85.821, 218.684 90.104, 220.405 92.561 C 221.759 94.495, 221.411 94.668, 210.655 97.401 C 181.513 104.807, 157.001 118.908, 134.950 140.953 C 115.508 160.391, 102.076 181.912, 93.659 207.110 C 88.952 221.203, 85.877 236.181, 85.671 246.019 L 85.500 254.186 90.870 256.208 C 95.043 257.779, 96.413 257.950, 97.014 256.978 C 97.439 256.289, 98.322 251.477, 98.976 246.285 C 105.936 190.991, 137.695 145.212, 185.849 121.065 C 200.704 113.616, 225.703 106.521, 230.547 108.380 C 231.943 108.915, 232.164 110.059, 231.811 114.930 C 231.018 125.898, 225.261 134.500, 207.753 150.876 C 200.491 157.667, 198.937 161.929, 201.385 168.339 C 202.476 171.195, 204.815 174.217, 208.034 176.932 C 211.928 180.215, 213 181.758, 213 184.081 C 213 187.607, 211.595 188.319, 201.349 189.984 C 188.090 192.139, 175.500 200.020, 168.522 210.533 C 159.071 224.772, 158.542 241.607, 166.976 259.730 C 170.857 268.068, 173.942 272.429, 190.508 293 C 198.259 302.625, 206.919 314.272, 209.754 318.882 C 217.662 331.746, 223.625 350.136, 221.115 353.918 C 220.125 355.410, 212.631 356.804, 204.941 356.927 C 199.642 357.012, 196.595 358.780, 197.533 361.226 C 197.887 362.147, 202.299 365.934, 207.338 369.642 C 212.377 373.350, 221.921 381.810, 228.546 388.442 C 243.942 403.852, 248.270 411.754, 251.447 430.250 C 252.044 433.727, 252.340 434, 255.510 434 C 259.621 434, 260.486 432.638, 261.369 424.771 C 262.824 411.817, 269.645 400.007, 283.353 386.711 C 288.355 381.859, 297.018 374.778, 302.605 370.975 C 308.192 367.172, 313.069 363.264, 313.442 362.289 C 314.685 359.051, 310.923 357.365, 300.862 356.651 C 295.039 356.238, 291.042 355.471, 290.172 354.601 C 288.118 352.546, 288.574 342.629, 291.072 335.017 C 295.573 321.306, 302.994 309.764, 319.189 291.285 C 333.192 275.305, 338.222 268.462, 342.501 259.565 C 353.225 237.269, 350.223 216.629, 334.105 201.834 C 327.267 195.558, 319.240 191.502, 308.885 189.091 C 304.404 188.047, 300.354 186.587, 299.884 185.847 C 297.908 182.728, 299.041 179.769, 303.877 175.421 C 310.390 169.565, 312.066 163.826, 309.066 157.648 C 307.904 155.256, 304.663 151.598, 301.409 149.007 C 294.106 143.193, 286.039 134.449, 282.664 128.689 C 279.391 123.105, 276.608 112.698, 277.469 109.266 C 278.073 106.861, 278.371 106.760, 283.303 107.295 C 297.597 108.848, 321.612 118.846, 338.988 130.479 C 369.636 150.997, 390.205 177.668, 402.330 212.617 C 406.173 223.694, 410.459 241.946, 411.520 251.750 C 412.287 258.838, 412.295 258.842, 420.713 256.395 L 426.235 254.790 425.564 248.645 C 424.509 238.968, 420.124 220.475, 416.287 209.523 C 403.807 173.897, 383.672 146.604, 352.785 123.443 C 336.765 111.431, 320.480 103.173, 301.500 97.440 C 290.643 94.161, 289.540 93.341, 290.959 89.608 C 292.464 85.649, 290.775 83, 286.745 83 C 284.095 83, 282.286 84.299, 275.954 90.750 C 264.716 102.198, 258.040 116.856, 258.012 130.145 C 257.983 143.902, 267.725 163.268, 277.074 168.038 C 281.690 170.393, 285.304 170.510, 291.030 168.489 C 293.385 167.658, 295.508 167.175, 295.747 167.414 C 296.693 168.359, 294.775 171.925, 291.517 175.280 C 287.373 179.546, 282.741 180.554, 275 178.873 C 271.805 178.179, 260.282 177.623, 247.500 177.546 C 222.703 177.396, 218.330 176.472, 215.373 170.755 C 212.704 165.593, 214.190 162.387, 223.976 152.202 C 233.789 141.989, 238.966 133.225, 241.071 123.263 C 242.263 117.618, 242.309 117.561, 243.302 120.473 C 244.811 124.899, 242.569 141.735, 239.425 149.595 C 238.007 153.140, 237.045 156.594, 237.288 157.270 C 238.034 159.354, 246.042 150.090, 249.123 143.577 C 256.673 127.619, 249.463 103.862, 232.181 87.750 C 226.941 82.865, 222.771 81.629, 220.200 84.200 M 268.039 129.500 C 267.989 136.244, 276.064 154.332, 280.781 158.042 C 283.416 160.115, 289.430 160.646, 291.983 159.032 C 293.165 158.285, 291.528 156.206, 283.925 148.797 C 277.610 142.643, 273.315 137.472, 271.219 133.500 C 269.358 129.974, 268.047 128.325, 268.039 129.500 M 246 193.530 C 242.109 194.733, 236.933 197.506, 228.329 202.997 C 226.378 204.242, 225.741 204.092, 222.027 201.519 C 212.446 194.879, 199.655 198.125, 188.676 209.983 C 181.546 217.685, 178.781 224.713, 178.836 235 C 178.909 248.734, 182.624 256.089, 203.584 284 C 217.986 303.178, 224.674 313.419, 230.951 325.902 C 237.652 339.230, 243.175 357.822, 241.261 360.606 C 240.842 361.214, 238.700 362.129, 236.500 362.638 C 232.597 363.543, 232.493 363.679, 232.196 368.265 C 231.902 372.811, 232.098 373.184, 238.247 379.732 C 241.743 383.454, 246.956 389.988, 249.832 394.250 C 252.708 398.512, 255.221 402, 255.417 402 C 255.612 402, 257.684 398.781, 260.021 394.847 C 262.358 390.913, 267.607 384.203, 271.684 379.935 C 277.066 374.302, 279.249 371.241, 279.651 368.762 C 280.264 364.987, 278.232 362, 275.051 362 C 274.058 362, 272.770 361.427, 272.189 360.727 C 270.553 358.756, 274.367 338.614, 279 324.758 C 285.806 304.401, 290.316 296.923, 313.832 267 C 327.922 249.072, 331.912 237.583, 328.645 224.346 C 325.099 209.974, 314.691 199.817, 301.968 198.310 C 297.938 197.833, 296.103 198.204, 291.591 200.412 L 286.110 203.093 280.805 199.575 C 270.108 192.482, 256.845 190.178, 246 193.530 M 113.061 250.750 C 100.384 263.922, 93.774 275.184, 93.172 284.633 C 92.949 288.135, 92.366 291, 91.877 291 C 91.387 291, 89.977 289.787, 88.743 288.304 C 83.033 281.443, 81.931 280.641, 80.363 282.208 C 77.068 285.504, 76.756 297.666, 79.510 315.500 C 80.081 319.200, 79.898 319.628, 77.064 321.203 C 74.463 322.649, 74 323.495, 74 326.794 C 74 332.452, 79.170 342.068, 85.058 347.362 C 87.776 349.806, 90 352.074, 90 352.403 C 90 352.731, 88.635 353, 86.968 353 C 83.613 353, 81.561 356.208, 83.069 359.092 C 84.235 361.322, 94.041 364.878, 102.766 366.234 C 111.111 367.531, 119.484 366.324, 126.316 362.839 C 131.541 360.173, 143.723 351.044, 147.642 346.857 C 153.083 341.044, 158 328.712, 158 320.878 C 158 312.812, 154.131 315.725, 147.798 328.560 C 145.464 333.291, 143.403 336.709, 143.219 336.157 C 143.035 335.604, 144.175 331.292, 145.752 326.576 C 147.330 321.859, 148.356 318, 148.033 318 C 147.108 318, 142.766 321.062, 139.750 323.840 C 135.272 327.966, 136.616 324.644, 141.722 318.964 C 146.724 313.401, 151.012 311, 155.949 311 C 158.959 311, 158.961 310.995, 158.376 306.250 C 156.581 291.706, 153.443 282.334, 150.686 283.286 C 149.407 283.727, 149.390 284.977, 150.526 295.131 C 151.442 303.330, 150.561 308.400, 147.765 311.004 C 144.691 313.868, 144.107 313.497, 145.007 309.250 C 145.443 307.188, 146.103 302.911, 146.473 299.746 C 147.219 293.356, 146.036 291.840, 141.992 294.004 C 140.802 294.641, 139.659 294.992, 139.451 294.784 C 139.243 294.577, 139.777 292.178, 140.637 289.453 C 142.511 283.514, 142.802 271.367, 141.144 268.269 C 138.422 263.182, 132.768 263.440, 125.894 268.965 L 122.165 271.962 124.145 266.329 C 126.245 260.352, 126.049 255.593, 123.439 249.250 C 121.510 244.560, 118.616 244.978, 113.061 250.750 M 385.885 248.750 C 383.622 254.593, 384.458 262.047, 388.341 270.648 C 392.725 280.357, 392.973 282.093, 389.106 276 C 385.483 270.292, 382.451 267.504, 377.714 265.525 C 370.791 262.632, 368 266.019, 368 277.309 C 368 285.227, 369.631 291.269, 373.075 296.105 L 375.191 299.077 370.400 296.039 C 367.765 294.367, 365.022 293, 364.304 293 C 362.391 293, 362.701 296.614, 365.381 305.556 C 366.691 309.925, 367.594 313.685, 367.388 313.911 C 366.608 314.764, 363.193 310.770, 360.550 305.914 C 358.029 301.283, 357.834 300.141, 358.153 291.899 C 358.482 283.402, 358.394 282.941, 356.502 283.213 C 353.557 283.636, 350.069 293.288, 349.312 303.111 C 348.822 309.465, 348.989 311.387, 350.094 312.115 C 351.249 312.875, 351.120 313.349, 349.369 314.770 C 348.196 315.722, 346.476 316.950, 345.546 317.500 C 343.968 318.433, 343.983 318.802, 345.769 323 C 346.823 325.475, 347.969 328.850, 348.316 330.500 C 349.028 333.887, 349.104 334.027, 344.513 323.500 C 342.040 317.830, 337.997 314.871, 335.185 316.672 C 333.803 317.557, 333.513 319.345, 333.572 326.625 C 333.660 337.400, 336.477 347.536, 341.429 354.895 C 344.832 359.951, 344.842 360, 342.509 360 C 339.005 360, 334.383 355.564, 332.322 350.222 C 330.909 346.560, 330.532 342.997, 330.640 334.347 C 330.850 317.675, 332.739 313.669, 339.877 314.752 C 344.773 315.495, 343.581 313.235, 336.976 309.250 C 328.346 304.044, 328.028 304.263, 322.601 319.161 C 321.195 323.019, 320.226 324.092, 316.975 325.393 C 312.390 327.228, 311.442 329.645, 312.339 337.218 C 313.474 346.799, 322.530 362, 327.104 362 C 328.619 362, 329 361.267, 329 358.356 L 329 354.712 332.632 359.470 C 335.753 363.556, 338.114 365.127, 349.382 370.614 C 356.597 374.126, 365.272 377.923, 368.659 379.051 C 374.325 380.938, 375.107 380.982, 378.409 379.602 C 381.784 378.192, 382 377.828, 382 373.554 C 382 369.769, 381.418 368.362, 378.534 365.170 L 375.069 361.334 380.784 363.314 C 389.533 366.344, 400.959 366.658, 410.912 364.142 C 421.876 361.369, 427.500 358.263, 427.500 354.980 C 427.500 352.638, 427.154 352.483, 421.293 352.203 C 415.122 351.909, 415.092 351.892, 416.190 349.483 C 417.136 347.407, 416.950 346.759, 414.897 344.969 C 408.012 338.965, 393.732 335.538, 378.217 336.167 C 373.695 336.350, 369.996 336.219, 369.998 335.875 C 370.001 334.949, 375.586 334, 381.037 334 C 385.596 334, 386.141 333.686, 392.484 327.405 C 396.147 323.778, 399.397 321.064, 399.707 321.374 C 401.074 322.741, 393.150 331.549, 389 333.275 C 387.398 333.941, 387.039 334.409, 388 334.577 C 402.416 337.102, 404.828 337.234, 407.125 335.625 C 410.487 333.270, 411.473 333.629, 409.580 336.518 C 408.136 338.723, 408.117 339.108, 409.430 339.611 C 410.254 339.928, 412.252 339.245, 413.869 338.093 C 415.486 336.942, 417.056 336, 417.357 336 C 417.659 336, 417.645 338.204, 417.326 340.897 C 416.831 345.073, 417.032 345.947, 418.692 346.835 C 423.050 349.168, 431.991 339.152, 432.768 331.068 C 433.174 326.833, 432.880 325.933, 430.024 322.680 L 426.825 319.036 429.162 312.268 C 430.985 306.991, 431.494 303.408, 431.475 296 C 431.437 281.676, 428.953 278.741, 423.067 286.066 C 421.270 288.303, 419.618 289.951, 419.396 289.729 C 419.174 289.507, 418.505 286.665, 417.910 283.413 C 417.314 280.161, 415.688 275.397, 414.296 272.826 C 408.388 261.915, 393.307 246, 388.876 246 C 387.700 246, 386.536 247.071, 385.885 248.750 M 117.243 262.250 C 116.693 262.938, 115.175 265.525, 113.871 268 C 111.769 271.990, 111.500 273.823, 111.500 284.167 C 111.500 295.340, 112.207 298.901, 113.886 296.184 C 114.313 295.493, 115.217 290.106, 115.895 284.213 C 116.572 278.321, 117.717 270.688, 118.439 267.250 C 119.708 261.209, 119.333 259.642, 117.243 262.250 M 392.040 264.128 C 392.092 268.477, 396.534 294.867, 397.351 295.684 C 397.694 296.027, 398.691 294.592, 399.567 292.495 C 401.597 287.634, 400.744 279.166, 397.277 269.788 C 394.235 261.557, 391.980 259.120, 392.040 264.128 M 99.537 289.922 C 97.105 295.012, 96.795 296.602, 97.340 301.232 C 97.688 304.194, 98.653 308.392, 99.484 310.559 C 100.771 313.918, 100.929 314.057, 100.550 311.500 C 98.004 294.305, 98.703 292.289, 106.123 295.430 C 107.528 296.024, 107.461 295.304, 105.623 290.058 C 104.456 286.726, 103.246 284, 102.934 284 C 102.623 284, 101.094 286.665, 99.537 289.922 M 406.511 285.982 C 406.142 286.580, 405.440 289.866, 404.952 293.284 C 404.464 296.703, 402.931 302.381, 401.547 305.902 C 398.577 313.455, 399.113 313.146, 404.500 304.201 C 406.700 300.548, 408.950 297.771, 409.500 298.030 C 410.647 298.569, 410.757 303.878, 409.727 309 L 409.023 312.500 410.985 308.500 C 413.529 303.314, 413.658 293.801, 411.248 289.060 C 409.377 285.377, 407.599 284.222, 406.511 285.982 M 124.500 292.714 C 118.195 298.624, 118.129 298.626, 128.205 292.596 C 129.142 292.035, 130.230 291.896, 130.622 292.288 C 131.014 292.680, 130.355 298.063, 129.159 304.251 C 126.276 319.150, 125.477 325.772, 126.713 324.500 C 127.550 323.639, 130.572 309.901, 132.598 297.750 C 133.263 293.758, 132.380 286.970, 131.205 287.045 C 130.817 287.070, 127.800 289.621, 124.500 292.714 M 378.520 290.250 C 376.322 296.838, 376.467 300.664, 379.181 307.759 C 382.240 315.757, 384.956 321.377, 385.498 320.835 C 385.691 320.643, 384.533 315.797, 382.924 310.068 C 380.146 300.173, 379.069 290, 380.800 290 C 381.240 290, 382.231 290.563, 383.002 291.250 C 384.194 292.313, 384.206 292.239, 383.079 290.750 C 381.538 288.713, 379.121 288.448, 378.520 290.250 M 168.457 307.633 C 160.495 311.079, 160.419 311.147, 160.803 314.438 C 161.440 319.897, 159.137 331.797, 156.395 337.206 C 152.957 343.991, 146.024 351.233, 137.361 357.087 C 132.031 360.689, 129.686 363.017, 128.111 366.272 C 125.442 371.784, 125.402 376.402, 128 379 C 130.870 381.870, 134.832 381.495, 144.768 377.413 C 149.571 375.440, 158 372.021, 163.500 369.815 C 174.541 365.388, 175.462 364.741, 176.395 360.750 C 177.017 358.089, 175.773 356.940, 174.500 359 C 173.813 360.112, 167 360.398, 167 359.314 C 167 358.937, 167.866 357.700, 168.925 356.564 C 175.018 350.031, 179.089 333.840, 177.361 323.012 C 176.313 316.444, 174.689 315.708, 169.983 319.668 C 167.400 321.841, 166.928 322.003, 167.772 320.426 C 169.122 317.903, 173.163 315.692, 175.575 316.157 C 176.799 316.392, 177.700 317.845, 178.272 320.505 C 179.169 324.677, 179.580 343.974, 179.002 354.783 C 178.604 362.243, 179.648 363.851, 183.120 361.120 C 188.645 356.774, 194.054 342.903, 193.888 333.500 C 193.752 325.727, 192.848 323.641, 189.087 322.410 C 186.111 321.436, 185.514 320.581, 183.504 314.410 C 180.326 304.650, 179.983 303.991, 178.143 304.076 C 177.239 304.117, 172.881 305.718, 168.457 307.633 M 92.195 316.858 C 91.289 317.433, 92.207 318.189, 95.200 319.332 C 97.571 320.238, 102.996 322.965, 107.255 325.392 C 111.515 327.819, 115 329.581, 115 329.307 C 115 327.856, 110.281 322.542, 106.278 319.486 C 102.760 316.800, 100.770 316.004, 97.606 316.015 C 95.348 316.024, 92.913 316.403, 92.195 316.858 M 352 324 C 352.589 325.100, 353.295 326, 353.570 326 C 353.845 326, 353.589 325.100, 353 324 C 352.411 322.900, 351.705 322, 351.430 322 C 351.155 322, 351.411 322.900, 352 324 M 91.897 334.736 C 95.236 339.089, 96.824 340.510, 97.546 339.788 C 97.772 339.561, 95.863 337.378, 93.303 334.938 L 88.649 330.500 91.897 334.736 M 89.091 340.739 C 89.664 342.245, 91.036 344.940, 92.140 346.726 C 94.056 349.826, 94.271 349.911, 96.837 348.584 C 98.316 347.819, 102.191 346.419, 105.449 345.472 L 111.371 343.750 108.582 342.289 C 106.565 341.232, 104.224 341.010, 100.123 341.486 C 95.287 342.047, 94.065 341.839, 91.819 340.072 C 88.339 337.335, 87.843 337.457, 89.091 340.739 M 318.314 368.797 C 308.560 372.281, 301.222 379.025, 298.018 387.452 C 297.164 389.700, 297.334 390.171, 299.264 390.899 C 300.494 391.362, 304.875 393.189, 309 394.959 C 327.581 402.932, 329.454 403.389, 343.500 403.384 C 356.567 403.379, 359.562 402.868, 378.750 397.364 C 383.506 396, 384 395.590, 384 393.002 C 384 389.498, 378.935 384.994, 372.133 382.448 C 369.585 381.495, 360.975 377.789, 353 374.213 C 340.130 368.442, 337.657 367.669, 331 367.329 C 325.458 367.045, 322.146 367.429, 318.314 368.797 M 171.352 369.431 C 169.070 370.145, 159.423 373.827, 149.913 377.614 C 131.318 385.020, 125.551 388.804, 126.173 393.191 C 126.426 394.981, 127.661 395.885, 131.663 397.214 C 150.805 403.566, 166.539 405.382, 178.333 402.602 C 182.091 401.715, 189.966 398.770, 195.833 396.057 C 201.700 393.343, 207.738 390.821, 209.250 390.453 C 212.672 389.620, 212.701 388.052, 209.401 382.421 C 205.868 376.393, 199.603 371.257, 193.612 369.477 C 187.582 367.687, 177 367.665, 171.352 369.431" stroke="none" fill="black" fill-rule="evenodd"/>
</svg>