<svg xmlns="http://www.w3.org/2000/svg" width="512" height="512" viewBox="0 0 512 512" version="1.1">
	<path d="M 235 7.613 C 214.188 10.136, 199.336 13.264, 182.784 18.612 C 138.426 32.942, 96.925 60.068, 68.208 93.500 C 37.772 128.933, 18.434 171.359, 10.319 220.500 C 7.733 236.159, 7.751 277.163, 10.349 291.500 C 20.695 348.584, 43.972 394.777, 81.099 431.904 C 120.988 471.793, 168.249 495.195, 225 503.159 C 239.428 505.184, 278.606 504.900, 293 502.667 C 335.630 496.052, 377.918 477.515, 411 450.940 C 461.110 410.686, 493.200 355.385, 502.648 293 C 504.741 279.182, 504.973 247.623, 503.094 232.500 C 497.772 189.688, 483.813 150.621, 462.076 117.705 C 437.182 80.008, 399.731 48.466, 356.500 28.786 C 323.074 13.570, 298.262 8.042, 261 7.510 C 248.625 7.334, 236.925 7.380, 235 7.613 M 232 24.524 C 208.365 27.510, 184.360 34.870, 160.182 46.543 C 116.197 67.778, 87.580 91.904, 63.947 127.676 C 51.154 147.039, 38.647 174.707, 32.610 197 C 23.929 229.056, 22.643 266.810, 29.152 298.500 C 37.054 336.974, 56.675 378.475, 80.241 406.562 C 111.041 443.271, 154.076 470.230, 202.100 482.901 C 244.714 494.144, 283.020 492.920, 325.500 478.957 C 369.117 464.620, 404.216 440.748, 434.238 405 C 473.801 357.893, 493.376 294.448, 486.496 235.633 C 478.471 167.024, 447.416 110.605, 396.857 72.781 C 364.796 48.794, 327.537 32.441, 290 25.881 C 274.631 23.195, 247.538 22.561, 232 24.524 M 237 31.063 C 186.893 36.623, 134.789 61.263, 97.662 96.958 C 80.023 113.916, 67.382 131.698, 55.412 156.388 C 22.224 224.846, 23.569 293.182, 59.489 363.500 C 68.023 380.206, 73.640 388.999, 84.031 401.917 C 110.042 434.254, 147.210 458.709, 192.563 473.326 C 211.847 479.540, 228.838 482.607, 249.458 483.595 C 314.324 486.701, 390.893 452.204, 431.673 401.500 C 455.763 371.548, 473.504 330.375, 479.501 290.500 C 481.439 277.617, 481.715 248.477, 480.037 234 C 473.971 181.662, 451.300 133.274, 416.531 98.453 C 397.544 79.438, 380.267 67.364, 353.500 54.403 C 329.281 42.675, 308.708 36.024, 285.881 32.540 C 272.925 30.563, 248.235 29.817, 237 31.063 M 228.737 48.629 C 210.950 51.203, 185.985 58.648, 177.250 63.985 C 175.095 65.302, 174 66.748, 174 68.280 C 174 71.901, 199.184 115.149, 200.517 113.817 C 200.702 113.631, 200.062 108.759, 199.095 102.990 C 198.127 97.220, 197.492 92.305, 197.684 92.067 C 199.064 90.354, 204.757 102.538, 210.881 120.310 C 217.861 140.571, 225.824 158.839, 228.416 160.537 C 232.088 162.943, 245.295 159.051, 246.352 155.251 C 246.619 154.288, 247.115 147.875, 247.454 141 C 248.496 119.839, 250.012 101.213, 252.059 84.451 C 253.137 75.624, 254.127 64.451, 254.259 59.621 C 254.483 51.455, 254.335 50.706, 252.139 48.920 C 249.300 46.611, 243.212 46.535, 228.737 48.629 M 266.617 51.145 C 264.769 52.735, 263.515 55.083, 262.941 58.029 C 261.421 65.833, 261.867 90.786, 263.915 112.500 C 265.005 124.050, 266.206 138.624, 266.586 144.888 C 267.126 153.818, 267.658 156.658, 269.048 158.048 C 271.074 160.074, 281.058 162.434, 283.852 161.547 C 285.976 160.873, 285.931 160.971, 297.353 132 C 306.306 109.292, 314.257 91.577, 315.972 90.517 C 317.270 89.715, 317.282 89.530, 315.514 97.932 C 313.271 108.595, 312.193 116.212, 313.054 115.308 C 314.529 113.760, 331.073 85.979, 334.519 79.264 C 338.605 71.303, 338.802 69.102, 335.690 66.178 C 329.830 60.673, 294.661 50.202, 278.961 49.288 C 269.918 48.761, 269.277 48.858, 266.617 51.145 M 347.115 77.759 C 340.505 84.707, 318.836 130.957, 306.018 165.475 C 303.853 171.305, 304.368 172.819, 309.757 176.481 C 316.605 181.134, 317.824 180.488, 328.112 166.750 C 336.778 155.179, 366.427 124, 368.765 124 C 371.060 124, 370.550 126.932, 366.866 134.911 C 364.731 139.535, 363.124 143.457, 363.295 143.628 C 363.465 143.799, 366.369 141.702, 369.746 138.969 C 373.124 136.236, 376.194 134, 376.569 134 C 380.952 134, 360.515 167.586, 345.338 185.323 C 334.082 198.477, 333.414 199.915, 337.352 202.495 C 339.491 203.897, 340.240 203.867, 345.602 202.171 C 348.846 201.144, 367.250 193.565, 386.500 185.328 C 405.750 177.091, 424.552 169.091, 428.281 167.550 C 435 164.774, 438 162.102, 438 158.893 C 438 155.973, 430.233 141.807, 423.257 132.004 C 414.516 119.719, 392.182 97.374, 380 88.724 C 370.348 81.871, 358.825 75.667, 353.640 74.532 C 351.223 74.004, 350.211 74.504, 347.115 77.759 M 153.277 76.952 C 135.856 83.222, 109.958 104.348, 91.816 127.087 C 77.539 144.981, 72.308 154.061, 73.892 158.202 C 75.827 163.264, 76.523 163.616, 153.817 198.703 C 170.271 206.171, 174.056 206.798, 177.628 202.646 C 178.933 201.129, 180 199.082, 180 198.097 C 180 197.111, 177.090 192.895, 173.534 188.727 C 161.915 175.110, 151.810 161.738, 142.858 148.136 C 134.265 135.080, 132.286 131.381, 133.334 130.333 C 133.617 130.049, 137.371 132.089, 141.675 134.866 C 145.979 137.643, 149.640 139.515, 149.810 139.026 C 149.981 138.537, 148.110 134.619, 145.652 130.319 C 140.369 121.076, 140.982 118.653, 147.111 124.549 C 149.371 126.722, 157.133 135.700, 164.360 144.500 C 182.505 166.594, 194.976 179.323, 197.543 178.368 C 201.753 176.802, 207.063 172.598, 207.616 170.393 C 208.026 168.760, 204.425 159.255, 195.454 138.287 C 173.065 85.959, 167 74.931, 160.673 75.036 C 159.478 75.056, 156.150 75.918, 153.277 76.952 M 247.500 167.018 C 218.898 171.308, 192.342 190.535, 179.008 216.607 C 172.940 228.472, 171.500 235.837, 171.500 255 C 171.500 269.512, 171.783 272.404, 173.845 279 C 181.892 304.730, 200.847 325.694, 225.210 335.806 C 245.206 344.106, 270.304 344.032, 289.331 335.617 C 302.662 329.721, 319.086 316.964, 326.754 306.548 C 351.831 272.483, 347.971 225.720, 317.500 194.441 C 297.581 173.994, 270.840 163.518, 247.500 167.018 M 68.007 173.309 C 60.125 177.239, 49.563 214.427, 48.325 242.603 C 47.732 256.119, 47.796 256.796, 49.853 258.853 C 51.034 260.034, 53.251 261, 54.780 261 C 59.906 261, 81.434 258.053, 98.043 255.077 C 122.829 250.636, 128.771 250, 145.450 250 C 156.692 250, 161.038 249.659, 161.821 248.716 C 163.040 247.246, 164.981 236.294, 164.992 230.818 C 165.002 226.276, 162.953 224.692, 151 220 C 141.442 216.249, 128.943 210.201, 104.313 197.408 C 85.334 187.550, 86.455 188.212, 87.299 187.368 C 87.647 187.020, 93.856 187.711, 101.097 188.903 C 108.338 190.096, 114.436 190.897, 114.649 190.684 C 115.448 189.886, 102.943 183.922, 89.463 178.672 C 72.600 172.104, 71.151 171.742, 68.007 173.309 M 246 172.661 C 219.399 176.799, 195.020 195.608, 182.993 221.274 C 177.170 233.700, 175.705 241.615, 176.290 257.500 C 176.999 276.764, 182.141 290.597, 194.252 305.817 C 204.395 318.563, 221.379 329.635, 237 333.682 C 245.647 335.923, 264.094 335.912, 273.319 333.661 C 291.359 329.259, 311.193 316.047, 321.426 301.618 C 331.683 287.153, 336.056 273.919, 336.174 256.985 C 336.387 226.346, 320.083 198.559, 292.271 182.160 C 279.391 174.565, 259.720 170.527, 246 172.661 M 423.483 180.561 C 414.692 183.620, 406.712 186.372, 405.750 186.678 C 404.788 186.983, 404 187.669, 404 188.201 C 404 188.809, 408.087 188.904, 415 188.456 C 421.971 188.004, 426 188.100, 426 188.718 C 426 190.415, 376.837 212.977, 356.822 220.466 C 349.106 223.354, 347.659 225.303, 348.266 231.993 C 348.845 238.385, 351.046 243.418, 353.713 244.448 C 354.696 244.828, 362.074 245.556, 370.109 246.067 C 387.490 247.172, 401.706 249.510, 428 255.589 C 461.557 263.347, 464 263.041, 464 251.089 C 464 228.526, 454.862 185.743, 448.403 178.067 C 444.795 173.779, 442.240 174.035, 423.483 180.561 M 240.362 181.981 C 215.674 188.454, 194.913 209.027, 186.861 235 C 183.590 245.550, 183.602 262.265, 186.888 273 C 195.921 302.509, 220.783 322.898, 249.898 324.674 C 269.810 325.889, 288.682 318.134, 305.080 302 C 312.125 295.068, 314.482 291.932, 317.850 285 C 323.424 273.528, 325 266.691, 325 253.978 C 325 224.860, 309.527 199.859, 283.583 187.056 C 269.153 179.936, 254.658 178.234, 240.362 181.981 M 354.337 269.936 C 351.797 271.485, 350.937 272.922, 349.974 277.226 C 348.212 285.097, 348.675 286.068, 356.004 289.874 C 359.577 291.730, 372.625 298.745, 385 305.463 C 422.333 325.731, 431.734 333.069, 408.868 324.092 C 403.223 321.876, 398.438 320.228, 398.236 320.430 C 397.340 321.326, 419.006 339.992, 427.450 345.598 C 434.446 350.243, 438.196 351.251, 441.049 349.253 C 449.215 343.534, 465.556 288.319, 462.585 276.484 C 460.896 269.752, 446.963 267.999, 395.211 268.004 C 359.728 268.007, 357.313 268.121, 354.337 269.936 M 55.157 269.995 C 50.093 271.192, 49.474 272.344, 49.735 280.077 C 50.219 294.387, 56.907 320.483, 63.980 335.655 C 68.093 344.479, 71.351 347.624, 75.201 346.487 C 80.440 344.939, 103.311 330.112, 113 321.982 L 115.500 319.885 112 320.512 C 110.075 320.857, 105.695 322.043, 102.266 323.146 C 98.837 324.250, 95.237 324.981, 94.266 324.772 C 89.986 323.849, 122.413 306.492, 147.492 296.282 C 167.205 288.256, 167.399 288.070, 165.008 279.530 C 162.645 271.090, 162.523 271.048, 142.269 271.669 C 130.929 272.017, 115.324 271.633, 99.140 270.607 C 72.037 268.890, 60.512 268.729, 55.157 269.995 M 336.370 307.182 C 328.441 315.588, 328.791 316.917, 342.767 331.462 C 355.631 344.849, 362.784 353.322, 371.385 365.355 C 379.743 377.048, 378.851 377.950, 367.281 369.500 C 360.458 364.518, 358 363.179, 358 364.445 C 358 364.689, 359.575 368.345, 361.500 372.569 C 364.923 380.081, 365.937 385, 364.063 385 C 362.985 385, 359.102 380.567, 341.296 359.003 C 322.601 336.363, 319.178 333, 314.828 333 C 310.141 333, 306 336.244, 306 339.916 C 306 344.064, 308.715 351.111, 320.345 377.156 C 335.794 411.749, 345.628 432.668, 348.023 436.032 C 352.351 442.110, 358.422 440.747, 373.973 430.207 C 392.027 417.971, 410.636 400.477, 423.163 383.965 C 434.087 369.566, 434.859 365.813, 428.148 359.756 C 423.224 355.314, 400.852 339.140, 389.065 331.503 C 373.539 321.442, 345.005 304.951, 342.146 304.386 C 340.070 303.976, 338.826 304.577, 336.370 307.182 M 170.953 306.945 C 169.552 307.370, 166.462 308.946, 164.086 310.446 C 161.709 311.946, 148.455 318.717, 134.632 325.493 C 109.276 337.922, 84.568 352.919, 80.108 358.590 C 77.307 362.151, 77.434 363.653, 81.129 370.609 C 93.012 392.978, 119.031 418.933, 145.136 434.459 C 160.536 443.618, 165.048 444.036, 169.685 436.731 C 173.732 430.356, 206.513 357.309, 210.762 345.197 C 212.257 340.937, 212.244 340.864, 209.434 337.931 C 206.168 334.522, 199.916 332.437, 197.254 333.869 C 196.289 334.388, 189.214 341.492, 181.532 349.656 C 147.438 385.888, 135.911 395.201, 148.414 376.414 C 151.564 371.680, 153.936 367.602, 153.685 367.352 C 153.434 367.101, 148.851 369.192, 143.500 372 C 138.149 374.808, 133.530 376.863, 133.234 376.567 C 131.429 374.763, 155.927 345.123, 171.872 329.819 C 177.992 323.944, 183 318.372, 183 317.437 C 183 314.981, 179.368 309.471, 176.518 307.603 C 175.172 306.722, 173.942 306.039, 173.785 306.086 C 173.628 306.133, 172.354 306.520, 170.953 306.945 M 231.840 350.911 C 230.418 352.030, 228.221 355.545, 226.957 358.722 C 217.755 381.859, 206.292 409.432, 203.903 414.177 C 201.021 419.902, 198.280 423.013, 199.324 419.375 C 200.903 413.869, 203.127 401.913, 202.836 400.495 C 202.338 398.072, 194.691 410.219, 186.778 426 C 179.461 440.594, 178.152 444.844, 179.836 448.540 C 182.624 454.659, 211.639 463.574, 236.009 465.801 C 255.855 467.614, 256.589 466.918, 255.662 447.192 C 255.308 439.661, 254.370 429.225, 253.576 424 C 250.746 405.355, 248.947 387.253, 248.314 371.040 C 247.713 355.662, 247.521 354.430, 245.381 352.290 C 244.121 351.031, 242.058 349.994, 240.795 349.986 C 239.533 349.979, 237.583 349.726, 236.462 349.425 C 235.239 349.096, 233.393 349.690, 231.840 350.911 M 272.315 350.007 C 268.421 351.576, 268.001 354.022, 267.986 375.184 C 267.978 386.358, 267.307 404.500, 266.494 415.500 C 265.681 426.500, 265.012 441.857, 265.008 449.628 C 264.998 466.582, 265.005 466.594, 275.182 466.307 C 294.961 465.750, 337.565 453.098, 339.428 447.228 C 340.285 444.526, 338.134 439.398, 324.863 412.500 C 313.697 389.871, 313.510 389.573, 313.236 394 C 313.082 396.475, 313.565 403.133, 314.309 408.796 C 315.053 414.458, 315.360 419.278, 314.992 419.505 C 313.810 420.236, 310.397 413.028, 300.550 389 C 295.253 376.075, 289.785 362.744, 288.400 359.375 C 285.028 351.175, 282.863 348.984, 278.211 349.063 C 276.170 349.098, 273.517 349.523, 272.315 350.007" stroke="none" fill="black" fill-rule="evenodd"/>
</svg>