<svg xmlns="http://www.w3.org/2000/svg" width="512" height="512" viewBox="0 0 512 512" version="1.1">
	<path d="M 151.081 71.604 C 136.577 74.776, 122.549 82.685, 109.682 94.946 C 91.026 112.722, 81.035 135.923, 81.021 161.500 C 81.010 180.633, 83.961 190.927, 92.536 201.669 C 95.844 205.813, 99.604 212.237, 102.095 218 C 114.587 246.904, 124.233 262.942, 143.892 287.500 C 155.751 302.314, 179.170 326.417, 201 346.276 C 210.075 354.531, 218.850 362.687, 220.500 364.399 C 231.759 376.084, 240.389 385.883, 247.272 394.796 C 251.645 400.459, 255.586 404.959, 256.030 404.796 C 256.473 404.633, 260.563 399.341, 265.119 393.036 C 274.516 380.031, 290.337 363.252, 306.500 349.147 C 334.350 324.845, 353.555 305.446, 369.514 285.500 C 383.129 268.483, 397.553 245.530, 404.519 229.796 C 412.667 211.395, 414.283 208.355, 419.615 201.393 C 423.478 196.349, 425.968 191.765, 427.802 186.322 C 430.199 179.211, 430.439 177.092, 430.445 163 C 430.450 149.934, 430.089 146.165, 428.148 139 C 419.068 105.487, 394.191 80.070, 362.590 72.016 C 351.793 69.264, 335.569 69.279, 324 72.051 C 313.002 74.686, 297.597 82.123, 287.500 89.673 C 277.767 96.951, 264.432 110.878, 259.416 119.005 C 257.381 122.302, 255.433 125, 255.088 125 C 254.743 125, 252.454 121.737, 250.001 117.750 C 236.728 96.167, 209.210 76.545, 185.024 71.418 C 176.796 69.674, 159.476 69.769, 151.081 71.604 M 152.209 83.456 C 144.825 85.140, 135.972 89.021, 131.186 92.672 C 126.564 96.197, 124.940 100.650, 124.358 111.396 L 123.865 120.500 126.095 117.500 C 127.321 115.850, 132.189 110.638, 136.912 105.917 C 150.323 92.513, 164.254 86.683, 183.162 86.562 C 188.476 86.528, 192.685 86.359, 192.515 86.187 C 192.346 86.015, 189.798 85.208, 186.853 84.394 C 178.983 82.219, 159.897 81.702, 152.209 83.456 M 327.120 83.485 C 318.896 85.344, 318.368 85.998, 325.083 86.008 C 337.647 86.025, 352.872 90.171, 362.264 96.133 C 369.274 100.583, 377.328 108.184, 382.783 115.500 L 387.258 121.500 386.789 111.500 C 386.475 104.805, 385.756 100.412, 384.612 98.207 C 382.396 93.934, 374.181 88.731, 364.328 85.360 C 354.630 82.042, 337.352 81.172, 327.120 83.485 M 316.813 86.683 C 317.534 86.972, 318.397 86.936, 318.729 86.604 C 319.061 86.272, 318.471 86.036, 317.417 86.079 C 316.252 86.127, 316.015 86.364, 316.813 86.683 M 178.774 98.201 C 153.448 100.497, 128.230 123.924, 123.983 149.100 C 123.234 153.539, 122.929 161.604, 123.204 169.698 C 123.452 177.014, 123.260 183, 122.776 183 C 120.190 183, 113.498 157.525, 111.872 141.492 C 110.748 130.409, 111.180 123.069, 113.693 110.500 C 114.259 107.665, 114.061 107.775, 110.082 112.500 C 104.747 118.838, 97.582 133.417, 95.340 142.500 C 94.154 147.304, 93.622 153.422, 93.646 162 C 93.675 172.767, 94.045 175.609, 96.320 182.500 C 97.772 186.900, 101.286 194.100, 104.128 198.500 C 106.971 202.900, 110.308 208.750, 111.545 211.500 L 113.794 216.500 114.456 213.500 C 117.311 200.552, 121.637 192.158, 127.542 188.112 C 131.554 185.363, 133.191 185.449, 136.943 188.605 C 141.370 192.331, 144.674 198.485, 146.562 206.522 C 148.514 214.831, 148.098 221.337, 144.518 238.500 C 140.849 256.097, 141.347 265.449, 146.329 272.457 L 148.430 275.413 149.115 272.957 C 149.492 271.605, 149.845 269.054, 149.900 267.288 C 150.073 261.720, 153.863 253.372, 158.176 249.059 C 162.956 244.280, 166.463 243.035, 168.739 245.310 C 171.020 247.591, 170.534 251.606, 167.050 259.258 C 159.404 276.051, 159.291 290.676, 166.756 297.312 C 168.774 299.106, 168.802 299.070, 169.462 293.812 C 170.308 287.068, 175.158 276.886, 179.109 273.562 C 182.667 270.568, 183.323 270.465, 185.429 272.571 C 187.746 274.888, 187.357 281.212, 184.478 288.053 C 181.556 294.995, 180.476 301.395, 181.398 306.311 C 182.084 309.966, 189.245 319, 191.456 319 C 192.321 319, 192.969 316.631, 193.436 311.750 C 194.693 298.638, 198.453 286.120, 200.516 288.183 C 200.811 288.478, 202.012 291.370, 203.185 294.610 C 206.008 302.406, 206.782 316.844, 204.749 323.780 C 203.936 326.553, 203.548 329.210, 203.886 329.686 C 204.224 330.161, 209.225 334.651, 215 339.663 C 228.651 351.511, 241.268 364.579, 248.332 374.186 C 251.441 378.413, 254.388 382.122, 254.882 382.427 C 255.376 382.732, 258.631 379.049, 262.116 374.241 C 270.160 363.144, 282.222 350.596, 295.674 339.331 L 306.215 330.504 305.379 322.502 C 304.919 318.101, 304.654 311.800, 304.790 308.500 C 305.299 296.166, 310.148 285.671, 312.933 290.876 C 314.261 293.357, 316.996 309.102, 317.015 314.381 C 317.040 320.925, 318.103 321.513, 322.194 317.242 C 328.023 311.158, 329.311 307.694, 328.764 299.568 C 328.460 295.060, 327.330 290.247, 325.644 286.280 C 322.507 278.900, 322.300 274.943, 324.928 272.565 C 330.255 267.744, 338.445 279.163, 340.482 294.252 C 341.052 298.478, 341.327 298.895, 342.964 298.019 C 346.480 296.138, 349.001 288.987, 348.988 280.934 C 348.975 272.706, 347.597 266.615, 343.638 257.280 C 342.187 253.859, 341 250.216, 341 249.185 C 341 246.420, 344.444 243.689, 346.934 244.479 C 350.242 245.529, 354.929 249.940, 356.953 253.908 C 358.972 257.866, 361 267.315, 361 272.767 C 361 277.635, 362.946 276.523, 366.386 269.687 C 368.959 264.576, 369.269 262.948, 369.235 254.726 C 369.210 248.752, 368.402 242.152, 366.942 236 C 363.756 222.572, 363.735 207.674, 366.890 199.695 C 369.933 191.999, 375.608 186, 379.845 186 C 386.643 186, 393.523 196.852, 396.097 211.637 L 397.245 218.228 401.899 208.864 C 404.458 203.714, 408.431 196.125, 410.726 192 C 416.229 182.111, 418 174.907, 418 162.418 C 418 145.093, 411.919 126.523, 401.899 113.250 C 399.719 110.362, 397.761 108, 397.548 108 C 397.335 108, 397.556 109.463, 398.038 111.250 C 401.567 124.336, 400.986 142.849, 396.493 160.500 C 393.906 170.663, 390.206 181, 389.156 181 C 388.771 181, 388.443 174.137, 388.427 165.750 C 388.380 141.380, 384.693 131.599, 370.015 116.912 C 356.624 103.511, 343.475 97.986, 325.040 98.015 C 308.653 98.040, 296.125 102.368, 283.230 112.457 C 275.702 118.347, 271.900 122.687, 264.149 134.236 C 259.067 141.810, 256.066 144.007, 252.614 142.682 C 251.849 142.388, 248.641 138.177, 245.486 133.324 C 237.569 121.145, 226.598 110.547, 216.500 105.325 C 203.822 98.768, 193.665 96.850, 178.774 98.201 M 199.487 141.735 C 191.649 144.545, 185.975 148.294, 179.866 154.700 C 169.532 165.537, 165.385 177.587, 166.341 194 C 167.074 206.597, 169.813 215.817, 177.480 231.500 C 187.823 252.659, 201.653 272.617, 225.086 300.201 C 235.215 312.124, 241.831 320.607, 253.217 336.265 C 254.371 337.853, 255.140 337.166, 260.879 329.414 C 267.440 320.553, 285.494 298.736, 294.310 289.013 C 304.911 277.323, 321.125 254.416, 330.774 237.500 C 343.729 214.786, 347.710 194.917, 342.999 176.496 C 340.564 166.976, 337.366 161.314, 330.131 153.711 C 312.386 135.066, 284.785 135.575, 262.572 154.955 C 258.762 158.280, 255.358 161, 255.009 161 C 254.660 161, 253.052 159.604, 251.437 157.898 C 246.732 152.930, 236.631 146.119, 229.808 143.314 C 221.318 139.825, 206.906 139.075, 199.487 141.735 M 203.365 155.031 C 198.077 156.661, 190.805 162.250, 187.310 167.369 C 182.293 174.718, 180.712 181.423, 181.175 193.380 C 181.685 206.553, 185.860 218.897, 195.498 235.726 C 205.124 252.532, 212.520 262.742, 231.740 285.754 C 240.811 296.614, 249.365 307.188, 250.749 309.250 C 252.133 311.313, 253.841 313, 254.544 313 C 255.247 313, 259.575 308.342, 264.161 302.650 C 268.748 296.957, 277.675 286.130, 284 278.590 C 306.090 252.256, 320.254 230.392, 326.370 213.185 C 329.185 205.267, 329.460 203.396, 329.479 192 C 329.499 180.367, 329.304 179.076, 326.673 173.383 C 316.461 151.286, 290.707 148.015, 269.022 166.061 C 265.824 168.723, 261.735 173.173, 259.935 175.950 C 258.136 178.728, 256.326 181, 255.913 181 C 255.501 181, 254.199 179.439, 253.020 177.532 C 249.439 171.738, 238.125 162.171, 230.254 158.281 C 223.873 155.127, 221.771 154.597, 214.688 154.350 C 210.185 154.193, 205.089 154.500, 203.365 155.031 M 131.281 199.500 C 126.108 209.225, 123.554 230.515, 126.391 240.272 C 127.307 243.422, 128.402 246, 128.825 246 C 129.248 246, 130.112 243.188, 130.745 239.750 C 131.377 236.313, 132.854 229, 134.026 223.500 C 136.247 213.074, 136.127 206.502, 133.605 200.500 C 132.414 197.664, 132.287 197.609, 131.281 199.500 M 378.121 201.083 C 376.085 206.923, 375.876 213.465, 377.453 222 C 378.316 226.675, 379.540 234.001, 380.171 238.280 C 380.856 242.918, 381.751 245.916, 382.388 245.704 C 386.589 244.304, 387.061 218.077, 383.105 205.792 C 381.918 202.103, 380.552 198.841, 380.070 198.543 C 379.589 198.246, 378.712 199.388, 378.121 201.083 M 121.144 364.328 C 114.995 375.734, 113.603 380.949, 114.213 390.290 C 114.739 398.351, 116.148 401.648, 124.252 413.795 C 127.139 418.120, 130.373 423.198, 131.439 425.080 L 133.379 428.500 134.229 421 C 134.821 415.782, 136.161 411.218, 138.636 406 C 145.248 392.053, 144.329 381.966, 135.226 368.598 C 132.204 364.160, 129.298 359.285, 128.768 357.764 C 128.238 356.244, 127.437 355, 126.988 355 C 126.540 355, 123.910 359.198, 121.144 364.328 M 384.081 358.250 C 383.491 360.038, 381.393 363.750, 379.420 366.500 C 372.787 375.745, 370.712 380.849, 370.214 389.143 C 369.776 396.435, 369.945 397.196, 373.878 405.735 C 377.387 413.353, 378 415.665, 378 421.283 C 378 424.912, 378.414 428.138, 378.920 428.451 C 379.989 429.111, 384 424.353, 384 422.425 C 384 421.706, 386.530 417.424, 389.623 412.908 C 397.551 401.332, 399.315 396.909, 399.355 388.500 C 399.373 384.650, 398.798 379.700, 398.077 377.500 C 396.354 372.245, 387.105 355, 386.009 355 C 385.539 355, 384.672 356.462, 384.081 358.250 M 207.302 372.683 C 204.617 381.392, 204.867 395.966, 207.812 402.445 C 211.134 409.752, 214.205 413.305, 222.961 419.970 C 227.296 423.270, 231.845 427.378, 233.071 429.100 C 234.297 430.821, 238.596 439.420, 242.625 448.207 C 251.974 468.597, 253.800 471.629, 255.629 469.800 C 256.379 469.049, 261.447 459.450, 266.891 448.468 C 277.255 427.558, 278.394 426.024, 288.632 419.183 C 295.558 414.555, 300.026 409.398, 303.234 402.330 C 306.132 395.943, 306.303 382.324, 303.599 373.250 C 302.575 369.813, 301.357 367, 300.894 367 C 300.431 367, 299.387 368.284, 298.576 369.853 C 297.764 371.422, 293.530 377.463, 289.167 383.278 C 278.253 397.821, 275.612 402.787, 270.612 418.170 C 265.979 432.427, 259.952 447.617, 257.359 451.575 C 253.630 457.266, 252.020 454.464, 241.544 424.053 C 233.895 401.847, 232.790 399.447, 225.184 388.500 C 222.126 384.100, 217.639 377.575, 215.212 374 C 212.785 370.425, 210.415 367.357, 209.947 367.183 C 209.478 367.008, 208.288 369.483, 207.302 372.683 M 383.082 387.053 C 381.986 392.165, 382.576 400, 384.057 400 C 385.339 400, 387.213 389.247, 386.498 385.991 C 385.453 381.234, 384.250 381.608, 383.082 387.053 M 126.582 386.412 C 125.878 390.167, 126.808 397.763, 128.067 398.542 C 128.510 398.815, 129.170 397.047, 129.536 394.612 C 130.672 387.034, 127.906 379.355, 126.582 386.412 M 155.580 395.137 C 155.336 395.887, 154.392 399.200, 153.482 402.500 C 152.571 405.800, 150.516 410.805, 148.913 413.622 C 143.664 422.850, 145.868 429, 154.423 429 C 162.861 429, 168.019 421.509, 165.947 412.264 C 164.794 407.118, 159.853 396.953, 157.593 395.078 C 156.299 394.003, 155.946 394.014, 155.580 395.137 M 218 394.438 C 218 395.604, 222.994 405.357, 224.177 406.500 C 224.746 407.050, 223.760 404.575, 221.987 401 C 218.594 394.159, 218 393.182, 218 394.438 M 289.649 398.512 C 286.914 403.406, 285.543 407, 286.412 407 C 287.009 407, 290.514 400.407, 292.013 396.466 C 293.466 392.643, 292.426 393.544, 289.649 398.512 M 354.734 395.742 C 353.843 396.726, 351.686 400.583, 349.940 404.314 C 347.202 410.165, 346.826 411.920, 347.201 417.096 C 347.566 422.153, 348.117 423.579, 350.706 426.167 C 355.981 431.443, 364.808 429.887, 366.437 423.395 C 366.865 421.691, 365.989 418.777, 363.580 413.888 C 361.670 410.010, 359.562 404.286, 358.895 401.169 C 357.414 394.239, 356.808 393.449, 354.734 395.742 M 138.985 433.015 C 134.538 437.462, 137.510 448.615, 145.107 455.988 C 149.708 460.453, 162.691 468.643, 163.649 467.684 C 164.769 466.564, 162.036 454.717, 159.778 450.908 C 156.563 445.483, 145.937 433.413, 143.235 432.116 C 141.384 431.228, 140.608 431.392, 138.985 433.015 M 362.784 437.224 C 352.660 447.732, 349.921 452.722, 348.419 463.392 L 347.730 468.284 354.005 464.892 C 361.795 460.681, 370.490 452.920, 373.058 447.887 C 376.033 442.054, 375.328 434.254, 371.600 431.765 C 369.625 430.446, 368.855 430.923, 362.784 437.224" stroke="none" fill="black" fill-rule="evenodd"/>
</svg>