<svg xmlns="http://www.w3.org/2000/svg" width="512" height="512" viewBox="0 0 512 512" version="1.1">
	<path d="M 257.101 1.090 C 250.869 2.051, 247.547 3.087, 233.898 8.325 C 229.026 10.196, 223.918 11.131, 214.398 11.896 C 207.304 12.466, 197.132 14.042, 191.794 15.398 C 164.225 22.399, 141.004 40.133, 129.463 63 C 123.981 73.863, 122.934 79.118, 121.974 100.603 C 120.767 127.620, 118.750 133.461, 106.815 144.511 C 98.025 152.649, 91.574 155.485, 81.834 155.493 C 75.416 155.499, 73.665 155.129, 71.084 153.220 C 69.322 151.917, 68 151.448, 68 152.126 C 68 154.598, 73.130 159.886, 77.723 162.148 C 81.867 164.188, 83.967 164.500, 93.580 164.500 L 104.661 164.500 102.191 169.895 C 98.307 178.379, 97.304 188.067, 99.274 198.068 C 101.169 207.688, 105.855 217.681, 118.396 238.852 C 130.747 259.701, 136 273.366, 136 284.645 C 136 293.462, 133.171 298.228, 125.500 302.337 C 119.449 305.577, 107.454 305.334, 99.852 301.817 C 96.746 300.380, 93.221 298.221, 92.019 297.019 C 90.817 295.817, 89.602 295.065, 89.319 295.347 C 88.168 296.499, 92.784 302.294, 96.998 304.987 C 109.337 312.871, 125.581 311.286, 136.380 301.144 L 140.259 297.500 139.636 302.341 C 138.204 313.471, 131.974 322.410, 122.348 327.149 C 116.698 329.931, 114.769 330.367, 108.155 330.356 C 93.568 330.333, 81.497 321.840, 78.511 309.500 L 77.785 306.500 76.819 309 C 75.467 312.503, 76.673 320.706, 79.400 326.556 C 82.430 333.058, 90.130 341.482, 95.889 344.596 C 99.764 346.691, 100.021 346.995, 97.500 346.497 C 95.850 346.172, 93.263 345.013, 91.750 343.923 C 87.218 340.655, 88.281 344.317, 93.476 349.871 C 101.840 358.813, 113.748 363.396, 128.500 363.351 C 143.802 363.303, 156.845 358.086, 166.084 348.318 L 171.221 342.886 177.861 349.271 C 186.032 357.130, 191.637 360.472, 199.865 362.391 C 203.351 363.205, 206.394 364.060, 206.626 364.293 C 207.756 365.423, 203.302 367.114, 190.500 370.414 C 172.609 375.027, 163.458 379.329, 156.600 386.354 C 150.510 392.592, 147.911 397.668, 145.684 407.680 C 144.799 411.658, 141.686 419.685, 138.704 425.680 C 135.743 431.631, 131.636 440.895, 129.577 446.266 C 127.082 452.772, 123.741 458.947, 119.567 464.766 C 110.043 478.041, 109.734 478.850, 108.979 492.500 C 108.615 499.100, 107.795 505.767, 107.158 507.315 C 106.521 508.863, 106 510.551, 106 511.065 C 106 511.641, 165.529 512, 261 512 C 384.368 512, 415.987 511.745, 415.936 510.750 C 415.900 510.063, 415.307 506.823, 414.617 503.550 C 413.080 496.265, 413.864 490.589, 417.842 480.195 C 422.485 468.061, 423.291 462.800, 422.786 447.921 C 422.399 436.528, 421.895 433.215, 419.451 426 C 415.140 413.268, 407.397 402.433, 392.944 388.906 L 380.890 377.626 391.761 374.036 C 405.507 369.497, 415.188 363.752, 425.184 354.202 C 438.561 341.422, 446.915 326.227, 450.570 308.027 C 452.732 297.262, 452.074 279.054, 449.114 267.758 C 444.876 251.582, 440.253 242.815, 427.417 226.618 C 415.486 211.562, 412.245 206.368, 409.247 197.500 C 406.602 189.676, 406.548 189.027, 406.773 168 C 407.226 125.694, 403.004 104.626, 388.277 75.701 C 379.382 58.230, 368.433 44.001, 354.500 31.803 C 331.155 11.366, 306.413 1.493, 276.079 0.511 C 269.161 0.287, 260.620 0.548, 257.101 1.090 M 297 27.740 C 300.649 29.506, 312 40.137, 312 41.789 C 312 42.340, 309.592 42.171, 306.250 41.384 C 303.087 40.640, 298.700 40.048, 296.500 40.068 L 292.500 40.104 298.699 42.408 C 302.108 43.674, 308.105 46.617, 312.025 48.946 C 319.042 53.115, 328.830 61.503, 327.837 62.496 C 327.557 62.776, 324.591 61.637, 321.245 59.965 C 315.799 57.243, 305 54.810, 305 56.305 C 305 56.625, 308.395 59.443, 312.545 62.566 C 320.659 68.673, 321.648 70.392, 315.137 67.070 C 310.827 64.871, 308.514 64.404, 309.451 65.921 C 310.066 66.915, 316.787 69.495, 321.250 70.450 C 329.522 72.220, 317.398 75.519, 305.614 74.704 C 299.412 74.276, 293.616 72.829, 281.017 68.566 C 271.951 65.498, 264.140 63.120, 263.659 63.280 C 261.523 63.992, 304.653 81.666, 313.007 83.502 C 316.463 84.262, 316.474 84.280, 314 85.231 C 310.894 86.426, 297.624 85.487, 289.105 83.470 C 285.588 82.637, 282.569 82.098, 282.395 82.272 C 281.870 82.797, 298.177 88.872, 303 89.947 C 308.855 91.253, 331.230 91.284, 338.025 89.995 C 340.939 89.443, 343.519 89.186, 343.759 89.425 C 345.120 90.786, 334.674 94.297, 326.374 95.269 C 313.220 96.808, 302.385 95.169, 282.500 88.634 C 277.546 87.006, 293.396 94.225, 301 97.060 C 320.822 104.450, 346.688 100.836, 357.193 89.208 C 361.487 84.455, 363.312 79.392, 362.846 73.528 C 362.415 68.114, 363.600 68.880, 367.460 76.509 C 369.006 79.564, 370.436 81.898, 370.638 81.696 C 371.573 80.760, 366.708 69.441, 362.735 63.312 C 360.307 59.565, 357.793 54.956, 357.149 53.069 C 355.383 47.897, 351.563 41.855, 347.935 38.500 C 345.373 36.130, 344.843 35.920, 345.413 37.500 C 347.186 42.411, 348.339 47.994, 347.711 48.622 C 347.333 49, 345.189 47.224, 342.945 44.675 C 340.701 42.126, 337.510 39.075, 335.853 37.895 L 332.839 35.749 335.464 40.929 C 336.908 43.778, 338.568 48.496, 339.154 51.413 C 340.084 56.043, 339.958 57.306, 338.166 61.358 C 335.866 66.557, 334.005 67.401, 333.990 63.250 C 333.958 54.153, 318.792 36.536, 305.095 29.684 C 301.045 27.658, 296.779 26.010, 295.616 26.023 C 293.989 26.040, 294.308 26.437, 297 27.740 M 347 63.491 C 347 70.697, 341.853 76.533, 332.781 79.610 C 326.026 81.902, 329.079 82.700, 336.429 80.564 C 345.863 77.821, 350.912 71.672, 349.576 64.552 C 348.675 59.748, 347 59.058, 347 63.491 M 234.464 64.059 C 234.104 64.641, 227.890 69.008, 220.655 73.763 C 205.934 83.437, 195.383 93.277, 189.735 102.598 C 186.224 108.392, 180.017 123.272, 178.596 129.302 C 177.969 131.964, 178.049 132.044, 180.205 130.890 C 184.408 128.641, 192.959 129.333, 199 132.412 C 205.036 135.488, 210 139.658, 210 141.652 C 210 142.355, 209.118 143.402, 208.040 143.978 C 206.447 144.831, 204.297 144.091, 196.526 140.014 C 186.504 134.755, 179.539 133.441, 177.122 136.353 C 176.505 137.097, 175.716 141.056, 175.370 145.152 C 174.843 151.387, 175.017 152.874, 176.442 154.299 C 178.737 156.595, 180.743 156.479, 178.655 154.171 C 176.320 151.591, 176.594 150.860, 179.611 151.617 C 181.923 152.198, 182.145 152.032, 181.554 150.169 C 180.704 147.491, 184.051 146.491, 191.083 147.323 C 201.106 148.510, 210.468 154.715, 213.438 162.138 C 215.591 167.517, 214.667 168.214, 211.054 163.937 C 208.322 160.704, 208.068 160.608, 206.785 162.323 C 205.776 163.671, 204.388 164.062, 201.460 163.823 C 198.114 163.550, 197.267 162.999, 196 160.272 C 194.298 156.609, 193.383 156.343, 190.189 158.580 C 188.430 159.813, 187.996 160.962, 188.217 163.808 C 188.479 167.181, 188.236 167.543, 185 168.619 C 180.627 170.074, 178.808 169.180, 182.357 167.321 C 183.811 166.559, 185 165.797, 185 165.626 C 185 165.456, 182.992 165.286, 180.539 165.249 C 177.205 165.199, 175.955 165.601, 175.593 166.841 C 175.326 167.753, 174.585 174.693, 173.946 182.263 C 172.933 194.258, 173.003 197.340, 174.494 206.263 C 179.424 235.770, 197.112 269.035, 211.601 276.049 C 215.657 278.012, 217.277 278.200, 226.329 277.756 C 243.869 276.894, 263.721 269.098, 284.652 254.850 C 298.134 245.672, 302.614 240.529, 309.550 226.266 C 314.033 217.047, 315.406 214.974, 316.148 216.300 C 317.631 218.950, 320.717 220.222, 322.869 219.070 C 325.344 217.746, 326.104 218.677, 324.830 221.473 C 324.098 223.080, 324.128 224.371, 324.932 225.874 C 326.507 228.815, 328.846 228.533, 330.099 225.250 C 331.117 222.586, 331.194 222.561, 332.584 224.455 C 333.867 226.202, 334.180 226.248, 335.537 224.892 C 336.892 223.537, 336.893 222.987, 335.542 219.756 C 334.711 217.765, 333.535 215.831, 332.930 215.457 C 332.247 215.035, 333.375 213.292, 335.902 210.864 C 340.172 206.760, 341.603 203.474, 340.555 200.174 C 339.538 196.969, 334.101 190, 332.618 190 C 331.864 190, 329.588 193.159, 327.559 197.019 C 321.711 208.149, 319.971 203.527, 324.551 189.028 C 327.088 180.995, 327.092 180.938, 325.178 178.226 C 321.006 172.317, 316.693 162.163, 309.988 142.466 C 299.134 110.579, 297.555 108.101, 281.221 97.319 C 265.551 86.974, 253.082 77.760, 243.808 69.672 C 239.601 66.002, 235.924 63, 235.638 63 C 235.352 63, 234.824 63.476, 234.464 64.059 M 350.319 73.190 C 349.120 75.220, 346.221 78.145, 343.878 79.690 C 340.053 82.214, 339.851 82.534, 341.904 82.832 C 344.733 83.243, 349.314 81.415, 351.494 79.007 C 352.570 77.818, 353.024 75.875, 352.816 73.348 L 352.500 69.500 350.319 73.190 M 257.862 132.447 C 251.159 133.846, 245.653 136.135, 244.499 138.002 C 243.471 139.665, 244.957 142.852, 247.074 143.523 C 248.182 143.875, 252.648 142.912, 257.273 141.325 C 264.257 138.927, 267.087 138.500, 276 138.500 C 286.178 138.500, 286.727 138.616, 293.887 142.279 C 297.950 144.358, 301.550 145.775, 301.887 145.429 C 303.141 144.142, 294.524 137.988, 287.198 134.939 C 278.167 131.179, 268.050 130.320, 257.862 132.447 M 262.718 150.033 C 260.637 150.555, 257.712 151.624, 256.218 152.409 C 252.107 154.566, 246.227 161.126, 245.403 164.473 L 244.671 167.445 247.586 165.516 C 252.462 162.289, 260.431 158.037, 261.642 158.018 C 262.269 158.008, 263.058 159.094, 263.393 160.430 C 264.387 164.391, 266.750 166, 271.571 166 C 275.600 166, 276 165.780, 276 163.559 C 276 160.511, 277.388 159.557, 278.998 161.498 C 281.065 163.988, 279.325 167.966, 275.464 169.579 C 271.379 171.286, 271.296 171.592, 274.250 174.056 C 277.184 176.504, 286.999 176.909, 285 174.500 C 284.315 173.675, 282.348 172.986, 280.628 172.970 C 277.806 172.942, 277.696 172.832, 279.500 171.845 C 280.600 171.244, 282.046 170.069, 282.712 169.236 C 283.792 167.887, 284.199 167.900, 286.427 169.360 C 290.062 171.742, 291.790 171.410, 295.600 167.600 C 300.049 163.151, 299.903 162, 294.889 162 L 290.778 162 293.105 160.116 L 295.431 158.233 291.965 156.109 C 282.933 150.572, 270.696 148.030, 262.718 150.033 M 273 152.647 C 278.192 154.956, 291.050 158.728, 291.461 158.063 C 291.733 157.624, 288.927 156.312, 285.227 155.149 C 278.671 153.088, 270.003 151.315, 273 152.647 M 358.956 160.500 C 361.062 164.237, 382 185.506, 382 183.909 C 382 182.440, 373.987 173.281, 365.457 165 C 357.832 157.597, 356.993 157.016, 358.956 160.500 M 194.192 168.713 C 192.923 168.956, 192.051 169.654, 192.255 170.265 C 192.900 172.200, 194.621 172.129, 197.099 170.066 C 199.539 168.034, 199.018 167.791, 194.192 168.713 M 263.541 172.933 C 262.780 174.165, 269.631 177.702, 270.702 176.631 C 271.102 176.231, 270.950 175.138, 270.364 174.202 C 269.137 172.242, 264.501 171.380, 263.541 172.933 M 206 204.376 C 206 205.304, 206.694 206.329, 207.543 206.655 C 209.970 207.586, 210.205 206.495, 208.006 204.506 C 206.175 202.849, 206 202.837, 206 204.376 M 218.507 204.988 C 217.509 206.604, 226.362 210.377, 229.377 209.620 C 233.297 208.636, 232.577 207.490, 226.885 205.652 C 220.978 203.744, 219.356 203.616, 218.507 204.988 M 329.505 208.993 C 329.156 209.557, 329.155 210.914, 329.503 212.009 C 329.915 213.306, 329.676 214.005, 328.817 214.015 C 327.849 214.027, 327.898 214.288, 329 215 C 330 215.646, 330.083 215.974, 329.250 215.985 C 328.563 215.993, 328 216.477, 328 217.059 C 328 217.641, 328.520 217.797, 329.155 217.405 C 329.945 216.916, 330.033 217.134, 329.433 218.095 C 327.150 221.754, 328.644 223.796, 332.207 221.889 C 334.387 220.723, 334.395 220.662, 332.478 219.913 C 331.390 219.488, 331.111 219.109, 331.857 219.070 C 332.757 219.024, 332.966 218.410, 332.477 217.250 C 332.071 216.287, 331.810 214.071, 331.896 212.325 C 332.055 209.091, 330.652 207.136, 329.505 208.993 M 388 212.750 C 388 215.999, 392.525 225.315, 396.047 229.316 C 398.236 231.803, 403.059 235.740, 406.764 238.065 C 410.469 240.390, 415.240 243.656, 417.367 245.323 L 421.234 248.354 419.646 245.427 C 418.772 243.817, 416.502 240.480, 414.601 238.011 C 412.700 235.542, 411.289 233.378, 411.464 233.202 C 411.640 233.027, 413.477 233.590, 415.545 234.455 C 423.775 237.893, 418.911 233.604, 405.500 225.596 C 401.100 222.968, 395.363 218.739, 392.750 216.197 C 390.137 213.655, 388 212.104, 388 212.750 M 203.500 226.706 C 200.750 227.529, 198.200 228.686, 197.833 229.276 C 197.466 229.867, 198.253 231.951, 199.583 233.907 C 200.912 235.864, 202 237.880, 202 238.388 C 202 240.171, 207.134 246.018, 210.002 247.501 C 211.695 248.377, 215.572 249, 219.323 249 C 225.214 249, 226.845 248.458, 239.002 242.462 C 246.292 238.866, 251.985 235.651, 251.652 235.318 C 251.319 234.985, 245.298 232.810, 238.273 230.485 C 223.155 225.481, 211.736 224.240, 203.500 226.706 M 209 234.412 C 209 235.951, 216.293 237.999, 221.718 237.985 C 228.179 237.968, 231.395 236.776, 228.334 235.534 C 225.847 234.526, 209 233.548, 209 234.412 M 378 250.086 C 378 252.523, 383.556 260.608, 388.461 265.308 C 392.770 269.437, 411.615 280.719, 412.584 279.750 C 413.434 278.899, 405.137 271.115, 397.279 265.390 C 393 262.273, 386.913 257.212, 383.750 254.143 C 380.377 250.869, 378 249.192, 378 250.086 M 297.453 258.090 C 293.782 261.888, 286.879 266.695, 261.689 282.996 C 256.293 286.488, 247.968 292.401, 243.189 296.136 L 234.500 302.928 234.500 334.214 C 234.500 364.998, 234.462 365.584, 232.127 370.750 C 230.822 373.637, 229.543 376, 229.285 376 C 229.027 376, 227.703 375.125, 226.344 374.056 C 222.887 371.337, 220.430 372.532, 214.916 379.613 C 211.359 384.180, 209.229 385.909, 205.416 387.324 C 202.712 388.327, 199.657 389.902, 198.627 390.824 C 194.904 394.156, 161.219 445.799, 159.135 451.370 C 155.627 460.744, 156.653 466.268, 163.272 473.640 C 165.178 475.763, 168.378 480.075, 170.382 483.222 C 174.705 490.011, 177.030 491.581, 180.250 489.886 C 181.488 489.234, 186.684 484.714, 191.797 479.842 C 196.911 474.969, 210.968 463.102, 223.036 453.471 C 235.104 443.840, 257.245 425.761, 272.239 413.295 C 301.624 388.864, 321.028 373.974, 338.132 362.734 L 348.943 355.629 335.193 341.565 C 322.057 328.128, 305.237 307.781, 302.145 301.588 C 300.903 299.099, 300.860 296.115, 301.852 281.088 C 303.212 260.458, 303.296 254, 302.203 254 C 301.765 254, 299.627 255.840, 297.453 258.090 M 355.233 269.009 C 356.202 282.559, 365.227 295.293, 380.139 304.152 C 386.764 308.087, 406.847 316.486, 407.669 315.665 C 408.525 314.808, 397.074 305.465, 385.824 297.840 C 371.186 287.919, 365.515 281.829, 360.459 270.601 C 358.328 265.871, 356.168 262, 355.658 262 C 355.129 262, 354.947 265.012, 355.233 269.009 M 161.252 295.506 C 161.108 311.005, 153.505 323.366, 139.498 330.873 C 133.608 334.030, 138.354 333.624, 144.781 330.422 C 156.065 324.799, 163.083 312.905, 162.900 299.712 C 162.755 289.217, 161.344 285.615, 161.252 295.506 M 175.079 306.500 C 174.837 318.460, 168.234 331.760, 157.497 341.914 C 154.540 344.711, 152.336 347, 152.600 347 C 154.534 347, 161.578 342.264, 165.549 338.294 C 174.206 329.636, 178.776 315.108, 176.180 304.500 L 175.201 300.500 175.079 306.500 M 253.209 347.750 C 252.102 348.712, 250.415 351.975, 249.460 355 C 248.505 358.025, 246.635 362.674, 245.304 365.331 C 241.397 373.132, 242.728 374.372, 248.704 368.497 C 252.928 364.343, 254.167 362.260, 255.998 356.233 C 258.869 346.782, 257.858 343.708, 253.209 347.750 M 289 357.673 C 271.106 360.543, 260 363.971, 260 366.623 C 260 367.380, 260.424 368, 260.942 368 C 262.153 368, 299.890 360.136, 302.382 359.364 C 307.617 357.743, 296.961 356.397, 289 357.673 M 361.932 388.951 C 348.484 391.398, 330.719 407.593, 321.633 425.691 C 318.731 431.469, 314.689 445.202, 315.182 447.606 C 315.364 448.495, 317.054 446.457, 319.141 442.829 C 323.556 435.153, 339.033 416.900, 348.695 407.975 C 352.579 404.386, 358.181 400.223, 361.143 398.725 C 366.632 395.948, 372.367 395.167, 373.524 397.039 C 375.027 399.471, 344.781 447.695, 334.750 458.859 C 330.488 463.603, 327 467.826, 327 468.242 C 327 468.659, 328.773 469, 330.940 469 C 344.097 469, 385.007 438.228, 392.486 422.706 C 397.346 412.620, 396.113 404.112, 388.638 396.162 C 382.461 389.593, 372.776 386.978, 361.932 388.951" stroke="none" fill="black" fill-rule="evenodd"/>
</svg>