<svg xmlns="http://www.w3.org/2000/svg" width="512" height="512" viewBox="0 0 512 512" version="1.1">
	<path d="M 237.627 18.010 C 183.546 27.852, 138.703 64.399, 120.460 113.500 C 114.758 128.848, 112.233 143.190, 110.514 170 C 108.334 203.993, 105.377 215.079, 95.294 227.062 C 89.530 233.913, 73.518 241.504, 70.360 238.884 C 69.052 237.799, 68.821 238.151, 66.497 244.764 C 65.828 246.665, 59.751 243.948, 58.513 241.195 C 57.208 238.293, 56.183 238.422, 55.388 241.591 C 54.220 246.242, 56.756 251.699, 63.093 258.176 C 66.435 261.592, 68.712 264.688, 68.234 265.166 C 66.685 266.715, 61.165 264.833, 57.135 261.384 C 54.961 259.523, 52.916 258, 52.591 258 C 52.266 258, 52.004 259.913, 52.009 262.250 C 52.035 273.692, 71.982 293.511, 90.135 300.129 C 93.395 301.318, 96.279 302.643, 96.545 303.073 C 97.587 304.758, 93.004 304.978, 88.526 303.457 C 85.932 302.577, 83.602 302.065, 83.347 302.320 C 82.264 303.403, 86.059 309.904, 90.807 315.099 C 100.894 326.135, 123.920 339.130, 145.500 345.966 C 151 347.708, 155.905 349.532, 156.401 350.018 C 156.932 350.539, 155.496 354.466, 152.901 359.585 L 148.500 368.269 148.921 378.884 C 149.403 391.026, 149.399 396.872, 148.898 413 C 148.476 426.558, 149.830 432.445, 156.669 446.808 C 162.029 458.065, 171.373 468.268, 179.750 472.011 C 182.637 473.301, 185 474.880, 185 475.519 C 185 476.159, 184.330 478.891, 183.511 481.591 C 180.147 492.679, 182.069 495, 194.612 495 C 201.336 495, 203.195 494.646, 205.139 492.994 L 207.500 490.987 201.626 485.673 C 193.863 478.650, 194.250 477.370, 205.793 471.860 C 212.905 468.466, 215.879 466.268, 222.474 459.531 C 227.175 454.729, 232.740 447.638, 235.906 442.416 C 246.018 425.739, 245.604 426.225, 252.797 422.602 C 264.380 416.769, 271.462 407.679, 272.640 397.131 C 273.311 391.122, 271.270 385.534, 265.403 377.312 C 262.873 373.766, 260.967 370.700, 261.169 370.498 C 261.370 370.296, 268.752 369.814, 277.573 369.427 C 297.447 368.553, 298.534 368.914, 297.587 376.059 C 296.675 382.931, 298.788 387.258, 306.835 395 C 316.879 404.663, 317.083 405.334, 316.329 426.189 C 315.982 435.797, 315.990 444.825, 316.348 446.252 C 316.707 447.679, 318.638 450.992, 320.640 453.616 C 324.253 458.349, 324.288 458.488, 325.199 471.800 C 325.993 483.410, 325.907 485.446, 324.558 486.936 C 319.386 492.650, 329.498 496.916, 335.658 491.618 L 338.427 489.236 337.214 478.322 C 335.950 466.954, 335.626 457, 336.520 457 C 336.806 457, 338.820 458.124, 340.996 459.497 C 346.264 462.823, 352.737 464.459, 357.264 463.610 C 369.204 461.370, 380.499 442.115, 380.500 424 C 380.500 417.032, 380.193 415.944, 376.180 408.670 C 372.499 401.997, 371.731 399.586, 370.984 392.349 C 369.874 381.582, 368.798 378.400, 362.927 368.522 C 356.042 356.937, 349.530 349.674, 340.500 343.508 C 338.123 341.886, 337.517 342.138, 352 338.733 C 387.562 330.373, 408.469 323.034, 412.952 317.334 C 415.760 313.764, 415.573 313.393, 411.181 313.811 C 404.946 314.406, 398.709 307.638, 400.448 302.165 C 400.905 300.730, 402.738 300.494, 413.739 300.454 C 424.504 300.415, 427.377 300.060, 432.105 298.186 C 439.837 295.122, 446.639 290.425, 449.551 286.140 C 452.600 281.652, 452.815 279.493, 450.066 280.965 C 444.903 283.728, 436.790 281.048, 431.998 274.997 C 428.820 270.985, 424.026 261.436, 424.010 259.086 C 424.004 258.308, 427.038 260.602, 430.750 264.184 C 437.809 270.994, 441.455 273.327, 446.547 274.292 C 452.855 275.486, 452.771 273.579, 446.208 266.564 C 439.436 259.324, 433.373 248.022, 430.348 237 C 428.448 230.077, 428.190 216.778, 429.089 172 C 429.525 150.256, 429.180 147.274, 424.351 131.099 C 412.599 91.727, 377.977 54.033, 334.713 33.506 C 320.813 26.910, 305.799 21.644, 293.159 18.930 C 278.639 15.812, 252.119 15.373, 237.627 18.010 M 248.938 30.122 C 243.679 30.588, 235.109 32.052, 229.893 33.375 C 188.932 43.766, 156.423 68.994, 139.523 103.505 C 130.061 122.827, 128.595 137.767, 133.362 166.283 C 137.560 191.398, 136.743 202.866, 129.747 217 C 121.829 232.996, 103.957 243.561, 81.352 245.610 C 77.308 245.976, 74 246.684, 74 247.183 C 74 249.356, 79.245 253.015, 84.586 254.568 C 88.814 255.797, 92.207 256.082, 97.148 255.623 C 104.261 254.962, 119.496 250.624, 120.519 248.969 C 120.884 248.378, 118.331 248, 113.976 248 C 110.047 248, 106.983 247.602, 107.167 247.115 C 107.350 246.628, 112.289 243.035, 118.143 239.130 C 140.050 224.515, 149.389 210.053, 155.024 182.017 C 161.376 150.413, 168.083 141.287, 202.069 118 C 223.447 103.353, 237.889 91.108, 250.248 77.151 C 253.341 73.659, 256.350 71.098, 256.935 71.460 C 258.766 72.591, 258.103 83.339, 255.591 93.241 C 248.140 122.612, 225.377 151.887, 196.395 169.370 L 187.567 174.695 185.731 184.098 C 183.253 196.783, 178.155 211.714, 172.231 223.639 L 167.332 233.500 169.153 239.340 C 171.485 246.818, 170.562 249, 165.068 249 C 161.900 249, 160.650 249.635, 158.104 252.535 C 156.397 254.479, 155 256.471, 155 256.962 C 155 258.703, 162.275 263.817, 166.390 264.969 C 169.815 265.928, 171.373 265.859, 175.034 264.584 C 177.490 263.729, 180.191 263.023, 181.035 263.015 C 181.879 263.007, 184.974 266.361, 187.911 270.468 C 200.548 288.138, 217.521 299.633, 243.036 307.802 C 272.925 317.372, 297.696 315.635, 325.500 302.021 C 342.413 293.740, 351.740 284.413, 360.021 267.500 C 366.751 253.754, 369.415 243.638, 372.422 220.405 C 373.839 209.457, 375.291 198.762, 375.648 196.637 L 376.298 192.774 372.209 193.465 L 368.119 194.156 367.003 189.828 C 364.944 181.839, 363.898 179.139, 361.855 176.543 C 359.051 172.979, 354.552 170.823, 351.509 171.587 C 349.341 172.131, 349 171.883, 349 169.763 C 349 165.455, 345.825 163.635, 339.455 164.292 C 333.927 164.863, 333.883 164.846, 334.190 162.295 C 334.397 160.573, 335.604 159.133, 337.838 157.939 C 339.674 156.959, 341.389 155.944, 341.649 155.684 C 342.728 154.605, 322.557 113, 320.955 113 C 320.483 113, 318.452 115.812, 316.444 119.250 C 305.780 137.497, 289.829 151.041, 267.622 160.702 C 257.525 165.095, 254.597 165.775, 253.491 163.986 C 252.757 162.798, 245.557 159, 244.040 159 C 243.468 159, 243 159.878, 243 160.950 C 243 164.003, 240.195 164.979, 236.210 163.314 C 228.387 160.046, 218.848 164.200, 206.250 176.363 C 196.010 186.250, 194.253 185.965, 200.561 175.441 C 208.171 162.744, 219.229 155.030, 229.910 154.967 L 235.500 154.933 233.210 153.024 L 230.920 151.115 238.488 146.008 C 257.473 133.197, 281.990 111.107, 292.169 97.641 C 298.683 89.023, 303.359 79.933, 304.554 73.565 C 305.270 69.747, 305.288 69.734, 306.603 72.107 C 308.228 75.038, 308.386 86.067, 306.881 91.500 C 306.272 93.700, 304.924 96.694, 303.887 98.154 C 302.849 99.614, 302 101.088, 302 101.430 C 302 102.794, 307.930 98.873, 310.536 95.786 C 317.540 87.488, 318.882 76.952, 314.511 64.564 C 312.701 59.437, 312.348 57.286, 313.154 56.314 C 314.896 54.216, 316.967 54.766, 320.438 58.250 C 325.354 63.185, 327.421 72.898, 326.738 87.860 L 326.207 99.500 329.663 105.229 C 333.285 111.233, 343.645 132.724, 348.473 144.250 C 350.028 147.962, 351.641 151, 352.057 151 C 352.917 151, 358.489 137.992, 360.588 131.086 C 363.277 122.234, 364.113 111.020, 362.699 102.761 C 361.979 98.560, 361.766 95.355, 362.225 95.639 C 362.684 95.923, 365.329 100.677, 368.103 106.205 C 370.877 111.733, 375.416 119.877, 378.189 124.302 C 383.907 133.425, 392.478 150.526, 394.179 156.205 C 394.805 158.292, 395.655 160, 396.068 160 C 396.481 160, 397.361 156.788, 398.023 152.862 C 399.959 141.384, 397.997 130.822, 391.575 118.148 C 387.985 111.063, 388.762 109.653, 393.244 115.123 C 402.113 125.946, 408.552 140.125, 412.489 157.500 L 414.754 167.500 415.466 161.958 C 416.436 154.409, 413.868 140.173, 409.493 128.844 C 400.262 104.941, 387.399 86.878, 367.743 70.218 C 340.516 47.138, 308.224 33.403, 273.174 29.993 C 262.365 28.941, 262.260 28.942, 248.938 30.122 M 226.215 185.257 C 221.539 186.755, 214.534 193.265, 212.029 198.440 C 209.833 202.977, 209.431 212.957, 211.439 213.087 C 211.956 213.121, 213.096 211.312, 213.973 209.069 C 216.345 203.003, 222.845 194.549, 227.445 191.550 C 230.441 189.595, 232.542 188.977, 235.490 189.182 C 240.317 189.517, 241.559 187.032, 237.492 185.178 C 234.431 183.784, 230.732 183.809, 226.215 185.257 M 337.672 187.471 C 335.393 189.749, 336.301 190.822, 340.410 190.705 C 342.287 190.652, 344.599 191.253, 345.548 192.040 C 347.572 193.720, 352 200.520, 352 201.949 C 352 203.275, 348.972 202.046, 346.500 199.716 C 340.174 193.753, 334.185 193.839, 328.645 199.972 C 322.562 206.705, 321.644 215.395, 326.229 222.853 C 328.653 226.795, 333.476 229.993, 337 229.993 C 345.600 229.993, 352.874 217.446, 350.099 207.398 C 349.525 205.316, 349.231 203.436, 349.446 203.221 C 350.162 202.505, 352.360 207.421, 354.043 213.500 C 356.062 220.791, 358.106 221.380, 359.256 215 C 361.665 201.634, 354.006 187.431, 343.767 186.277 C 340.478 185.906, 338.934 186.209, 337.672 187.471 M 225.646 196.006 C 220.957 200.123, 219 204.711, 219 211.585 C 219 218.344, 221.673 224.705, 226.064 228.401 L 228.973 230.848 225.250 232.674 C 223.202 233.678, 220.468 236.075, 219.174 238 C 217.229 240.895, 216.897 242.437, 217.257 246.918 C 217.622 251.456, 218.207 252.796, 220.862 255.168 C 224.394 258.324, 227.693 258.727, 231.953 256.524 C 241.021 251.835, 241.228 236.159, 232.275 232.079 L 229.500 230.815 233.363 229.486 C 241.487 226.693, 246 219.910, 246 210.492 C 246 196.314, 234.565 188.175, 225.646 196.006 M 230.571 200.571 C 228.632 202.511, 228.611 204.902, 230.512 207.414 C 231.796 209.112, 231.735 209.693, 229.964 212.558 C 226.627 217.958, 229.730 223.037, 235.484 221.593 C 238.830 220.754, 241 216.182, 241 209.973 C 241 205.640, 240.547 204.394, 238.077 201.923 C 234.782 198.628, 232.861 198.282, 230.571 200.571 M 334.200 203.200 C 332.379 205.021, 332.763 207.803, 335 209 C 337.306 210.234, 337.532 212.714, 335.574 215.296 C 333.840 217.582, 334.643 220.752, 337.157 221.550 C 341.671 222.983, 346.476 215.939, 345.273 209.650 C 344.184 203.953, 337.399 200.001, 334.200 203.200 M 292.465 224.940 C 290.067 225.925, 287.475 228.809, 288.272 229.605 C 288.578 229.911, 289.738 229.676, 290.849 229.081 C 291.960 228.486, 293.819 228, 294.980 228 C 297.944 228, 302 232.377, 302 235.577 C 302 237.835, 302.230 238.054, 303.500 237 C 305.703 235.171, 305.327 230.473, 302.750 227.630 C 300.255 224.878, 295.587 223.658, 292.465 224.940 M 341 235.224 C 339.625 235.926, 337.438 238.641, 336.140 241.258 C 333.200 247.186, 333.833 251.987, 338.120 256.274 C 340.661 258.815, 341.619 259.161, 344.712 258.659 C 349.319 257.912, 354.774 252.723, 355.604 248.297 C 357.213 239.719, 348.128 231.586, 341 235.224 M 227 242.500 C 227 243.513, 228.014 244, 230.122 244 C 232.785 244, 233.061 243.779, 232 242.500 C 231.315 241.675, 229.910 241, 228.878 241 C 227.845 241, 227 241.675, 227 242.500 M 343.569 243.888 C 343.267 244.376, 344.478 244.998, 346.260 245.269 C 349.900 245.824, 350.493 245.607, 349.541 244.067 C 348.744 242.777, 344.337 242.645, 343.569 243.888 M 251.307 257.809 C 250.185 260.494, 249.897 263.843, 250.218 270.479 C 250.728 281.031, 253.174 287.174, 259.309 293.309 C 265.383 299.383, 270.954 301.481, 281 301.478 C 290.573 301.476, 294.897 299.798, 302.096 293.295 C 309.474 286.629, 317.508 269.982, 316.816 262.792 C 316.457 259.051, 317.748 259.229, 300.375 260.529 C 287.863 261.466, 270.373 259.703, 260.166 256.477 L 252.832 254.159 251.307 257.809 M 270.362 266.500 C 268.850 270.439, 273.448 273.312, 280.442 272.798 C 284.091 272.530, 284.533 272.208, 284.830 269.609 C 285.258 265.861, 283.798 265.034, 276.719 265.015 C 272.492 265.004, 270.782 265.403, 270.362 266.500 M 289.425 268.443 C 288.664 271.475, 289.470 272.848, 292.741 274.092 C 295.990 275.327, 301.686 273.564, 302.475 271.079 C 303.698 267.226, 302.114 266, 295.912 266 C 290.517 266, 289.988 266.199, 289.425 268.443 M 116.500 278.162 C 106.738 280, 93.524 280.078, 84.123 278.355 C 79.570 277.520, 80.299 279.735, 85.552 282.697 C 95.430 288.268, 114.520 287.903, 128.750 281.872 C 131.768 280.593, 133 279.481, 133 278.036 C 133 275.500, 130.545 275.519, 116.500 278.162 M 266.465 283.952 C 262.262 285.655, 261.723 287.518, 264.484 290.799 C 270.641 298.116, 292 299.447, 292 292.514 C 292 286.181, 275.016 280.486, 266.465 283.952 M 232.430 319.422 C 232.026 321.032, 232.296 322.653, 233.138 323.668 C 235.398 326.392, 250.907 336.017, 260.640 340.735 C 269.510 345.035, 269.868 345.119, 272.795 343.606 C 278.754 340.524, 279.057 339.759, 277.083 332.758 L 275.319 326.504 264.662 324.847 C 255.543 323.429, 240.588 319.743, 234.792 317.484 C 233.517 316.987, 232.918 317.479, 232.430 319.422 M 213.377 326.250 C 208.017 332.366, 207.205 330.763, 224.018 347.245 C 238.676 361.614, 239.675 362.391, 244.955 363.537 C 248.005 364.199, 251.625 365.029, 253 365.381 C 255.299 365.969, 255.741 365.486, 258.500 359.360 C 260.150 355.697, 261.633 352.368, 261.796 351.963 C 261.958 351.557, 259.033 349.445, 255.296 347.269 C 244.654 341.074, 230.046 332.065, 223.805 327.848 C 217.192 323.380, 216.046 323.204, 213.377 326.250 M 296.880 333.750 C 295.509 335.262, 293.078 338.284, 291.479 340.464 C 289.879 342.645, 287.752 345.248, 286.751 346.249 C 284.991 348.009, 285.122 348.257, 290.716 353.784 C 293.897 356.928, 297.662 361.061, 299.083 362.969 L 301.667 366.438 303.397 363.797 C 306.117 359.646, 309.248 342.786, 307.941 339.327 C 306.717 336.088, 302.171 331, 300.500 331 C 299.881 331, 298.252 332.238, 296.880 333.750 M 185 342.984 C 173.946 348.709, 168.996 353.564, 163.946 363.630 C 160.750 370.001, 160.529 371.044, 160.901 378 C 161.342 386.242, 161.400 402.429, 161.035 415.250 C 160.543 432.559, 170.537 452.620, 183.043 459.427 C 187.398 461.797, 189.005 462.160, 193.038 461.682 C 204.515 460.323, 217.239 449.600, 229.468 430.982 C 238.499 417.233, 240.345 415.334, 246.415 413.557 C 259.060 409.856, 266.175 397.493, 261.424 387.481 C 259.478 383.380, 249.151 373.388, 245.375 371.953 C 236.462 368.564, 224.018 378.221, 224.005 388.538 C 224.001 392.038, 223.368 393.188, 219.250 397.184 C 216.339 400.007, 211.158 403.370, 205.871 405.867 C 198.846 409.184, 196.057 411.219, 190.871 416.810 C 181.536 426.873, 177 428.548, 177 421.933 C 177 415.233, 181.351 410.273, 195.675 400.639 C 197.972 399.095, 200.093 397.201, 200.388 396.431 C 201.121 394.520, 197.598 381.092, 195.055 376.109 C 193.918 373.880, 191.640 370.521, 189.994 368.646 C 188.347 366.770, 187 364.958, 187 364.618 C 187 364.278, 189.440 364, 192.423 364 C 200.819 364, 205.096 368.461, 209.443 381.750 C 210.388 384.637, 211.738 387, 212.445 387 C 213.151 387, 214.511 384.949, 215.469 382.443 C 216.445 379.888, 219.397 375.698, 222.192 372.903 L 227.175 367.920 222.626 362.595 C 216.332 355.228, 197.568 337.993, 195.883 338.032 C 195.122 338.049, 190.225 340.277, 185 342.984 M 320 345.396 C 320 345.613, 322.148 347.170, 324.774 348.855 C 331.596 353.233, 334.360 356.494, 338.453 365 C 341.019 370.331, 344.387 374.958, 350.101 381 L 358.140 389.500 357.619 385.668 C 356.930 380.594, 353.847 374.398, 346.676 363.677 C 340.606 354.601, 335.740 350.188, 328.167 346.888 C 324.231 345.173, 320 344.400, 320 345.396 M 316.693 355.746 C 316.457 356.161, 315.707 358.873, 315.026 361.774 L 313.789 367.048 317.895 371.501 C 321.370 375.271, 322.212 377.113, 322.241 381 C 322.243 381.275, 321.951 383.149, 321.593 385.164 C 321.009 388.449, 321.143 388.775, 322.885 388.320 C 329.937 386.476, 331.723 376.026, 326.725 365.850 C 324.135 360.576, 317.658 354.052, 316.693 355.746 M 308.200 376.200 C 306.233 378.167, 306.816 381.833, 309.359 383.500 C 312.285 385.417, 314.825 384.546, 315.627 381.349 C 316.728 376.964, 311.241 373.159, 308.200 376.200 M 338.498 388.005 C 337.480 391.212, 333.189 395.766, 328.926 398.162 C 326.088 399.757, 325.137 400.857, 325.529 402.092 C 326.742 405.912, 327.989 415.870, 327.994 421.775 C 327.999 427.373, 328.433 428.735, 332.022 434.417 C 339.259 445.877, 348.785 452.826, 355.524 451.561 C 360.654 450.599, 364.470 444.676, 367.521 432.940 C 369.757 424.339, 369.099 418.456, 365.281 412.917 C 361.799 407.866, 341.240 386, 339.973 386 C 339.512 386, 338.848 386.902, 338.498 388.005 M 287.893 399.497 C 277.039 405.397, 280.894 422.332, 293.413 423.743 C 297.696 424.226, 298.225 424.010, 301.989 420.246 C 305.448 416.787, 305.999 415.634, 305.996 411.868 C 305.988 401.671, 296.200 394.982, 287.893 399.497 M 291.200 407.200 C 289.560 408.840, 289.690 412.498, 291.440 413.950 C 293.639 415.775, 298.161 414.836, 299.067 412.365 C 300.687 407.949, 294.508 403.892, 291.200 407.200 M 288.500 444.403 C 279.576 448.342, 277.586 459.238, 284.461 466.527 C 287.233 469.466, 288.410 469.999, 292.118 469.996 C 297.719 469.991, 302.161 467.288, 304.432 462.502 C 307.397 456.254, 304.128 447.712, 297.583 444.606 C 293.546 442.691, 292.435 442.666, 288.500 444.403 M 290.200 453.200 C 288.560 454.840, 288.690 458.498, 290.440 459.950 C 292.558 461.708, 297.413 460.868, 297.830 458.671 C 298.579 454.722, 297.091 452, 294.181 452 C 292.651 452, 290.860 452.540, 290.200 453.200" stroke="none" fill="black" fill-rule="evenodd"/>
</svg>