<svg xmlns="http://www.w3.org/2000/svg" width="512" height="512" viewBox="0 0 512 512" version="1.1">
	<path d="M 244.500 30.097 C 231.994 31.396, 216.510 34.830, 204.500 38.969 C 159.440 54.498, 156.697 55.584, 144.324 62.811 C 134.207 68.719, 125.749 75.282, 115.096 85.489 C 103.730 96.380, 95.257 107.499, 90.027 118.388 C 84.181 130.562, 82.693 137.401, 82.589 152.583 L 82.500 165.666 78 171.387 C 62.404 191.214, 54.014 210.178, 48.919 237.123 C 45.860 253.299, 45.102 286.897, 47.433 303 C 52.505 338.042, 65.228 369.271, 86.557 399.032 C 93.709 409.011, 110.704 426.995, 120.702 435.165 C 150.035 459.134, 187.770 475.499, 227.500 481.482 C 239.152 483.237, 265.669 483.482, 278.026 481.949 C 333.171 475.107, 386.441 446.352, 419.368 405.655 C 458.172 357.692, 474.005 294.239, 461.546 236.617 C 460.146 230.140, 459 224.192, 459 223.399 C 459 222.607, 461.025 220.531, 463.500 218.787 C 465.975 217.042, 468 215.237, 468 214.775 C 468 214.313, 463.774 211.973, 458.608 209.575 C 453.443 207.178, 448.268 204.268, 447.108 203.108 C 444.551 200.551, 444.388 196.154, 446.606 189.642 C 448.368 184.472, 448.612 185.729, 442.707 169.500 C 441.306 165.650, 438.731 158, 436.984 152.500 C 425.115 115.118, 401.399 84.250, 366.500 60.758 C 330.609 36.598, 287.124 25.670, 244.500 30.097 M 244 42.608 C 242.625 42.864, 237.675 43.790, 233 44.664 C 221.762 46.766, 208.788 50.863, 209.224 52.171 C 209.415 52.745, 213.815 54.314, 219.001 55.658 C 270.645 69.036, 302.897 114.783, 303.030 174.849 C 303.066 190.944, 303.935 190.637, 307.420 173.294 C 312.493 148.051, 319.893 137.198, 343.375 120.560 C 357.947 110.235, 361.931 104.720, 363.509 92.690 C 364.191 87.495, 365.627 86.948, 367.735 91.079 C 369.737 95.003, 369.331 115.069, 367.058 124.500 C 364.558 134.877, 361.975 140.660, 355.369 150.672 C 348.965 160.378, 340.368 168.511, 326.599 177.892 C 316.454 184.804, 312.195 188.529, 313.243 189.576 C 314.107 190.441, 331.358 187.235, 338.314 184.917 C 345.713 182.451, 355.710 177.126, 361.231 172.708 C 371.941 164.139, 381.770 148.424, 384.383 135.694 C 385.947 128.070, 386.263 127.503, 388.472 128.351 C 391.873 129.656, 393.063 139.676, 390.921 148.972 C 389.485 155.204, 384.824 164.511, 379.945 170.887 C 375.154 177.149, 375.594 177.961, 383.792 177.985 C 395.267 178.018, 412.291 183.150, 425.584 190.584 C 428.944 192.463, 431.986 194, 432.346 194 C 433.965 194, 432.713 183.966, 429.557 171.654 C 425.709 156.637, 421.235 144.400, 415.218 132.433 C 393.448 89.135, 348.687 56.191, 296.394 44.978 C 288.692 43.327, 282.068 42.778, 266.500 42.499 C 255.500 42.303, 245.375 42.352, 244 42.608 M 174.322 64.935 C 145.405 72.744, 114.690 97.840, 101.126 124.743 C 97.295 132.341, 92.732 147.812, 93.181 151.677 C 93.477 154.216, 94.008 153.650, 98.452 146.059 C 109.920 126.476, 127.734 113.151, 149.386 107.959 C 164.094 104.433, 167.516 106.002, 155.852 110.923 C 146.435 114.896, 142.940 117.939, 135.871 128.324 C 128.116 139.717, 120.116 147.686, 108.408 155.683 C 96.151 164.055, 95.332 165.500, 105.771 160.336 C 122.534 152.043, 142.554 143.215, 149.500 141.052 C 156.218 138.961, 174 137.004, 174 138.357 C 174 139.309, 151.447 155.976, 144.207 160.374 C 134.901 166.027, 123.739 169.701, 110.655 171.417 C 99.986 172.816, 90.982 175.315, 92.205 176.539 C 92.487 176.820, 100.319 176.252, 109.609 175.276 C 118.899 174.300, 132.350 173.501, 139.500 173.501 C 150.737 173.500, 153.382 173.825, 159 175.894 C 168.010 179.212, 176.992 185.117, 182.956 191.643 C 189.435 198.731, 189.916 202.868, 183.693 197.973 C 178.215 193.664, 174.812 193, 158.214 193 C 141.137 193, 137.407 192.321, 125.903 187.117 C 119.978 184.436, 112 181.764, 112 182.460 C 112 182.624, 115.938 184.938, 120.750 187.602 C 133.033 194.402, 143.699 205.256, 150.973 218.358 C 154.562 224.822, 158.137 229.736, 161.362 232.635 C 164.066 235.066, 165.997 237.336, 165.654 237.679 C 164.441 238.892, 148.161 232.790, 142.175 228.878 C 134.583 223.918, 128.889 217.626, 122.265 206.882 C 117.217 198.694, 110.501 190.874, 106.832 188.910 C 105.824 188.371, 105 188.155, 105 188.430 C 105 188.706, 107.568 192.871, 110.707 197.687 C 114.908 204.132, 117.667 210.064, 121.158 220.157 C 126.872 236.679, 129.552 242.145, 135.555 249.514 C 138.068 252.600, 139.984 255.533, 139.812 256.031 C 139.220 257.750, 123.481 247.489, 116.395 240.764 C 104.820 229.779, 100 218.301, 100 201.724 C 100 196.854, 99.537 192.003, 98.970 190.945 C 96.149 185.674, 85.855 184.347, 80.351 188.546 C 73.973 193.411, 65.931 214.054, 62.258 234.988 C 59.608 250.092, 59.904 286.584, 62.812 303.403 C 71.235 352.120, 88.921 387.829, 118.488 415.817 C 133.249 429.789, 148.996 440.991, 165.500 449.258 C 175.408 454.221, 194.261 461, 198.156 461 C 206.228 461, 225.974 451.728, 237.395 442.574 C 258.709 425.492, 275.587 395.994, 281.677 365.182 C 284.400 351.405, 283.920 329.526, 280.433 308.500 C 277.843 292.886, 277.601 289.177, 277.468 263 C 277.328 235.626, 276.424 225.481, 273.429 217.676 C 272.505 215.268, 268.986 216.102, 263 220.149 C 253.016 226.898, 247.001 238.921, 246.220 253.692 C 245.643 264.591, 246.652 269.295, 252.131 281.243 C 254.770 287, 255.916 290.690, 255.485 292.048 C 255.125 293.182, 254.467 293.973, 254.023 293.805 C 251.982 293.034, 238.670 275.809, 235.529 269.876 C 218.878 238.416, 236.777 208.953, 272.500 209.021 C 275.250 209.026, 277.995 209.361, 278.600 209.765 C 281.027 211.386, 282.279 215.785, 282.913 224.916 L 283.578 234.500 286.289 226.198 C 290.799 212.387, 289.667 209.012, 279.647 206.406 C 261.066 201.574, 247.139 189.737, 240.459 173.102 C 234.325 157.826, 235.193 141.867, 242.995 126.500 C 247.354 117.912, 253.439 109, 254.942 109 C 256.892 109, 257.068 113.309, 255.442 121.247 C 251.233 141.793, 257.511 167.202, 270.082 180.494 C 272.958 183.534, 275.471 185.862, 275.666 185.667 C 275.862 185.472, 275.342 183.385, 274.511 181.030 C 271.551 172.642, 273.410 169.940, 277.112 177.250 C 280.516 183.972, 293.174 204, 294.019 204 C 297.385 204, 295.567 189.398, 288.879 162.718 C 282.918 138.938, 279.255 127.472, 274.113 116.500 C 261.987 90.623, 240.979 73.104, 213 65.534 C 202.911 62.805, 183.333 62.501, 174.322 64.935 M 366 197.426 C 357.998 199.202, 350.326 201.869, 343.500 205.249 C 337.084 208.425, 319.051 220.101, 319.019 221.100 C 318.954 223.159, 357.482 223.519, 367.500 221.553 C 375.003 220.080, 377.268 220.718, 375.408 223.778 C 373.808 226.408, 358.365 233.747, 350.500 235.614 C 338.815 238.388, 338.832 238.347, 348.085 241.425 C 354.900 243.692, 358.211 244.214, 365.500 244.168 C 385.230 244.044, 401.783 235.960, 423 216.088 L 430.500 209.064 428 207.081 C 424.883 204.609, 409.093 199.304, 399.239 197.419 C 390.384 195.724, 373.648 195.728, 366 197.426 M 307.615 209.250 C 303.424 213.475, 300.706 217.282, 299.227 221 L 297.039 226.500 301.770 221 C 304.371 217.975, 309.159 212.688, 312.409 209.250 C 317.513 203.851, 318.011 203, 316.066 203 C 314.633 203, 311.563 205.270, 307.615 209.250 M 436.153 217.606 C 434.892 218.489, 430.669 223.551, 426.768 228.856 C 412.944 247.655, 402.073 256.299, 384.946 262.114 C 376.473 264.991, 374.315 265.321, 364 265.319 C 354.268 265.317, 351.270 264.912, 344.500 262.681 C 340.100 261.231, 333.735 258.231, 330.357 256.014 C 323.379 251.435, 313.331 241.140, 309.925 235.080 C 308.621 232.761, 306.885 231, 305.901 231 C 303.010 231, 295.233 242.448, 292.754 250.352 C 290.812 256.545, 290.524 259.572, 290.603 273 C 290.683 286.534, 291.149 290.783, 294.275 306.500 C 299.035 330.427, 300.391 343.034, 299.708 357 C 298.298 385.838, 287.301 413.877, 268.197 437.338 C 260.604 446.663, 250.604 454.248, 237.500 460.623 C 222.541 467.899, 222.319 468.039, 224.126 469.051 C 227.513 470.946, 244.123 472.229, 258.984 471.743 C 272.568 471.298, 276.181 470.793, 288 467.690 C 328.086 457.164, 351.347 440.834, 371.266 409.234 C 395.653 370.547, 412.986 318.428, 412.997 283.750 C 412.999 278.281, 413.396 275, 414.055 275 C 416.574 275, 423.393 295.296, 426.486 312 C 428.593 323.381, 428.583 347.264, 426.465 357.514 C 425.591 361.746, 425.069 365.402, 425.305 365.638 C 425.985 366.318, 432.923 349.594, 437.186 337 C 446.275 310.148, 449.953 290.707, 450.712 265.497 C 451.234 248.154, 450.435 236.842, 447.827 224.645 C 446.134 216.727, 441.444 213.899, 436.153 217.606 M 81.592 250.851 C 79.838 253.689, 77.715 272.227, 77.623 285.500 C 77.424 314.446, 83.288 329.967, 107.001 363.250 C 112.624 371.142, 113.401 369.468, 109.473 357.925 C 108.084 353.841, 105.593 343.994, 103.939 336.042 C 102.285 328.090, 99.556 317.740, 97.874 313.042 C 86.297 280.699, 84 271.659, 84 258.449 C 84 251.769, 82.991 248.587, 81.592 250.851 M 306.750 273.080 C 304.077 274.637, 304.582 275.571, 309.850 278.812 C 316.452 282.875, 321.127 288.888, 326.500 300.231 C 332.984 313.920, 335.166 322.962, 335.732 338.500 C 336.289 353.774, 334.337 364.072, 328.488 376.733 C 325.948 382.231, 325.268 384.661, 326.056 385.431 C 329.313 388.615, 346.240 357.484, 350.488 340.500 C 352.718 331.583, 352.728 317.581, 350.511 309 C 346.088 291.880, 334.103 278.643, 318.661 273.823 C 312.089 271.771, 309.296 271.597, 306.750 273.080" stroke="none" fill="black" fill-rule="evenodd"/>
</svg>