<svg xmlns="http://www.w3.org/2000/svg" width="512" height="512" viewBox="0 0 512 512" version="1.1">
	<path d="M 242 33.485 C 237.875 34.267, 225.725 37.661, 215 41.028 C 204.275 44.395, 189.875 48.434, 183 50.004 C 159.587 55.350, 142.396 62.903, 126.040 75.031 C 110.402 86.625, 94.598 104.836, 87.039 119.972 C 80.945 132.176, 73.254 151.999, 70.498 162.606 C 61.130 198.658, 69.857 248.400, 89.728 272.221 C 94.635 278.104, 103.626 285.707, 104.565 284.768 C 104.856 284.477, 103.547 281.373, 101.655 277.870 C 97.574 270.308, 95.773 263.173, 95.615 253.939 C 95.484 246.237, 96.493 244.376, 98.834 248 C 99.722 249.375, 103.481 253.666, 107.186 257.536 C 118.749 269.612, 121.191 279.586, 117.012 297.671 C 112.649 316.553, 115.088 323.089, 133.295 341.303 C 144.701 352.713, 145.292 353.520, 151.069 365.563 C 157.922 379.849, 161.178 383.063, 170.823 385.069 C 180.728 387.129, 197.861 383.370, 218.769 374.550 C 222.217 373.095, 225.530 372.210, 226.132 372.582 C 230.755 375.439, 237.422 412.643, 234.214 417.687 C 233.110 419.424, 228.394 421, 224.301 421 C 214.723 421, 205.855 427.452, 199.067 439.360 C 195.185 446.172, 194.766 451.202, 197.668 456.171 C 200.816 461.561, 202.465 460.983, 204.446 453.795 C 208.455 439.251, 217.886 429, 227.260 429 C 231.943 429, 233 430.531, 233 437.315 L 233 443.230 235.750 441.440 C 241.297 437.830, 242.787 434.612, 244.055 423.511 C 245.131 414.081, 244.029 399.210, 240.861 380.421 C 239.648 373.227, 238.940 366.598, 239.289 365.689 C 239.638 364.780, 243.203 361.937, 247.212 359.372 C 263.585 348.895, 280.091 335.779, 285.614 328.857 C 294.889 317.233, 298.265 316.310, 301.135 324.612 C 302.106 327.422, 304.970 340.022, 307.500 352.611 C 310.029 365.200, 313.889 380.870, 316.076 387.434 C 319.953 399.065, 329.968 420.318, 337.926 433.804 C 340.100 437.487, 342.168 441.691, 342.522 443.147 C 343.123 445.619, 342.793 445.934, 337.545 447.897 C 334.454 449.054, 331.595 450, 331.192 450 C 330.788 450, 318.768 453.154, 304.479 457.008 C 272.315 465.685, 267.125 466.765, 249.425 468.457 C 240.933 469.269, 234.036 470.447, 232.193 471.400 C 229.190 472.953, 226 476.537, 226 478.359 C 226 479.975, 259.580 478.352, 272.152 476.129 C 284.110 474.013, 313.302 466.923, 339 459.893 C 358.906 454.448, 363 453.036, 363 451.618 C 363 450.946, 359.688 446.012, 355.640 440.653 C 342.854 423.724, 332.609 403.975, 326.143 383.788 C 319.590 363.330, 318.181 350.819, 322 347 C 323.779 345.221, 325.333 345, 336.042 345 C 354.635 345, 370.206 341.090, 384.900 332.729 C 392.962 328.143, 407.744 315.013, 406.717 313.351 C 406.311 312.694, 403.457 313.254, 398.791 314.907 C 392.369 317.181, 389.951 317.486, 378.500 317.473 C 370.297 317.463, 364.434 316.993, 362.611 316.200 C 357.975 314.184, 360.153 313.813, 369.401 315.044 C 382.654 316.807, 391.991 315.233, 404.500 309.126 C 410 306.441, 416.411 302.837, 418.746 301.118 C 424.256 297.063, 429 290.461, 429 286.850 C 429 283.671, 428.397 283.363, 426.079 285.358 C 422.263 288.642, 412.822 290.046, 408.851 287.920 C 405.902 286.342, 402.021 277.298, 402.010 271.978 C 401.999 266.793, 403.672 260.808, 411.309 238.714 C 419.202 215.882, 420.510 208.337, 420.451 186 C 420.395 165.016, 419.007 156.716, 412.094 136.039 C 399.431 98.165, 378.717 73.299, 343.374 53.545 C 330.413 46.301, 313.593 39.551, 299 35.739 C 288.542 33.008, 285.779 32.705, 268.500 32.400 C 255.007 32.162, 247.326 32.476, 242 33.485 M 238 49.051 C 227.328 49.905, 211.155 53.223, 203.250 56.180 C 199.411 57.616, 198 58.662, 198 60.072 C 198 61.896, 198.874 62.001, 214.250 62.015 C 223.188 62.024, 231.081 62.399, 231.791 62.849 C 232.836 63.513, 232.844 64.554, 231.835 68.328 C 230.054 74.985, 231.226 75.854, 238.866 73.540 C 246.921 71.102, 254.936 71.755, 262.530 75.471 C 273.734 80.952, 280.031 89.986, 278.466 98.330 C 277.370 104.174, 276.457 104.800, 273.297 101.879 C 269.350 98.230, 267.308 97.760, 263.419 99.606 C 259.379 101.523, 253.097 110.473, 249.970 118.764 C 245.433 130.800, 243.749 139.780, 244.223 149.412 C 244.684 158.770, 247.057 166, 249.666 166 C 251.298 166, 251.774 163.654, 252.321 152.910 C 252.782 143.867, 254.477 138.565, 256.092 141.115 C 256.575 141.877, 256.976 144.543, 256.985 147.040 C 257.030 160.337, 266.857 181, 273.136 181 C 274.586 181, 275 180.251, 275 177.625 C 275 173.109, 276.069 168, 277.014 168 C 277.434 168, 279.272 172.336, 281.098 177.635 C 284.812 188.410, 288.592 195.031, 292.483 197.581 C 295.776 199.739, 299.604 198.721, 312.498 192.260 C 336.460 180.253, 353.990 162.298, 361.089 142.490 C 363.726 135.133, 364.812 117.015, 363.096 109.011 C 361.805 102.994, 358.263 94.404, 357.420 95.247 C 357.114 95.553, 357.570 98.179, 358.432 101.083 C 363.900 119.496, 355.964 138.498, 335.827 155.208 C 328.028 161.681, 302.353 177.686, 301.361 176.694 C 299.925 175.258, 303.156 170.883, 314.633 158.724 C 328.817 143.695, 336.883 132.350, 341.312 121.197 C 343.868 114.758, 344.437 111.759, 344.791 102.853 C 345.318 89.603, 343.921 85.874, 342.112 95.700 C 339.690 108.859, 331.840 120.872, 317.182 133.848 C 308.259 141.747, 306.668 140.409, 313.022 130.347 C 322.802 114.863, 326.267 103.021, 324.154 92.308 C 322.561 84.235, 317.064 73.558, 311.016 66.791 C 304.682 59.704, 297.253 55.924, 283 52.534 C 274.284 50.462, 252.161 47.653, 248.500 48.154 C 247.950 48.229, 243.225 48.633, 238 49.051 M 153.500 76.950 C 138.243 82.455, 127.017 89.391, 115.622 100.351 C 107.463 108.198, 105.553 111.735, 111.747 107.526 C 113.807 106.126, 115.617 105.351, 115.768 105.805 C 115.919 106.258, 113.499 110.425, 110.389 115.065 C 107.279 119.704, 103.214 126.832, 101.354 130.904 C 94.883 145.076, 87.829 170.867, 88.100 179.360 C 88.196 182.349, 88.245 182.308, 89.120 178.500 C 93.875 157.800, 106.691 132.789, 123.137 112.118 L 131.396 101.736 132.894 104.898 C 134.411 108.102, 137.714 109.707, 140.551 108.619 C 141.761 108.154, 142.056 106.653, 141.883 101.843 C 141.664 95.789, 141.740 95.594, 145.580 92.286 C 147.736 90.428, 152.723 87.110, 156.663 84.912 C 164.656 80.451, 166.495 78.732, 165.643 76.513 C 164.867 74.491, 159.811 74.673, 153.500 76.950 M 210.312 108.443 C 205.059 110.085, 198.145 114.319, 186 123.330 C 180.775 127.207, 173.125 132.543, 169 135.189 C 164.875 137.835, 162.324 140, 163.330 140 C 165.921 140, 185.358 129.895, 193.010 124.570 C 196.543 122.112, 199.650 120.317, 199.915 120.581 C 200.677 121.343, 183.122 138.663, 176.507 143.676 C 169.718 148.820, 162.054 152.867, 154 155.562 C 150.975 156.574, 149.234 157.559, 150.132 157.752 C 154.664 158.722, 174.452 149.659, 187.479 140.645 C 191.867 137.609, 195.634 135.301, 195.849 135.516 C 198.022 137.688, 188.002 149.959, 179.103 156.025 C 170.183 162.104, 172.986 162.058, 185.167 155.923 C 193.752 151.600, 199.589 147.596, 205.250 142.147 C 210.967 136.645, 211.770 138.567, 206.784 145.814 C 203.452 150.657, 190.275 164, 188.824 164 C 188.371 164, 188 164.450, 188 165 C 188 167.048, 193.004 165.882, 200.663 162.048 C 217.075 153.834, 230.021 136.638, 230.516 122.397 L 230.746 115.756 235.123 113.032 C 240.384 109.757, 243 107, 240.845 107 C 240.075 107, 238.557 107.590, 237.473 108.310 C 235.463 109.645, 219.336 116.303, 215.250 117.484 C 212.790 118.195, 209 117.337, 209 116.068 C 209 115.630, 211.020 114.500, 213.490 113.557 C 218.686 111.572, 219.644 110.481, 217.964 108.456 C 216.529 106.728, 215.802 106.727, 210.312 108.443 M 375.013 114.167 C 375.020 114.900, 375.920 118.353, 377.013 121.839 C 379.757 130.592, 379.616 140.635, 376.632 149.088 C 371.961 162.321, 358.248 179.626, 345.594 188.258 C 330.787 198.358, 306.576 206.947, 288.500 208.512 C 281.817 209.091, 279.553 208.871, 274.750 207.178 C 271.587 206.063, 269 205.547, 269 206.032 C 269 207.335, 281.609 214.398, 288.434 216.919 C 295.433 219.503, 305.113 220.581, 309.932 219.312 C 316.756 217.515, 314.395 216.273, 303.282 215.815 C 292.304 215.363, 285.794 213.693, 291.014 212.669 C 306.964 209.537, 311.460 208.399, 317.749 205.901 C 342.613 196.024, 361.747 181.640, 373.046 164.332 C 380.078 153.560, 381.511 148.643, 381.445 135.500 C 381.403 127.118, 380.917 123.208, 379.403 119.069 C 377.550 114.006, 374.984 111.139, 375.013 114.167 M 233.407 141.250 C 227.497 153.066, 213.121 169.406, 202.344 176.559 C 190.421 184.474, 175.257 189.966, 160.824 191.599 C 156.069 192.137, 152.984 193.256, 148.235 196.162 C 144.775 198.280, 136.445 202.757, 129.722 206.111 C 117.693 212.112, 107 219.135, 107 221.032 C 107 221.565, 108.289 222, 109.865 222 C 114.447 222, 118 225.453, 118 229.906 C 118 234.714, 117.385 235.250, 113.923 233.460 C 112.370 232.657, 109.666 232, 107.914 232 L 104.728 232 105.373 236.702 C 106.232 242.968, 109.695 250, 111.923 250 C 114.472 250, 115.069 248.997, 113.862 246.742 C 112.402 244.014, 114.281 240, 117.018 240 C 120.333 240, 126.429 243.585, 129.967 247.616 C 136.606 255.176, 142.266 270.436, 140.498 276.006 C 139.915 277.844, 139.294 278.109, 136.757 277.601 C 133.054 276.861, 131.738 275.188, 129.005 267.750 C 127.467 263.564, 126.386 262, 125.030 262 C 122.289 262, 122.129 263.723, 124.148 271.500 C 126.341 279.945, 126.476 289.399, 124.520 297.500 C 122.737 304.882, 122.596 313.971, 124.207 317.703 C 126.457 322.920, 130.916 328.748, 140.971 339.617 C 149.054 348.355, 151.912 352.303, 155.712 359.978 C 161.323 371.313, 165.046 375.666, 170.351 377.094 C 184.211 380.827, 221.417 365.738, 251.160 344.324 C 258.884 338.762, 271 327.084, 271 325.200 C 271 324.665, 268.863 323.927, 266.250 323.561 C 258.669 322.498, 252.298 320.081, 249.031 317.029 C 245.535 313.763, 244.879 311.329, 247.934 312.965 C 250.757 314.475, 260.863 314.230, 266.655 312.510 C 272.343 310.821, 280 305.695, 280 303.577 C 280 302.690, 278.112 301.761, 274.923 301.077 C 269.104 299.829, 266.431 298.598, 263.250 295.701 C 260.201 292.924, 260.422 291.366, 263.965 290.657 C 269.443 289.561, 275.333 277.651, 277.035 264.228 C 278.383 253.588, 277.224 249.925, 271.219 245.855 C 251.950 232.794, 240.457 214.675, 234.841 188.500 C 233.133 180.540, 233.384 153.782, 235.261 143.750 C 236.059 139.488, 236.559 136, 236.373 136 C 236.186 136, 234.852 138.363, 233.407 141.250 M 79.647 164.833 C 75.905 168.979, 72.774 179.905, 72.245 190.665 C 71.970 196.255, 72.048 202.443, 72.418 204.415 C 73.636 210.905, 75 208.192, 75.015 199.250 C 75.030 190.123, 76.656 181.426, 80.137 171.859 C 81.265 168.756, 82.034 165.444, 81.844 164.498 C 81.534 162.951, 81.314 162.985, 79.647 164.833 M 176.790 176.495 C 167.042 179.904, 156.284 181.383, 146.201 180.703 C 137.896 180.142, 137.633 180.186, 140.421 181.679 C 144.868 184.060, 158.176 184.518, 166.442 182.573 C 174.043 180.785, 185 176.233, 185 174.863 C 185 173.697, 184.519 173.793, 176.790 176.495 M 382.612 199.667 C 380.474 202.136, 375.974 206.435, 372.612 209.219 C 366.369 214.391, 365.013 216, 366.898 216 C 368.592 216, 387.344 197.521, 386.900 196.289 C 386.680 195.677, 384.750 197.197, 382.612 199.667 M 175.500 215.655 C 167.684 217.320, 156.119 222.596, 154.581 225.197 C 153.349 227.280, 154.786 231.845, 157.139 233.322 C 158.399 234.112, 159.935 233.608, 163.765 231.151 C 171.439 226.227, 184.329 221.888, 193.128 221.268 C 199.223 220.839, 202.204 221.171, 207.963 222.920 C 211.928 224.124, 215.695 224.929, 216.336 224.708 C 218.093 224.102, 203.802 217.184, 197.289 215.487 C 190.291 213.664, 184.636 213.708, 175.500 215.655 M 337.998 225.009 C 333.322 226.558, 325.977 228.314, 321.676 228.912 C 310.723 230.436, 290.698 230.251, 283.508 228.559 C 280.213 227.784, 277.350 227.317, 277.145 227.521 C 276.374 228.293, 283.716 232.106, 288.945 233.649 C 296.488 235.874, 315.599 235.010, 326 231.973 C 333.612 229.751, 348 223.598, 348 222.565 C 348 221.749, 347.398 221.897, 337.998 225.009 M 180.275 238.971 C 176.651 239.832, 171.544 242.878, 172.359 243.692 C 172.652 243.985, 175.021 243.499, 177.624 242.612 C 180.227 241.726, 185.314 240.963, 188.928 240.919 C 195.315 240.840, 195.416 240.799, 192.500 239.464 C 189.205 237.955, 185.227 237.795, 180.275 238.971 M 360.500 240.690 C 349.494 244.507, 339.496 246.154, 326.250 246.334 C 319.513 246.425, 314 246.789, 314 247.143 C 314 249.863, 334.766 250.837, 344.500 248.573 C 355.434 246.030, 369.521 240.058, 367.927 238.641 C 367.692 238.432, 364.350 239.354, 360.500 240.690 M 185 242.886 C 180.883 243.776, 176.633 245.966, 172.589 249.282 C 169.339 251.946, 169.761 254, 173.559 254 C 175.442 254, 176 254.528, 176 256.309 C 176 257.579, 176.608 259.450, 177.352 260.467 C 178.619 262.199, 178.750 262.132, 179.433 259.409 C 180.106 256.728, 180.265 256.642, 181.473 258.294 C 182.715 259.993, 182.979 259.954, 186.531 257.543 C 188.593 256.144, 190.666 255, 191.140 255 C 191.613 255, 192.020 257.813, 192.044 261.250 C 192.093 268.299, 194.651 276.807, 197.191 278.373 C 200.122 280.180, 202.691 276.745, 203.225 270.304 C 203.899 262.172, 208.188 259.963, 216.532 263.449 C 219.475 264.679, 220 265.387, 220 268.129 C 220 270.685, 219.031 272.262, 215.361 275.680 C 211.391 279.378, 211.038 280, 212.911 280 C 214.114 280, 216.539 279.233, 218.300 278.294 C 220.060 277.356, 223.714 276.344, 226.421 276.044 C 232.457 275.377, 233.160 273.924, 228.519 271.710 C 223.276 269.210, 224.073 267.874, 230.366 268.613 C 235.736 269.244, 243 267.724, 243 265.969 C 243 265.488, 240.863 264.149, 238.250 262.995 C 235.637 261.841, 230.350 258.730, 226.500 256.080 C 210.805 245.280, 195.880 240.535, 185 242.886 M 364.418 257.925 C 353.354 263.687, 345.605 265.515, 332.500 265.452 C 320.596 265.395, 312.809 263.536, 301.106 257.956 C 296.490 255.755, 292.535 254.132, 292.318 254.348 C 292.101 254.565, 294.079 256.125, 296.712 257.814 C 317.728 271.292, 341.578 272.443, 362.775 261 C 367.654 258.367, 375.541 252.817, 374 253.103 C 373.725 253.153, 369.413 255.324, 364.418 257.925 M 358.427 276.126 C 351.117 283.882, 333.385 294.409, 322.315 297.564 C 315.656 299.462, 312.454 301.632, 318 300.489 C 327.572 298.516, 339 293.266, 348.500 286.476 C 354.941 281.873, 362.694 274.361, 361.862 273.529 C 361.583 273.249, 360.037 274.418, 358.427 276.126 M 204 284.711 C 189.845 285.026, 185.790 285.622, 188.052 287.053 C 190.136 288.372, 210.560 288.212, 215.134 286.842 C 218.648 285.789, 220.729 283.701, 217.750 284.216 C 217.063 284.335, 210.875 284.558, 204 284.711 M 380.529 297.215 C 381.513 299.780, 387.766 302.004, 393.784 301.930 C 400.110 301.852, 405.975 300.213, 400.500 300.053 C 397.702 299.971, 387.388 297.919, 382.235 296.418 C 380.505 295.915, 380.102 296.103, 380.529 297.215 M 133.032 313.191 C 133.014 314.121, 133.480 315.179, 134.067 315.541 C 135.829 316.630, 136.076 315.482, 134.521 313.427 C 133.241 311.735, 133.060 311.706, 133.032 313.191 M 147.250 335.007 C 144.498 336.143, 144.444 337.024, 146.936 340.191 C 148 341.544, 149.984 345.167, 151.343 348.241 C 154.192 354.683, 156.083 356, 162.487 356 C 167.859 356, 170.494 354.427, 180.457 345.276 C 185.279 340.847, 187.052 338.578, 186.605 337.412 C 186.164 336.264, 185.305 335.965, 183.738 336.414 C 176.332 338.533, 163.239 337.805, 151.500 334.621 C 150.400 334.323, 148.488 334.496, 147.250 335.007 M 166.729 345.730 C 164.655 345.946, 163.219 346.546, 163.538 347.062 C 164.401 348.458, 167.357 348.198, 169.559 346.532 C 170.626 345.724, 171.275 345.125, 171 345.200 C 170.725 345.275, 168.803 345.513, 166.729 345.730" stroke="none" fill="black" fill-rule="evenodd"/>
</svg>