<svg xmlns="http://www.w3.org/2000/svg" width="512" height="512" viewBox="0 0 512 512" version="1.1">
	<path d="M 183 13.050 C 183 27.349, 182.435 29.371, 177 34.500 C 170.228 40.892, 169.175 47.877, 173.725 56.236 L 176.450 61.242 173.094 70.871 C 166.006 91.212, 157.671 103.679, 135.788 126.671 C 131.510 131.166, 127.549 136.056, 126.985 137.540 C 126.421 139.023, 125.535 145.246, 125.016 151.368 C 123.543 168.732, 120.939 178.054, 106.657 217.078 C 100.956 232.657, 99.924 239.679, 98.955 269.500 C 98.243 291.407, 97.689 298.009, 96.023 304.500 C 91.450 322.304, 83.213 334.092, 69.576 342.343 C 65.684 344.698, 51.371 352.447, 37.768 359.562 L 13.036 372.500 13.018 390.335 L 13 408.171 17.250 405.749 C 19.587 404.417, 34.786 394.591, 51.024 383.913 C 67.263 373.236, 85.038 361.608, 90.524 358.074 C 103.532 349.695, 111.489 341.604, 116.185 331.978 C 121.190 321.719, 122.460 314.896, 120.868 306.819 C 119.301 298.868, 119.346 272.977, 120.952 258.500 C 122.820 241.657, 125.314 231.644, 131.818 214.869 C 139.110 196.064, 140.124 191.960, 143.971 165.682 C 145.647 154.232, 147.705 143.538, 148.543 141.917 C 149.381 140.297, 153.796 135.811, 158.355 131.950 C 162.914 128.088, 168.376 122.657, 170.493 119.881 C 172.610 117.105, 177.701 111.833, 181.807 108.167 C 189.104 101.650, 194.997 92.530, 194.999 87.750 C 195.001 84.444, 196.814 86.005, 198.484 90.750 C 201.101 98.185, 201.585 110.467, 199.540 117.552 C 195.457 131.694, 184.486 145.017, 174.076 148.475 C 171.284 149.402, 169 150.301, 169 150.471 C 169 150.642, 170.737 152.885, 172.861 155.454 L 176.721 160.126 177.484 173.813 C 178.848 198.279, 179.276 195.641, 172.322 205.693 C 165.929 214.934, 162 224.364, 162 230.468 C 162 234.877, 163.164 234.977, 165.184 230.741 C 166.038 228.948, 171.345 222.437, 176.976 216.270 C 185.334 207.117, 188.585 204.319, 194.681 201.031 C 207.129 194.316, 217.581 185.306, 233.661 167.425 C 240.224 160.127, 243.019 155.943, 247.933 146.052 C 254.140 133.562, 261.504 122, 263.252 122 C 263.781 122, 263.964 122.652, 263.658 123.449 C 263.352 124.246, 262.388 128.353, 261.516 132.577 C 259.637 141.674, 260.383 145.078, 265.269 149.702 C 269.762 153.955, 272.163 155, 277.434 155 C 281.823 155, 282 155.114, 282 157.948 C 282 163.008, 277.196 176.390, 273.157 182.578 C 271.032 185.835, 265.739 191.594, 261.396 195.377 C 252.949 202.733, 246.781 209.590, 244.307 214.374 C 240.884 220.992, 245.113 231.097, 253.071 235.319 C 256.141 236.948, 258.169 237.070, 272.464 236.482 C 294.770 235.565, 298.309 234.856, 305.500 229.864 C 308.800 227.574, 317.048 221.858, 323.830 217.163 C 330.611 212.468, 339.232 205.782, 342.988 202.305 L 349.815 195.984 356.341 204.176 C 361.834 211.073, 363.103 213.417, 364.363 218.995 C 365.186 222.639, 368.418 231.404, 371.546 238.473 C 374.675 245.541, 377.430 252.939, 377.669 254.912 C 378.236 259.578, 375.319 264.291, 370.289 266.838 C 368.205 267.894, 354.477 272.173, 339.782 276.348 C 325.087 280.523, 310.293 285.338, 306.907 287.047 C 299.754 290.658, 291.557 298.423, 289.368 303.662 C 287.951 307.053, 287.978 307.497, 289.753 309.906 C 290.841 311.384, 293.995 313.333, 297.082 314.437 C 304.449 317.071, 329.139 317.106, 347.305 314.509 L 360.110 312.678 366.098 303.936 C 373.859 292.605, 381.249 285.527, 383.860 286.925 C 388.789 289.563, 389.803 300.913, 386.167 312.756 C 383.998 319.818, 383.509 320.466, 367.946 336.903 C 359.151 346.193, 350.397 354.533, 348.494 355.436 C 346.590 356.339, 334.121 358.650, 320.784 360.572 C 293.526 364.499, 287.944 365.750, 276.422 370.510 C 271.979 372.346, 264.910 374.557, 260.714 375.424 C 246.764 378.306, 219.488 377.070, 205.649 372.931 C 199.265 371.021, 198.030 370.138, 187.483 359.941 C 180.522 353.211, 174.499 348.285, 171.830 347.142 C 166.581 344.892, 143 339.363, 143 340.382 C 143 340.565, 146.332 343.449, 150.405 346.792 C 162.089 356.382, 177.287 380.156, 183.372 398.364 C 185.976 406.156, 186.527 409, 185.433 409 C 185.122 409, 183.423 407.899, 181.658 406.552 C 175.852 402.124, 164.835 397.540, 160.500 397.748 C 158.300 397.854, 151.462 398.218, 145.305 398.557 C 136.468 399.044, 132.918 398.827, 128.448 397.528 C 125.333 396.622, 122.596 396.071, 122.365 396.302 C 122.134 396.533, 125.544 401.314, 129.942 406.926 C 149.601 432.011, 159.266 453.783, 154.680 462.652 C 152.505 466.857, 141.041 477.978, 123.062 493.324 C 114.571 500.571, 106.246 507.724, 104.562 509.221 L 101.500 511.941 151.514 511.971 L 201.527 512 203.347 498.750 C 206.084 478.830, 209.679 461.294, 212.016 456.468 C 216.441 447.325, 228.606 441.498, 240.043 443.042 C 247.781 444.087, 254.762 442.578, 258.990 438.947 C 263.194 435.337, 271.071 430, 272.196 430 C 272.638 430, 273.900 430.900, 275 432 C 276.926 433.926, 277 435.333, 277 469.875 C 277 489.606, 277.281 507.156, 277.625 508.875 L 278.250 512 302.590 512 L 326.929 512 327.215 461.913 L 327.500 411.825 330.184 409.518 C 331.877 408.062, 336.215 406.439, 341.932 405.123 C 362.089 400.482, 372.400 391.128, 376.492 373.769 C 377.305 370.321, 377.988 365.025, 378.009 362 C 378.083 351.534, 379.120 349.369, 388.272 340.575 C 395.515 333.614, 397.104 331.457, 399.788 324.938 C 406.363 308.968, 406.207 291.762, 399.347 276.251 C 398.056 273.331, 397 269.979, 397 268.802 C 397 267.452, 399.864 263.849, 404.750 259.054 C 410.159 253.746, 413.557 249.357, 416 244.523 C 419.313 237.968, 419.499 237.060, 419.487 227.549 C 419.471 215.844, 417.804 211.293, 408.729 198.195 C 405.797 193.963, 401.726 187.046, 399.681 182.823 C 397.636 178.601, 394.622 174.018, 392.982 172.638 C 391.342 171.258, 389.993 169.313, 389.984 168.315 C 389.976 167.317, 389.076 162.269, 387.984 157.098 C 386.893 151.927, 386 147.160, 386 146.504 C 386 145.848, 388.243 142.748, 390.984 139.616 C 401.280 127.850, 401.310 118.157, 391.114 97.628 C 385.865 87.058, 378.657 70.039, 376.578 63.304 C 376.104 61.770, 376.726 59.861, 378.642 56.965 C 382.386 51.308, 382.425 44.693, 378.746 39.340 C 377.295 37.228, 374.733 33.520, 373.054 31.100 C 370.099 26.842, 370 26.338, 369.986 15.600 C 369.979 9.495, 369.701 3.487, 369.370 2.250 L 368.767 -0 275.883 -0 L 183 0 183 13.050 M 271.397 41.750 C 225.240 41.997, 221.172 42.155, 219.746 43.759 C 218.895 44.717, 216.062 50.675, 213.451 57 C 210.840 63.325, 208.320 68.927, 207.851 69.450 C 206.487 70.973, 206.865 73.643, 208.656 75.128 C 209.567 75.882, 212.042 80.076, 214.156 84.447 C 219.697 95.903, 219.397 101.224, 211.530 131 C 206.006 151.907, 202 170.575, 202 175.412 C 202 179.111, 202.339 180.002, 203.750 180.010 C 204.713 180.016, 211.125 174.256, 218 167.210 C 229.063 155.872, 231.476 152.739, 238.997 139.950 C 249.577 121.957, 259.171 111.542, 268.288 108.152 C 271.471 106.968, 275.228 106, 276.636 106 C 283.993 106, 290.740 113.072, 294.185 124.395 C 295.935 130.147, 296.182 132.817, 295.677 140.516 C 294.682 155.661, 292.489 164.472, 286.971 175.500 L 281.968 185.500 281.984 199.316 C 281.993 207.267, 282.459 213.988, 283.080 215.150 C 284.675 218.129, 290.395 220.201, 294.803 219.395 C 299.439 218.548, 323.992 206.350, 334.088 199.879 C 347.046 191.573, 347.055 193.694, 333.976 174.286 C 319.557 152.893, 315.813 145.038, 311.392 126.913 C 308.264 114.090, 307.331 111.689, 302.931 105.146 C 297.031 96.373, 296.672 95.157, 297.156 85.585 C 297.433 80.101, 298.021 77.634, 299.420 76.088 C 302.409 72.786, 303.461 73.573, 304.688 80.030 C 305.603 84.841, 306.942 87.521, 311.308 93.280 C 318.574 102.865, 319.584 105.077, 321.492 115.574 C 323.630 127.342, 325.390 132.674, 330.724 143.542 C 336.786 155.896, 358.060 185, 361.027 185 C 362.724 185, 365.895 178.825, 367.046 173.280 C 367.907 169.130, 367.806 165.911, 366.570 158.136 C 365.706 152.705, 365 146.636, 365 144.650 C 365 141.591, 363.968 139.905, 358.250 133.623 C 349.500 124.010, 342.492 112.307, 340.510 104 C 337.321 90.635, 337.061 90.116, 329.344 81.722 C 319.988 71.544, 318.051 67.625, 318.022 58.815 C 317.992 49.749, 319.060 47.431, 324.476 44.800 C 329.982 42.124, 330.244 40.920, 325.250 41.241 C 323.188 41.373, 298.954 41.602, 271.397 41.750 M 337 42.706 C 332.696 44.280, 331 47.257, 331 53.240 C 331 56.480, 331.508 60.114, 332.128 61.316 C 332.749 62.517, 336.735 67.100, 340.985 71.500 C 350.070 80.903, 351.204 82.895, 353.512 93.500 C 354.469 97.900, 356.385 103.845, 357.770 106.711 C 360.926 113.247, 368.500 121.812, 373.691 124.716 C 377.390 126.786, 377.803 126.826, 379.948 125.324 C 383.540 122.808, 382.220 115.874, 375.602 102.500 C 372.608 96.450, 368.047 86.325, 365.468 80 C 357.564 60.623, 352.768 49.612, 351.143 47.114 C 348.618 43.232, 341.571 41.035, 337 42.706 M 185.193 81.582 C 182.372 85.004, 176.053 97, 174.568 101.750 C 173.971 103.662, 174.233 104, 176.315 104 C 182.969 104, 194.030 85.661, 190.901 79.815 C 189.515 77.226, 188.533 77.530, 185.193 81.582 M 378.561 186.267 C 376.209 189.856, 374.886 202.601, 376.089 210.075 C 376.670 213.677, 379.184 220.882, 381.973 226.933 C 384.651 232.745, 387.401 239.418, 388.083 241.762 C 389.925 248.090, 391.187 248.653, 395.342 245.004 C 400.427 240.540, 403 234.599, 403 227.325 C 403 220.821, 402.841 220.442, 391.749 200.500 C 381.943 182.871, 381.265 182.140, 378.561 186.267 M 355.500 367.001 C 350.489 370.322, 344.153 371.908, 329.500 373.511 C 305.985 376.083, 300.119 378.196, 278.453 391.896 C 271.329 396.401, 258.649 403.544, 250.276 407.769 C 241.903 411.995, 235.378 415.737, 235.776 416.085 C 237.202 417.332, 248.463 419, 255.417 418.994 C 266.929 418.985, 268.807 418.070, 278.025 407.972 C 285.344 399.956, 286.826 398.816, 291.817 397.365 C 296.612 395.971, 298.558 395.908, 305.455 396.925 C 314.304 398.230, 315.237 398.036, 328 392.229 C 331.575 390.602, 338.189 388.056, 342.697 386.571 C 347.206 385.086, 352.056 382.957, 353.475 381.841 C 357.624 378.577, 360.586 371.618, 360.111 366.250 C 359.958 364.529, 358.994 364.686, 355.500 367.001" stroke="none" fill="black" fill-rule="evenodd"/>
</svg>