<svg xmlns="http://www.w3.org/2000/svg" width="512" height="512" viewBox="0 0 512 512" version="1.1">
	<path d="M 241.917 9.050 C 227.012 10.124, 217.578 11.674, 201.643 15.668 C 164.539 24.969, 131.688 41.005, 101.302 64.648 C 52.781 102.404, 19.619 162.712, 10.929 229 C 9.220 242.038, 9.453 271.871, 11.378 286.269 C 22.404 368.784, 72.267 439.378, 144.953 475.379 C 168.908 487.244, 194.918 495.335, 223 499.656 C 239.430 502.184, 275.341 502.187, 290.500 499.661 C 342.076 491.066, 386.555 469.771, 423.500 435.985 C 465.010 398.024, 488.372 354.632, 499.133 295.500 C 502.083 279.288, 502.367 242.606, 499.680 224.669 C 496.080 200.634, 486.688 169.097, 476.908 148.206 C 442.294 74.265, 367.131 20.792, 283.500 10.609 C 267.145 8.618, 254.498 8.144, 241.917 9.050 M 233 37.020 C 193.575 42.515, 149.970 61.193, 117.500 86.493 C 100.100 100.051, 79.853 123.310, 66.780 144.757 C 47.050 177.125, 34.559 226.183, 36.371 264.193 C 40.136 343.199, 85.161 413.863, 154.146 449.034 C 198.524 471.659, 249.951 479.192, 296.500 469.885 C 366.137 455.963, 425.775 410.958, 453.574 351.351 C 463.020 331.096, 471.325 303.441, 474.100 283 C 477.059 261.208, 475.306 233.900, 469.318 208.500 C 463.298 182.963, 450.292 152.205, 437.183 132.500 C 404.681 83.645, 349.348 49.009, 286.986 38.484 C 275.840 36.603, 242.483 35.698, 233 37.020 M 248 41.638 C 229.548 42.988, 217.633 44.332, 212.500 45.640 C 192.481 50.745, 176.845 66.271, 157.755 100 C 148.059 117.130, 141.461 130.584, 138.370 139.522 C 135.914 146.625, 135.610 148.926, 135.597 160.500 C 135.582 173.389, 135.619 173.598, 139.888 185 C 150.739 213.979, 150.367 212.587, 150.436 224.500 C 150.498 235.109, 150.380 235.730, 147.121 241.977 C 144.725 246.570, 140.180 252.099, 131.502 260.977 C 117.610 275.190, 114.607 279.468, 112.356 288.256 C 109.024 301.264, 113.265 314.121, 125.424 327.873 C 132.658 336.054, 133.796 338.333, 131.833 340.710 C 131.100 341.597, 125.283 346.502, 118.907 351.610 C 106.998 361.150, 101.306 367.922, 99.003 375.291 C 98.351 377.376, 98.057 379.706, 98.349 380.467 C 99.099 382.422, 114.464 391.316, 126.221 396.599 C 143.969 404.576, 164.596 411.034, 218.500 425.493 C 242.093 431.821, 268.061 439.446, 281.438 443.975 C 286.353 445.639, 291.532 447, 292.946 447 C 294.404 447, 299.114 444.592, 303.820 441.442 C 315.271 433.775, 327.152 426.658, 342.694 418.154 C 353.310 412.346, 357.683 410.544, 365.070 408.932 C 379.645 405.751, 389.130 401.648, 395.618 395.718 C 405.290 386.879, 409.116 378.378, 409.166 365.619 C 409.202 356.558, 408.470 352.922, 405.379 346.787 C 400.475 337.056, 393.784 331.751, 371 319.529 C 356.765 311.893, 352 308.581, 352 306.321 C 352 305.454, 354.195 301.765, 356.878 298.122 C 366.374 285.230, 369.449 276.206, 368.813 263.098 C 368.416 254.903, 368.074 253.826, 361.519 240.098 C 355.396 227.275, 354.637 225.028, 354.596 219.598 C 354.540 212.271, 357.204 205.926, 364.810 195.266 C 374.935 181.077, 379.549 170.529, 382.007 155.957 C 385.009 138.160, 379.054 115.978, 366.624 98.656 C 351.702 77.862, 320.481 55.195, 296.374 47.653 C 281.973 43.148, 261.742 40.632, 248 41.638 M 219.500 53.680 C 206.616 56.563, 194.770 62.400, 188.758 68.827 C 183.272 74.693, 175.846 85.861, 172.968 92.576 C 170.964 97.251, 170.947 97.262, 168.845 95.385 C 166.750 93.514, 166.740 93.519, 167.494 96 C 169.878 103.847, 172.010 105.712, 183.074 109.627 C 189.522 111.908, 192.542 112.316, 206 112.717 C 217.764 113.068, 223.308 112.798, 229 111.597 C 238.849 109.519, 248.602 104.703, 251.024 100.721 C 253.642 96.416, 252.538 95.560, 248.193 98.528 C 234.029 108.204, 200.445 109.842, 180.463 101.831 C 177.265 100.549, 174.483 98.992, 174.281 98.370 C 173.527 96.052, 197.832 68, 200.594 68 C 202.409 68, 202.482 67.661, 199.020 75.296 C 195.761 82.482, 193.730 90, 195.046 90 C 195.505 90, 199.080 85.761, 202.991 80.580 C 213.810 66.249, 216.090 65.208, 211.208 76.828 C 209.528 80.826, 208.790 83.634, 209.490 83.365 C 210.165 83.106, 213.049 79.768, 215.900 75.947 C 218.750 72.126, 221.345 69, 221.666 69 C 223.035 69, 220.696 75.902, 217.521 81.232 C 215.632 84.404, 214.480 87, 214.963 87 C 215.445 87, 218.349 84.188, 221.416 80.750 C 227.092 74.387, 228.142 74.331, 225.551 80.532 C 224.754 82.439, 224.459 84, 224.896 84 C 226.270 84, 228.694 80.666, 230.713 76 L 232.660 71.500 234.306 74.500 C 239.574 84.096, 255.407 94.812, 269.688 98.447 C 285.349 102.434, 315.743 102.967, 327.292 99.458 C 334.273 97.336, 341.714 91.304, 340.679 88.605 C 340.052 86.971, 339.825 86.993, 337.368 88.925 C 335.917 90.066, 334.107 91, 333.345 91 C 332.583 91, 328.256 89.249, 323.730 87.109 C 312.068 81.595, 289.747 72.578, 281.538 70.065 C 277.381 68.793, 269.321 67.537, 261.538 66.949 C 244.711 65.677, 244.575 65.639, 242.136 61.507 C 239.512 57.059, 234.971 56.589, 232.408 60.500 C 230.241 63.808, 229.381 63.653, 228.613 59.816 C 227.482 54.158, 224.957 52.458, 219.500 53.680 M 239 69.850 C 239 71.552, 244.795 78.624, 250.330 83.677 C 259.163 91.740, 268.507 95.535, 285.500 97.961 C 299.020 99.891, 324 98.617, 324 95.998 C 324 95.599, 322.002 94.998, 319.560 94.663 C 310.457 93.416, 281.420 82.577, 276.500 78.590 C 274.571 77.027, 274.607 76.993, 277.500 77.629 C 279.150 77.993, 287.475 80.851, 296 83.981 C 313.978 90.583, 323.607 93.332, 327.054 92.845 C 329.956 92.436, 281.550 72.472, 274.177 71.038 C 271.605 70.537, 264.550 69.862, 258.500 69.536 L 247.500 68.945 254.500 73.596 C 262.821 79.124, 276.192 85.663, 290.273 91.091 C 296.954 93.667, 299.113 94.816, 296.500 94.406 C 285.153 92.627, 264.090 83.762, 250.909 75.217 C 241.680 69.235, 239 68.027, 239 69.850 M 345.938 96.087 C 342.984 100.236, 335.442 103.545, 325.500 105.054 C 321.100 105.722, 317.097 106.633, 316.605 107.079 C 315.028 108.508, 320.967 109.284, 329.436 108.756 C 338.059 108.218, 345.163 105.806, 348.172 102.395 C 350.681 99.551, 351.398 95.576, 349.662 94.134 C 348.457 93.134, 347.793 93.482, 345.938 96.087 M 255.500 100.250 C 255.259 100.938, 254.142 106.105, 253.016 111.734 C 250.839 122.618, 247.295 133.437, 243.328 141.311 L 240.905 146.121 243.202 144.878 C 244.486 144.184, 249.032 143.633, 253.500 143.630 C 260.195 143.625, 262.855 144.160, 269.802 146.905 C 279.466 150.724, 283.660 153.838, 282.657 156.451 C 281.703 158.937, 277.425 158.111, 267 153.427 C 259.819 150.201, 257.414 149.603, 251.500 149.571 C 241.729 149.520, 238.664 151.303, 232.500 160.623 C 225.380 171.388, 214.009 181.797, 203.522 187.148 C 197.178 190.385, 195.154 191.884, 195.625 193 C 198.890 200.745, 194.513 204.637, 187.863 199.902 C 184.603 197.581, 181.656 197.838, 178.052 200.757 L 175.850 202.540 177.944 205.201 C 180.661 208.656, 191.392 214, 195.613 214 C 198.252 214, 199.544 213.206, 202.120 210 C 203.888 207.800, 205.641 206, 206.015 206 C 206.982 206, 209.300 211.594, 214.407 226.250 C 216.851 233.262, 218.474 239, 218.014 239 C 217.554 239, 216.042 237.650, 214.653 236 C 213.265 234.350, 211.875 233, 211.565 233 C 211.254 233, 210.984 237.838, 210.965 243.750 C 210.909 260.939, 207.715 274.727, 200.410 289.304 C 190.204 309.672, 183.105 316.412, 137.005 349.500 C 120.309 361.483, 111 369.628, 111 372.252 C 111 373.175, 111.879 374.400, 112.953 374.975 C 117.816 377.578, 206.778 408.426, 226.500 414.349 C 251.572 421.878, 270.774 428.247, 282.753 433.006 L 291.005 436.285 295.445 433.392 C 297.886 431.802, 303.398 427.964, 307.692 424.865 C 321.500 414.898, 347.666 401.666, 357.818 399.514 C 361.557 398.722, 362.828 396.702, 360.984 394.481 C 360.303 393.660, 356.315 390.573, 352.122 387.621 C 341.452 380.109, 332.357 371.480, 323.488 360.453 L 315.885 351 304.877 351 C 292.914 351, 291.350 351.470, 285.868 356.706 L 282.236 360.175 280.618 357.865 C 277.431 353.315, 279.286 347.448, 284.811 344.605 C 286.290 343.843, 290.856 342.702, 294.958 342.069 C 299.060 341.436, 302.562 340.771, 302.740 340.593 C 303.753 339.580, 295.976 337.938, 285.500 336.952 C 278.900 336.331, 272.962 335.378, 272.305 334.834 C 271.647 334.291, 270.431 331.743, 269.602 329.173 C 266.457 319.422, 265.570 311.403, 265.712 294 C 265.877 273.797, 266.186 274.579, 256.414 270.426 C 252.886 268.927, 250 267.403, 250 267.041 C 250 266.679, 250.605 265.555, 251.345 264.543 C 252.640 262.771, 253.068 262.805, 263.095 265.463 C 271.131 267.593, 276.574 268.331, 287 268.701 C 308.365 269.459, 310.329 268.185, 315.149 250.453 C 316.760 244.527, 320.801 232.700, 324.129 224.171 C 330.886 206.853, 331.574 202.910, 330.524 187.515 L 329.793 176.791 326.897 177.371 C 323.767 177.997, 322.977 176.440, 325.250 174.129 C 326.253 173.109, 326.045 172.486, 324.201 170.979 C 321.787 169.006, 319 169.298, 319 171.524 C 319 172.244, 319.563 173.065, 320.250 173.349 C 321.883 174.022, 316.541 179.002, 314.194 178.994 C 310.121 178.981, 305 176.854, 305 175.176 C 305 170.488, 313.036 165.055, 320 165.033 C 327.156 165.011, 330.874 166.118, 331.208 168.372 C 331.511 170.414, 331.595 170.395, 333.288 167.886 C 335.306 164.895, 337.523 153.805, 336.589 151.372 C 335.496 148.523, 328.004 150.218, 318.905 155.373 C 314.413 157.918, 310.347 160, 309.869 160 C 307.783 160, 309.154 155.026, 311.750 153.179 C 316.827 149.566, 326.526 145.099, 330.769 144.421 C 335.472 143.669, 335.393 144.213, 332.395 133.285 C 330.793 127.446, 332.103 128.133, 314.759 124.046 C 302.983 121.271, 293.593 117.436, 274.066 107.425 C 265.028 102.791, 257.251 99, 256.785 99 C 256.319 99, 255.740 99.563, 255.500 100.250 M 183.857 112.215 C 181.635 113.978, 178.556 119, 179.698 119 C 181.187 119, 186.256 113.269, 185.849 112.046 C 185.588 111.263, 184.995 111.313, 183.857 112.215 M 152 121.822 C 152 122.274, 152.714 124.739, 153.587 127.301 C 156.582 136.092, 170.242 145.778, 186.500 150.640 C 201.822 155.222, 225.812 150.322, 231.645 141.419 C 234.069 137.719, 232.849 136.744, 228.997 139.303 C 219.884 145.356, 215.441 146.493, 201 146.469 C 185.110 146.443, 178.878 144.723, 167.661 137.272 C 161.279 133.032, 154.081 125.103, 154.025 122.250 C 153.998 120.893, 152 120.471, 152 121.822 M 362.985 162.250 C 362.977 165.137, 362.292 170.378, 361.463 173.895 C 359.706 181.347, 360.257 182.981, 362.645 177.404 C 364.673 172.667, 365.809 157, 364.125 157 C 363.436 157, 362.994 159.035, 362.985 162.250 M 259.500 165.624 C 253.582 167.069, 244 172.329, 244 174.133 C 244 174.610, 244.873 175, 245.941 175 C 247.009 175, 248.165 175.458, 248.510 176.017 C 248.924 176.686, 247.146 176.836, 243.319 176.457 L 237.500 175.880 242.257 178.302 C 246.141 180.280, 248.403 180.704, 254.595 180.612 C 261.366 180.512, 262.390 180.238, 264.162 178.049 L 266.146 175.598 263.959 174.789 C 262.155 174.122, 261.988 173.719, 263.008 172.490 C 264.739 170.404, 265.252 170.546, 270.522 174.568 C 273.093 176.531, 275.431 177.902, 275.718 177.615 C 276.764 176.570, 274.891 171.910, 272.229 168.931 C 269.471 165.845, 264.201 164.475, 259.500 165.624 M 289.750 212.299 C 288.238 212.897, 287 214.022, 287 214.800 C 287 215.788, 287.527 215.970, 288.750 215.405 C 289.712 214.960, 292.487 214.575, 294.916 214.548 C 299.684 214.496, 301.520 212.640, 297.791 211.641 C 294.797 210.839, 293.092 210.979, 289.750 212.299 M 164 221.352 C 164 222.869, 165.575 227.079, 167.500 230.706 C 170.356 236.087, 171 238.384, 171 243.183 C 171 246.418, 170.352 250.615, 169.560 252.511 C 167.481 257.487, 160.019 265.061, 148.230 274.162 C 137.105 282.750, 132.623 287.982, 130.887 294.404 C 128.709 302.464, 133.224 313.193, 139.971 315.988 C 143.908 317.619, 144.927 316.633, 142.288 313.746 C 137.061 308.030, 135.435 298.680, 138.424 291.528 C 140.370 286.871, 146.945 279.940, 156.500 272.474 C 173.342 259.315, 178.803 251.067, 177.706 240.445 C 177.041 233.995, 173.929 228.209, 168.082 222.547 L 164 218.594 164 221.352 M 195.243 220.157 C 194.348 221.052, 194.004 226.178, 194.015 238.450 C 194.030 256.044, 194.614 259.161, 198.313 261.402 C 199.784 262.293, 200.490 262.056, 202.063 260.139 C 203.802 258.020, 203.994 256.180, 203.944 242.139 C 203.879 224.294, 202.879 219.661, 198.993 219.207 C 197.614 219.046, 195.927 219.473, 195.243 220.157 M 302.900 228.996 C 302.020 229.511, 293.583 230.060, 284.151 230.216 C 273.297 230.396, 267.119 230.867, 267.322 231.500 C 267.712 232.719, 279.634 240.209, 286.500 243.548 C 296.843 248.579, 305.737 246.135, 310.894 236.844 C 313.440 232.258, 313.451 232.155, 311.585 230.094 C 309.603 227.904, 305.628 227.402, 302.900 228.996 M 292.115 237.092 C 293.412 237.914, 301.822 238.430, 300.917 237.633 C 300.688 237.431, 298.302 237.030, 295.615 236.741 C 292.629 236.419, 291.268 236.556, 292.115 237.092 M 358 277.103 C 355.525 279.249, 345.090 285.306, 334.810 290.564 C 314.104 301.156, 308.963 305.284, 309.044 311.253 L 309.088 314.500 311.022 310.840 C 313.554 306.047, 316.714 303.664, 327 298.787 C 331.675 296.571, 339.240 292.986, 343.812 290.820 C 352.679 286.620, 359.184 281.479, 361.638 276.732 C 362.468 275.127, 363.002 273.677, 362.824 273.508 C 362.646 273.340, 360.475 274.958, 358 277.103 M 386 340.380 C 386 340.617, 387.644 342.766, 389.653 345.155 C 395.435 352.031, 398.002 358.651, 398.695 368.469 C 399.316 377.268, 400.605 379.070, 402.246 373.435 C 404.451 365.865, 400.743 352.467, 394.699 346.165 C 391.822 343.165, 386 339.293, 386 340.380 M 208.436 347.085 C 194.111 348.365, 165.256 352.759, 156.565 354.983 C 149.465 356.799, 143.240 359.574, 144.172 360.506 C 144.363 360.696, 157.250 359.554, 172.811 357.967 C 221.828 352.969, 246.187 352.994, 256.102 358.052 C 261.326 360.717, 262.288 360.279, 260.281 356.149 C 258.146 351.756, 252.743 348.279, 246.090 347.017 C 239.974 345.857, 221.808 345.890, 208.436 347.085" stroke="none" fill="black" fill-rule="evenodd"/>
</svg>