<svg xmlns="http://www.w3.org/2000/svg" width="512" height="512" viewBox="0 0 512 512" version="1.1">
	<path d="M 244.994 23.876 C 233.111 27.765, 224.321 36.740, 221.930 47.424 C 220.329 54.578, 222.466 61.784, 228.489 69.540 C 230.970 72.735, 233 75.964, 233 76.715 C 233 79.272, 229.179 85.491, 225.335 89.190 C 220.791 93.563, 218.051 94.710, 207.829 96.520 C 203.610 97.268, 198.371 98.791, 196.186 99.905 C 191.657 102.216, 185.600 108.840, 184.111 113.111 C 183.179 115.784, 183.287 116, 185.554 116 C 186.901 116, 191.940 117.379, 196.752 119.065 C 212.217 124.483, 217.076 125, 252.516 125 C 288.861 125, 296.124 124.305, 310.765 119.423 C 316.411 117.540, 322.641 116, 324.610 116 L 328.190 116 325.460 111.250 C 319.806 101.414, 314.377 98.023, 300.106 95.412 C 288.574 93.302, 283.253 90.114, 279.061 82.805 C 275.346 76.326, 275.307 75.304, 278.609 70.944 C 288.975 57.258, 288.285 42.909, 276.751 32.321 C 269.577 25.735, 264.758 23.702, 255.500 23.355 C 251.100 23.191, 246.372 23.425, 244.994 23.876 M 238.467 84.105 C 237.542 87.020, 239.563 88.817, 245.812 90.634 C 255.801 93.538, 268.284 90.701, 269.661 85.214 C 270.549 81.678, 269.438 81.453, 263.900 84.047 C 257.595 87, 250.385 87.043, 243.799 84.166 C 239.118 82.122, 239.096 82.122, 238.467 84.105 M 159.500 134.452 C 156.928 137.596, 155.144 138.515, 147 140.893 C 135.889 144.137, 131.052 146.486, 125.338 151.415 C 120.810 155.321, 115.987 163.879, 116.022 167.946 C 116.060 172.420, 119.589 178.510, 124.494 182.566 C 127.110 184.730, 130.544 187.703, 132.125 189.173 L 135 191.846 135.103 240.673 C 135.160 267.528, 135.500 317.625, 135.859 352 C 136.218 386.375, 136.349 415.712, 136.151 417.194 C 135.920 418.911, 133.139 422.573, 128.485 427.288 C 120.684 435.191, 118.997 438.706, 119.028 447 C 119.073 459.372, 130.399 469.324, 153.500 477.289 C 191.101 490.253, 247.568 494.719, 295.500 488.518 C 345.111 482.101, 373.327 471.025, 381.416 454.793 C 386.501 444.589, 384.538 436.324, 374.803 426.946 L 368 420.393 368 310.836 C 368 250.580, 368.289 199.169, 368.643 196.589 C 369.215 192.413, 369.790 191.561, 373.893 188.807 C 388.486 179.010, 392.925 169.673, 387.912 159.318 C 383.924 151.079, 373.588 144.349, 359.328 140.703 C 351.200 138.625, 350.375 138.182, 348.925 135.118 L 347.350 131.789 346.393 135.126 C 344.254 142.585, 335.480 144.720, 320.500 141.426 C 281.607 132.875, 268.289 131.672, 224.633 132.769 L 192.767 133.570 190.863 136.035 C 186.410 141.801, 185.091 142.892, 181.152 144.073 C 173.268 146.435, 163.535 141.011, 162.810 133.851 L 162.500 130.784 159.500 134.452 M 343.189 157.916 C 333.377 163.077, 317.112 165.605, 284 167.117 C 235.941 169.311, 204.923 167.195, 180.002 160.022 C 167.763 156.499, 162.733 156.256, 158.277 158.973 C 152.154 162.706, 153.143 168.441, 160.774 173.449 C 172.759 181.315, 222.387 188.153, 255.500 186.500 C 281.117 185.221, 324.801 180.304, 337 177.327 C 353.276 173.355, 360.912 165.031, 355.443 157.223 C 353.361 154.250, 349.771 154.453, 343.189 157.916 M 153.557 210.223 C 151.509 213.146, 151.502 237.185, 153.535 287 C 154.355 307.075, 155.301 345.100, 155.638 371.500 C 156.231 418.043, 156.312 419.568, 158.299 421.750 C 160.289 423.935, 162.938 424.769, 163.061 423.250 C 163.094 422.837, 163.258 376.150, 163.424 319.500 C 163.678 232.940, 163.503 215.947, 162.325 213.035 C 160.088 207.509, 156.307 206.296, 153.557 210.223 M 182.246 321.237 L 182.500 434.473 185.072 435.706 C 186.487 436.384, 191.887 437.740, 197.072 438.719 C 205.212 440.257, 212.444 440.498, 250 440.486 C 287.161 440.475, 294.957 440.214, 303.500 438.701 C 316.996 436.310, 320.694 435.240, 321.346 433.541 C 321.649 432.750, 321.623 381.680, 321.287 320.052 L 320.676 208 316.088 208.004 C 313.565 208.006, 304.538 208.915, 296.028 210.025 C 260.585 214.647, 239.998 214.641, 204 210 C 195.475 208.901, 187.036 208.002, 185.246 208.001 L 181.991 208 182.246 321.237 M 340.938 212.750 L 338.731 215.500 339.365 280.500 C 339.713 316.250, 339.999 362.727, 339.999 383.781 C 340 425.388, 339.806 424.018, 345.484 422.593 C 351.373 421.115, 351.153 425.232, 351.242 314.901 C 351.319 218.756, 351.237 213.919, 349.506 212.007 C 346.965 209.199, 343.550 209.495, 340.938 212.750 M 248.183 234.690 C 244.486 241.725, 235.992 274.486, 236.006 281.657 C 236.016 287.007, 238.152 292.210, 242.094 296.486 L 246.036 300.763 239.268 301.436 C 221.941 303.159, 214.369 305.701, 212.166 310.535 C 210.623 313.922, 211.406 316.424, 215.622 321.577 C 220.809 327.917, 222.001 331.781, 221.991 342.218 C 221.978 355.404, 216.181 402.924, 214.115 406.786 C 213.592 407.763, 210.051 409.556, 206.189 410.800 C 194.177 414.669, 191.316 418.564, 196.984 423.333 C 204.380 429.556, 223.155 433.987, 245.224 434.717 C 262.347 435.284, 271.089 434.406, 288 430.424 C 310.039 425.234, 315.745 418.992, 303.951 412.975 C 301.926 411.942, 298.071 410.569, 295.384 409.923 C 288.325 408.227, 286.382 406.713, 285.633 402.320 C 283.060 387.234, 277.004 342.607, 277.002 338.718 C 276.999 332.725, 278.861 328.217, 284.007 321.754 C 286.225 318.968, 288.294 315.675, 288.605 314.437 C 290.341 307.522, 281.764 303.528, 260.669 301.429 L 253.839 300.750 257.370 297.125 C 259.313 295.131, 261.599 291.827, 262.451 289.782 C 265.748 281.869, 263.843 267.419, 256.680 246 C 252.444 233.331, 250.357 230.554, 248.183 234.690 M 248.653 247.909 C 243.575 260.600, 240.179 285.101, 243.023 288.527 C 244.168 289.907, 244.709 289.708, 247.736 286.793 L 251.155 283.500 253.613 286.500 C 255.999 289.413, 256.113 289.444, 257.535 287.559 C 259.810 284.544, 259.364 273.013, 256.517 261.261 C 254.148 251.484, 251.609 244, 250.660 244 C 250.416 244, 249.513 245.759, 248.653 247.909 M 235.847 306.995 C 225.341 309.184, 221.500 310.900, 221.500 313.406 C 221.500 318.410, 234.001 322.295, 250.500 322.418 C 261.743 322.502, 268.233 321.307, 275.127 317.885 C 283.183 313.886, 280.699 310.675, 267.500 308.024 C 262 306.920, 256.488 305.779, 255.250 305.489 C 253.270 305.025, 252.998 305.354, 252.986 308.231 C 252.965 313.446, 251.944 316, 249.883 316 C 248.267 316, 248 315.220, 248 310.500 C 248 304.112, 248.705 304.316, 235.847 306.995 M 141.750 438.763 C 138.836 439.402, 139.160 444.394, 142.339 447.845 C 151.397 457.676, 184.844 465.718, 230.500 469.041 C 272.287 472.083, 332.010 464.410, 353.292 453.265 C 360.694 449.389, 364 446.029, 364 442.384 C 364 438.291, 360.400 438.517, 348.331 443.367 C 321.092 454.314, 292 459, 251.272 459 C 213.026 459, 179.313 453.422, 156.521 443.322 C 147.137 439.163, 144.142 438.239, 141.750 438.763" stroke="none" fill="black" fill-rule="evenodd"/>
</svg>