<svg xmlns="http://www.w3.org/2000/svg" width="512" height="512" viewBox="0 0 512 512" version="1.1">
	<path d="M 233.500 26.070 C 220.835 27.357, 210.176 29.648, 198 33.702 C 169.641 43.143, 146.867 57.792, 125.090 80.601 C 104.178 102.504, 88.129 132.803, 82.417 161.164 C 80.471 170.828, 79.412 174, 78.133 174 C 76.849 174, 74.394 167.404, 73.567 161.731 C 73.184 159.108, 72.497 157.193, 72.040 157.475 C 70.477 158.441, 68.737 175.144, 69.418 182.654 C 70.853 198.497, 77.230 215.478, 86.353 227.753 C 88.909 231.192, 91 234.454, 91 235.003 C 91 235.551, 88.734 236, 85.965 236 C 81.117 236, 80.973 236.080, 82.084 238.158 C 85.178 243.938, 104.128 260.985, 118 270.466 C 137.149 283.555, 144.157 287.129, 152.176 287.895 L 158.500 288.500 160.294 296 C 166.068 320.135, 168.130 323.457, 183.678 333.681 C 196.650 342.211, 197.897 343.925, 199.185 355 C 201.181 372.169, 201.349 381.819, 199.694 384.344 C 198.811 385.691, 193.824 388.832, 188.312 391.512 C 167.825 401.473, 155.944 419.239, 152.380 445.247 C 151.324 452.949, 151.129 452.995, 135.300 449.300 C 133.600 448.903, 132.636 449.548, 131.054 452.143 C 128.076 457.027, 128.406 458.742, 132.540 459.884 C 143.888 463.017, 184.729 470.068, 237.947 478.082 L 250.394 479.956 275.447 475.913 C 335.973 466.145, 349.171 463.853, 360 461.232 C 370.726 458.636, 371.520 458.277, 371.800 455.897 C 371.965 454.493, 371.274 452.325, 370.265 451.078 L 368.430 448.812 359.620 450.562 C 349.389 452.594, 349.689 452.777, 348.071 443.484 C 346.726 435.762, 343.052 424.913, 338.843 416.230 C 334.071 406.388, 323.167 395.833, 311.378 389.644 C 305.415 386.514, 301.865 383.999, 301.128 382.381 C 299.484 378.773, 299.766 370.761, 301.901 360.418 C 304.921 345.785, 306.338 343.967, 321 335.906 C 326.225 333.033, 331.905 329.620, 333.622 328.321 C 338.295 324.784, 342.848 315.246, 346.057 302.270 C 347.634 295.893, 349.279 290.349, 349.712 289.949 C 350.145 289.549, 353.200 288.456, 356.500 287.521 C 365.842 284.873, 374.464 279.843, 388.534 268.832 C 405.219 255.774, 411.877 249.728, 418.080 241.998 C 425.304 232.997, 429.164 224.830, 429.771 217.263 C 430.048 213.818, 430.008 211, 429.684 211 C 429.359 211, 428.230 212.953, 427.174 215.340 C 424.580 221.203, 419.927 224.011, 412.882 223.965 C 409.922 223.945, 406.452 223.348, 405.172 222.638 L 402.844 221.346 407.484 215.923 C 416.952 204.856, 422.022 192.427, 424.083 175.227 C 425.515 163.289, 424.356 150.255, 420.996 140.488 C 418.191 132.334, 417.003 131.464, 416.986 137.550 C 416.951 150.538, 414.372 149.909, 409.608 135.750 C 405.134 122.456, 397.705 107.176, 391.277 98.051 C 380.345 82.531, 362.479 69, 352.918 69 C 349.426 69, 348.845 68.617, 347.074 65.146 C 345.070 61.217, 337.486 54.119, 328.500 47.763 C 316.395 39.200, 294.361 30.275, 278.663 27.576 C 267.790 25.707, 244.661 24.935, 233.500 26.070 M 237.678 46.075 C 227.254 47.199, 216.174 50.330, 207.866 54.499 C 191.451 62.737, 162.237 84.831, 143.157 103.438 L 131.814 114.500 123.907 114.359 C 119.101 114.274, 116 114.619, 116 115.240 C 116 115.911, 120.545 116.075, 129.250 115.718 C 139.632 115.292, 144.881 114.526, 153.500 112.180 C 182.630 104.252, 204.870 93.598, 229 76.013 C 249.853 60.817, 248.608 61.500, 255.430 61.500 C 261.060 61.500, 262.872 62.119, 275.558 68.373 C 300.327 80.583, 310.767 84.046, 322.460 83.930 L 329.500 83.860 324.500 82.151 C 318.304 80.034, 313.166 76.508, 301 66.024 C 285.048 52.278, 282.119 50.700, 266.965 47.684 C 256.586 45.619, 246.864 45.084, 237.678 46.075 M 341.029 94.500 C 337.596 103.260, 345.632 115.968, 359 122.916 C 364.433 125.740, 374.990 129.343, 375.713 128.620 C 375.918 128.415, 373.254 126.790, 369.793 125.009 C 355.546 117.678, 348.348 110.035, 344.359 98 L 342.205 91.500 341.029 94.500 M 323.456 104.250 C 289.510 142.455, 266.727 156.960, 213.308 174.376 C 190.069 181.952, 180.056 184.037, 154.750 186.569 C 150.066 187.037, 149 187.481, 149 188.965 C 149 189.966, 151.468 199.946, 154.484 211.143 C 157.500 222.339, 161.348 238.016, 163.034 245.980 C 176.072 307.560, 178.096 314.240, 185.827 321.225 C 197.065 331.378, 231.355 351.383, 245.391 355.975 C 252.238 358.215, 261.368 356.861, 271.535 352.097 C 288.855 343.981, 317.093 326.075, 322.772 319.607 C 329.033 312.476, 330.125 308.635, 339.425 261 C 345.956 227.553, 345.520 229.516, 351.520 206.500 C 355.439 191.464, 356.296 186.524, 356.722 176.500 C 357.390 160.790, 356.543 157.883, 348.721 149.020 C 337.052 135.800, 330.772 122.157, 329.359 106.958 C 329.004 103.131, 328.380 100, 327.973 100 C 327.566 100, 325.533 101.912, 323.456 104.250 M 306.435 108.097 C 292.892 122.071, 265.711 141.373, 249.450 148.564 C 246.316 149.951, 244.038 151.371, 244.389 151.722 C 245.460 152.793, 266.943 141.529, 276.694 134.783 C 289.624 125.838, 312.190 105.857, 310.862 104.529 C 310.591 104.258, 308.599 105.864, 306.435 108.097 M 177.268 188.897 C 170.790 191.301, 166.847 194.048, 165.046 197.414 C 163.120 201.012, 164.461 201.775, 168.050 199.121 C 177.441 192.178, 188.471 192.451, 204.919 200.032 C 210.724 202.708, 212.227 203.056, 213.480 202.016 C 215.725 200.153, 215.328 196.237, 212.620 193.529 C 207.019 187.928, 186.961 185.300, 177.268 188.897 M 307 188.516 C 295.635 191.304, 290 194.638, 290 198.573 C 290 204.942, 292.207 205.389, 299.980 200.597 C 313.356 192.352, 325.906 191.955, 337.250 199.420 C 339.964 201.206, 340 201.201, 340 199.038 C 340 193.571, 327.610 186.925, 317.712 187.083 C 314.846 187.129, 310.025 187.774, 307 188.516 M 181.250 213.166 C 178.005 213.893, 177 214.585, 177 216.094 C 177 217.794, 176.705 217.913, 174.893 216.943 C 171.769 215.271, 170.474 217.052, 171.880 221.086 C 173.308 225.181, 172.932 225.521, 169.745 223.014 C 167.313 221.101, 165 220.379, 165 221.532 C 165 221.825, 165.681 223.694, 166.513 225.686 C 168.324 230.020, 167.906 230.748, 164.842 228.602 C 158.261 223.992, 159.966 229.842, 167.574 237.976 C 169.972 240.540, 173.786 246.337, 176.049 250.859 C 181.330 261.409, 185.233 264.295, 194.889 264.788 C 203.247 265.215, 209.084 262.505, 213.487 256.152 C 216.310 252.079, 216.495 251.241, 216.417 242.888 C 216.327 233.195, 216.022 233.588, 221.909 235.805 C 223.023 236.225, 223.176 235.628, 222.639 232.943 C 221.089 225.197, 211.653 216.506, 201.461 213.438 C 196.137 211.836, 187.698 211.722, 181.250 213.166 M 305.734 213.022 C 297.651 215.069, 288.338 221.087, 285.099 226.357 C 282.763 230.159, 281.305 237, 282.832 237 C 283.411 237, 285.486 236.056, 287.443 234.901 L 291 232.802 291 240.933 C 291 249.971, 292.538 254.849, 296.803 259.339 C 300.620 263.357, 304.239 265.003, 309.200 264.978 C 317.934 264.933, 325.266 259.367, 330.627 248.713 C 332.069 245.846, 335.220 241.380, 337.629 238.789 C 342.298 233.765, 344.770 229.437, 343.624 228.291 C 342.989 227.655, 341.704 228.017, 335.508 230.577 C 333.945 231.222, 334.215 230.516, 336.758 227.306 C 341.835 220.895, 340.743 218.177, 334.410 221.462 C 331.348 223.051, 329.922 222.678, 331.817 220.783 C 334.090 218.510, 333.121 215.949, 329.398 214.393 C 324.976 212.545, 310.849 211.727, 305.734 213.022 M 121.022 221.742 C 120.962 225.126, 134.301 263.108, 136.935 267.050 C 140.206 271.947, 148.090 277.795, 152 278.225 C 154.109 278.457, 154.553 278.033, 154.839 275.518 C 155.459 270.057, 153.311 265.575, 147.877 260.993 C 142.124 256.142, 137.972 250.142, 130.226 235.481 C 124.742 225.103, 121.060 219.607, 121.022 221.742 M 185.962 232.250 C 181.672 234.413, 181.488 234.692, 181.186 239.484 C 180.580 249.080, 185.360 259, 190.589 259 C 193.452 259, 193.422 259.258, 191.377 252.226 C 189.813 246.844, 189.889 240.211, 191.602 232.750 C 192.367 229.416, 191.699 229.357, 185.962 232.250 M 305.014 230.970 C 303.766 231.759, 303.726 232.436, 304.762 235.181 C 305.930 238.275, 305.835 238.578, 302.998 240.798 C 296.411 245.954, 301.465 253.652, 309.661 250.947 C 315.706 248.952, 317.607 242.070, 314.043 235.083 C 311.572 230.240, 308.431 228.810, 305.014 230.970 M 319.585 239.951 C 318.756 247.278, 317.408 251.407, 314.364 255.943 C 313.093 257.837, 312.224 259.558, 312.434 259.767 C 312.643 259.976, 314.169 259.447, 315.825 258.590 C 321.229 255.796, 326.277 242.067, 323.734 237.079 C 321.530 232.755, 320.303 233.604, 319.585 239.951 M 200.250 241.662 C 199.563 241.940, 199 243.694, 199 245.560 C 199 252.011, 207.042 253.919, 210.699 248.336 C 211.958 246.416, 212.053 245.412, 211.163 243.459 C 210.217 241.383, 209.377 241.012, 205.771 241.079 C 203.422 241.122, 200.938 241.385, 200.250 241.662 M 367.500 255.238 C 366.400 255.885, 363.255 257.153, 360.510 258.056 C 355.659 259.652, 355.458 259.875, 353.265 266.099 C 352.024 269.620, 351.119 273.625, 351.254 275 C 351.466 277.158, 351.959 277.478, 354.853 277.341 C 359.703 277.112, 364.964 272.458, 368.750 265.050 C 373.451 255.849, 372.964 252.022, 367.500 255.238 M 219.999 311.170 C 220 313.675, 230.649 322.688, 237.741 326.187 C 250.126 332.297, 262.589 331.047, 274.500 322.500 C 280.807 317.974, 287.687 311.353, 286.900 310.567 C 286.645 310.312, 271.488 309.968, 253.218 309.802 C 222.733 309.525, 219.999 309.637, 219.999 311.170 M 242 316.922 C 242 320.267, 259.453 320.898, 263.993 317.717 C 266.368 316.054, 266.059 316, 254.223 316 C 247.426 316, 242 316.409, 242 316.922 M 215.999 359.250 C 215.998 361.038, 216.750 369.355, 217.670 377.732 C 219.677 396.023, 219.645 396.100, 209.331 397.809 C 200.852 399.215, 193.925 402.635, 186.934 408.869 C 180.240 414.837, 176.217 422.098, 172.481 434.952 C 169.397 445.561, 168.852 451.672, 170.878 452.925 C 171.619 453.383, 177.237 454.068, 183.363 454.447 C 195.536 455.202, 225.911 459.092, 238.338 461.488 C 249.094 463.563, 252.147 463.429, 270.500 460.075 C 288.683 456.753, 311.052 454, 319.870 454 C 328.546 454, 329 453.678, 329 447.521 C 329 441.309, 325.040 424.959, 322.176 419.344 C 318.570 412.276, 305.182 400.513, 294.792 395.285 C 286.154 390.937, 286 390.705, 286 381.996 C 286 369.363, 284.858 359, 283.467 359 C 282.785 359, 276.889 361.740, 270.364 365.088 C 254.737 373.108, 253.482 373.043, 233.426 363.167 C 225.420 359.225, 218.225 356, 217.435 356 C 216.483 356, 216 357.094, 215.999 359.250" stroke="none" fill="black" fill-rule="evenodd"/>
</svg>