<svg xmlns="http://www.w3.org/2000/svg" width="512" height="512" viewBox="0 0 512 512" version="1.1">
	<path d="M 191.500 23.109 C 188.200 23.585, 182.378 24.919, 178.562 26.073 C 172.604 27.875, 170.790 29.024, 165.723 34.202 L 159.822 40.233 154.161 39.750 C 141.995 38.713, 130.648 44.401, 116.527 58.617 C 102.478 72.760, 91.471 90.384, 81.124 115.301 C 70.523 140.830, 65.831 162.901, 65.881 187 C 65.916 204.207, 67.120 211.211, 74.474 236.998 C 83.389 268.262, 83.545 281.279, 75.201 297.597 C 69.550 308.649, 57.516 317, 47.241 317 C 35.603 317, 30.156 310.640, 31.533 298.658 L 32.240 292.500 29.979 294.500 C 21.227 302.240, 22.298 321.883, 32.017 331.899 C 34.179 334.126, 39.110 337.541, 42.974 339.487 C 46.838 341.433, 49.998 343.357, 49.995 343.763 C 49.993 344.168, 47.074 348.082, 43.509 352.460 C 28.250 371.199, 23.679 389.506, 28.994 410.590 C 30.849 417.947, 36.979 431.935, 40.335 436.469 C 41.709 438.324, 41.879 438.145, 43.304 433.347 C 47.676 418.625, 57.523 407.798, 74.157 399.421 C 77.818 397.577, 89.211 392.685, 99.473 388.551 C 134.866 374.291, 145.204 367.326, 152.618 352.750 C 153.947 350.137, 155.364 348.001, 155.767 348.002 C 156.551 348.004, 160.720 354.410, 163.413 359.750 C 164.314 361.537, 165.490 363, 166.026 363 C 169.009 363, 165.617 339.123, 158.008 306.557 C 156.972 302.126, 156.463 298.156, 156.877 297.735 C 157.291 297.315, 161.650 299.984, 166.565 303.668 C 178.936 312.940, 193.363 321.999, 205.899 328.365 C 217.898 334.458, 222.126 335.990, 229.402 336.878 L 234.500 337.500 234.602 357 C 234.702 376.018, 236.196 388.760, 238.922 393.854 C 239.490 394.915, 245.161 398.645, 251.524 402.142 C 265.495 409.820, 269.113 412.547, 267.096 413.880 C 266.324 414.391, 263.250 415.113, 260.264 415.486 C 257.048 415.888, 254.077 416.923, 252.974 418.026 C 251.057 419.943, 249.275 426.608, 250.383 427.716 C 250.725 428.059, 253.142 427.371, 255.753 426.188 C 260.346 424.106, 278.047 421, 285.320 421 C 288.473 421, 289.398 421.662, 293.354 426.750 C 298.705 433.633, 307.294 441.994, 319.500 452.203 C 330.696 461.568, 342.906 474.281, 346.014 479.811 C 349.249 485.567, 350.409 485.141, 349.627 478.482 C 348.137 465.803, 343.440 458.524, 330.142 448.287 C 325.389 444.628, 319.590 440.113, 317.255 438.254 L 313.010 434.874 321.801 426.187 C 328.607 419.461, 331.418 415.807, 334.251 410 C 339.096 400.069, 341 392.309, 341 382.500 C 341 364.956, 333.643 348.710, 316.636 328.698 C 309.471 320.267, 308.471 317.983, 309.285 311.915 C 309.697 308.839, 311.125 306.553, 315.658 301.706 C 326.033 290.615, 333.985 276.470, 339.556 259.199 C 342.130 251.218, 342.264 251.030, 344.848 251.756 C 346.307 252.165, 350.439 252.468, 354.032 252.429 C 359.222 252.373, 362.046 251.675, 367.782 249.031 C 372.760 246.736, 375 245.156, 375 243.937 C 375 242.486, 373.883 242.088, 368.750 241.707 C 360.559 241.099, 346.602 236.736, 346.184 234.653 C 346.011 233.787, 347.059 225.973, 348.514 217.289 C 353.032 190.330, 352.894 171.696, 348.005 148.284 C 342.927 123.965, 331.438 99.599, 313.889 75.931 C 310.574 71.460, 308.069 67.263, 308.322 66.603 C 308.998 64.842, 328.197 59.213, 337.758 57.973 C 351.971 56.130, 364.808 58.421, 379.500 65.422 C 384.450 67.781, 390.728 70.005, 393.452 70.364 C 400.727 71.323, 406.346 74.428, 409.602 79.285 C 411.156 81.603, 415.867 86.929, 420.071 91.121 C 429.358 100.379, 436.980 111.731, 441.123 122.475 C 453.442 154.419, 452.556 193.272, 438.797 224.500 C 436.617 229.450, 433.990 236.650, 432.960 240.500 C 430.433 249.950, 427.158 253, 419.538 253 L 414.107 253 410.357 258.750 C 405.333 266.453, 393.024 278.573, 384.883 283.832 L 378.266 288.106 377.624 295.803 C 377.271 300.036, 376.466 307.328, 375.834 312.007 C 375.203 316.686, 374.984 322.099, 375.347 324.036 C 376.430 329.811, 382.971 339.794, 391.716 349.021 C 396.234 353.788, 400.397 358.913, 400.966 360.410 C 402.525 364.511, 402.237 375.642, 400.483 379.033 C 398.410 383.042, 395.339 384.415, 380.519 387.957 C 366.191 391.381, 358.888 394.828, 355.975 399.541 C 353.740 403.156, 353.346 406.494, 355.250 405.678 C 355.938 405.383, 360.230 403.542, 364.789 401.588 C 369.348 399.633, 376.323 397.070, 380.289 395.891 C 384.255 394.712, 390.786 392.403, 394.802 390.759 C 398.818 389.115, 402.212 387.934, 402.345 388.135 C 402.477 388.336, 404.938 391.271, 407.812 394.658 C 417.304 405.841, 428.531 411, 443.379 411 C 474.785 411, 496.320 388.520, 485.331 367.207 C 483.774 364.187, 481.407 360.997, 480.070 360.117 C 477.687 358.548, 477.656 358.565, 478.419 361.009 C 478.848 362.379, 479.426 366.233, 479.704 369.573 C 480.191 375.407, 480.089 375.748, 477.100 378.262 C 471.292 383.149, 458.863 382.831, 447.209 377.496 C 441.396 374.834, 435 370.462, 435 369.149 C 435 368.738, 438.302 367.429, 442.338 366.242 C 450.218 363.923, 455.687 360.543, 453 359.650 C 452.175 359.377, 448.011 358.412, 443.746 357.507 C 439.482 356.602, 432.732 354.242, 428.746 352.262 C 416.712 346.283, 402.159 330.014, 399.004 319.013 C 398.528 317.356, 398.258 316, 398.404 316 C 398.549 316, 400.386 318.495, 402.486 321.544 C 407.826 329.297, 414.925 335.359, 423.803 339.747 C 431.254 343.429, 431.613 343.500, 442.948 343.500 C 453.566 343.500, 455.004 343.267, 460.734 340.620 C 467.960 337.283, 474.455 330.848, 478.015 323.500 C 481.713 315.866, 481.520 305.342, 477.551 298.176 C 474.789 293.191, 467.546 286.121, 466.387 287.280 C 466.100 287.567, 467.071 290.180, 468.545 293.088 C 470.106 296.169, 471.441 300.773, 471.745 304.123 C 472.194 309.072, 471.902 310.491, 469.647 314.339 C 466.307 320.039, 460.569 323, 452.862 323 C 444.331 323, 438.409 320.480, 431.919 314.086 C 422.680 304.984, 419.880 293.558, 423.492 279.693 C 425.617 271.532, 428.683 265.943, 441.475 246.908 C 457.602 222.912, 464.856 206.973, 468.081 188.456 C 469.882 178.116, 468.701 151.525, 465.995 141.500 C 459.520 117.500, 446.042 96.704, 430.914 87.366 C 426.355 84.552, 425 83.167, 425 81.318 C 425 73.392, 408.619 57.551, 395.606 52.894 C 393.070 51.986, 390.910 50.230, 389.411 47.857 C 388.146 45.854, 385.809 43.288, 384.217 42.155 C 377.351 37.265, 355.201 32, 341.500 32 C 324.241 32, 302.257 38.404, 291.303 46.622 L 288.107 49.020 279.976 43.484 C 258.070 28.568, 235.770 21.858, 209 22.128 C 202.675 22.192, 194.800 22.633, 191.500 23.109 M 211.500 58.722 C 212.050 59.243, 217 62.734, 222.500 66.479 C 234.933 74.945, 246.277 83.747, 255.897 92.392 C 259.965 96.049, 263.516 98.817, 263.788 98.545 C 264.747 97.586, 257.043 89.254, 248.821 82.360 C 239.101 74.209, 233.317 70.045, 223 63.771 C 215.988 59.507, 209.166 56.512, 211.500 58.722 M 175.047 83.122 C 171.205 98.428, 164.691 109.398, 152.989 120.269 L 145.110 127.589 143.996 138.544 C 141.539 162.719, 134.897 188.402, 126.810 205 L 121.695 215.500 124.856 224.442 C 126.594 229.360, 127.667 233.733, 127.241 234.159 C 126.814 234.586, 124.311 233.094, 121.679 230.844 L 116.892 226.752 114.527 228.975 C 110.708 232.563, 109.450 236.591, 110.899 240.597 C 111.573 242.462, 111.833 244.461, 111.476 245.038 C 111.120 245.616, 111.566 247.215, 112.468 248.592 C 116.733 255.100, 127.326 257.208, 132.354 252.548 C 133.809 251.199, 135 249.624, 135 249.048 C 135 246.147, 137.200 248.996, 142.492 258.750 C 150.752 273.972, 155.322 280.424, 163.950 289.042 C 176.468 301.548, 200.333 316.161, 217.722 321.970 C 229.645 325.952, 242.971 327.022, 251.124 324.652 C 257.159 322.898, 258.250 321.894, 273.259 304.280 C 286.332 288.938, 292.407 278.624, 297.575 263 C 300.312 254.723, 300.397 253.814, 300.778 228.359 L 301.169 202.218 297.835 202.916 C 294.802 203.550, 294.528 203.903, 294.814 206.807 C 295.167 210.398, 295.082 210.450, 291.547 208.839 C 289.381 207.852, 289 207.023, 289 203.290 C 289 200.876, 288.330 197.605, 287.511 196.021 C 285.847 192.803, 282.175 191.099, 281 193 C 280.464 193.867, 280.055 193.898, 279.566 193.107 C 278.570 191.495, 273.450 191.752, 272.011 193.487 C 269.433 196.593, 273.580 200.368, 277.132 198.149 C 279.553 196.637, 279.495 197.497, 276.930 201.098 C 273.841 205.436, 271.362 206.467, 268.509 204.598 C 267.212 203.748, 265.865 202.149, 265.514 201.044 C 264.914 199.155, 264.731 199.130, 262.438 200.632 C 260.038 202.205, 260 202.182, 260 199.192 C 260 194.856, 263.893 190.770, 271.109 187.532 C 276.573 185.079, 278.135 184.815, 284.400 185.279 C 290.328 185.718, 292.036 185.477, 294.750 183.821 C 298.202 181.713, 298.622 182.234, 296.972 186.574 C 295.552 190.307, 296.300 190.596, 300.563 187.961 L 304.232 185.693 303.501 188.097 C 303.099 189.419, 301.922 191.429, 300.885 192.564 C 298.611 195.054, 298.449 197, 300.515 197 C 303.643 197, 305.992 190.974, 305.996 182.937 C 306 175.989, 305.776 175.160, 303.250 172.741 C 299.551 169.199, 291.798 165.886, 287.056 165.820 C 284.836 165.790, 280.771 166.909, 277.521 168.447 C 273.044 170.564, 271.558 170.878, 270.429 169.941 C 268.376 168.237, 268.652 166.566, 271.560 163.111 C 273.189 161.175, 275.463 159.826, 277.810 159.403 C 282.855 158.493, 283.174 158.200, 281.858 155.689 C 279.884 151.923, 262.294 134.462, 242 116.124 C 231.275 106.432, 217.830 94.114, 212.123 88.751 C 206.415 83.388, 201.353 79, 200.873 79 C 199.004 79, 200.150 84.504, 203.238 90.360 C 207.964 99.323, 224.477 115.392, 240.378 126.502 C 260.102 140.283, 267.312 146.252, 270.803 151.693 C 276.209 160.118, 274.785 162.370, 267.668 156.649 C 265.376 154.807, 256.975 148.887, 249 143.494 C 241.025 138.101, 228.425 129.170, 221 123.647 C 206.283 112.700, 185.408 92.716, 179.711 84.122 L 176.146 78.744 175.047 83.122 M 278 109.841 C 278 110.495, 280.587 114.298, 283.750 118.291 C 286.913 122.284, 290.278 126.665, 291.229 128.026 C 294.766 133.086, 291.724 126.576, 287.479 120 C 283.131 113.264, 278 107.765, 278 109.841 M 382 143.692 C 370.920 145.551, 366.157 150.117, 370.858 154.372 C 372.609 155.956, 373.160 155.876, 380.372 152.988 C 395.375 146.980, 409.784 148.440, 422.202 157.225 C 425.585 159.618, 425.415 156.732, 422 153.790 C 413.203 146.213, 394.745 141.553, 382 143.692 M 179.326 160.416 C 171.668 161.876, 163.085 165.403, 159 168.768 C 155.815 171.392, 156.916 172.612, 160.701 170.654 C 171.052 165.302, 190.574 164.019, 202 167.941 C 205.575 169.168, 209.210 170.808, 210.079 171.586 C 212.454 173.714, 214.910 173.292, 216.163 170.541 C 217.887 166.759, 215.162 163.429, 208.753 161.488 C 201.414 159.264, 187.939 158.773, 179.326 160.416 M 381.511 164.601 C 374.555 167.147, 366.936 175.910, 365.514 183 L 364.812 186.500 370.156 181.143 C 373.095 178.197, 377.623 174.710, 380.217 173.393 C 386.716 170.095, 387.475 170.426, 381.712 174.045 C 378.987 175.756, 375.647 179.064, 373.962 181.721 C 370.117 187.783, 370.013 190.298, 373.750 186.801 C 376.893 183.860, 382.169 181, 384.450 181 C 385.618 181, 386 182.099, 386 185.461 C 386 194.506, 394.379 197.169, 398.709 189.500 C 401.286 184.935, 401.777 182.445, 399.443 185.777 C 397.498 188.555, 394.868 188.617, 392.447 185.941 C 390.443 183.727, 391.055 181.629, 394.303 179.580 C 396.483 178.206, 404.879 182.623, 405.556 185.500 C 406.330 188.790, 404.572 193.231, 401.623 195.432 C 398.890 197.473, 396.948 197.640, 386.095 196.772 C 384.053 196.609, 382.519 197, 382.262 197.750 C 382.026 198.438, 382.433 199.018, 383.167 199.040 C 383.900 199.063, 388.775 201.073, 394 203.507 C 403.896 208.118, 405.835 207.973, 402.086 202.902 L 399.940 200 402.076 200 C 403.251 200, 405.917 201.350, 408 203 C 412.896 206.877, 413.650 206.787, 411.082 202.632 C 409.937 200.780, 409 198.947, 409 198.560 C 409 198.173, 411.587 198.168, 414.750 198.549 L 420.500 199.242 415.750 195.575 C 413.137 193.558, 411 191.479, 411 190.954 C 411 189.271, 412.180 189.911, 416.616 194 C 421.670 198.659, 423.594 198.868, 430.750 195.536 C 438.291 192.026, 437.871 190.031, 429.978 191.867 C 428.041 192.318, 425.566 192.357, 424.478 191.955 C 422.811 191.338, 423.247 190.897, 427.250 189.147 C 429.863 188.005, 432 186.605, 432 186.036 C 432 184.768, 432.473 184.726, 426.591 186.511 C 423.891 187.330, 421.079 188, 420.341 188 C 417.496 188, 419.214 186.357, 424 184.500 C 432.654 181.142, 429.581 180.099, 418.250 182.548 C 413.418 183.592, 414.346 181.932, 420.778 178.023 C 427.612 173.869, 425.875 173.010, 417.543 176.423 C 411.257 178.997, 408.933 178.896, 411.283 176.151 C 414.617 172.255, 414.386 171.937, 408.704 172.605 C 402.652 173.316, 401.204 172.356, 403.070 168.869 C 404.204 166.750, 404.118 166.712, 399.616 167.329 C 395.198 167.935, 395 167.855, 395 165.481 C 395 163.178, 394.659 163.005, 390.250 163.070 C 387.637 163.109, 383.705 163.798, 381.511 164.601 M 276.994 178.934 C 271.060 180.739, 262.693 187.027, 264.209 188.542 C 264.511 188.845, 267.626 187.609, 271.129 185.796 C 276.490 183.023, 278.570 182.500, 284.250 182.500 C 291.233 182.500, 292.344 181.521, 287.921 179.265 C 285.244 177.899, 280.836 177.765, 276.994 178.934 M 183.492 181.963 C 184.062 184.558, 183.822 185.007, 181.559 185.575 C 178.816 186.263, 174.749 185.812, 171.576 184.468 C 170.024 183.810, 169.783 183.976, 170.326 185.326 C 170.697 186.247, 171.273 187.675, 171.607 188.500 C 172.034 189.555, 171.579 190, 170.075 190 C 168.898 190, 166.320 189.325, 164.346 188.500 C 158.747 186.160, 158.159 186.782, 162.417 190.542 C 164.571 192.444, 166.075 194.258, 165.759 194.574 C 165.444 194.890, 162.916 194.342, 160.143 193.357 C 154.888 191.491, 152.037 192.233, 155.500 194.566 C 156.600 195.307, 158.400 196.634, 159.500 197.516 C 161.387 199.028, 161.202 199.095, 156.250 198.706 C 150.208 198.231, 149.639 199.182, 154.250 202.053 C 156.841 203.666, 158.869 204.018, 164.252 203.788 C 167.966 203.630, 171.003 203.824, 171.002 204.220 C 171.001 204.616, 169.650 205.938, 168 207.158 C 166.350 208.378, 165 209.741, 165 210.188 C 165 211.356, 173.409 211.191, 174.600 210 C 175.551 209.049, 181.011 210.765, 180.966 212 C 180.957 212.275, 179.273 213.273, 177.224 214.219 C 173.847 215.777, 170.269 219.602, 171.261 220.594 C 171.481 220.814, 175.119 219.204, 179.346 217.017 L 187.031 213.040 183.765 211.658 C 177.622 209.058, 174.353 202.790, 177.499 199.644 C 179.937 197.206, 182 197.598, 182 200.500 C 182 203.667, 185.485 207.219, 188.192 206.811 C 189.329 206.640, 191.385 205.037, 192.759 203.249 L 195.257 199.999 192.356 200.579 C 190.192 201.012, 188.975 200.630, 187.572 199.080 C 185.755 197.071, 185.752 196.931, 187.500 195 C 189.684 192.587, 194.804 192.326, 195.671 194.584 C 196.103 195.712, 196.488 195.829, 197.006 194.990 C 198.528 192.527, 206.045 198.623, 211.715 206.917 C 211.872 207.146, 212.297 207.036, 212.660 206.673 C 213.023 206.310, 212.767 204.166, 212.091 201.909 C 210.549 196.763, 203.758 189.278, 198.500 186.928 C 194.709 185.235, 194.647 185.138, 197.300 185.071 C 200.241 184.996, 204.644 186.938, 209.238 190.334 C 213.588 193.550, 213.666 191.430, 209.356 187.121 C 204.866 182.631, 198.765 180.541, 192.280 181.272 C 189.598 181.574, 187.390 181.256, 186.270 180.407 C 183.526 178.325, 182.784 178.740, 183.492 181.963 M 286.600 209.838 C 285.708 211.281, 286.525 212.676, 289.056 214.030 C 291.518 215.348, 291.566 213.920, 289.159 210.948 C 287.899 209.392, 287.092 209.042, 286.600 209.838 M 191.500 212.976 C 188.583 214.215, 182.398 219.700, 183.103 220.423 C 183.977 221.317, 199.256 214.733, 199.750 213.249 C 200.233 211.801, 194.698 211.618, 191.500 212.976 M 269.278 212.611 C 269.828 213.161, 285.083 220, 285.760 220 C 285.914 220, 285.122 218.200, 284 216 L 281.959 212 275.313 212 C 271.658 212, 268.942 212.275, 269.278 212.611 M 344.565 240.692 C 343.699 242.947, 344.757 243.665, 350 244.381 C 355.634 245.151, 358.885 243.566, 353.883 242.488 C 352.022 242.087, 349.306 241.149, 347.847 240.404 C 345.523 239.217, 345.117 239.252, 344.565 240.692 M 258.593 242.649 C 258.204 244.382, 256.002 247.720, 253.700 250.068 C 249.009 254.854, 249.858 256.216, 255.732 253.333 C 260.068 251.205, 261.826 246.947, 260.266 242.349 L 259.300 239.500 258.593 242.649 M 234.079 251.265 C 229.610 253.545, 230.533 254.797, 236.949 255.159 C 243.111 255.506, 243.740 255.092, 242.393 251.582 C 241.668 249.691, 237.476 249.531, 234.079 251.265 M 265.985 271.948 C 264.010 273.106, 214.830 275.352, 209.373 274.533 C 200.113 273.145, 204.626 278.197, 219.134 285.460 C 231.313 291.557, 237.847 293.366, 245.473 292.754 C 253.435 292.115, 257.102 290.112, 261.998 283.727 C 264.202 280.852, 267.157 277.264, 268.563 275.752 C 272.009 272.051, 270.247 269.451, 265.985 271.948 M 252 281 C 250.625 281.440, 244.325 281.877, 238 281.971 C 226.500 282.141, 226.500 282.141, 230.500 283.684 C 238.582 286.802, 254.449 285.273, 255.759 281.250 C 256.211 279.864, 255.663 279.827, 252 281 M 115.204 308.324 C 112.550 315.691, 105.036 326.009, 97.191 333.060 C 94.061 335.873, 84.525 343.263, 76 349.482 C 67.475 355.700, 59.375 362.015, 58 363.514 L 55.500 366.240 60.859 363.548 C 68.973 359.472, 87.803 348.167, 94 343.652 C 108.071 333.399, 117.749 319.860, 118.729 309.055 C 119.017 305.876, 118.843 303.021, 118.341 302.711 C 117.840 302.401, 116.428 304.927, 115.204 308.324 M 122.305 346.801 C 119.482 350.620, 106.620 360.956, 96.284 367.712 C 85.056 375.051, 83.648 377.233, 93.283 372.363 C 105.838 366.018, 119.113 355.789, 123.039 349.437 C 125.751 345.049, 125.163 342.936, 122.305 346.801 M 286.396 367.083 C 290.511 374.599, 291.125 380.827, 288.331 386.715 C 286.383 390.820, 280.304 395.529, 274.839 397.166 C 269.682 398.711, 269.862 400.438, 275.092 399.601 C 287.078 397.685, 295.216 388.010, 293.560 377.647 C 292.789 372.824, 289.341 366.566, 285.491 363 C 282.917 360.616, 282.959 360.805, 286.396 367.083 M 415.195 381.111 C 415.912 383.303, 426.462 391.412, 432.346 394.293 C 438.364 397.240, 449.826 399.417, 454.230 398.449 C 455.832 398.098, 456.992 397.658, 456.807 397.473 C 456.622 397.289, 452.183 396.261, 446.943 395.191 C 437.037 393.167, 429.670 390.020, 422 384.536 C 415.550 379.924, 414.660 379.476, 415.195 381.111 M 133.013 415.479 C 131.802 417.438, 131.186 419.519, 131.604 420.232 C 132.014 420.929, 136.927 427.800, 142.523 435.500 C 152.689 449.490, 160.815 461.869, 169.109 476 L 173.511 483.500 179.256 483.800 C 183.822 484.038, 185 483.793, 185 482.604 C 185 478.564, 169.907 453.642, 157.942 437.924 C 150.096 427.617, 138.319 413.758, 136.579 412.784 C 135.586 412.229, 134.527 413.029, 133.013 415.479 M 164.074 415.877 C 160.813 416.789, 160.312 418.799, 163.179 419.466 C 164.456 419.762, 171.575 420.689, 179 421.525 C 197.532 423.611, 216.539 426.725, 222.315 428.622 C 224.963 429.492, 227.309 430.025, 227.528 429.806 C 227.747 429.587, 227.087 428.027, 226.061 426.340 C 223.428 422.011, 216.588 419.063, 204.195 416.916 C 193.457 415.055, 169.257 414.429, 164.074 415.877" stroke="none" fill="black" fill-rule="evenodd"/>
</svg>