<svg xmlns="http://www.w3.org/2000/svg" width="512" height="512" viewBox="0 0 512 512" version="1.1">
	<path d="M 206.750 49.689 C 203.725 50.480, 204.677 53.746, 208.250 54.838 C 212.904 56.259, 303.341 57.423, 305.825 56.094 C 308.540 54.641, 309.188 52.331, 307.386 50.529 C 306.053 49.196, 299.629 49.015, 257.179 49.116 C 230.405 49.180, 207.713 49.438, 206.750 49.689 M 204.500 59.647 C 187.495 61.619, 176.208 64.772, 164.679 70.773 C 153.243 76.724, 145 85.554, 145 91.852 C 145 93.599, 146.068 93.089, 152.250 88.391 C 161.415 81.425, 177.136 73.690, 187.500 71.048 C 197.468 68.506, 214.804 67.036, 235.050 67.016 C 245.830 67.005, 250.968 67.368, 251.800 68.200 C 253.522 69.922, 253.358 81.499, 251.586 83.271 C 250.630 84.227, 246.597 84.889, 239.117 85.317 C 185.150 88.405, 136.018 120.744, 111.981 169 C 107.459 178.079, 106.579 179.114, 104.091 178.285 C 98.316 176.363, 89 171.484, 89 170.383 C 89 169.645, 88.365 169.306, 87.561 169.615 C 86.013 170.209, 71.277 163.958, 66.744 160.785 C 63.576 158.567, 61.193 158.732, 59.607 161.278 C 58.793 162.586, 58.800 163.248, 59.634 163.778 C 60.258 164.175, 60.933 165.363, 61.134 166.417 C 61.585 168.782, 64 169.765, 64 167.583 C 64 166.713, 64.471 166, 65.047 166 C 66.752 166, 81 173.300, 81 174.174 C 81 174.615, 79.409 178.820, 77.465 183.517 C 72.651 195.147, 67.381 214.831, 65.531 228.091 C 64.649 234.417, 64 246.244, 64 256 C 64 282.404, 67.381 301.882, 75.875 324.416 C 80.046 335.481, 82.178 339, 84.711 339 C 85.482 339, 90.817 336.951, 96.567 334.448 C 102.317 331.944, 107.474 330.175, 108.027 330.517 C 108.579 330.858, 111.050 334.585, 113.516 338.798 L 118 346.458 118 360.779 C 118 371.264, 118.383 375.822, 119.429 377.800 C 121.022 380.810, 136.768 396.448, 144.500 402.698 C 152.904 409.492, 169.370 419.828, 179.228 424.498 C 199.448 434.076, 220.552 439.530, 242.479 440.843 L 253.457 441.500 254.466 444.500 C 255.646 448.010, 257.105 449.295, 258.419 447.981 C 258.934 447.466, 259.559 439.616, 259.807 430.537 C 260.107 419.591, 260.656 413.700, 261.438 413.052 C 262.086 412.514, 267.672 411.597, 273.851 411.014 C 308.815 407.717, 337.930 394.725, 360.823 372.204 C 372.523 360.695, 377.452 353.770, 385.505 337.527 C 389.193 330.087, 392.577 324, 393.024 324 C 394.989 324, 397 325.329, 397 326.627 C 397 328.701, 392.306 335.937, 388.134 340.295 L 384.500 344.091 384.181 359.795 L 383.863 375.500 374.147 385 C 361.946 396.930, 350.351 405.154, 334.166 413.356 C 320.063 420.504, 307.741 424.985, 295 427.598 C 290.325 428.557, 285.938 429.770, 285.250 430.293 C 284.399 430.941, 284 434.388, 284 441.087 C 284 449.443, 283.736 451.069, 282.250 451.853 C 274.818 455.773, 247.319 456.502, 230.250 453.230 C 220.871 451.433, 220 451.405, 220 452.909 C 220 453.813, 221.912 455.794, 224.250 457.311 C 231.388 461.942, 237.221 463.238, 253.215 463.748 C 269.044 464.252, 279.618 462.738, 287.214 458.882 L 290.928 456.996 291.214 447.280 L 291.500 437.564 304 434.374 C 323.377 429.429, 344.118 419.820, 360.253 408.312 C 370.591 400.938, 389.285 383.026, 391.490 378.381 C 392.862 375.489, 393.112 372.402, 392.852 361.586 C 392.600 351.078, 392.841 347.913, 394.017 346.294 C 394.833 345.171, 397.491 341.383, 399.925 337.876 C 405.067 330.466, 405.811 329.839, 408.500 330.645 C 413.659 332.190, 425 337.376, 425 338.189 C 425 338.691, 423.595 342.656, 421.879 347 C 416.430 360.789, 418.795 362.559, 441.102 361.382 C 453.161 360.745, 454.458 360.485, 457.232 358.151 C 459.981 355.838, 460.082 355.548, 458.374 354.877 C 457.343 354.472, 449.863 354.109, 441.750 354.070 C 433.637 354.032, 427 353.592, 427 353.093 C 427 351.518, 432.773 339.246, 433.694 338.864 C 435.183 338.248, 445.788 305.106, 447.980 294.219 C 453.215 268.223, 452.671 238.998, 446.458 212.500 C 444.347 203.495, 434.371 173.027, 432.590 170.146 C 431.657 168.636, 425.969 165.698, 425.291 166.376 C 425.004 166.663, 424.481 168.303, 424.130 170.021 C 423.567 172.772, 422.630 173.502, 416.232 176.173 C 412.240 177.840, 408.319 178.952, 407.518 178.645 C 406.718 178.338, 404.061 174.100, 401.613 169.226 C 386.472 139.077, 361.515 115.046, 329.759 100.037 C 311.122 91.229, 293.379 86.597, 272.750 85.155 C 266.288 84.703, 260.723 84.056, 260.383 83.717 C 260.044 83.378, 259.809 78.690, 259.860 73.300 C 259.911 67.910, 259.579 62.905, 259.123 62.178 C 258.666 61.450, 256.539 60.449, 254.396 59.952 C 250.773 59.111, 211.208 58.870, 204.500 59.647 M 230.500 93.689 C 183.828 99.738, 140.820 130.244, 119.440 172.465 C 114.779 181.669, 114.618 182.247, 116.358 183.520 C 117.368 184.258, 118.800 184.630, 119.540 184.346 C 120.280 184.062, 123.400 179.388, 126.474 173.959 C 150.865 130.881, 189.617 106.406, 236.827 104.262 C 245.541 103.866, 249.572 103.285, 250.577 102.280 C 252.312 100.545, 252.441 95.841, 250.800 94.200 C 249.653 93.053, 237.721 92.753, 230.500 93.689 M 260.750 93.546 C 259.217 95.155, 259.944 101.901, 261.750 102.829 C 262.712 103.323, 268.900 104.004, 275.500 104.341 C 308.911 106.049, 340.804 120.417, 364.165 144.285 C 372.909 153.218, 379.752 162.717, 386.708 175.578 C 391.702 184.812, 394.262 186.798, 396.968 183.538 C 398.056 182.227, 397.546 180.511, 393.760 172.740 C 384.543 153.822, 366.529 132.856, 348.723 120.322 C 332.121 108.635, 311.223 99.477, 292 95.464 C 283.466 93.683, 261.881 92.357, 260.750 93.546 M 228.929 111.031 C 212.334 112.973, 190.328 121.307, 175.168 131.391 C 158.629 142.393, 145.086 156.745, 134.487 174.500 C 127.719 185.838, 127.178 187.881, 130.198 190.710 C 134.483 194.726, 242.518 243, 247.219 243 C 248.781 243, 249.002 241.987, 249.019 234.750 C 249.029 230.213, 249.697 209.400, 250.503 188.500 C 252.343 140.812, 252.450 112.850, 250.800 111.200 C 249.469 109.869, 239.522 109.792, 228.929 111.031 M 262 110.700 C 261.175 111.030, 260.169 111.795, 259.765 112.400 C 258.746 113.926, 258.912 159.784, 260.013 181 C 260.513 190.625, 261.236 208.287, 261.620 220.250 C 262.130 236.124, 262.643 242, 263.520 242 C 264.180 242, 266.246 240.951, 268.110 239.668 C 283.983 228.747, 296.073 220.259, 299 217.982 C 302.589 215.189, 315.652 207, 316.518 207 C 316.783 207, 317 207.633, 317 208.407 C 317 210.353, 308.709 217.675, 294.500 228.278 C 287.900 233.202, 282.330 237.387, 282.122 237.577 C 281.187 238.431, 299.689 230.221, 324 218.994 C 338.575 212.263, 356.708 203.901, 364.297 200.413 C 378.893 193.702, 384 190.648, 384 188.629 C 384 187.950, 382.252 183.818, 380.115 179.447 C 368.931 156.564, 348.518 136.713, 323.151 124.047 C 312.868 118.912, 296.674 113.425, 288 112.136 C 279.094 110.813, 263.827 109.970, 262 110.700 M 191.200 139.200 C 189.742 140.658, 189.629 143.653, 191 144.500 C 191.550 144.840, 192 147.566, 192 150.559 C 192 155.270, 192.259 156, 193.933 156 C 196.833 156, 198.062 149.275, 196.537 141.750 C 195.746 137.847, 193.585 136.815, 191.200 139.200 M 310.254 139.217 C 309.623 139.991, 309.419 143.377, 309.739 147.750 C 310.198 154.029, 310.524 155, 312.175 155 C 313.918 155, 314.056 154.301, 313.790 146.830 C 313.505 138.798, 312.449 136.524, 310.254 139.217 M 450 139.302 C 450 140.877, 451.715 143.322, 460.293 153.975 C 465.016 159.839, 469.115 166.558, 473.429 175.503 C 476.877 182.654, 480.442 189.122, 481.349 189.875 C 482.849 191.120, 483 190.749, 483 185.833 C 483 173.787, 477.587 161.204, 467.819 150.544 C 461.936 144.124, 457.886 141.048, 452.739 139.091 C 450.657 138.299, 450 138.350, 450 139.302 M 56.500 141.519 C 53.200 142.879, 50.298 143.993, 50.050 143.995 C 48.209 144.014, 52.754 146.384, 58.453 148.377 L 65.336 150.784 71.892 148.316 C 81.688 144.629, 82.030 144.351, 78.500 142.947 C 73.094 140.797, 66.722 139, 64.591 139.024 C 63.441 139.037, 59.800 140.160, 56.500 141.519 M 180.635 141.073 C 177.720 143.365, 177.226 145, 179.448 145 C 180.489 145, 180.980 146.472, 181.198 150.241 C 181.431 154.291, 181.897 155.557, 183.250 155.814 C 184.806 156.110, 185 155.198, 185 147.573 C 185 142.858, 184.611 139, 184.135 139 C 183.659 139, 182.084 139.933, 180.635 141.073 M 201.039 142.945 L 198.864 146 201.432 146 C 203.804 146, 204 146.339, 204 150.441 C 204 155.113, 204.773 156.376, 206.847 155.095 C 207.704 154.565, 208.004 152.144, 207.799 147.410 C 207.531 141.220, 207.277 140.468, 205.358 140.195 C 203.901 139.987, 202.519 140.867, 201.039 142.945 M 159.975 153.565 C 158.355 157.826, 158.782 159.725, 161.476 160.240 C 164.537 160.825, 165 160.389, 165 156.915 C 165 150.892, 161.802 148.760, 159.975 153.565 M 447.115 153.250 C 449.335 157.465, 457.172 168, 458.088 168 C 459.946 168, 459.050 159.334, 456.912 156.615 C 454.654 153.745, 450.060 151, 447.514 151 C 446.186 151, 446.122 151.365, 447.115 153.250 M 346.629 154.078 C 342.899 157.011, 341.413 160.013, 343.147 161.112 C 343.891 161.583, 345.332 161.976, 346.350 161.985 C 348.612 162.003, 355 155.811, 355 153.600 C 355 151.258, 349.838 151.553, 346.629 154.078 M 455.373 173.470 C 455.055 174.298, 456.850 177.904, 459.479 181.720 C 462.047 185.449, 465.577 190.629, 467.324 193.232 C 469.071 195.835, 470.837 197.972, 471.250 197.982 C 472.482 198.012, 472.015 189.787, 470.551 185.684 C 468.953 181.202, 466.928 178.752, 461.600 174.854 C 457.171 171.613, 456.171 171.391, 455.373 173.470 M 420.500 183.073 C 411.932 186.447, 411.395 187.155, 412.780 193.260 C 413.434 196.142, 415.051 202.100, 416.375 206.500 C 421.116 222.268, 422.411 232.867, 422.424 256 C 422.438 280.582, 421.077 289.178, 413.990 309.249 C 411.805 315.437, 410.013 320.860, 410.009 321.299 C 409.995 322.575, 424.700 329.204, 426.692 328.821 C 429.143 328.349, 431.268 323.486, 435.414 308.864 C 441.666 286.811, 442.467 280.856, 442.456 256.500 C 442.449 239.538, 442.028 232.210, 440.619 224.500 C 437.534 207.621, 428.729 180.895, 426.305 181.052 C 425.862 181.081, 423.250 181.990, 420.500 183.073 M 85.914 184.622 C 73.893 215.144, 69.617 246.119, 73.054 277.789 C 75.068 296.356, 83.315 325.974, 87.126 328.329 C 88.305 329.057, 90.275 328.715, 94.297 327.082 C 103.552 323.326, 103.574 323.246, 98.990 309.954 C 86.598 274.026, 86.313 240.250, 98.074 201.302 C 99.767 195.694, 101.006 190.114, 100.826 188.903 C 100.376 185.867, 96.137 182.962, 91.188 182.298 C 87.339 181.782, 86.968 181.946, 85.914 184.622 M 110.786 194.750 C 108.441 197.444, 103.039 212.410, 100.972 221.941 C 94.899 249.940, 96.383 277.135, 105.402 303.134 C 109.848 315.949, 112.760 319.404, 115.913 315.605 C 116.810 314.524, 116.298 311.653, 113.639 302.855 C 108.468 285.741, 106.690 273.855, 106.629 256 C 106.569 238.579, 107.607 230.766, 112.699 210.277 C 114.644 202.454, 115.971 195.367, 115.649 194.527 C 114.868 192.492, 112.664 192.593, 110.786 194.750 M 396.176 194.288 C 395.284 195.363, 395.817 198.029, 398.537 206.088 C 404.898 224.937, 406.380 234.179, 406.380 255 C 406.380 275.440, 404.807 285.591, 398.992 302.686 C 395.574 312.737, 395.373 314.545, 397.582 315.393 C 400.925 316.676, 402.189 315.828, 404.500 310.750 C 416.149 285.153, 418.192 244.614, 409.475 212 C 406.018 199.068, 403.230 193.585, 399.914 193.199 C 398.492 193.034, 396.810 193.524, 396.176 194.288 M 123.589 199.902 C 121.133 202.615, 117.514 213.930, 115.559 225 C 111.600 247.426, 112.781 275.361, 118.644 297.977 C 121.432 308.733, 123.156 312, 126.041 312 C 127.833 312, 203.527 274.619, 226.886 262.199 L 236.272 257.208 232.386 254.705 C 228.370 252.118, 179.407 224.722, 156.500 212.245 C 144.028 205.451, 128.201 198, 126.243 198 C 125.730 198, 124.535 198.856, 123.589 199.902 M 360.869 209.887 C 348.016 216.425, 331.846 224.862, 324.936 228.637 C 287.705 248.974, 276.021 255.575, 276.011 256.275 C 276.005 256.702, 279.291 258.550, 283.314 260.384 C 287.337 262.217, 295.549 266.434, 301.564 269.756 C 327.817 284.255, 383.315 311, 387.148 311 C 389.796 311, 391.535 307.647, 394.413 296.994 C 402.853 265.752, 401.619 225.322, 391.555 203.340 C 389.576 199.017, 388.647 198, 386.675 198 C 385.335 198, 373.723 203.349, 360.869 209.887 M 373.861 245.912 C 371.909 247.492, 371.500 248.756, 371.500 253.206 C 371.500 259.953, 373.859 264.007, 377.773 263.985 C 382.758 263.957, 385 260.710, 385 253.520 C 385 245.700, 379.099 241.670, 373.861 245.912 M 127.433 248.462 C 125.133 251.972, 125.855 261.410, 128.584 263.514 C 131.496 265.759, 136.954 264.967, 139.177 261.976 C 140.717 259.905, 140.866 258.914, 140.009 256.455 C 138.659 252.584, 135.408 250.417, 133.422 252.065 C 131.255 253.863, 131.590 256.920, 133.887 256.319 C 136.373 255.669, 137.369 257.442, 135.979 260.040 C 133.287 265.070, 129.809 259.367, 130.865 251.656 C 131.244 248.892, 131.381 248.830, 135.715 249.480 C 139.680 250.075, 140.137 249.946, 139.828 248.324 C 139.555 246.887, 138.381 246.436, 134.297 246.200 C 129.671 245.932, 128.931 246.176, 127.433 248.462 M 376.198 254.241 C 376.425 258.181, 376.913 259.560, 378.165 259.798 C 380.304 260.204, 381.384 256.861, 380.550 252.413 C 380.074 249.875, 379.395 249, 377.902 249 C 376.110 249, 375.928 249.560, 376.198 254.241 M 282 273.474 C 282 274.315, 296.826 291.403, 308.604 304.137 C 318.998 315.376, 324.780 323.620, 323.304 325.096 C 322.602 325.798, 318.357 322.700, 309.889 315.307 C 303.075 309.358, 292.775 300.690, 287 296.044 C 281.225 291.398, 273.125 284.675, 269 281.105 L 261.500 274.615 260.887 307.057 C 259.789 365.203, 259.887 402.812, 261.140 403.586 C 262.922 404.688, 273.576 404.121, 284 402.370 C 301.677 399.401, 319.642 392.260, 335.500 381.899 C 345.442 375.403, 365.970 355.061, 372.242 345.489 C 379.534 334.360, 385.323 322.594, 384.611 320.349 C 384.241 319.182, 381.237 317.075, 377.243 315.179 C 372.333 312.848, 294.867 278.355, 283.250 273.327 C 282.563 273.029, 282 273.096, 282 273.474 M 231.459 275.067 C 230.370 276.829, 231.518 277.076, 233.573 275.521 C 235.265 274.241, 235.294 274.060, 233.809 274.032 C 232.879 274.014, 231.821 274.480, 231.459 275.067 M 220.500 278.170 C 191.756 289.472, 130.618 317.317, 128.254 320.184 C 127.227 321.429, 127.866 323.434, 131.891 331.597 C 141.704 351.501, 156.253 368.069, 174.706 380.353 C 195.638 394.288, 224.128 404, 244.075 404 C 249.982 404, 251.083 403.714, 252.037 401.932 C 252.845 400.421, 252.849 389.707, 252.051 362.182 C 251.450 341.457, 250.671 313.813, 250.321 300.750 C 249.970 287.688, 249.322 277, 248.881 277 C 247.913 277, 194.680 317.117, 190.703 320.844 C 188.349 323.049, 187.757 323.230, 186.968 321.982 C 186.452 321.167, 186.024 320.094, 186.015 319.599 C 186.007 319.103, 195 309.598, 206 298.475 C 217 287.353, 226 277.746, 226 277.127 C 226 276.507, 225.887 276.046, 225.750 276.102 C 225.613 276.159, 223.250 277.089, 220.500 278.170 M 34.582 322.750 C 37.113 336.852, 42.748 348.203, 54.065 362 C 57.900 366.675, 62.941 373.128, 65.269 376.340 L 69.500 382.180 69.804 377.606 C 70.205 371.571, 67.945 366.746, 59.319 355.226 C 55.500 350.125, 50.003 341.519, 47.104 336.102 C 41.779 326.152, 36.668 319, 34.882 319 C 34.305 319, 34.183 320.526, 34.582 322.750 M 116.667 324.667 C 115.170 326.164, 116.257 328.983, 121.250 336.546 L 126.500 344.500 126.241 358.838 L 125.982 373.176 132.741 380.205 C 160.816 409.403, 204.077 430.214, 241.750 432.643 L 252 433.304 252.177 429.902 C 252.477 424.138, 251.842 413.537, 251.153 412.820 C 250.794 412.445, 245.211 411.651, 238.747 411.055 C 218.376 409.177, 204.154 405.396, 187.336 397.390 C 158.416 383.623, 136.539 361.346, 124.938 333.852 C 121.963 326.802, 120.290 324, 119.057 324 C 118.109 324, 117.033 324.300, 116.667 324.667 M 54 329.963 C 54 334.492, 57.297 341.891, 63.898 352.172 C 72.315 365.283, 72.434 365.390, 72.810 360.176 C 73.365 352.499, 67.899 340.788, 59.064 330.726 C 55.113 326.226, 54 326.058, 54 329.963 M 348.023 351.462 L 345.884 354.924 349.192 357.933 C 354.744 362.982, 355.972 361.513, 354.358 351.750 C 353.554 346.884, 350.927 346.765, 348.023 351.462 M 160.500 350.386 C 156.010 352.343, 154.766 354.255, 155.954 357.378 C 156.502 358.820, 157.471 360, 158.107 360 C 159.927 360, 168.247 351.209, 167.528 350.045 C 166.673 348.662, 164.178 348.783, 160.500 350.386 M 309.382 356.348 C 307.082 358.326, 306.641 359.520, 306.576 363.933 C 306.510 368.480, 306.870 369.489, 309.306 371.585 C 310.849 372.913, 312.986 374, 314.056 374 C 318.891 374, 321.926 366.069, 318.429 362.571 C 316.575 360.717, 316.798 360.746, 313.613 361.957 C 311.291 362.840, 311.161 362.743, 311.936 360.707 C 312.574 359.029, 313.522 358.535, 315.888 358.647 C 319.131 358.801, 319.941 357.341, 317.800 355.200 C 315.907 353.307, 312.353 353.792, 309.382 356.348 M 199.611 356.532 C 197.385 358.758, 196.623 364.328, 197.981 368.442 C 199.874 374.177, 205.227 375.820, 208.961 371.811 C 211.816 368.747, 211.839 359.839, 209 357 C 206.625 354.625, 201.760 354.383, 199.611 356.532 M 202.434 360.312 C 201.339 363.165, 202.419 369.500, 204 369.500 C 205.130 369.500, 205.500 368.287, 205.500 364.583 C 205.500 359.741, 203.645 357.156, 202.434 360.312 M 174.939 366.061 C 172.604 368.396, 172.700 370.782, 175.191 372.351 C 177.138 373.577, 180.499 371.153, 181.581 367.743 C 182.781 363.963, 178.198 362.802, 174.939 366.061 M 312.688 364.646 C 312.309 365.024, 312 366.416, 312 367.740 C 312 369.494, 312.475 370.055, 313.750 369.810 C 314.838 369.600, 315.500 368.563, 315.500 367.070 C 315.500 364.664, 313.980 363.354, 312.688 364.646 M 333 365.850 C 333 367.600, 339.071 375, 340.506 375 C 342.516 375, 342.406 371.496, 340.284 367.904 C 339.044 365.805, 337.797 365, 335.784 365 C 334.253 365, 333 365.382, 333 365.850" stroke="none" fill="black" fill-rule="evenodd"/>
</svg>