<svg xmlns="http://www.w3.org/2000/svg" width="512" height="512" viewBox="0 0 512 512" version="1.1">
	<path d="M 227.500 15.026 C 195.537 18.640, 169.787 30.961, 147.361 53.370 C 123.015 77.697, 108.984 108.407, 105.965 143.971 C 104.119 165.717, 106.602 182.357, 115.059 204.922 C 119.854 217.716, 119.984 217.171, 110.815 222.723 C 107.621 224.657, 103.295 226.263, 99.996 226.739 L 94.500 227.533 100 229.987 C 104.511 231.999, 107.389 232.488, 116 232.704 C 121.775 232.849, 126.775 232.975, 127.111 232.984 C 128.086 233.010, 139.726 256.953, 141.702 263 C 145.906 275.862, 143.006 292.276, 135.339 299.007 C 127.703 305.712, 115.297 300.398, 111.868 288.955 C 110.396 284.041, 108.520 283.895, 106.975 288.575 C 104.571 295.859, 108.606 308.539, 115.530 315.464 C 120.334 320.267, 125.727 322.649, 135.089 324.100 C 145.418 325.702, 145.932 325.892, 143.549 327.230 C 142.476 327.832, 139.101 329.069, 136.049 329.979 L 130.500 331.633 137 333.933 C 145.923 337.091, 169.117 337.991, 179.397 335.579 C 183.190 334.689, 186.489 334.155, 186.727 334.394 C 187.370 335.037, 184.073 347.327, 182.959 348.441 C 182.347 349.053, 181.566 348.966, 180.800 348.200 C 180.140 347.540, 179.050 347, 178.378 347 C 177.706 347, 174.418 352.630, 171.072 359.512 C 165.963 370.022, 163.870 373.164, 157.995 379.145 C 153.642 383.576, 151 387.090, 151 388.450 C 151 390.070, 145.887 394.881, 131.250 407.035 C 111.043 423.815, 96 437.724, 96 439.630 C 96 440.852, 117.453 449.940, 142.781 459.448 C 175.674 471.795, 206.751 481.138, 232.500 486.421 C 255.007 491.039, 275 493.294, 275 491.215 C 275 490.783, 271.570 484.377, 267.377 476.980 C 263.184 469.583, 257.712 459.421, 255.217 454.398 L 250.680 445.264 254.552 440.632 C 256.681 438.084, 259.153 436, 260.045 436 C 260.937 436, 265.037 437.776, 269.157 439.946 C 276.624 443.881, 276.656 443.887, 279.581 442.108 C 281.195 441.127, 283.772 438.676, 285.309 436.662 C 286.845 434.648, 288.666 433, 289.355 433 C 290.807 433, 296.264 438.530, 297.827 441.586 C 298.415 442.734, 300.748 451.059, 303.013 460.086 C 305.278 469.114, 307.520 476.895, 307.994 477.379 C 309.641 479.056, 337.327 461.723, 353.954 448.605 C 358.603 444.937, 363.441 441.677, 364.704 441.360 C 366.049 441.022, 367 440.028, 367 438.960 C 367 436.238, 354.591 412.074, 350.955 407.716 C 347.263 403.291, 341.756 400.343, 330 396.500 C 310.236 390.039, 303.907 384.629, 299.016 370.017 C 296.700 363.097, 296.103 362.244, 291.500 359.279 C 283.149 353.900, 282.417 353.253, 283.500 352.212 C 284.137 351.600, 287.406 351.593, 292.500 352.194 C 302.036 353.317, 313.625 352.541, 320.442 350.321 C 327.657 347.972, 334.079 341.185, 336.357 333.500 C 339.672 322.317, 341.310 318.521, 347.787 307 C 365.565 275.381, 365.315 276.200, 364.385 252.449 C 363.575 231.794, 363.795 231.082, 370.793 231.754 C 374.249 232.086, 376.663 231.706, 379.084 230.450 C 382.703 228.572, 382.665 228.527, 376.621 227.512 L 372.742 226.861 375.889 223.615 C 379.657 219.727, 379.026 218.544, 374.251 220.540 C 372.329 221.343, 370.579 222, 370.364 222 C 370.148 222, 371.075 220.313, 372.423 218.250 C 373.771 216.188, 375.809 210.801, 376.951 206.281 C 378.093 201.760, 380.654 195.285, 382.642 191.892 C 392.508 175.060, 395.591 164.852, 394.621 152.237 C 391.691 114.119, 371.400 78.360, 336.750 50.251 C 333.038 47.239, 330 44.142, 330 43.369 C 330 41.538, 313.745 30.888, 303.508 26.011 C 287.985 18.616, 271.830 15.182, 249.500 14.530 C 241.800 14.305, 231.900 14.528, 227.500 15.026 M 233.639 32.936 C 229.065 34.776, 224.558 37.892, 225.340 38.674 C 225.534 38.868, 227.381 38.321, 229.445 37.459 C 236.224 34.626, 236.291 36.402, 229.571 40.811 C 225.957 43.183, 223 45.545, 223 46.061 C 223 46.578, 223.113 47, 223.250 46.999 C 224.140 46.998, 234.701 42.657, 235.577 41.933 C 236.169 41.443, 238.419 40.344, 240.577 39.490 C 243.950 38.154, 244.219 38.147, 242.500 39.437 C 230.581 48.381, 224.021 56.467, 230.250 54.536 C 231.488 54.152, 233.625 53.598, 235 53.304 C 236.375 53.010, 238.946 51.134, 240.712 49.135 C 243.082 46.454, 243.935 45.959, 243.962 47.247 C 244.061 51.854, 226.972 65.880, 212.911 72.731 C 202.177 77.962, 194.589 80.489, 183.424 82.554 C 172.388 84.596, 170.500 85.290, 174.709 85.761 C 179.912 86.344, 195.168 83.279, 206.220 79.432 C 221.057 74.266, 221.126 74.265, 215.906 79.177 C 208.015 86.601, 188.216 96.326, 176.750 98.409 C 174.688 98.784, 173 99.573, 173 100.163 C 173 101.689, 186.499 100.286, 195.368 97.839 C 199.291 96.757, 206.663 93.903, 211.752 91.498 C 218.703 88.213, 220.764 87.573, 220.040 88.925 C 218.518 91.770, 212.628 96.553, 205.551 100.691 C 201.969 102.786, 199.030 104.801, 199.019 105.169 C 198.987 106.290, 206.134 103.998, 212.784 100.756 C 219.638 97.414, 227.697 90.879, 229.031 87.582 C 229.755 85.793, 229.882 85.945, 229.937 88.666 C 230.068 95.226, 216.040 112.372, 203.460 121.028 C 187.362 132.103, 168.415 134.609, 154.759 127.469 C 148.064 123.968, 149.187 126.517, 156.054 130.406 C 161.067 133.245, 162.382 133.519, 172.596 133.848 C 189.515 134.394, 201.406 130.531, 218.683 118.875 C 227.925 112.640, 242.290 98.956, 249.569 89.453 C 252.709 85.354, 255.673 82, 256.158 82 C 258.399 82, 252.421 96.621, 246.895 104.652 C 242.039 111.711, 230.272 123.709, 223.504 128.503 C 216.211 133.669, 210.574 136.572, 202 139.575 C 196.569 141.477, 196.017 141.863, 198.645 141.926 C 202.996 142.029, 214.149 138.470, 222.420 134.340 C 233.363 128.876, 243.406 121.398, 252.013 112.305 C 264.799 98.797, 271.971 84.964, 274.593 68.752 C 275.997 60.071, 276.166 59.708, 281.017 54.983 C 286.360 49.779, 287.792 46.596, 283.535 49.385 C 280.096 51.638, 279.569 51.461, 278.167 47.586 C 276.401 42.701, 271.486 38.215, 264 34.654 C 258.390 31.986, 256.199 31.523, 248 31.272 C 240.410 31.039, 237.523 31.373, 233.639 32.936 M 254.971 42.250 C 250.829 44.343, 246.818 49.151, 248.124 50.458 C 248.438 50.772, 251.271 49.850, 254.419 48.409 C 259.331 46.160, 261.194 45.842, 267.571 46.164 C 271.657 46.370, 275 46.262, 275 45.924 C 275 43.677, 266.634 40.020, 261.462 40.006 C 260.341 40.003, 257.420 41.013, 254.971 42.250 M 262.314 51.950 C 258.632 54.195, 257 56.801, 257 60.434 C 257 63.700, 257.743 63.658, 262.022 60.146 C 267.241 55.863, 271.888 53.755, 274.608 54.438 C 276.326 54.869, 277 54.620, 277 53.554 C 277 49.791, 267.548 48.759, 262.314 51.950 M 284.042 66.570 C 281.725 69.084, 278.539 73.922, 276.961 77.320 C 273.633 84.493, 268.989 100.024, 269.025 103.862 C 269.050 106.474, 269.087 106.460, 272.777 102.500 C 274.826 100.300, 277.246 97.375, 278.154 96 C 279.705 93.650, 279.718 93.879, 278.366 99.821 C 275.175 113.841, 268.052 129.328, 258.276 143.500 L 254.827 148.500 260.008 143 C 271.870 130.405, 281.297 113.369, 284.941 97.940 C 286.610 90.871, 290 67.648, 290 63.280 C 290 60.993, 288.335 61.913, 284.042 66.570 M 304 69.485 C 304 71.518, 317.495 90.816, 327.695 103.368 C 331.589 108.161, 334.746 113.315, 336.195 117.246 L 338.500 123.500 338.810 119.758 C 339.618 109.995, 332.174 94.205, 320.843 81.651 C 314.164 74.250, 304 66.909, 304 69.485 M 337.057 85.637 C 342.959 92.177, 347.190 98.967, 349.053 104.889 L 350.818 110.500 350.887 106 C 350.925 103.525, 350.111 99.638, 349.078 97.363 C 346.755 92.248, 340.673 85.399, 336.575 83.283 L 333.500 81.695 337.057 85.637 M 304 84.919 C 304 85.425, 304.732 88.687, 305.627 92.169 C 307.745 100.411, 307.005 114.788, 303.963 124.500 C 298.395 142.276, 288.362 156.722, 272.500 169.800 L 268.500 173.098 272 171.433 C 277.152 168.983, 288.623 160.146, 295.653 153.212 C 309.633 139.422, 316.550 123.777, 316.305 106.500 C 316.176 97.373, 314.180 90.841, 310.274 86.764 C 307.728 84.107, 304 83.010, 304 84.919 M 294.332 161.356 C 285.326 170.408, 274.226 178.433, 261.711 184.941 C 252.353 189.807, 252.130 190, 255.855 190 C 267.609 190, 297.387 199.942, 301.892 205.370 C 303.784 207.650, 302.834 210.450, 300.034 210.847 C 296.536 211.342, 291.009 209.538, 278.833 203.926 C 272.966 201.222, 265.237 198.330, 261.657 197.500 C 255.591 196.093, 254.414 196.130, 244.324 198.045 C 238.371 199.174, 232.656 200.350, 231.625 200.656 C 227.933 201.755, 231.200 198.800, 236.379 196.357 C 239.196 195.028, 240.375 194.140, 239 194.383 C 237.625 194.625, 232.675 195.536, 228 196.407 C 223.325 197.278, 217.892 198.223, 215.926 198.508 C 212.372 199.022, 212.322 199.099, 207.024 212.262 C 200.605 228.212, 200.016 232.373, 203.036 240.400 C 205.991 248.254, 216.805 259.332, 225.910 263.832 C 229.435 265.574, 233.148 267, 234.160 267 C 237.877 267, 235.862 268.898, 231.441 269.561 C 225.611 270.435, 216.449 269.396, 208.682 266.978 C 205.329 265.935, 202.356 265.311, 202.074 265.593 C 200.865 266.802, 207.738 283.716, 212.201 290.515 C 221.324 304.412, 241.476 320.470, 264.075 331.850 C 282.087 340.921, 291.041 343.393, 306 343.424 C 323.892 343.460, 328.050 340.205, 332.599 322.601 C 333.980 317.258, 337.668 309.854, 351.615 284.426 C 356.933 274.732, 358.285 266.927, 357.452 250.750 C 357.055 243.046, 356.318 237, 355.776 237 C 355.244 237, 353.536 237.752, 351.981 238.670 C 349.253 240.282, 348.940 240.239, 343.082 237.457 C 336.037 234.111, 336.800 232.610, 345.266 233.164 C 350.298 233.493, 350.421 233.434, 351.340 230.270 C 353.173 223.956, 347.180 221.561, 343.158 227 C 340.580 230.488, 338.050 230.818, 335.500 227.999 L 333.689 225.999 332.288 227.999 C 329.867 231.456, 329.041 230.186, 330.501 225.250 C 331.480 221.938, 333.247 219.272, 336.336 216.443 C 341.337 211.864, 346.392 210, 353.807 210 C 356.598 210, 359.160 209.550, 359.500 209 C 359.840 208.450, 360.766 208, 361.559 208 C 362.600 208, 363 209.249, 363 212.500 C 363 217.633, 364.427 218.307, 367.759 214.750 C 370.459 211.868, 372 207.771, 372 203.475 C 372 200.392, 371.640 199.972, 368.074 198.904 C 364.222 197.750, 363.964 197.841, 354.324 203.754 C 342.765 210.844, 340.747 211.605, 339.019 209.523 C 337.250 207.392, 338.604 206.024, 347.555 200.903 C 351.650 198.560, 354.996 196.386, 354.991 196.072 C 354.986 195.757, 351.048 193.701, 346.241 191.503 C 329.411 183.806, 316.328 173.638, 306.841 160.880 C 304.027 157.096, 301.674 154.034, 301.613 154.075 C 301.551 154.117, 298.274 157.393, 294.332 161.356 M 138.500 164.616 C 140.700 166.559, 146.100 169.904, 150.500 172.050 C 175.980 184.476, 204.807 183.266, 227.139 168.831 C 230.489 166.667, 233.027 164.693, 232.780 164.446 C 232.532 164.199, 228.311 166.006, 223.398 168.462 C 210.299 175.010, 199.500 177.422, 183.500 177.373 C 172.350 177.339, 169.413 176.974, 162.861 174.808 C 155.369 172.331, 138.662 163.880, 137.481 161.970 C 137.152 161.436, 136.346 161.019, 135.691 161.042 C 135.036 161.065, 136.300 162.673, 138.500 164.616 M 173 187.059 C 173 188.237, 184.136 190.003, 190.917 189.900 C 201.779 189.736, 203.847 188.227, 193.500 188.015 C 188.550 187.914, 181.912 187.508, 178.750 187.113 C 175.588 186.718, 173 186.694, 173 187.059 M 177.500 210.642 C 167.473 217.230, 159.313 220.742, 145.035 224.615 C 134.373 227.507, 133.333 227.953, 138.077 227.598 C 150.699 226.653, 164.735 221.659, 175.637 214.235 C 180.693 210.792, 186.151 205.956, 184.905 206.021 C 184.682 206.033, 181.350 208.112, 177.500 210.642 M 258.596 211.745 C 253.736 213.017, 252.088 213.072, 249.271 212.054 C 245.208 210.584, 244.044 211.286, 246.339 213.823 C 247.253 214.832, 248 215.960, 248 216.329 C 248 216.698, 245.300 217, 242 217 C 235.817 217, 234.512 218.054, 238 220.232 C 241.406 222.359, 240.233 223.045, 234.366 222.355 C 227.493 221.547, 227.226 223.366, 233.759 226.500 C 238.465 228.758, 239.225 229.957, 235.500 229.245 C 231.265 228.435, 232.718 230.771, 237.940 233.167 C 240.657 234.413, 243.090 236.236, 243.346 237.217 C 243.603 238.197, 244.718 239, 245.825 239 C 246.931 239, 248.568 239.281, 249.461 239.624 C 250.949 240.195, 250.943 240.405, 249.388 242.124 C 247.758 243.924, 247.829 244, 251.145 244 C 253.045 244, 255.117 244.517, 255.749 245.149 C 256.614 246.014, 257.519 245.890, 259.413 244.649 C 260.797 243.742, 263.645 243, 265.742 243 C 267.839 243, 270.561 242.295, 271.791 241.434 C 274.363 239.632, 277.431 234.006, 278.473 229.178 L 279.190 225.857 283.345 232.127 C 288.161 239.394, 290.599 241.045, 288.807 235.825 C 288.179 233.996, 286.683 230.925, 285.483 229 C 284.283 227.075, 282.500 223.948, 281.522 222.051 L 279.742 218.601 282.621 220.430 C 284.205 221.436, 286.738 223.410, 288.250 224.817 C 290.848 227.233, 291 227.262, 291 225.335 C 291 222.463, 287.062 216.958, 283.094 214.284 C 276.427 209.792, 268.995 209.021, 258.596 211.745 M 252 226 C 249.704 228.296, 249.571 229.470, 251.105 233.872 C 252.640 238.275, 254.589 238.998, 263.099 238.318 C 272.421 237.574, 273.645 236.918, 275.162 231.853 C 276.314 228.007, 276.244 227.616, 274.087 225.869 C 270.499 222.964, 268.388 223.576, 265 228.500 C 260.543 234.978, 256 234.002, 256 226.566 C 256 223.484, 254.700 223.300, 252 226 M 353.258 230.062 C 351.347 234.586, 351.299 235.090, 352.810 234.809 C 355.958 234.223, 359.044 225, 356.091 225 C 355.709 225, 354.435 227.278, 353.258 230.062 M 172.667 230.667 C 170.772 232.561, 174.737 243.892, 178.338 246.870 C 179.731 248.023, 179.676 247.522, 177.990 243.710 C 176.888 241.219, 175.703 237.115, 175.357 234.591 C 174.753 230.181, 174.102 229.231, 172.667 230.667 M 147 237.446 C 147 239.672, 154.393 253.445, 158.100 258.126 C 165.243 267.145, 175.461 270.571, 181.365 265.927 C 185.004 263.065, 184.678 260.563, 179.849 254.304 C 171.797 243.867, 165.873 241.212, 162.415 246.489 C 160.342 249.654, 159.210 249.015, 154.002 241.742 C 150.067 236.248, 147 234.366, 147 237.446 M 334.593 276.168 C 333.305 276.916, 328.989 277.054, 321.286 276.593 C 313.165 276.108, 308.896 276.270, 306.443 277.157 C 302.746 278.494, 302.563 278.762, 303.908 280.885 C 304.491 281.805, 305.666 282.050, 307.408 281.612 C 309.100 281.188, 312.624 281.849, 317.341 283.477 C 321.361 284.865, 325.979 286, 327.603 286 C 332.483 286, 337.909 281.420, 337.968 277.250 C 338.004 274.744, 337.387 274.546, 334.593 276.168 M 328.401 298.020 C 325.674 299.767, 324.652 299.882, 319.901 298.980 C 316.930 298.416, 313.150 298.250, 311.500 298.612 C 309.850 298.974, 301.975 299.551, 294 299.894 L 279.500 300.517 289.753 307.335 C 295.392 311.085, 302.469 315.019, 305.478 316.077 C 315.210 319.497, 324.811 318.227, 329.654 312.879 C 331.710 310.609, 337 299.195, 337 297.030 C 337 295.302, 331.688 295.914, 328.401 298.020 M 201.662 309.488 C 200.882 322.235, 198.931 332.093, 194.416 346.095 C 192.537 351.922, 191 357.237, 191 357.905 C 191 361.278, 208.329 376.451, 222.500 385.487 C 237.249 394.891, 269.089 412, 271.841 412 C 272.957 412, 277.007 398.389, 277.003 394.654 C 277.001 393.089, 276.260 389.264, 275.355 386.154 C 274 381.497, 273.818 377.743, 274.323 364.872 L 274.937 349.245 267.371 346.486 C 252.086 340.911, 229.681 325.543, 212.402 308.782 L 202.305 298.987 201.662 309.488 M 305 306.904 L 301.500 307.545 305 308.821 C 310.877 310.964, 320.193 311.413, 322.500 309.665 C 324.459 308.181, 324.442 308.127, 321.685 307.075 C 318.685 305.930, 310.764 305.849, 305 306.904 M 292.359 399.362 C 288.586 403.422, 284.727 408.085, 283.782 409.722 L 282.064 412.700 286.860 412.239 C 291.642 411.780, 291.671 411.796, 296.503 417.452 C 300.423 422.041, 303.086 423.957, 310.425 427.471 C 321.222 432.641, 326.704 434.629, 327.624 433.709 C 327.995 433.339, 326.410 430.665, 324.102 427.768 C 317.504 419.485, 306.415 403.932, 302.651 397.680 L 299.217 391.979 292.359 399.362 M 246.580 429.750 C 241.312 438.962, 235.830 448.413, 234.399 450.750 C 232.968 453.087, 232.247 455, 232.798 455 C 235.248 455, 254.414 431.288, 260.412 420.837 L 263.088 416.175 260.821 414.587 C 259.575 413.714, 258.016 413, 257.357 413 C 256.699 413, 251.849 420.538, 246.580 429.750 M 274 420.084 C 270.884 420.682, 268.608 421.935, 266.600 424.158 L 263.700 427.368 267.600 428.733 C 275.946 431.655, 281.921 430.253, 284.910 424.669 C 286.041 422.555, 286.063 421.781, 285.028 420.534 C 283.641 418.863, 280.931 418.752, 274 420.084" stroke="none" fill="black" fill-rule="evenodd"/>
</svg>