<svg xmlns="http://www.w3.org/2000/svg" width="512" height="512" viewBox="0 0 512 512" version="1.1">
	<path d="M 232.500 58.697 C 220.626 59.769, 218.101 60.856, 211.136 67.902 C 204.240 74.878, 201.454 76.487, 186.618 82.055 C 172.554 87.333, 164.909 95.736, 159.372 112 C 157.863 116.432, 157.514 120.315, 157.574 132 C 157.637 144.571, 158.078 148.403, 160.886 160.805 C 162.668 168.673, 163.985 175.815, 163.813 176.676 C 163.641 177.537, 161.967 178.750, 160.094 179.371 C 154.406 181.256, 152.495 184.908, 152.531 193.825 C 152.567 202.730, 154.700 208.087, 164.547 224 C 172.273 236.486, 176.703 241.145, 183.933 244.390 C 190.992 247.557, 191.029 247.642, 193.953 267.173 C 196.533 284.406, 196.526 285.290, 193.796 286.513 C 192.584 287.056, 189.097 291.187, 186.046 295.694 C 173.562 314.138, 167.313 319.372, 140 334.258 C 78.873 367.573, 67.307 374.839, 61.401 383.628 C 55.910 391.800, 47.437 411.883, 48.661 413.824 C 49.608 415.326, 101.944 441.039, 142.823 460.087 L 166.146 470.954 194.667 470.314 C 216.791 469.818, 223.301 469.380, 223.690 468.365 C 223.967 467.644, 221.924 459.505, 219.150 450.278 C 200.353 387.741, 189.862 349.690, 188.607 339.500 C 187.994 334.528, 188.001 334.514, 189.745 336.943 C 191.479 339.357, 211.522 366.111, 219.942 377.250 C 222.332 380.413, 224.878 383, 225.599 383 C 227.078 383, 239.858 365.508, 242.600 359.731 C 243.583 357.659, 244.863 356.114, 245.444 356.299 C 247.263 356.879, 252.969 366.316, 253.629 369.838 C 254.145 372.584, 253.327 375.154, 249.174 383.850 C 240.804 401.373, 238.374 414.991, 239.346 438.940 C 239.907 452.781, 240.575 458.629, 242.541 466.893 L 243.110 469.287 275.305 468.568 C 293.012 468.172, 307.868 467.492, 308.318 467.057 C 309.334 466.073, 306.645 444.953, 303.866 432.086 C 299.071 409.886, 293.410 396.575, 282.867 382.713 L 275.860 373.500 276.508 368.199 C 277.373 361.131, 279.282 354.739, 280.668 354.277 C 281.286 354.071, 284.638 357.412, 288.117 361.701 C 296.745 372.339, 305.037 381, 306.593 381 C 308.610 381, 308.858 380.118, 311.361 364.066 C 312.658 355.751, 313.965 348.701, 314.267 348.400 C 315.773 346.893, 322.759 378.512, 325.888 401 C 328.142 417.196, 329.936 439.895, 330.275 456.500 L 330.500 467.500 364.500 467.123 C 383.200 466.915, 399.234 466.366, 400.130 465.901 C 401.246 465.324, 401.974 463.066, 402.437 458.747 C 402.808 455.276, 403.425 451.934, 403.806 451.321 C 404.188 450.708, 413.500 444.276, 424.500 437.026 C 435.500 429.777, 445.092 423.273, 445.815 422.573 C 446.897 421.524, 446.080 418.122, 441.189 403.327 C 437.922 393.442, 434.096 383.528, 432.686 381.295 C 428.477 374.627, 422.602 370.705, 396.944 357.433 C 354.205 335.327, 330.626 322.774, 326.260 319.803 C 321.989 316.897, 321.002 315.788, 312.279 304.095 C 309.650 300.573, 307.112 297.180, 306.638 296.556 C 306.103 295.852, 306.939 293.589, 308.839 290.592 C 310.908 287.331, 312.726 282.149, 314.439 274.631 C 317.815 259.813, 324.786 219.881, 326.071 208 C 327.376 195.924, 327.369 195.948, 332.604 186.912 C 335.022 182.739, 337 178.671, 337 177.874 C 337 177.076, 336.100 174.658, 335 172.500 C 332.437 167.473, 332.475 166.477, 335.608 156.428 C 337.995 148.773, 338.122 147.522, 337.108 141.699 C 336.499 138.200, 336 133.242, 336 130.682 C 336 126.379, 336.294 125.834, 339.909 123.442 C 345.395 119.811, 346.726 116.190, 344.611 110.652 C 343.706 108.281, 341.846 104.824, 340.478 102.971 C 339.111 101.117, 338.227 98.861, 338.514 97.957 C 339.429 95.073, 335.050 91.058, 326.152 86.620 C 321.393 84.247, 313.900 79.949, 309.500 77.067 C 294.859 67.480, 279.957 61.448, 265 59.055 C 258.903 58.080, 241.471 57.888, 232.500 58.697 M 208.630 99.250 C 208.299 100.487, 208.021 102.489, 208.014 103.698 C 207.986 108.141, 202.852 122.016, 199.325 127.182 L 195.694 132.500 195.597 148 C 195.500 163.467, 195.493 163.516, 192.081 170.795 C 189.136 177.079, 188.859 178.283, 190.081 179.475 C 191.385 180.747, 213.108 190, 214.791 190 C 215.195 190, 215.970 188.989, 216.513 187.754 C 217.056 186.519, 218.850 184.863, 220.500 184.074 C 224.475 182.173, 243.164 181.414, 248.753 182.927 C 253.753 184.281, 256.529 187.758, 255.591 191.493 C 254.838 194.494, 252.481 194.767, 251.012 192.023 C 250.430 190.936, 249.002 189.536, 247.838 188.913 C 246.010 187.935, 245.406 188.186, 243.391 190.759 C 240.755 194.128, 236.691 195.294, 230.845 194.359 C 227.507 193.825, 226.807 193.284, 226.323 190.864 C 226.008 189.289, 225.563 188, 225.335 188 C 225.107 188, 223.133 188.912, 220.948 190.027 C 217.593 191.738, 217.068 192.421, 217.569 194.418 C 217.895 195.718, 217.663 197.090, 217.053 197.467 C 216.442 197.845, 210.299 195.869, 203.400 193.077 C 196.501 190.284, 190.387 188, 189.813 188 C 188.500 188, 189.334 195.269, 192.561 211.965 C 193.913 218.960, 194.592 224.808, 194.107 225.293 C 193.632 225.768, 191.951 226.009, 190.372 225.828 C 186.318 225.365, 183.010 218.134, 181.789 207.064 C 181.277 202.424, 180.203 197.359, 179.401 195.809 C 177.547 192.223, 171.338 188.091, 166.664 187.333 C 163.371 186.798, 162.948 187.003, 161.944 189.623 C 159.570 195.815, 165.971 213.199, 175.588 226.675 C 181.245 234.604, 186.050 238, 191.610 238 C 193.980 238, 196.262 238.611, 196.939 239.426 C 197.590 240.211, 199.450 247.224, 201.071 255.011 C 202.693 262.797, 204.457 269.985, 204.990 270.982 C 206.881 274.514, 214.876 280.596, 227.638 288.209 C 248.564 300.693, 248.017 300.517, 265.500 300.400 C 284.526 300.273, 290.899 298.990, 296.171 294.227 C 300.550 290.270, 303.181 285.756, 304.962 279.141 C 307.497 269.728, 317.912 213.876, 318.976 203.988 C 319.818 196.171, 320.856 191.880, 323.053 187.138 C 324.674 183.638, 326 179.936, 326 178.911 C 326 176.038, 321.406 173.611, 316.137 173.700 C 309.223 173.817, 293.541 180.844, 288.692 185.999 C 285.074 189.845, 284.918 190.282, 285.558 194.773 C 285.928 197.373, 287.754 205.455, 289.616 212.734 C 291.477 220.013, 293 227.484, 293 229.336 C 293 233.105, 289.879 238.294, 285.791 241.322 C 282.099 244.057, 273.592 244.692, 268.598 242.606 C 266.485 241.722, 262.898 240.993, 260.628 240.985 C 255.903 240.967, 254.775 240.402, 253.094 237.212 C 250.390 232.078, 254.934 228.396, 259.751 231.819 C 265.875 236.172, 280.238 237.604, 283.345 234.171 C 285.478 231.814, 285.430 229.520, 283.047 220.167 C 278.810 203.530, 276.078 188.723, 276.949 187.118 C 277.433 186.228, 279.195 184.199, 280.865 182.609 C 282.536 181.020, 284.173 178.488, 284.504 176.984 C 285.017 174.645, 285.713 174.177, 289.302 173.757 C 291.611 173.486, 297.962 171.349, 303.415 169.007 C 310.660 165.896, 314.788 164.715, 318.740 164.624 L 324.150 164.500 323.572 161.500 C 323.254 159.850, 322.561 153.153, 322.031 146.618 C 321.502 140.082, 320.861 134.528, 320.608 134.275 C 320.355 134.022, 317.711 134.524, 314.732 135.390 C 301.254 139.308, 281.770 138.365, 262.107 132.844 C 241.059 126.934, 227.957 118.876, 216.116 104.561 C 212.676 100.403, 209.720 97, 209.547 97 C 209.375 97, 208.962 98.013, 208.630 99.250 M 216.741 165.429 C 212.629 166.896, 211.131 167.891, 206.250 172.394 C 202.778 175.597, 202.159 178.057, 204.365 179.888 C 205.415 180.759, 207.323 180.267, 212.615 177.761 C 221.786 173.417, 230.849 173.322, 242 177.451 C 254.420 182.050, 257.472 182.576, 260.440 180.632 C 264.350 178.070, 263.802 175.226, 259.250 174.458 C 257.188 174.110, 248.961 171.615, 240.970 168.913 C 225.560 163.703, 222.722 163.295, 216.741 165.429 M 299.143 181.076 C 291.663 182.546, 290.321 184.937, 294.348 189.618 C 296.375 191.975, 297.401 192.332, 301.852 192.231 C 308.237 192.085, 309 191.627, 309 187.941 C 309 184.064, 312.049 183.965, 314.917 187.750 C 316.948 190.431, 317.038 190.451, 318.500 188.559 C 320.509 185.958, 320.390 184.390, 318 182 C 316.396 180.396, 314.761 180.022, 309.750 180.110 C 306.313 180.170, 301.540 180.605, 299.143 181.076 M 239.516 254.627 C 238.633 255.510, 238.067 256.742, 238.258 257.366 C 238.449 257.990, 243.243 261.650, 248.911 265.500 L 259.217 272.500 271.858 272.500 C 282.139 272.500, 285.115 272.164, 287.793 270.702 C 291.156 268.866, 298 259.361, 298 256.527 C 298 253.898, 293.672 252.557, 289.828 253.995 C 287.941 254.700, 278.272 255.563, 267.500 255.987 C 250.091 256.673, 248.191 256.580, 244.811 254.878 C 241.424 253.173, 240.990 253.153, 239.516 254.627 M 281.500 261.057 C 279.300 261.512, 272.550 261.929, 266.500 261.982 C 255.758 262.078, 255.570 262.118, 258.500 263.705 C 265.195 267.331, 283.704 266.194, 287.572 261.920 C 289.228 260.090, 289.221 260.005, 287.405 260.115 C 286.357 260.178, 283.700 260.602, 281.500 261.057 M 204.022 286.218 C 204.064 296.278, 207.949 301.275, 223.500 311.267 C 233.613 317.766, 255.163 330, 256.497 330 C 257.123 330, 258.446 327.413, 259.438 324.250 C 260.430 321.087, 262.312 316.377, 263.621 313.783 C 264.929 311.189, 266 308.827, 266 308.533 C 266 308.240, 262.641 308, 258.535 308 C 254.412 308, 249.019 307.304, 246.489 306.445 C 241.044 304.596, 216.701 290.507, 209.250 284.892 L 204 280.935 204.022 286.218 M 193.999 297.002 C 190.878 302.834, 188 312.517, 188 317.187 C 188 321.864, 188.587 323.196, 194.493 331.915 C 202.745 344.096, 224.269 372.256, 225.690 372.730 C 226.282 372.927, 230.024 367.106, 234.006 359.794 C 237.987 352.483, 242.675 344.475, 244.424 342 C 246.173 339.525, 247.923 336.973, 248.313 336.328 C 249.033 335.137, 245.836 333.016, 223.579 319.924 C 212.358 313.324, 202.776 305.401, 197.900 298.692 C 195.223 295.008, 195.096 294.953, 193.999 297.002 M 298.589 308.985 C 295.966 314.508, 286.793 324.526, 278.645 330.767 L 275.789 332.954 279.952 337.682 C 282.241 340.283, 286.340 346.097, 289.061 350.601 C 296.016 362.115, 303.019 371.389, 303.988 370.366 C 305.431 368.841, 307 349.420, 307 333.066 C 307 319.965, 306.648 316.071, 304.973 310.648 C 303.858 307.038, 302.593 303.866, 302.161 303.600 C 301.730 303.333, 300.122 305.756, 298.589 308.985" stroke="none" fill="black" fill-rule="evenodd"/>
</svg>