<svg xmlns="http://www.w3.org/2000/svg" width="512" height="512" viewBox="0 0 512 512" version="1.1">
	<path d="M 227.015 19.995 C 220.646 20.710, 217.443 21.877, 205.515 27.826 C 178.550 41.276, 163.026 54.959, 154.104 73.141 C 142.924 95.926, 140.709 113.220, 145.481 140.482 L 148.228 156.176 145.880 164.338 C 144.485 169.185, 143.555 175.017, 143.588 178.698 C 143.666 187.264, 148.543 196.806, 158.566 208 C 168.705 219.324, 175.498 229.028, 177.696 235.330 C 180.546 243.499, 180.038 258.213, 176.533 269 C 170.868 286.435, 167.830 291.406, 155.115 304.049 C 148.727 310.401, 136.737 321.651, 128.471 329.049 C 120.205 336.447, 107.240 348.055, 99.661 354.845 C 83.679 369.162, 78.390 375.441, 72.993 386.500 C 68.318 396.080, 66.324 403.294, 64.838 416 C 63.675 425.943, 63.545 424.511, 68.513 456.439 C 69.902 465.369, 69.904 466.834, 68.530 470.867 C 66.520 476.765, 66.589 479.738, 68.750 480.407 C 69.712 480.705, 73.830 481.643, 77.900 482.492 C 81.970 483.341, 89.845 486.007, 95.400 488.417 C 107.292 493.575, 113.090 495.310, 114.323 494.077 C 115.271 493.129, 110.093 485.608, 101.344 475.227 C 98.436 471.776, 94.873 466.933, 93.425 464.463 C 89.563 457.872, 84.942 434.045, 84.270 417.251 C 83.409 395.747, 86.367 386.033, 97.362 374.263 C 102.812 368.429, 135.027 338.428, 159.258 316.622 L 168.012 308.744 178.750 320.122 C 184.657 326.380, 194.442 336.681, 200.495 343.012 C 206.548 349.344, 215.526 359.019, 220.447 364.512 C 225.367 370.006, 239.345 384.625, 251.508 397 C 289.435 435.586, 301.839 451.313, 313.624 475.750 C 316.608 481.938, 319.376 486.999, 319.775 486.997 C 320.174 486.995, 324.550 486.296, 329.500 485.444 C 340.491 483.551, 347.120 479.546, 360.776 466.550 C 370.870 456.945, 375.027 451.142, 377.996 442.513 C 381.860 431.282, 381.827 431.220, 366.887 421.312 C 358.657 415.854, 352.897 411.290, 351.420 409.057 C 349.708 406.468, 347.970 400.001, 345.034 385.295 C 342.815 374.182, 341 363.945, 341 362.545 C 341 359.580, 342.095 359.417, 348 361.500 C 352.857 363.214, 357.602 363.453, 358.482 362.029 C 359.220 360.834, 356.960 356.344, 351.729 348.619 C 346.612 341.060, 340 326.959, 340 323.603 C 340 319.595, 343.830 320.231, 354.522 326.012 C 359.620 328.768, 367.906 332.553, 372.935 334.423 C 383.928 338.510, 387.567 341.134, 392.454 348.497 C 398.441 357.516, 404.214 371.487, 401.180 369.611 C 400.729 369.333, 399.095 365.962, 397.549 362.121 C 394.072 353.484, 389.752 348, 386.427 348 C 383.498 348, 383.503 347.892, 386.087 356 C 387.933 361.789, 388.180 365.288, 388.350 388 C 388.550 414.890, 388.406 413.928, 393.562 422.654 C 395.350 425.679, 395.356 426.030, 393.705 431.268 C 391.351 438.736, 388.216 443.062, 383.121 445.875 C 380.755 447.181, 377.950 449.656, 376.889 451.375 C 374.556 455.152, 370.271 468.742, 369.393 475.148 C 368.840 479.185, 369.011 479.869, 370.712 480.409 C 373.639 481.338, 380.046 478.703, 388.207 473.214 C 393.747 469.488, 412.822 458.986, 419.094 456.208 C 420.932 455.394, 420.848 460.060, 418.932 465.183 C 415.547 474.234, 415.774 474.395, 430.770 473.561 C 444.080 472.821, 448 471.583, 448 468.120 C 448 467.111, 445.481 459.366, 442.402 450.908 C 438.732 440.829, 436.134 431.616, 434.860 424.173 C 429.177 390.950, 417.098 359.064, 403.910 342.467 C 395.669 332.097, 388.321 327.053, 375.450 322.929 C 368.339 320.651, 341.312 309.195, 331.797 304.427 C 320.919 298.975, 320.395 296.613, 329.139 292.434 C 339.668 287.402, 341.747 282.858, 342.952 262.232 C 343.658 250.157, 344.155 247.446, 346.934 240.506 C 349.509 234.076, 350.210 230.676, 350.642 222.538 C 351.296 210.199, 353.024 203.684, 358.089 194.456 C 362.566 186.298, 362.756 184.511, 360 176.500 C 356.614 166.659, 357.222 160.291, 362.658 148.663 C 368.734 135.664, 368.833 132.518, 363.419 124.500 C 358.232 116.819, 357.780 115.606, 353.075 96.747 C 350.913 88.084, 348.004 78.503, 346.609 75.458 C 342.747 67.020, 333.910 54.005, 328.098 48.193 C 318.249 38.344, 299.152 29.181, 275.340 22.878 C 265.153 20.181, 261.476 19.702, 249 19.449 C 241.025 19.287, 231.132 19.533, 227.015 19.995 M 231 34.971 C 222.600 36.066, 216.280 38.228, 207 43.181 C 188.847 52.868, 177.086 63.254, 171.675 74.376 C 170.121 77.569, 169.070 80.404, 169.341 80.674 C 169.611 80.945, 171.423 78.679, 173.367 75.640 C 180.177 64.994, 186.915 59, 192.072 59 C 194.138 59, 194.165 59.110, 192.625 61.250 C 190.755 63.848, 187 70.664, 187 71.460 C 187 72.900, 190.186 71.440, 200.976 65.055 C 212.728 58.101, 218 55.857, 218 57.810 C 218 58.375, 216.421 59.813, 214.491 61.005 C 210.793 63.291, 206.559 69.573, 204.948 75.166 C 204.420 77, 203.514 82.550, 202.934 87.500 C 202.354 92.450, 201.662 97.400, 201.395 98.500 C 201.080 99.803, 202.306 98.946, 204.913 96.041 C 207.114 93.588, 209.233 91.899, 209.621 92.288 C 210.818 93.485, 208.075 114.508, 205.449 124.259 C 204.080 129.341, 201.971 137.169, 200.763 141.653 L 198.567 149.807 201.913 159.653 C 203.753 165.069, 206.526 174.304, 208.075 180.175 C 211.541 193.318, 214.399 199.087, 221.046 206.360 C 225.444 211.172, 225.888 212, 224.068 212 C 222.895 212, 220.320 211.325, 218.346 210.500 C 213.900 208.642, 213 208.624, 213 210.394 C 213 212.288, 220.460 240.538, 223.664 250.777 C 225.851 257.765, 226.925 259.644, 230.569 262.852 C 232.943 264.942, 237.949 267.928, 241.693 269.489 C 245.437 271.050, 255.250 275.343, 263.500 279.029 C 271.750 282.715, 280.300 286.321, 282.500 287.042 C 290.781 289.755, 317.610 287.451, 323.623 283.511 C 328.972 280.007, 331.252 269.146, 327.508 265.009 C 324.046 261.184, 314.164 260.164, 304.373 262.621 C 302.618 263.062, 302.094 262.696, 301.831 260.846 C 301.575 259.044, 300.111 257.947, 295.372 256.008 C 282.493 250.738, 282.832 250.500, 303.224 250.500 C 319.269 250.500, 321.932 250.271, 324.353 248.686 C 329.228 245.495, 327.214 244.522, 315.104 244.217 C 307.033 244.013, 300.669 244.515, 292.489 246.002 C 282.168 247.878, 280.774 247.932, 277.553 246.586 C 275.120 245.570, 274 244.456, 274 243.051 C 274 241.294, 274.630 241, 278.395 241 C 280.812 241, 285.730 240.092, 289.325 238.981 C 296.832 236.663, 307.783 235.076, 316.583 235.031 C 319.929 235.014, 322.989 234.678, 323.382 234.285 C 323.775 233.891, 322.163 231.713, 319.799 229.443 C 317.434 227.173, 314.593 223.783, 313.485 221.908 C 311.511 218.570, 311.307 218.490, 303.482 218 C 297.610 217.632, 294.471 216.895, 291.635 215.218 C 289.395 213.893, 286.991 213.185, 285.903 213.531 C 284.211 214.068, 275.131 223.828, 269.180 231.507 L 266.861 234.500 267.395 229.148 C 268.113 221.964, 271.561 216.425, 278.913 210.650 C 282.255 208.024, 286.326 203.933, 287.960 201.558 C 291.656 196.186, 295.419 194.689, 300.412 196.605 C 302.619 197.451, 301.367 199, 298.476 199 C 294.913 199, 293.399 202.434, 295.529 205.685 C 297.106 208.092, 297.534 208.198, 303.106 207.568 C 307.331 207.090, 310.715 207.378, 315.003 208.581 C 325.550 211.540, 333.019 208.422, 332.982 201.076 C 332.964 197.589, 332.222 196.018, 323.162 180.288 C 318.297 171.841, 314.452 163.391, 312.971 157.893 C 312.082 154.591, 312.244 153.237, 314.002 149.262 C 315.657 145.520, 315.952 143.461, 315.429 139.274 C 315.066 136.373, 315.099 134, 315.503 134 C 315.906 134, 317.774 135.350, 319.653 137 C 325.433 142.075, 331.189 140.841, 344.250 131.724 C 350.370 127.452, 351.016 125.865, 348.566 121.128 C 345.859 115.893, 344.862 115.663, 337.560 118.587 C 333.905 120.050, 330.667 121, 330.364 120.698 C 330.062 120.396, 332.533 117.227, 335.854 113.657 L 341.893 107.166 339.866 99.833 C 334.557 80.626, 333.940 79.148, 326.738 68.350 C 319.529 57.544, 319.466 57.483, 311.168 53.353 C 298.930 47.264, 282.993 41.201, 270.500 37.883 C 258.315 34.646, 242.454 33.477, 231 34.971 M 244.296 133.540 C 241.493 134.937, 237.098 138.326, 234.530 141.072 C 230.058 145.852, 224.480 155.946, 225.171 158.007 C 225.352 158.547, 228.124 157.409, 231.330 155.477 C 241.873 149.125, 254.035 147.380, 259.568 151.426 C 261.244 152.652, 260.769 153.091, 254.177 156.411 C 245.508 160.777, 237.975 167.847, 240.493 169.256 C 241.528 169.835, 243.744 169.594, 246.727 168.577 C 249.470 167.643, 254.716 167, 259.601 167 C 267.092 167, 268.139 166.754, 271.042 164.311 C 274.028 161.799, 274.409 161.719, 276.861 163.096 C 281.390 165.637, 280.659 167.424, 273.793 170.594 C 268.217 173.169, 266.303 173.517, 257 173.648 C 251.225 173.730, 246.050 173.864, 245.500 173.946 C 244.950 174.029, 247.200 175.495, 250.500 177.204 C 255.042 179.556, 258.229 180.425, 263.613 180.778 C 272.395 181.355, 276.692 180.027, 282.607 174.907 C 285.840 172.110, 288.035 171, 290.338 171 C 292.107 171, 294.555 170.299, 295.777 169.443 C 297.678 168.112, 298 166.965, 298 161.521 L 298 155.155 301.508 153.997 C 303.437 153.361, 305.462 152.005, 306.008 150.986 C 307.436 148.318, 307.229 142.484, 305.565 138.502 L 304.131 135.069 300.557 138.643 C 297.017 142.183, 296.912 142.214, 289.741 141.841 C 283.506 141.516, 280.966 140.736, 271.461 136.232 C 258.163 129.930, 252.639 129.382, 244.296 133.540 M 337.865 156.039 C 335.981 158.156, 334.272 159.023, 331.865 159.081 L 328.500 159.162 331.500 160.536 C 336.763 162.946, 344.008 162, 346.204 158.616 C 346.979 157.421, 343.290 152.977, 341.576 153.039 C 340.984 153.060, 339.314 154.410, 337.865 156.039 M 161.166 156.556 C 158.346 158.580, 159.030 159.310, 165.339 161.007 C 170.450 162.383, 179.336 169.523, 181.901 174.314 C 182.677 175.764, 183.832 176.618, 184.612 176.319 C 186.796 175.481, 188.139 180.652, 187.410 187.094 C 186.581 194.416, 187.270 197.099, 191.093 201.453 C 195.620 206.610, 194.761 208.504, 187.905 208.483 C 174.048 208.442, 167.707 200.107, 170.191 185.200 L 171.407 177.900 168.453 175.486 C 164.798 172.498, 163.811 172.445, 161.405 175.109 C 160.002 176.661, 159.532 178.584, 159.623 182.400 C 159.770 188.605, 162.178 193.684, 168.762 201.679 C 171.398 204.881, 175.283 209.882, 177.395 212.794 C 184.442 222.509, 191.265 225.262, 196.694 220.581 C 199.271 218.359, 199.488 217.632, 199.347 211.675 C 199.228 206.610, 198.602 204.176, 196.488 200.570 C 194.585 197.322, 193.356 193.090, 192.347 186.309 C 191.557 181.005, 189.978 174.495, 188.836 171.841 C 184.171 160.997, 167.674 151.884, 161.166 156.556 M 339.186 176.055 C 336.653 177.071, 336.644 177.040, 341.384 184.224 C 343.098 186.823, 345.239 188.960, 346.143 188.974 C 349.252 189.023, 349.999 182.833, 347.474 177.950 C 345.867 174.841, 343.539 174.309, 339.186 176.055 M 201.872 231.663 C 201.118 232.577, 198.588 234.173, 196.250 235.209 L 192 237.094 192 246.181 C 192 257.179, 193.142 261.335, 197.880 267.583 C 203.758 275.335, 214.127 282.418, 234.422 292.546 C 244.830 297.739, 253.550 301.784, 253.800 301.533 C 254.450 300.884, 248.044 285.281, 246.655 284.129 C 246.020 283.602, 242.545 282.058, 238.933 280.699 C 225.296 275.567, 218.918 270.681, 214.522 262 C 212.766 258.534, 205 232.806, 205 230.457 C 205 229.405, 203.146 230.120, 201.872 231.663 M 187.727 272.661 C 186.102 275.379, 178 296.396, 178 297.892 C 178 301.564, 186.161 311.996, 202.725 329.500 C 212.094 339.400, 222.626 350.957, 226.130 355.182 C 229.633 359.407, 233.250 362.894, 234.167 362.932 C 238.279 363.100, 268.158 324.460, 266.751 320.793 C 266.466 320.052, 256.394 314.794, 244.367 309.108 C 232.340 303.423, 219.125 296.747, 215 294.273 C 206.289 289.048, 195.102 280.161, 191.051 275.245 C 189.498 273.362, 188.003 272.199, 187.727 272.661 M 301.621 319.878 C 297.561 323.970, 295.234 327.027, 295.877 327.424 C 297.663 328.528, 300.698 326.276, 305.987 319.920 C 308.744 316.607, 311 313.695, 311 313.448 C 311 311.585, 307.405 314.050, 301.621 319.878 M 273.750 332.357 C 272.238 334.751, 271 337.509, 271 338.487 C 271 340.301, 279.496 359.851, 280.913 361.297 C 281.343 361.735, 282.222 357.235, 282.868 351.297 C 283.513 345.359, 284.315 338.364, 284.650 335.753 C 285.254 331.049, 285.227 330.993, 281.662 329.503 C 279.683 328.676, 277.712 328.001, 277.282 328.002 C 276.852 328.003, 275.262 329.962, 273.750 332.357 M 254.174 359.250 C 251.424 362.688, 247.561 367.051, 245.588 368.946 C 243.614 370.842, 242 372.897, 242 373.515 C 242 374.132, 245.488 377.392, 249.750 380.759 C 264.862 392.696, 296.845 425.628, 312.724 445.600 C 316.397 450.219, 319.733 453.661, 320.139 453.249 C 320.545 452.837, 322.076 448.450, 323.542 443.500 C 326.779 432.571, 327.853 412.164, 326.160 393.778 C 325.041 381.636, 323.462 376.853, 319.949 374.973 C 318.833 374.375, 314.766 371.172, 310.911 367.855 C 307.057 364.537, 303.329 362.043, 302.627 362.313 C 301.926 362.582, 299.635 366.109, 297.537 370.151 C 292.737 379.400, 291.336 381, 288.041 381 C 285.245 381, 282.548 378.532, 275.478 369.500 C 268.368 360.417, 261.573 353, 260.364 353 C 259.708 353, 256.923 355.813, 254.174 359.250 M 369.758 366.130 C 368.823 371.834, 367.752 377.573, 367.378 378.884 C 366.311 382.620, 369.103 381.042, 371.734 376.422 C 374.272 371.965, 374.729 363.417, 372.684 358.630 C 371.534 355.938, 371.353 356.402, 369.758 366.130 M 169.532 397.901 C 167.401 404.614, 187.941 427.318, 203.179 435.091 C 205.231 436.138, 210.192 437.447, 214.205 437.999 C 218.217 438.552, 230.175 441.991, 240.778 445.641 C 251.380 449.291, 260.341 451.992, 260.690 451.643 C 261.807 450.527, 256.386 443.955, 251.027 439.928 C 245.952 436.115, 237.976 433, 233.286 433 C 228.322 433, 223.327 429.590, 211.387 418.049 C 200.723 407.740, 197.755 405.471, 189.763 401.519 C 184.113 398.724, 178.494 396.705, 175.358 396.342 C 170.706 395.804, 170.150 395.952, 169.532 397.901 M 116 417.294 C 112.541 419.043, 110.798 423.205, 110.735 429.860 C 110.666 437.173, 112.139 441.570, 118.214 452.195 C 120.948 456.978, 122.926 461.310, 122.610 461.822 C 122.293 462.335, 120.056 463.252, 117.638 463.861 C 107.167 466.498, 113.979 477.670, 129.328 483.035 C 136.202 485.438, 152.105 487.986, 160.282 487.994 C 166.749 488.001, 173 485.862, 173 483.642 C 173 482.839, 168.392 477.899, 162.761 472.664 C 157.129 467.428, 152.792 462.875, 153.122 462.545 C 153.452 462.215, 157.034 463.532, 161.083 465.472 C 168.745 469.145, 170.578 469.553, 172.869 468.102 C 174.018 467.374, 173.976 466.449, 172.611 462.367 C 170.010 454.593, 161.918 444.778, 152.303 437.738 C 147.618 434.307, 140.439 428.800, 136.351 425.500 C 124.590 416.006, 121.227 414.650, 116 417.294" stroke="none" fill="black" fill-rule="evenodd"/>
</svg>