<svg xmlns="http://www.w3.org/2000/svg" width="512" height="512" viewBox="0 0 512 512" version="1.1">
	<path d="M 241 37.037 C 216.163 38.606, 192.718 44.999, 169.500 56.533 C 152.390 65.033, 140.042 73.962, 125.983 88 C 103.590 110.360, 91.179 133.808, 83.575 168.120 C 80.521 181.904, 80.465 183.118, 82.764 185.957 C 84.070 187.569, 86.213 188.352, 91.014 188.969 C 101.510 190.319, 105.823 192.772, 109.143 199.280 C 110.844 202.614, 111.152 204.632, 110.770 209.946 C 110.218 217.640, 109.282 219.624, 97.069 239 C 84.182 259.446, 81.580 265.070, 81.536 272.573 C 81.506 277.581, 81.989 279.385, 84.290 282.862 C 87.407 287.572, 91.539 290.479, 97.500 292.156 C 99.700 292.774, 102.569 294.433, 103.875 295.841 C 106.092 298.232, 106.199 298.870, 105.482 305.451 C 104.321 316.105, 104.469 316.804, 110.514 329.083 C 115.356 338.918, 116.056 341.054, 115.570 344.500 C 115.260 346.700, 114.724 352.206, 114.378 356.735 C 113.802 364.301, 113.966 365.410, 116.396 370.377 C 123.907 385.729, 143.297 393.935, 168.754 392.536 C 179.943 391.922, 180.024 391.933, 182.641 394.550 L 185.273 397.182 184.714 410.841 C 184.137 424.952, 182.420 433.495, 175.039 458.998 C 173.367 464.772, 172 470.059, 172 470.748 C 172 471.741, 189.789 472, 258 472 C 326.906 472, 344 471.747, 344 470.729 C 344 470.029, 341.732 466.346, 338.959 462.543 C 323.385 441.181, 310.669 397.414, 301.017 331.959 C 298.690 316.184, 299.094 313.555, 304.736 307.722 C 313.215 298.956, 321.110 297.369, 335.092 301.618 C 342.860 303.978, 346.331 304.479, 355 304.488 C 364.449 304.499, 366.061 304.224, 371.108 301.744 C 383.367 295.721, 400.368 280.490, 409.891 267 C 420.853 251.472, 428.645 232.022, 431.046 214.196 C 434.354 189.636, 428.056 155.007, 415.378 128.043 C 386.938 67.560, 319.011 32.109, 241 37.037 M 249.105 59.518 C 238.220 62.575, 228.753 69.293, 227.539 74.823 C 225.986 81.893, 231.522 86.466, 241.500 86.358 C 255.485 86.207, 279.445 77.441, 281.428 71.750 C 284.024 64.299, 276.675 59.045, 262.739 58.390 C 257.317 58.135, 252.655 58.521, 249.105 59.518 M 266.500 66.153 C 254.142 68.450, 239.348 72.372, 237.750 73.774 C 235.102 76.098, 235.491 79.834, 238.457 80.579 C 241.563 81.358, 263.104 76.015, 270.494 72.631 C 275.980 70.120, 277.079 68.479, 274.800 66.200 C 273.460 64.860, 273.459 64.860, 266.500 66.153 M 313.500 68.313 C 308.097 70.910, 305.621 73.237, 304.563 76.712 C 302.632 83.052, 310.236 85.371, 312.925 79.262 C 314.909 74.756, 319.092 74.092, 327.703 76.919 C 340.823 81.226, 359.310 94.018, 371.201 107.018 C 375.155 111.340, 378.753 114.653, 379.195 114.379 C 379.638 114.106, 380 112.701, 380 111.257 C 380 97.092, 343.331 67.268, 324.659 66.246 C 319.741 65.977, 317.493 66.394, 313.500 68.313 M 186.765 76.137 C 180.861 76.948, 169.794 80.937, 164.500 84.164 L 161.500 85.993 164.500 85.997 C 166.150 86, 174.382 85.025, 182.793 83.830 C 197.083 81.801, 198.197 81.768, 199.758 83.329 C 201.222 84.794, 201.248 85.171, 199.964 86.382 C 199.159 87.142, 196.204 88.506, 193.399 89.413 C 187.234 91.406, 184.449 93.300, 185.406 94.848 C 186.599 96.778, 189.713 96.163, 197.520 92.459 C 205.564 88.641, 207.301 86.150, 205.172 81.479 C 202.923 76.542, 196.787 74.762, 186.765 76.137 M 276 91.996 C 246.269 99.875, 227.095 122.854, 227.017 150.701 C 226.976 165.571, 232.476 178.573, 243.452 189.548 C 252 198.097, 261.484 203.134, 274.168 205.862 L 282.463 207.647 283.705 215.074 C 285.197 223.995, 288.258 232.536, 291.355 236.421 C 293.298 238.857, 293.930 239.108, 295.716 238.152 C 298.354 236.740, 303.109 230.733, 305.812 225.398 C 307.807 221.460, 308.121 221.272, 313.695 220.675 C 322.357 219.747, 330.400 217.382, 339.420 213.111 C 358.871 203.900, 370.567 189.979, 374.517 171.335 C 376.321 162.819, 376.319 157.681, 374.505 147.501 C 370.292 123.853, 350.792 103.383, 323.222 93.670 C 315.153 90.826, 313.340 90.574, 299 90.302 C 286.061 90.056, 282.261 90.336, 276 91.996 M 211.796 97.357 C 205.907 99.544, 198.645 104.625, 193.243 110.336 C 185.698 118.314, 184.540 121.057, 184.519 131 C 184.502 138.373, 184.884 140.282, 187.394 145.394 C 190.445 151.608, 200.272 162.317, 204.013 163.504 C 205.473 163.968, 206.769 163.660, 207.833 162.595 C 209.195 161.234, 209.401 158.709, 209.169 146.243 C 208.823 127.615, 211.523 109.614, 215.098 106.719 C 218.210 104.200, 220.310 104.937, 221.629 109.012 C 222.931 113.034, 225.315 113.930, 228.074 111.433 C 230.960 108.821, 230.577 103.677, 227.218 99.917 C 223.907 96.213, 217.667 95.177, 211.796 97.357 M 141.452 101.753 C 130.465 106.494, 119.935 115.810, 112.599 127.277 C 105.306 138.679, 100.099 155.966, 101.438 164.337 C 103.219 175.474, 113.932 185.257, 125.898 186.674 C 134.894 187.740, 155.173 182.953, 167.087 176.951 C 173.806 173.566, 179.001 168.010, 178.996 164.215 C 178.991 160.390, 175.672 155.399, 171.802 153.398 C 160.377 147.490, 132.790 153.778, 120.521 165.087 C 115.038 170.142, 112.704 169.711, 112.184 163.550 C 111.772 158.671, 116.218 143.273, 120.264 135.564 C 126.694 123.313, 142.196 110.870, 151.327 110.630 C 159.271 110.422, 163.659 120.126, 159.044 127.696 C 155.872 132.898, 152.802 134.361, 146.734 133.564 C 138.453 132.476, 136.997 132.654, 134.422 135.073 C 131.406 137.907, 131.092 143.869, 133.829 146.345 C 135.805 148.134, 140.523 148.581, 141.458 147.068 C 141.775 146.555, 144.545 145.574, 147.614 144.887 C 155.674 143.083, 162.853 138.432, 166.365 132.739 C 168.721 128.919, 169.384 126.545, 169.719 120.739 C 170.207 112.288, 168.603 108.422, 162.588 103.555 C 159.426 100.995, 157.913 100.519, 152.194 100.283 C 147.523 100.090, 144.277 100.534, 141.452 101.753 M 257.276 115.092 C 248.518 119.428, 239.395 132.006, 240.182 138.660 C 240.725 143.246, 242.434 142.277, 245.784 135.484 C 249.694 127.556, 255.108 121.509, 261.887 117.500 C 264.677 115.850, 266.969 114.162, 266.980 113.750 C 267.019 112.268, 261.417 113.043, 257.276 115.092 M 315.011 114.487 C 313.166 116.710, 314.430 118.669, 318.170 119.383 C 324.484 120.587, 332.167 124.994, 338.415 130.994 C 348.183 140.374, 352.672 151.390, 351.781 163.798 C 350.700 178.843, 338.893 193.009, 323.714 197.471 C 316.090 199.712, 318.350 205, 326.931 205 C 331.938 205, 343.239 198.479, 349.370 192.051 C 369.347 171.107, 365.675 138.713, 341.357 121.360 C 331.623 114.414, 318.017 110.865, 315.011 114.487 M 199.514 117.168 C 194.150 121.387, 192.579 129.960, 195.431 139.438 C 196.808 144.011, 201.573 152, 202.924 152 C 203.752 152, 206.179 117.099, 205.435 115.895 C 204.524 114.421, 202.434 114.871, 199.514 117.168 M 273.500 120.366 C 268.115 122.894, 259.355 131.480, 256.469 137.058 C 246.509 156.310, 254.440 180.556, 272.736 186.784 C 275.354 187.676, 276.260 187.597, 277.486 186.372 C 280.106 183.752, 279.183 182.122, 273.432 179.207 C 260.305 172.554, 255.098 154.514, 262.259 140.500 C 265.406 134.342, 272.795 126.847, 278.059 124.473 C 282.157 122.625, 283.325 119.722, 280.418 118.607 C 278.454 117.853, 279.327 117.631, 273.500 120.366 M 381.400 123.400 C 377.175 127.625, 376.915 131.243, 380.660 133.697 C 383.206 135.365, 383.367 135.360, 384.410 133.576 C 385.010 132.551, 386.486 130.539, 387.691 129.106 C 389.881 126.500, 389.882 126.500, 391.877 128.500 C 393.019 129.645, 395.430 135.843, 397.518 143 C 401.442 156.456, 405.160 166.020, 405.763 164.211 C 406.397 162.308, 403.078 137.625, 401.451 132.148 C 400.606 129.301, 398.537 125.403, 396.853 123.486 C 394.210 120.475, 393.180 120, 389.296 120 C 385.516 120, 384.258 120.542, 381.400 123.400 M 157.500 164.047 C 153.650 165.099, 145.325 167.123, 139 168.545 C 126.505 171.355, 123.302 173.226, 124.505 177.017 C 125.189 179.172, 125.567 179.245, 133.360 178.719 C 142.542 178.099, 156.783 174.272, 165 170.215 C 169.476 168.006, 170.500 167.035, 170.500 165 C 170.500 162.929, 169.985 162.469, 167.500 162.318 C 165.850 162.217, 161.350 162.995, 157.500 164.047 M 192.440 171.451 C 189.327 176.203, 193.332 180.985, 198.685 178.907 C 201.326 177.882, 210.846 178.274, 217 179.661 C 218.748 180.055, 218.058 179.287, 214.709 177.108 C 201.835 168.735, 195.307 167.076, 192.440 171.451 M 393.875 184.439 C 389.009 187.745, 386.983 192.517, 386.001 202.985 C 384.811 215.675, 382.909 218.402, 377.761 214.797 C 375.361 213.117, 374.682 213.043, 372.261 214.197 C 370.253 215.155, 369.417 216.372, 369.194 218.661 C 368.593 224.838, 375.912 226.858, 384.015 222.750 C 389.813 219.811, 391.594 216.457, 393.451 204.978 C 395.212 194.089, 397.234 190.500, 401.608 190.500 C 404.184 190.500, 404.686 191.046, 406.206 195.500 C 408.327 201.716, 408.449 209.127, 406.534 215.572 C 404.840 221.277, 399.163 227.288, 389.173 233.956 C 385.693 236.279, 383.060 238.393, 383.322 238.655 C 384.108 239.441, 392.135 236.965, 397.323 234.336 C 404.002 230.952, 410.385 224.821, 413.079 219.204 C 416.088 212.929, 416.396 198.823, 413.678 191.778 C 410.024 182.308, 401.604 179.187, 393.875 184.439 M 163.360 198.413 C 146.021 201.714, 134.427 208.442, 124.730 220.833 C 120.195 226.627, 106.840 248.899, 100.317 261.548 C 96.048 269.827, 96.256 272.966, 101.277 276.027 C 105.474 278.586, 110.051 278.529, 117.762 275.821 C 125.105 273.242, 128.907 273.950, 130.392 278.174 C 131.536 281.427, 129.629 286.593, 126.707 288.157 C 125.046 289.046, 124.387 288.838, 122.993 286.990 C 121.365 284.832, 121.276 285.273, 120.747 298.122 C 120.398 306.598, 120.572 311.958, 121.221 312.750 C 122.602 314.436, 125.697 314.323, 131.401 312.379 C 140.128 309.406, 152.039 312.966, 156.750 319.957 C 159.661 324.277, 159.590 325.308, 156.108 329.205 L 153.216 332.442 150.207 329.221 C 146.710 325.478, 144.022 325.188, 134.644 327.542 C 125.429 329.856, 125.926 329.488, 127.175 333.072 C 127.978 335.374, 129.453 336.755, 132.597 338.146 C 134.973 339.197, 137.212 340.535, 137.573 341.119 C 137.934 341.703, 136.656 343.827, 134.733 345.840 C 130.118 350.671, 129 353.039, 129 357.984 C 129 365.722, 133.651 371.134, 143.734 375.129 C 148.793 377.133, 151.277 377.416, 164 377.434 C 176.058 377.451, 179.811 377.078, 186.285 375.220 C 232.097 362.076, 261.218 312.714, 258.683 252.500 C 258.069 237.923, 256.791 231.406, 253.146 224.278 C 247.019 212.293, 233.885 203.932, 214.042 199.382 C 204.743 197.250, 172.688 196.637, 163.360 198.413 M 344.500 229.441 C 338.750 231.561, 335.212 235.923, 334.424 241.859 L 333.773 246.771 328.379 247.219 C 319.313 247.970, 314.484 254.186, 315.206 264.174 C 315.957 274.555, 320.773 278.768, 333.487 280.165 C 360.473 283.130, 378.956 272.495, 378.956 254 C 378.956 247.755, 376.335 241.035, 372.191 236.657 C 365.638 229.733, 352.788 226.385, 344.500 229.441 M 349.020 239.271 C 345.994 240.818, 344.034 244.461, 344.015 248.576 C 343.992 253.275, 340.246 256.161, 332.854 257.171 C 325.017 258.243, 323.822 259.243, 324.200 264.414 L 324.500 268.500 339.500 268.500 C 356.804 268.500, 362.306 267.088, 366.517 261.566 C 371.452 255.097, 368.795 244.960, 361.149 241.091 C 355.859 238.414, 351.869 237.815, 349.020 239.271 M 284.420 251.885 C 278.071 255.757, 277.322 265.148, 282.958 270.229 C 286.873 273.759, 290.237 274.545, 295.138 273.077 C 300.102 271.590, 302.991 267.204, 302.996 261.150 C 302.999 257.534, 302.427 256.227, 299.600 253.400 C 296.773 250.573, 295.466 250.001, 291.850 250.004 C 289.360 250.006, 286.183 250.811, 284.420 251.885 M 267.506 313.750 C 259.284 340.005, 245.279 359.905, 223.500 376.282 C 208.543 387.528, 204.880 392.076, 203.589 401 C 203.231 403.475, 200.842 416.250, 198.281 429.390 L 193.624 453.280 196.368 455.640 L 199.112 458 250.497 458 C 281.216 458, 302.114 457.625, 302.459 457.067 C 302.776 456.554, 301.703 451.941, 300.075 446.817 C 291.569 420.045, 283.704 374.688, 279.192 326.384 C 277.874 312.276, 276.954 306.579, 275.680 304.634 C 272.615 299.956, 271.402 301.309, 267.506 313.750" stroke="none" fill="black" fill-rule="evenodd"/>
</svg>