<svg xmlns="http://www.w3.org/2000/svg" width="512" height="512" viewBox="0 0 512 512" version="1.1">
	<path d="M 242 47.689 C 225.004 48.972, 203.941 53.300, 186.500 59.091 C 175.191 62.847, 154.394 72.869, 142.069 80.504 C 105.259 103.303, 74.203 141.514, 58.653 183.136 C 48.174 211.185, 43.334 246.097, 45.923 274.975 C 50.465 325.652, 71.051 370.011, 106.420 405.339 C 130.032 428.922, 157.650 445.974, 189.276 456.496 C 212.030 464.067, 230.456 466.978, 255.699 466.992 C 307.733 467.020, 354.228 449.509, 394.500 414.717 C 436.394 378.524, 460.957 327.873, 464.440 270.500 C 466.216 241.236, 459.173 202.664, 446.563 172.588 C 433.143 140.580, 408.895 109.386, 381.500 88.888 C 341.843 59.214, 290.439 44.033, 242 47.689 M 235 61.490 C 221.520 63.371, 203.218 67.581, 191.182 71.570 C 178.397 75.808, 163 82.878, 163 84.511 C 163 86.231, 180.815 110, 182.104 110 C 182.687 110, 185.039 108.479, 187.332 106.621 C 193.132 101.918, 199.132 99.077, 206.536 97.528 C 210.014 96.800, 213.277 95.947, 213.788 95.631 C 214.299 95.316, 215.263 91.669, 215.931 87.529 C 216.629 83.202, 217.637 80, 218.301 80 C 218.936 80, 222.045 82.764, 225.210 86.142 L 230.965 92.283 236.625 91.699 C 239.738 91.378, 242.682 90.718, 243.167 90.233 C 244.431 88.969, 250.158 65.107, 249.800 62.598 C 249.420 59.937, 247.280 59.777, 235 61.490 M 261 60.263 C 261 61.515, 267.081 86.082, 267.968 88.417 C 268.817 90.649, 269.543 91, 273.308 91 C 275.705 91, 280.283 91.526, 283.482 92.168 L 289.298 93.336 294.744 87.168 C 297.739 83.776, 300.584 81, 301.066 81 C 301.854 81, 304.961 90.373, 306.411 97.123 C 306.781 98.843, 308.055 100.195, 310.113 101.047 C 311.838 101.762, 315.895 104.293, 319.128 106.673 C 322.361 109.053, 325.643 111, 326.421 111 C 328.275 111, 348 87.028, 348 84.775 C 348 80.359, 316.331 68.790, 290 63.587 C 277.698 61.156, 261 59.242, 261 60.263 M 137.782 99.239 C 125.637 108.374, 114.931 118.365, 105.791 129.092 C 94.075 142.844, 72.858 178.582, 74.253 182.217 C 74.642 183.231, 77.037 184.256, 80.686 184.972 C 83.884 185.600, 92.291 187.663, 99.368 189.557 C 106.446 191.450, 113.084 193, 114.118 193 C 117.508 193, 116.267 187.691, 109.787 174.465 C 103.824 162.296, 103.651 161.729, 105.478 160.392 C 106.525 159.627, 108.534 159.003, 109.941 159.008 C 112.779 159.016, 124.512 160.777, 127.250 161.605 C 128.743 162.057, 129 161.447, 129 157.460 C 129 153.702, 129.294 152.905, 130.500 153.393 C 131.325 153.727, 132.675 154.273, 133.500 154.607 C 135.876 155.568, 135.345 152.906, 130.972 141.931 C 125.349 127.815, 122.494 117.103, 123.967 115.641 C 125.192 114.425, 127.746 115.638, 143.250 124.801 C 149.658 128.588, 151.007 129.825, 151.040 131.941 L 151.080 134.500 152.790 131.500 C 154.213 129.003, 154.500 125.731, 154.500 112 C 154.500 94.583, 153.878 90, 151.513 90 C 150.716 90, 144.537 94.157, 137.782 99.239 M 358.586 91.861 C 358.002 92.805, 351.196 124.302, 350.318 130.120 C 349.605 134.841, 351.321 135.878, 355.156 133.043 C 363.027 127.224, 384.149 115, 386.333 115 C 388.936 115, 385.369 126.848, 377.419 144.603 C 374.439 151.260, 372 156.997, 372 157.353 C 372 158.669, 374.916 157.932, 379.091 155.560 C 381.453 154.218, 383.749 153.345, 384.193 153.619 C 384.637 153.894, 385 155.666, 385 157.559 C 385 161.510, 385.216 161.563, 394.487 159.854 C 401.210 158.616, 405.765 159.225, 406.630 161.479 C 407.276 163.163, 399.368 180.016, 395.620 184.944 C 392.633 188.871, 392.213 192.761, 394.674 193.705 C 395.595 194.058, 402.007 192.926, 408.924 191.189 C 415.841 189.451, 424.647 187.444, 428.493 186.728 C 433.571 185.784, 435.575 184.968, 435.809 183.751 C 436.234 181.547, 425.743 159.732, 419.188 149.188 C 406.421 128.650, 388.826 110.238, 367.587 95.189 C 361.686 91.008, 359.592 90.234, 358.586 91.861 M 201.369 121.493 C 194.779 122.926, 189 125.483, 189 126.967 C 189 129.148, 192.944 129.505, 218 129.593 C 242.393 129.678, 245.414 129.886, 256 132.201 C 275.349 136.432, 287.386 142.360, 296.354 152.075 C 301.561 157.715, 309.012 170.322, 307.834 171.499 C 307.482 171.852, 300.575 169.592, 292.487 166.478 C 284.398 163.364, 273.892 159.717, 269.140 158.372 C 264.388 157.028, 257.924 154.994, 254.776 153.852 C 251.152 152.537, 247.665 151.950, 245.276 152.251 C 238.879 153.058, 201.015 151.106, 191.500 149.479 C 186.550 148.633, 178.835 146.829, 174.355 145.470 C 164.618 142.517, 163 142.425, 163 144.826 C 163 147.168, 166.553 150.498, 171.065 152.383 C 179.978 156.107, 191.813 157.401, 217.416 157.451 L 242.333 157.500 245.008 160.169 C 246.480 161.637, 249.668 163.348, 252.092 163.971 C 257.264 165.301, 264.988 168.256, 281.481 175.219 C 298.558 182.428, 316.908 184.740, 335 181.962 C 338.575 181.413, 343.750 180.715, 346.500 180.411 L 351.500 179.858 349.209 181.872 C 340.182 189.811, 306.064 194.341, 271.802 192.151 C 261.736 191.508, 252.150 190.764, 250.500 190.499 C 243.789 189.421, 260.162 194.140, 268.500 195.686 C 281.475 198.093, 313.782 198.080, 328.294 195.662 C 339.781 193.747, 349.774 190.849, 353.655 188.306 C 357.123 186.034, 357.460 182.891, 355.019 175.557 C 352.812 168.925, 351 166.323, 351 169.786 C 351 171.999, 347.560 175.464, 346.199 174.623 C 345.689 174.308, 345.053 171.001, 344.786 167.275 C 344.253 159.856, 340.778 151.210, 336.452 146.543 C 334.121 144.028, 333.743 143.926, 331.710 145.263 C 327.927 147.751, 326.849 150.929, 327.389 158 C 327.663 161.575, 328.812 167.158, 329.943 170.407 C 332.346 177.308, 332.421 178.004, 330.750 177.987 C 330.063 177.980, 327.250 174.502, 324.500 170.259 C 318.220 160.568, 305.690 147.864, 296.294 141.662 C 273.388 126.542, 225.215 116.306, 201.369 121.493 M 294.176 157.671 C 294.411 159.725, 295.048 160.500, 296.500 160.500 C 299.578 160.500, 299.280 155.611, 296.176 155.171 C 294.155 154.884, 293.894 155.211, 294.176 157.671 M 255.619 158.808 C 254.560 160.521, 258.435 162.703, 271.500 167.752 C 290.378 175.047, 305.565 179.723, 304.432 177.891 C 304.108 177.366, 298.422 174.219, 291.797 170.898 C 276.197 163.078, 256.954 156.647, 255.619 158.808 M 170.122 161.825 C 167.858 163.388, 169.704 164.828, 176.792 167.028 C 186.609 170.074, 207.574 171.583, 223.225 170.370 C 230.224 169.827, 236.197 169.136, 236.499 168.835 C 237.578 167.756, 235.740 164.974, 233.640 164.507 C 231.517 164.035, 205.096 162.415, 183 161.401 C 176.406 161.099, 170.912 161.279, 170.122 161.825 M 152.229 165.051 C 154.308 168.474, 167.281 176.577, 176.167 180.004 C 187.145 184.238, 195.778 185.977, 205.500 185.912 C 215.843 185.844, 219.550 184.558, 212.500 183.484 C 202.690 181.990, 203.955 181.346, 219.099 180.123 C 227.542 179.441, 234.686 178.626, 234.975 178.311 C 235.264 177.996, 228.072 178.049, 218.993 178.428 C 192.934 179.515, 178.628 176.844, 159.729 167.360 C 152.529 163.747, 151.185 163.333, 152.229 165.051 M 237.269 177.693 C 238.242 177.947, 239.592 177.930, 240.269 177.656 C 240.946 177.382, 240.150 177.175, 238.500 177.195 C 236.850 177.215, 236.296 177.439, 237.269 177.693 M 126.551 184.065 C 119.625 199.498, 121.578 221.983, 130.802 233 C 132.695 235.261, 132.661 235.007, 130.448 230.332 C 126.096 221.140, 124.753 213.754, 125.220 201.576 C 125.519 193.779, 126.267 188.727, 127.748 184.509 C 128.905 181.215, 129.726 178.393, 129.572 178.239 C 129.418 178.085, 128.059 180.706, 126.551 184.065 M 69.142 194.329 C 65.779 198.380, 59.420 231.763, 58.822 248.500 L 58.500 257.500 63 257.378 C 68.443 257.231, 94.383 252.432, 98.302 250.848 C 100.743 249.860, 101.065 249.250, 100.802 246.107 C 100.520 242.733, 100.015 242.241, 93 238.484 C 88.875 236.274, 84.444 233.726, 83.152 232.821 C 80.933 231.265, 80.906 231.121, 82.658 230.183 C 83.678 229.637, 88.471 228.251, 93.311 227.101 C 104.605 224.419, 106 223.643, 106 220.041 C 106 216.346, 106.126 216.442, 71.362 193.768 C 70.736 193.360, 69.737 193.612, 69.142 194.329 M 197.106 196.304 C 193.900 202.222, 184.207 216.617, 180.152 221.482 C 176.483 225.883, 176.003 227.048, 176.022 231.482 C 176.046 237.222, 179.511 253.911, 180.984 255.384 C 182.759 257.159, 183.240 255.181, 181.602 252.842 C 180.721 251.584, 180 249.685, 180 248.623 C 180 246.814, 180.117 246.796, 181.829 248.345 C 184.645 250.894, 185.637 250.334, 185.184 246.452 C 184.793 243.104, 184.909 242.939, 187.251 243.527 C 188.615 243.869, 191.519 243.668, 193.703 243.080 C 203.877 240.340, 216.603 250.554, 219.456 263.750 C 220.434 268.272, 218.787 267.810, 216.406 262.895 L 214.418 258.790 211.573 262.895 C 207.821 268.309, 204.763 268.390, 199.703 263.208 C 197.666 261.122, 196 258.872, 196 258.208 C 196 256.865, 194.115 256.636, 192.357 257.765 C 190.936 258.678, 191.436 264.034, 193.035 265.022 C 193.851 265.526, 193.885 265.953, 193.143 266.411 C 191.892 267.184, 188 263.608, 188 261.685 C 188 260.546, 181.115 256.414, 180.540 257.207 C 180.003 257.948, 182.105 279.528, 183.589 288.500 C 185.971 302.906, 188.357 309.771, 193.884 318.123 C 200.546 328.188, 212.914 341.730, 219.484 346.152 C 226.421 350.821, 236.436 352.791, 244.749 351.122 C 255.233 349.016, 277.699 336.204, 292.306 324 C 305.312 313.134, 307.468 307.249, 313.556 266 C 315.482 252.946, 315.802 229.367, 314.096 226.179 C 312.881 223.909, 282.559 208.108, 281.482 209.185 C 281.128 209.539, 281.340 210.767, 281.954 211.914 C 282.962 213.797, 282.799 214, 280.279 214 C 277.888 214, 245.327 205.547, 239.500 203.414 C 238.400 203.011, 237.763 202.978, 238.084 203.341 C 238.405 203.704, 243.687 205.792, 249.822 207.980 C 260.158 211.667, 268.884 214.070, 288 218.493 C 295.478 220.223, 299.555 221.778, 298.743 222.590 C 298.094 223.239, 268.905 218.218, 257.062 215.419 C 241.239 211.681, 223.825 205.576, 210.606 199.135 L 198.713 193.339 197.106 196.304 M 421.423 206.354 C 408.965 214.713, 404.412 218.305, 404.165 219.969 C 403.981 221.213, 404.206 222.604, 404.665 223.060 C 405.124 223.516, 409.969 224.857, 415.432 226.039 C 420.894 227.221, 426.519 228.630, 427.932 229.172 L 430.500 230.155 428 232.191 C 426.625 233.310, 422.350 235.800, 418.500 237.724 C 409.622 242.160, 408 243.625, 408 247.206 C 408 250.713, 411.360 252.393, 420.500 253.456 C 423.800 253.840, 431.604 255.246, 437.841 256.580 C 444.079 257.914, 449.592 258.752, 450.091 258.443 C 454.094 255.970, 443.935 195, 439.521 195 C 438.874 195, 430.730 200.109, 421.423 206.354 M 160.725 200.181 C 157.593 202.481, 155.236 204.569, 155.488 204.822 C 155.965 205.299, 167 197.291, 167 196.468 C 167 195.643, 166.523 195.926, 160.725 200.181 M 370.641 202.036 C 371.295 206.228, 369.438 213.895, 367.598 214.601 C 365.936 215.238, 335.185 208.644, 327.516 206.005 C 318.506 202.905, 318.695 203.691, 328.116 208.494 C 339.479 214.288, 348.008 216.952, 358.165 217.881 C 366.272 218.622, 366.418 218.681, 363.500 220.028 C 361.337 221.026, 355.897 221.420, 344 221.439 C 328.233 221.464, 327.167 221.338, 320 218.607 C 315.875 217.035, 309.462 214.225, 305.750 212.362 C 302.038 210.499, 299 209.189, 299 209.450 C 299 210.570, 311.916 218.559, 319.381 222.056 C 330.702 227.360, 338.249 228.595, 350.691 227.180 C 356.138 226.561, 362.534 225.370, 364.904 224.534 L 369.213 223.013 368.577 225.551 C 368.166 227.185, 369.018 231.227, 370.970 236.912 C 373.019 242.882, 374.027 247.802, 374.084 252.119 L 374.169 258.500 376.069 254.372 C 377.195 251.926, 378.250 246.627, 378.657 241.372 L 379.343 232.500 381.146 236.500 C 382.137 238.700, 383.006 242.750, 383.077 245.500 L 383.207 250.500 384.266 246.500 C 386.441 238.289, 380.237 214.989, 372.551 202.500 L 370.089 198.500 370.641 202.036 M 172.376 207.350 C 166.422 212.039, 154.796 217.595, 145 220.432 C 136.909 222.775, 136.716 222.895, 141 222.926 C 149.911 222.989, 166.929 214.902, 174.489 207.012 C 178.170 203.170, 177.561 203.267, 172.376 207.350 M 276 229.358 C 267.292 232.459, 257.939 237.295, 255.567 239.922 C 253.818 241.858, 253.782 242.210, 255.189 243.618 C 256.596 245.025, 258.035 244.532, 270.287 238.442 C 284.432 231.410, 289.007 230.353, 296.750 232.329 C 301.566 233.559, 300.895 231.309, 295.750 228.973 C 290.117 226.416, 283.919 226.537, 276 229.358 M 183.750 229.518 C 179.673 231.810, 180.397 233, 185.870 233 C 190.665 233, 194.109 234.467, 209.712 243.155 C 213.694 245.372, 214.017 245.406, 215.645 243.781 C 217.258 242.170, 217.261 241.946, 215.686 240.205 C 213.221 237.482, 194.792 228.902, 190.332 228.402 C 187.990 228.139, 185.431 228.573, 183.750 229.518 M 348 231.081 C 348 232.801, 354.562 242.214, 358.051 245.500 C 360.973 248.251, 361.186 248.313, 360.619 246.250 C 360.278 245.012, 359.727 242.988, 359.393 241.750 C 359.059 240.512, 357.437 237.363, 355.789 234.750 C 353.573 231.239, 352.167 230, 350.396 230 C 349.078 230, 348 230.486, 348 231.081 M 152.530 241 C 152.917 242.375, 154.981 247.639, 157.116 252.697 C 163.701 268.297, 164.284 275.040, 159.904 284.958 C 155.332 295.308, 140.533 305.593, 121.750 311.474 C 117.407 312.833, 116 313.737, 116 315.168 C 116 318.138, 118.262 318.322, 126.680 316.036 C 143.847 311.374, 157.872 301.922, 164.569 290.500 C 167.256 285.917, 167.499 284.708, 167.494 276 C 167.488 267.272, 167.231 266.013, 164.323 260.500 C 158.670 249.782, 151.809 238.437, 152.530 241 M 274.718 243.092 C 263.362 245.766, 255.964 253.730, 256.030 263.210 L 256.060 267.500 259.938 263.012 C 263.728 258.627, 263.863 258.566, 265.818 260.336 C 266.919 261.332, 268.075 263.162, 268.386 264.402 C 269.009 266.883, 272.751 269, 276.512 269 C 279.517 269, 285.808 263.615, 286.630 260.339 C 287.310 257.629, 290.582 257.473, 290.382 260.160 C 290.299 261.288, 290.861 261.588, 292.336 261.202 C 295.576 260.355, 287.671 267.822, 283.470 269.577 C 281.561 270.374, 280 271.296, 280 271.625 C 280 272.663, 287.253 270.912, 291.117 268.940 C 297.022 265.928, 305 255.006, 305 249.935 C 305 247.864, 304.893 247.840, 302.535 249.385 C 298.578 251.978, 296.948 251.510, 297.654 247.982 C 298.136 245.569, 297.957 245.079, 296.762 245.538 C 295.940 245.853, 292.521 245.186, 289.165 244.056 C 282.603 241.845, 280.584 241.710, 274.718 243.092 M 322.036 251.128 C 322.016 251.473, 322.675 253.371, 323.500 255.346 C 326.040 261.426, 325.504 263.514, 320.471 267.128 C 315.644 270.594, 313.994 274.159, 315.844 277.121 C 316.772 278.608, 316.616 279.135, 314.990 280.005 C 312.590 281.290, 312.490 282.347, 314.571 284.429 C 317.212 287.069, 322.487 286.389, 326.465 282.896 C 330.305 279.525, 330.605 278.316, 328.827 273.399 C 327.741 270.394, 327.887 269.893, 330.827 266.544 C 332.572 264.556, 334 262.549, 334 262.084 C 334 261.618, 332.313 259.984, 330.250 258.451 C 328.188 256.919, 325.504 254.503, 324.286 253.082 C 323.068 251.662, 322.056 250.783, 322.036 251.128 M 268.941 258.656 C 267.436 262.613, 270.484 265, 277.039 265 C 282.663 265, 285 263.218, 285 258.929 C 285 255.177, 283.531 255.216, 280.303 259.052 C 277.239 262.693, 273.864 262.703, 273.013 259.074 C 272.196 255.585, 270.186 255.379, 268.941 258.656 M 200.357 258.513 C 199.419 260.955, 201.953 263.002, 205.872 262.970 C 208.822 262.945, 209.173 262.749, 207.750 261.920 C 206.787 261.359, 206 260.023, 206 258.950 C 206 256.551, 201.251 256.182, 200.357 258.513 M 59.309 270.638 C 58.443 272.895, 61.310 292.979, 64.007 303.540 C 67.256 316.267, 71.002 328, 71.815 328 C 72.228 328, 76.601 325.025, 81.533 321.390 C 93.074 312.882, 99.567 309.658, 113.869 305.336 C 128.174 301.013, 137.266 296.357, 143.071 290.381 L 147.500 285.822 140.899 289.929 C 127.985 297.964, 107.052 304.550, 96.783 303.809 L 92.500 303.500 97.872 300.672 C 100.960 299.045, 102.869 297.469, 102.364 296.964 C 101.881 296.481, 97.438 295.953, 92.492 295.792 L 83.500 295.500 89.844 291.500 C 93.333 289.300, 97.608 286.585, 99.344 285.466 C 102.885 283.183, 103.736 280.389, 101.727 277.641 C 100.677 276.205, 96.522 275.159, 82.939 272.914 C 73.348 271.328, 64.262 269.763, 62.749 269.436 C 60.672 268.986, 59.830 269.281, 59.309 270.638 M 439.687 270.016 C 438.140 270.481, 430.940 271.843, 423.687 273.044 C 409.248 275.435, 406 276.792, 406 280.434 C 406 283.113, 408.921 285.767, 417.420 290.812 C 420.489 292.633, 423 294.483, 423 294.923 C 423 295.362, 419.418 296.742, 415.039 297.989 C 410.661 299.235, 406.350 301.060, 405.460 302.044 C 403.938 303.726, 404.306 304.144, 411.671 309.097 C 415.977 311.993, 423.302 317.222, 427.949 320.716 C 432.596 324.211, 437.080 326.939, 437.914 326.778 C 440.789 326.224, 448.012 298.756, 449.897 281.203 C 451.082 270.176, 450.710 268.978, 446.133 269.086 C 444.135 269.133, 441.234 269.552, 439.687 270.016 M 371.727 288.250 C 363.132 296.608, 357.858 302.515, 357.442 304.250 C 356.412 308.547, 357.813 312.132, 362.124 316.233 C 366.533 320.427, 384.391 329.514, 390.285 330.562 C 392.366 330.933, 394.941 331.970, 396.005 332.868 C 397.891 334.457, 406 349.972, 406 351.990 C 406 353.435, 399.495 353.209, 392.500 351.520 C 382.947 349.213, 383.418 348.856, 385.609 356.750 C 386.452 359.789, 384.318 359.701, 377.867 356.433 C 375.081 355.021, 372.617 354.049, 372.393 354.274 C 372.168 354.499, 374.211 358.916, 376.932 364.091 C 384.415 378.320, 390.184 397, 387.095 397 C 385.786 397, 365.584 383.592, 358.250 377.855 L 352 372.966 352 380.483 C 352 384.617, 351.604 388, 351.119 388 C 350.635 388, 347.220 386.864, 343.532 385.476 C 339.843 384.087, 330.677 381.360, 323.163 379.414 C 305.705 374.895, 297.707 372.326, 291.651 369.294 C 288.983 367.958, 286.697 367.008, 286.570 367.183 C 286.443 367.357, 285.878 369.075, 285.313 371 L 284.287 374.500 283.040 371.500 C 282.355 369.850, 281.589 363.550, 281.340 357.500 C 280.822 344.951, 280.371 342, 278.971 342 C 278.425 342, 274.047 344.672, 269.240 347.939 C 264.433 351.205, 256.675 355.796, 252 358.141 C 244.207 362.050, 242.730 362.440, 234.250 362.822 L 225 363.239 225 369.037 C 225 372.227, 224.727 375.548, 224.393 376.418 C 223.625 378.419, 220.630 378.464, 219 376.500 C 217.251 374.392, 213.354 374.622, 201.989 377.503 C 196.558 378.879, 186.252 381.328, 179.086 382.943 C 171.920 384.559, 163.962 386.808, 161.401 387.941 C 158.841 389.073, 156.538 390, 156.283 390 C 156.029 390, 156.147 386.084, 156.545 381.298 L 157.270 372.596 150.885 377.792 C 141.528 385.407, 124.009 397, 121.860 397 C 120.837 397, 120 396.311, 120 395.468 C 120 392.101, 124.458 380.903, 130.073 370.167 C 133.333 363.934, 136 358.422, 136 357.917 C 136 356.465, 133.068 356.847, 129.914 358.710 C 126.004 361.020, 124.611 359.513, 126.689 355.222 C 127.562 353.419, 128.071 351.738, 127.819 351.486 C 127.567 351.234, 123.865 351.696, 119.592 352.514 C 110.401 354.272, 104.377 354.420, 103.444 352.909 C 103.073 352.309, 104.452 348.234, 106.507 343.854 L 110.245 335.889 107.948 333.445 C 106.685 332.100, 104.799 331, 103.757 331 C 101.436 331, 82.554 335.651, 78.724 337.166 C 75.325 338.511, 75.501 339.321, 81.732 350.985 C 91.391 369.067, 107.099 389.448, 120.702 401.547 C 130.193 409.989, 141.688 419, 142.965 419 C 144.385 419, 155.522 401.979, 156.967 397.599 C 158.059 394.292, 158.370 394.118, 165.293 392.950 C 170.841 392.015, 173.860 392.005, 178.493 392.908 C 181.797 393.552, 193.500 395.633, 204.500 397.532 C 231.333 402.166, 236.235 403.833, 239.175 409.327 C 240.108 411.070, 239.769 411.139, 233.333 410.523 C 217.467 409.006, 200.673 406.692, 188.584 404.358 L 175.668 401.863 164.334 413.165 C 158.100 419.381, 153 424.781, 153 425.164 C 153 427.597, 182.527 440.915, 200.160 446.435 C 242.145 459.576, 275.043 458.844, 319.894 443.771 C 332.731 439.457, 358.158 427.390, 358.770 425.322 C 358.962 424.674, 354.479 419.139, 348.809 413.022 L 338.500 401.899 334 402.287 C 331.525 402.500, 321.400 403.902, 311.500 405.404 C 289.396 408.755, 260 411.066, 260 409.452 C 260 407.605, 264.477 404.011, 268.090 402.959 C 269.965 402.412, 282.525 400.408, 296 398.504 C 309.475 396.600, 324.833 394.074, 330.128 392.891 C 340.330 390.611, 349.784 390.830, 351.914 393.397 C 352.494 394.096, 355.563 399.765, 358.734 405.996 C 361.906 412.227, 365.226 417.773, 366.114 418.321 C 367.374 419.100, 369.446 418.024, 375.583 413.409 C 391.786 401.222, 407.079 385.044, 418.330 368.188 C 424.455 359.012, 434 341.027, 434 338.663 C 434 336.974, 419.579 332.132, 405.172 328.984 C 400.489 327.960, 395.497 326.269, 394.079 325.225 C 392.661 324.181, 387.647 321.447, 382.938 319.150 C 373.835 314.710, 366 308.172, 366 305.016 C 366 303.276, 367.919 300.484, 379.336 285.617 C 382.865 281.022, 386.475 275, 385.702 275 C 385.509 275, 379.220 280.962, 371.727 288.250 M 333.861 300.788 C 324.761 309.429, 317.456 316.675, 317.629 316.889 C 318.421 317.866, 329.956 309.851, 336.478 303.792 C 343.277 297.476, 351.888 286.554, 350.871 285.537 C 350.617 285.283, 342.962 292.146, 333.861 300.788 M 211.693 316.116 C 214.495 320.948, 223.817 328.750, 228.831 330.458 C 235.070 332.584, 242.583 332.372, 247.996 329.917 C 254.496 326.968, 266 317.951, 266 315.804 C 266 314.188, 264.983 314.001, 256.250 314.008 C 250.887 314.012, 243.688 314.471, 240.251 315.029 C 235.476 315.804, 231.600 315.684, 223.825 314.522 C 209.217 312.338, 209.483 312.303, 211.693 316.116 M 243.500 321.035 C 240.750 321.457, 236.025 321.618, 233 321.393 L 227.500 320.982 231.500 322.965 C 233.700 324.055, 236.728 324.959, 238.230 324.974 C 241.484 325.005, 249 322.156, 249 320.891 C 249 320.401, 248.887 320.060, 248.750 320.134 C 248.613 320.207, 246.250 320.613, 243.500 321.035 M 357.237 336.655 C 346.393 341.783, 315.306 347.975, 300.199 348.015 C 291.069 348.040, 290.629 349.710, 299.628 350.182 C 323.768 351.447, 348.194 346.019, 360.944 336.556 C 365.210 333.391, 364.077 333.421, 357.237 336.655" stroke="none" fill="black" fill-rule="evenodd"/>
</svg>