<svg xmlns="http://www.w3.org/2000/svg" width="512" height="512" viewBox="0 0 512 512" version="1.1">
	<path d="M 228.107 18.143 C 194.161 21.691, 154.731 36.237, 123.837 56.607 C 102.068 70.961, 78.349 93.080, 65.557 110.956 C 44.078 140.971, 27.958 179.586, 21.546 216.386 C 13.116 264.770, 22.126 319.797, 46.186 366.877 C 80.855 434.717, 144.952 480.357, 221.142 491.454 C 236.779 493.732, 262.252 494.460, 277.500 493.065 C 316.227 489.523, 353.457 476.440, 385.763 455.019 C 420.071 432.270, 447.506 400.845, 466.536 362.500 C 475.153 345.136, 483.671 320.455, 487.452 301.892 C 496.076 259.551, 491.337 208.705, 474.857 166.763 C 465.984 144.179, 453.735 122.647, 440.291 106 C 432.236 96.026, 412.558 76.685, 402 68.365 C 366.277 40.217, 322.974 22.481, 279.144 18.048 C 267.092 16.828, 240.203 16.879, 228.107 18.143 M 214 45.723 C 198.678 47.487, 173.709 55.179, 156.335 63.488 C 107.235 86.969, 71.508 129.264, 52.424 186.500 C 39.588 225, 38.063 267.005, 48.074 306.278 C 60.122 353.538, 90.744 401.313, 126.033 427.904 C 167.276 458.982, 219.946 474.783, 270.207 471.157 C 299.020 469.079, 321.993 463.115, 345.738 451.549 C 393.235 428.413, 427.699 393.449, 447.444 348.364 C 473.405 289.084, 473.703 226.785, 448.315 166.031 C 431.689 126.244, 402.845 92.998, 365.814 70.941 C 334.204 52.112, 286.496 41.872, 258 47.797 C 254.975 48.426, 246.937 49.641, 240.138 50.497 C 225.848 52.295, 201.364 59.858, 185.495 67.375 C 126.303 95.415, 84.155 144.660, 67.648 205.067 C 53.654 256.275, 61.729 310.249, 90.536 358.060 C 119.409 405.980, 166.229 439.109, 220.555 450.058 C 235.813 453.134, 265.051 453.883, 280.633 451.598 C 308.032 447.580, 333.443 438.135, 355 423.957 C 391.385 400.027, 413.024 374.504, 429.022 336.650 C 439.480 311.906, 444.793 287.807, 445.714 260.944 C 447.602 205.836, 429.573 156.556, 394.037 119.692 C 377.357 102.388, 360.058 89.108, 340 78.208 C 322.018 68.436, 295.533 59.888, 274.206 56.974 C 264.275 55.617, 262.542 54.469, 263.706 50.017 C 264.303 47.734, 264.420 47.717, 275.404 48.341 C 310.655 50.342, 347.069 64.227, 377.220 87.163 C 405.003 108.297, 422.711 129.662, 436.979 159.260 C 466.464 220.426, 466.501 289.699, 437.082 350.609 C 423.063 379.634, 406.592 400.676, 383.418 419.166 C 357.460 439.878, 327.685 454.056, 296.775 460.424 C 227.816 474.630, 157.824 453.097, 109.429 402.786 C 78.966 371.118, 58.828 331.152, 51.338 287.500 C 48.843 272.957, 48.874 236.250, 51.394 222.508 C 63.458 156.715, 99.614 103.839, 155 70.989 C 173.326 60.120, 187.877 54.210, 210.500 48.448 C 222.374 45.423, 223.376 44.644, 214 45.723 M 245.625 56.206 C 243.027 58.142, 242.329 58.235, 238.361 57.174 C 229.514 54.808, 228.047 55.745, 228.014 63.790 C 227.998 67.447, 224.914 74.247, 221.637 77.849 C 218.500 81.298, 211.510 84.549, 200.892 87.499 C 174.853 94.735, 158.374 104.424, 138.956 123.919 C 103.740 159.274, 84.196 203.303, 82.325 251.500 C 80.610 295.699, 97.420 336.392, 132.430 372.787 C 144.646 385.487, 152.610 391.600, 165.265 397.992 C 182.231 406.562, 197.905 410, 220.006 410 C 237.130 410, 239.388 410.454, 243.702 414.768 C 247.492 418.559, 249.829 423.355, 253.701 435.293 C 257.743 447.756, 260.321 448.637, 263.585 438.673 C 268.543 423.538, 278.052 410.910, 288.789 405.200 C 298.449 400.062, 337.358 388.799, 367.242 382.489 C 373.983 381.066, 379.896 379.504, 380.382 379.018 C 381.896 377.504, 380.180 375, 377.629 375 C 374.617 375, 322.622 382.394, 311 384.475 C 295.880 387.183, 293.851 386.574, 289.429 378 C 285.508 370.398, 287.620 361.766, 296.395 349.534 C 300.260 344.144, 300.066 342.448, 295.215 339.227 C 293.206 337.893, 292.591 338.269, 285.056 345.447 C 280.644 349.649, 275.564 353.692, 273.767 354.432 C 263.085 358.827, 250.842 357.092, 221.280 346.992 C 208.387 342.586, 205.944 340.733, 203.454 333.470 C 201.647 328.198, 201.120 327.528, 198.954 327.742 C 179.748 329.634, 175.699 329.142, 169.824 324.199 C 166.104 321.069, 162.333 313.010, 161.456 306.321 C 160.895 302.038, 161.859 295.846, 164.561 286.377 C 165.014 284.790, 164.036 282.982, 160.689 279.213 C 153.745 271.395, 152.975 267.670, 156.054 256.809 L 157.383 252.117 152.575 246.976 C 147.900 241.979, 147.778 241.691, 148.196 236.652 C 148.645 231.241, 151.612 224.258, 155.541 219.368 L 157.845 216.500 161.423 219.946 C 164.825 223.224, 165 223.280, 165 221.091 C 165 219.825, 164.279 216.024, 163.399 212.644 C 161.366 204.845, 162.042 198.857, 165.803 191.335 C 167.407 188.126, 169.950 181.772, 171.453 177.215 C 174.868 166.868, 178.048 162.773, 182.341 163.197 C 185.108 163.470, 185.652 164.123, 187.795 169.750 C 190.679 177.324, 192.649 177.845, 193.464 171.250 C 194.468 163.125, 196.171 155.626, 197.722 152.500 C 198.540 150.850, 201.884 146.766, 205.152 143.425 L 211.095 137.351 208.417 131.175 C 206.944 127.779, 205.177 125, 204.491 125 C 202.243 125, 196.492 127.796, 194.893 129.667 C 193.988 130.727, 192.844 135.275, 192.181 140.455 C 191.364 146.836, 190.484 149.961, 189.118 151.326 C 186.771 153.673, 185.448 152.990, 184.654 149.021 C 184.043 145.967, 181.348 144.817, 180.503 147.250 C 176.733 158.101, 175.574 160.289, 172.650 162.072 C 169.032 164.278, 165.002 164.563, 163.064 162.750 C 161.964 161.721, 161.849 161.942, 162.411 164 C 163.664 168.589, 164.268 177.759, 163.564 181.513 C 162.713 186.045, 158.977 190, 155.545 190 C 153.197 190, 152.988 189.633, 152.850 185.250 L 152.700 180.500 152.100 185 C 151.770 187.475, 151.857 194.081, 152.293 199.680 C 152.926 207.810, 152.785 210.578, 151.594 213.430 C 149.637 218.114, 146.080 218.325, 142.959 213.942 C 141.762 212.261, 140.610 211.057, 140.400 211.267 C 140.190 211.477, 140.724 214.315, 141.587 217.574 C 143.492 224.771, 142.944 231.232, 140.103 235.075 L 137.983 237.942 140.980 242.813 C 145.152 249.593, 147 255.349, 147 261.561 C 147 268.445, 148.049 271.013, 153.100 276.492 C 155.385 278.972, 156.810 281, 156.267 281 C 154.111 281, 144.331 273.648, 141.569 269.952 C 139.957 267.794, 138.424 266.242, 138.164 266.503 C 137.001 267.666, 144.836 280.560, 150.581 286.939 L 156.904 293.960 155.543 298.730 C 154.795 301.353, 153.881 306.537, 153.512 310.250 L 152.841 317 156.400 317 C 159.507 317, 160.203 317.477, 161.875 320.756 C 162.929 322.821, 164.289 326.359, 164.897 328.618 C 165.991 332.681, 166.063 332.732, 171.575 333.380 C 180.033 334.374, 183.916 336.328, 184.641 339.956 C 184.976 341.630, 185.595 343, 186.016 343 C 186.437 343, 188.960 341.200, 191.623 339 C 194.285 336.800, 196.976 335, 197.602 335 C 198.228 335, 199.279 337.813, 199.938 341.250 C 200.597 344.688, 201.637 349.224, 202.251 351.332 C 203.250 354.765, 203.632 355.100, 205.933 354.550 C 207.345 354.212, 211.462 353.670, 215.081 353.346 C 221.390 352.780, 221.752 352.869, 223.831 355.513 C 225.024 357.029, 226 358.857, 226 359.576 C 226 361.826, 227.824 362.142, 231.085 360.456 C 234.103 358.895, 234.471 358.938, 240.237 361.526 C 244.550 363.462, 247.207 364.066, 249.657 363.668 C 252.360 363.230, 253.992 363.737, 257.509 366.110 C 259.950 367.758, 262.216 369.541, 262.544 370.071 C 263.369 371.406, 259.288 377.765, 256.387 379.666 C 253.535 381.535, 252.993 387.400, 255.582 388.393 C 258.983 389.698, 260.062 388.734, 263.478 381.341 C 265.424 377.129, 267.213 373.880, 267.454 374.120 C 267.694 374.361, 266.356 378.595, 264.479 383.529 C 262.602 388.463, 261.045 393.400, 261.018 394.500 C 260.914 398.777, 259.288 399.204, 258.636 395.126 C 258.058 391.508, 257.638 391.023, 254.599 390.453 C 252.605 390.079, 246.793 390.679, 240.500 391.908 C 218.686 396.170, 198.718 393.894, 180.241 385.041 C 165.127 377.799, 155.815 370.411, 144.080 356.352 C 122.661 330.691, 107.891 300.578, 103.440 273.498 C 101.103 259.279, 101.953 237.169, 105.361 223.500 C 115.920 181.157, 143.947 139.095, 176.226 117.150 C 178.825 115.383, 185.229 111.869, 190.457 109.342 L 199.963 104.746 202.614 106.623 C 208.801 111.004, 209.365 111.152, 211.250 108.884 C 213.799 105.817, 213.553 101.378, 210.794 100.656 C 207.602 99.822, 208.540 99.352, 218.965 96.562 C 231.020 93.336, 235.965 88.771, 238.412 78.611 C 239.093 75.785, 239.170 75.851, 241.906 81.611 C 245.061 88.250, 249.944 94.440, 256.052 99.543 C 261.073 103.739, 260.010 104.041, 253.946 100.141 C 248.272 96.492, 245.771 93.730, 242.156 87.119 C 239.081 81.496, 238.670 81.476, 237.507 86.890 C 237.107 88.755, 234.354 96.124, 231.390 103.266 C 225.938 116.399, 225.209 119.653, 226.975 122.954 C 227.897 124.675, 228.438 124.596, 236.725 121.527 C 241.551 119.739, 246.287 117.941, 247.250 117.531 C 248.213 117.121, 249 117.027, 249 117.322 C 249 118.989, 245.081 121.115, 237.633 123.486 C 231.937 125.300, 228.310 127.110, 226.420 129.084 L 223.626 132 232.063 131.983 L 240.500 131.967 250.734 142.661 C 260.779 153.157, 261.016 153.329, 263.561 151.967 C 268.427 149.363, 268.352 147.839, 262.965 139.830 C 256.462 130.164, 254.779 123.166, 257.581 117.444 C 259.824 112.865, 265.105 109, 269.118 109 C 276.353 109, 308.347 121.608, 320.456 129.231 C 340.185 141.651, 357.990 159.226, 371.635 179.750 C 375.749 185.938, 379.539 191, 380.058 191 C 383.182 191, 377.450 177.217, 367.624 161.106 C 348.449 129.664, 331.442 116.376, 284.954 96.513 C 267.227 88.938, 260.168 84.479, 256.040 78.247 C 252.038 72.205, 250.658 66.828, 251.294 59.750 C 251.886 53.157, 250.706 52.419, 245.625 56.206 M 221.003 98.686 C 215.538 101.409, 213.439 104.629, 214.465 108.715 C 214.781 109.976, 215.887 111.537, 216.921 112.183 C 218.675 113.278, 218.589 113.469, 215.651 115.008 C 213.918 115.916, 211.654 118.354, 210.621 120.427 C 209.002 123.674, 208.906 124.743, 209.927 128.151 C 211.738 134.194, 215.540 134.556, 221.838 129.284 L 225.177 126.489 224.068 120.377 C 223.007 114.526, 223.089 113.991, 225.979 107.882 C 231.110 97.036, 229.667 94.368, 221.003 98.686 M 186.547 114.278 L 180.595 117.500 180.723 124.500 L 180.850 131.500 183.675 131.215 C 185.229 131.058, 187.080 130.728, 187.788 130.481 C 188.986 130.065, 197 113.901, 197 111.900 C 197 110.081, 192.344 111.140, 186.547 114.278 M 200.206 113.480 C 198.586 114.844, 196.671 117.379, 195.953 119.114 C 194.801 121.894, 194.854 122.420, 196.398 123.549 C 199.550 125.854, 206.055 123.169, 208.734 118.458 L 210.984 114.500 208.881 112.750 C 206.006 110.357, 203.685 110.553, 200.206 113.480 M 171.500 123.854 C 165.930 127.282, 158 135.136, 158 137.225 C 158 138.346, 159.577 140.751, 161.505 142.570 C 163.448 144.402, 164.562 146.152, 164.005 146.497 C 163.452 146.838, 163 147.991, 163 149.059 C 163 150.436, 163.691 151, 165.378 151 C 168.058 151, 169.432 149.648, 170.459 146 C 170.845 144.625, 172.502 140.206, 174.139 136.180 C 177.026 129.083, 177.622 123.016, 175.500 122.331 C 174.950 122.153, 173.150 122.839, 171.500 123.854 M 184.250 136.808 C 180.719 138.497, 179.880 141, 182.845 141 C 184.900 141, 188.401 137.633, 187.853 136.185 C 187.659 135.672, 186.037 135.953, 184.250 136.808 M 149.300 144.520 C 143.338 151.611, 142 154.751, 142 161.651 C 142 165.701, 142.431 167.981, 143.250 168.263 C 145.046 168.880, 149.984 167.324, 151.989 165.510 C 154.415 163.314, 157.597 144.983, 156.052 142.097 C 154.456 139.114, 153.580 139.428, 149.300 144.520 M 247.516 158.597 C 231.522 162.166, 217.138 169.790, 204.155 181.579 C 184.619 199.317, 172.921 226.562, 174.348 251 C 176.341 285.142, 200.746 318.622, 232.267 330.455 C 240.760 333.644, 254.058 336, 263.559 336 C 304.696 336, 337.816 312.681, 351.352 274.188 C 354.273 265.881, 354.409 264.777, 354.453 249 C 354.494 234.655, 354.199 231.461, 352.196 224.542 C 344.406 197.635, 323.056 173.465, 298.217 163.432 C 287.522 159.112, 280.892 157.815, 267.500 157.421 C 258.165 157.147, 252.531 157.478, 247.516 158.597 M 133.193 166.869 C 128.538 175.604, 127.726 182.016, 130.449 188.532 C 131.655 191.418, 132.412 192, 134.956 192 C 137.445 192, 139.316 190.648, 144.995 184.750 C 148.833 180.762, 151.980 177.229, 151.987 176.897 C 151.994 176.565, 149.845 176.501, 147.211 176.754 C 140.915 177.359, 139.825 175.956, 139.216 166.464 C 138.953 162.359, 138.433 159, 138.061 159 C 137.689 159, 135.499 162.541, 133.193 166.869 M 254.047 169.138 C 238.536 171.710, 221.584 180.475, 209.919 191.956 C 185.039 216.441, 179.124 250.678, 194.535 281 C 198.723 289.241, 201.425 292.846, 209.776 301.334 C 218.114 309.809, 228.460 316.349, 239.806 320.319 C 251.769 324.505, 269.137 325.248, 282.209 322.132 C 310.914 315.292, 332.276 295.095, 340.204 267.299 C 343.378 256.171, 343.360 237.768, 340.164 226.557 C 329.161 187.955, 291.601 162.912, 254.047 169.138 M 468 177.550 C 468 177.853, 469.332 183.140, 470.959 189.300 C 474.988 204.549, 477.631 218.122, 479.462 232.970 C 480.308 239.829, 481 246.043, 481 246.779 C 481 247.516, 481.499 247.809, 482.109 247.432 C 484.382 246.028, 480.846 214.532, 476.485 197.342 C 474.212 188.383, 469.775 177, 468.555 177 C 468.250 177, 468 177.248, 468 177.550 M 121.532 188.063 C 116.642 198.483, 115.895 204.915, 118.894 210.792 C 122.296 217.461, 123.872 217.701, 130.665 212.583 C 140.343 205.292, 144.131 200.161, 137.659 203.110 C 135.578 204.058, 134.722 204.015, 133.367 202.897 C 130.883 200.846, 128.019 193.787, 126.640 186.315 L 125.430 179.757 121.532 188.063 M 112.718 207.647 C 111.354 209.854, 109.001 221.274, 109.009 225.644 C 109.019 230.754, 112.696 238.635, 116.789 242.319 C 118.745 244.080, 118.936 244.073, 122.797 242.103 C 128.747 239.068, 137.566 228.232, 135.647 226.314 C 135.275 225.942, 133.382 227.176, 131.441 229.057 C 127.498 232.879, 126.661 232.457, 125.512 226.065 C 125.102 223.784, 123.647 221.420, 121.471 219.500 C 119.602 217.850, 116.988 214.312, 115.664 211.638 C 114.340 208.964, 113.014 207.168, 112.718 207.647 M 106.636 234.505 C 105.450 237.597, 105.970 252.993, 107.375 256.355 C 109.163 260.635, 114.526 266.703, 118.198 268.602 C 120.872 269.985, 121.363 269.939, 124.479 268.013 C 128.848 265.313, 133.798 259.654, 134.606 256.435 C 135.617 252.406, 134.294 252.409, 130.488 256.444 C 128.337 258.725, 126.372 259.973, 125.475 259.629 C 123.558 258.893, 123.544 253.027, 125.449 248.468 C 126.627 245.648, 126.650 245, 125.571 245 C 124.842 245, 123.685 245.675, 123 246.500 C 119.791 250.366, 115.229 247.395, 110.170 238.145 C 108.002 234.179, 107.113 233.264, 106.636 234.505 M 106.017 265.250 C 106.049 273.113, 108.760 283.140, 111.675 286.183 C 114.567 289.201, 121.580 293, 124.260 293 C 125.156 293, 127.120 291.940, 128.626 290.645 C 131.126 288.495, 131.259 288.039, 130.160 285.387 C 128.638 281.712, 128.374 277.551, 129.352 272.673 L 130.120 268.846 125.560 271.518 L 121 274.190 116.478 271.540 C 113.990 270.082, 110.780 267.114, 109.345 264.945 C 107.909 262.775, 106.569 261, 106.367 261 C 106.165 261, 106.008 262.913, 106.017 265.250 M 137.150 283.579 C 137.067 284.722, 135.612 287.753, 133.916 290.314 C 128.632 298.291, 121.344 298.682, 113.496 291.409 C 112.066 290.084, 110.705 289, 110.470 289 C 109.852 289, 114.908 302.834, 117.133 307.229 C 119.717 312.337, 129.176 316.747, 134.617 315.381 C 137.961 314.542, 138.187 312.529, 135.470 307.778 C 132.364 302.345, 132.381 299.593, 135.568 292.633 C 137.083 289.324, 137.964 285.892, 137.717 284.262 C 137.432 282.377, 137.252 282.160, 137.150 283.579 M 144.813 294.683 C 145.534 294.972, 146.397 294.936, 146.729 294.604 C 147.061 294.272, 146.471 294.036, 145.417 294.079 C 144.252 294.127, 144.015 294.364, 144.813 294.683 M 139.897 306.250 C 140.357 307.493, 141.573 308.500, 142.615 308.500 C 143.808 308.500, 144.617 307.675, 144.820 306.250 C 145.091 304.340, 144.680 304, 142.102 304 C 139.372 304, 139.149 304.228, 139.897 306.250 M 142 313.427 C 142 315.574, 137.096 319, 134.024 319 C 132.536 319, 129.130 318.342, 126.456 317.537 C 123.781 316.732, 121.398 316.269, 121.158 316.508 C 120.919 316.748, 122.473 319.994, 124.612 323.722 C 128.901 331.199, 131.878 333.270, 140.755 334.954 C 147.156 336.167, 150.990 334.980, 153.301 331.067 C 155.116 327.996, 155.576 324, 154.115 324 C 153.628 324, 152.493 325.125, 151.592 326.500 C 150.691 327.875, 149.266 329, 148.426 329 C 146.247 329, 144 322.925, 144 317.032 C 144 314.264, 143.550 312, 143 312 C 142.450 312, 142 312.642, 142 313.427 M 152.575 337.145 C 150.209 339.425, 144.245 339.580, 137.456 337.537 C 134.781 336.732, 132.478 336.189, 132.336 336.331 C 131.967 336.700, 136.919 343.905, 140.873 348.754 C 144.791 353.558, 148.210 355, 155.681 355 C 162.808 355, 163.207 353.639, 158.718 344.651 C 156.753 340.718, 155 337.003, 154.823 336.395 C 154.629 335.732, 153.730 336.031, 152.575 337.145 M 164.667 342.667 C 163.458 343.876, 163.972 349.028, 165.541 351.423 C 166.936 353.551, 166.929 353.928, 165.471 355.386 C 163.253 357.604, 159.770 358.328, 153.992 357.773 C 149.725 357.363, 149.205 357.509, 149.969 358.901 C 151.064 360.897, 158.664 368.148, 161.973 370.352 C 165.833 372.925, 176.607 372.189, 177.724 369.276 C 178.345 367.657, 175.101 361.336, 170.836 355.856 C 166.116 349.791, 167.217 346.607, 174.765 344.491 C 176.010 344.142, 176.771 343.438, 176.456 342.928 C 175.803 341.873, 165.685 341.649, 164.667 342.667 M 181.389 353.980 C 178.526 355.137, 177.970 357.042, 179.160 361.629 C 181.818 371.872, 181.395 372.692, 172.943 373.693 L 167.674 374.317 170.087 376.304 C 171.414 377.397, 174.890 379.397, 177.812 380.747 C 182.818 383.062, 183.491 383.134, 189.513 381.998 C 193.027 381.335, 196.666 380.234, 197.599 379.552 C 199.858 377.899, 198.852 373.985, 195.083 369.767 C 192.346 366.703, 192.080 366.619, 189.504 367.998 C 187.042 369.316, 186.673 369.274, 185.399 367.532 C 184.630 366.479, 184 364.882, 184 363.983 C 184 361.682, 187.831 358.461, 192.250 357.046 C 198.578 355.019, 196.458 352.951, 188.168 353.063 C 185.601 353.098, 182.550 353.511, 181.389 353.980 M 211.169 363.088 C 207.889 365.178, 206.040 365.718, 203.546 365.314 C 199.120 364.595, 198.565 365.943, 200.612 372.439 C 202.978 379.945, 201.500 381.421, 189.500 383.537 L 185.500 384.242 189.832 386.115 C 201.279 391.063, 215.082 392.583, 216.947 389.100 C 217.808 387.491, 216.971 386.236, 211.482 380.907 C 207.917 377.445, 204.994 374.138, 204.986 373.557 C 204.979 372.976, 207.521 370.227, 210.636 367.448 C 217.202 361.590, 217.513 359.044, 211.169 363.088 M 222.694 367.941 C 221.007 370.797, 221.020 370.941, 223.167 372.941 C 225.749 375.346, 226.952 375.487, 229.431 373.674 C 231.438 372.206, 230.979 369.121, 228.363 366.506 C 226.134 364.277, 224.634 364.656, 222.694 367.941 M 233.200 366.200 C 231.866 367.534, 231.561 371, 232.777 371 C 234.372 371, 238 367.835, 238 366.443 C 238 364.695, 234.864 364.536, 233.200 366.200 M 240.500 368.665 C 233.798 372.206, 232.773 374.264, 235.831 378.040 C 238.173 380.932, 241.642 380.204, 245.923 375.923 C 249.447 372.400, 249.862 369.532, 247.066 368.035 C 244.589 366.710, 244.115 366.755, 240.500 368.665 M 250.455 372.455 C 246.470 376.439, 247.625 379, 253.407 379 C 255.724 379, 260 375.252, 260 373.221 C 260 371.868, 256.822 370, 254.520 370 C 253.634 370, 251.805 371.105, 250.455 372.455 M 213.561 374.581 C 212.119 376.023, 212.153 376.406, 213.943 378.920 C 217.454 383.851, 218.773 384.515, 221.019 382.483 C 223.790 379.975, 223.490 377.739, 220.040 375.188 C 216.514 372.581, 215.644 372.499, 213.561 374.581 M 273.436 379.279 C 273.702 382.891, 274.777 386.696, 276.303 389.427 L 278.745 393.795 274.360 396.885 C 269.718 400.157, 263.944 407.515, 262.836 411.571 C 261.864 415.133, 263.536 414.534, 265.099 410.761 C 266.976 406.230, 278.416 395, 281.156 395 L 283.349 395 281.222 392.736 C 278.909 390.275, 276.480 385.057, 274.361 378 L 273.010 373.500 273.436 379.279 M 227.900 377.544 C 224.343 379.408, 219.911 385.464, 219.686 388.767 C 219.502 391.470, 219.566 391.499, 225.500 391.413 C 235.282 391.271, 239 390.265, 239 387.758 C 239 385.330, 234.467 378.320, 232.065 377.035 C 231.097 376.517, 229.485 376.714, 227.900 377.544 M 243.223 380.557 C 241.658 381.653, 241 383.132, 241 385.557 C 241 388.699, 241.257 389, 243.935 389 C 248.743 389, 251.691 387.395, 252.250 384.474 C 252.688 382.181, 252.283 381.598, 249.413 380.399 C 245.339 378.697, 245.898 378.683, 243.223 380.557 M 241.500 401 C 241.146 401.574, 242.080 402.015, 243.691 402.035 C 247.990 402.090, 251.102 404.312, 253.620 409.124 C 256.185 414.026, 256.948 411.801, 254.484 406.607 C 252.082 401.545, 243.463 397.823, 241.500 401" stroke="none" fill="black" fill-rule="evenodd"/>
</svg>