<svg xmlns="http://www.w3.org/2000/svg" width="512" height="512" viewBox="0 0 512 512" version="1.1">
	<path d="M 240.500 35.484 C 173.808 44.916, 113.522 85.122, 88.984 136.533 C 76.444 162.807, 70.496 196.613, 74.035 221.500 C 77.219 243.895, 84.979 260.814, 99.563 277.159 C 103.973 282.101, 105.426 284.658, 107.082 290.392 C 113.430 312.371, 119.814 323.975, 132.460 336.520 C 141.461 345.449, 151.864 351.605, 163.024 354.609 C 166.586 355.567, 170.134 356.835, 170.908 357.426 C 173.399 359.325, 175.955 366.360, 175.978 371.376 C 176.015 379.621, 167.060 399.655, 145.707 439.096 C 127.358 472.987, 126.810 474.517, 132.318 476.447 C 136.131 477.782, 139.877 475.602, 142.598 470.462 C 168.001 422.481, 177.683 402.640, 184.544 384.500 C 188.737 373.415, 189.119 369.550, 186.650 363.204 C 184.331 357.244, 185.432 355.721, 193.679 353.489 C 204.822 350.473, 215.125 344.706, 222.779 337.202 C 235.863 324.375, 241.772 312.664, 243.033 297.061 C 243.859 286.842, 244.918 285, 249.969 285 C 253.953 285, 256.760 287.575, 260.131 294.322 C 261.828 297.720, 264.958 302.829, 267.085 305.676 C 270.879 310.753, 271.674 311.263, 286.650 318.231 C 289.628 319.616, 291.685 324.882, 293.522 335.825 C 297.239 357.966, 305.419 371.186, 322.339 382.400 C 326.827 385.375, 333.524 389.292, 337.220 391.104 C 340.915 392.916, 344.179 395.024, 344.472 395.788 C 344.765 396.552, 343.442 399.002, 341.532 401.234 C 339.622 403.465, 337.613 406.688, 337.068 408.395 C 334.999 414.878, 331.794 442.143, 331.268 457.730 C 330.668 475.525, 331.034 477, 336.051 477 C 341.157 477, 341.681 475.470, 342.274 458.814 C 342.837 443.014, 346.120 416.632, 348.137 411.703 C 349.523 408.316, 353.679 406, 358.370 406 C 360.279 406, 366.488 407.103, 372.170 408.451 C 393.227 413.447, 411.114 414.046, 418.926 410.018 C 428.195 405.238, 433.664 395.169, 434.891 380.621 C 435.461 373.870, 436.244 370.340, 437.597 368.433 C 443.056 360.736, 443.114 360.584, 442.720 355.229 C 442.347 350.160, 442.461 349.878, 445.690 347.882 C 450.482 344.921, 452.363 340.776, 451.611 334.834 C 451.275 332.175, 450.720 327.775, 450.378 325.055 L 449.756 320.111 454.341 317.305 C 456.863 315.762, 461.455 312.987, 464.547 311.137 C 470.557 307.541, 473.990 303.100, 473.996 298.915 C 473.998 297.493, 471.826 292.751, 469.169 288.376 C 461.380 275.552, 446.037 246.434, 445.406 243.279 C 445.054 241.519, 445.875 236.657, 447.491 230.937 C 451.371 217.205, 451.927 201.847, 449.027 188.500 C 445.397 171.791, 445.333 169.581, 448.377 165.964 C 449.820 164.249, 450.998 161.644, 450.995 160.173 C 450.984 153.830, 437.213 128.106, 425.491 112.531 C 395.727 72.984, 348.476 45.223, 296 36.452 C 282.656 34.222, 253.074 33.706, 240.500 35.484 M 245.500 44.676 C 219.250 47.965, 180.983 62.685, 157 78.718 C 121.712 102.309, 100.233 129.454, 91.103 162 C 85.830 180.792, 85.497 183.351, 85.559 204.500 C 85.615 223.378, 85.772 225.002, 88.363 233.451 C 92.962 248.449, 98.151 257.238, 108.467 267.500 C 117.914 276.898, 125.678 282.196, 133.421 284.526 C 135.939 285.284, 138 285.759, 138 285.582 C 138 285.404, 134.322 282.869, 129.827 279.949 C 109.656 266.843, 97.836 251.151, 92.269 230.089 C 90.108 221.914, 89.729 218.288, 89.697 205.500 C 89.651 187.208, 91.565 175.031, 97.082 158.520 C 102.973 140.889, 112.472 124.869, 123.458 114.034 C 126.506 111.028, 128.994 108.778, 128.987 109.034 C 128.980 109.290, 128.080 112.353, 126.987 115.839 C 125.007 122.157, 124.438 130.940, 125.625 136.875 C 126.554 141.519, 128 140.656, 128 135.458 C 128 128.830, 130.808 116.313, 133.475 111.049 C 139.577 99.009, 149.764 89.141, 166.543 79.021 C 191.555 63.935, 223.664 52.942, 251.500 49.934 C 270.756 47.854, 296.733 50.420, 313.758 56.086 C 317.261 57.252, 320.332 58.001, 320.582 57.752 C 321.347 56.986, 309.880 51.308, 303 49.046 C 292.788 45.688, 278.955 43.997, 263 44.156 C 255.025 44.235, 247.150 44.469, 245.500 44.676 M 286.500 69.084 C 278.184 70.297, 264.851 77.054, 258.765 83.140 C 252.609 89.296, 249.011 96.834, 249.046 103.500 L 249.073 108.500 251.631 103.213 C 256.829 92.466, 271.655 82, 285.799 79.090 C 299.963 76.177, 321.790 79.184, 335.475 85.935 C 338.762 87.556, 341.613 88.721, 341.811 88.523 C 342.584 87.750, 333.507 79.865, 328.635 77.077 C 317.768 70.860, 298.886 67.278, 286.500 69.084 M 219.500 72.107 C 210.483 72.961, 205.171 74.423, 196.378 78.472 C 180.918 85.591, 168.866 96.396, 165.071 106.541 C 162.887 112.378, 162.229 123.406, 164 124.500 C 164.550 124.840, 165 124.280, 165 123.255 C 165 119.773, 170.247 110.848, 175.882 104.743 C 190.961 88.409, 217.489 77.338, 239.535 78.177 C 244.193 78.355, 248.004 78.214, 248.002 77.865 C 247.999 76.834, 243.768 74.385, 240 73.233 C 235.102 71.736, 227.706 71.329, 219.500 72.107 M 347.162 78.495 C 347.434 78.767, 352.292 81.257, 357.957 84.027 C 370.825 90.320, 377.725 94.877, 385.742 102.376 C 399.629 115.366, 407.170 131.622, 407.138 148.500 C 407.129 153.532, 406.474 159.603, 405.653 162.269 C 403.740 168.482, 398.680 176.294, 394.150 180.028 C 391.230 182.434, 390.921 182.998, 392.522 182.991 C 395.675 182.976, 404.632 177.349, 407.511 173.575 C 416.445 161.861, 417.119 142.083, 409.123 126.243 C 399.136 106.459, 375.489 86.423, 354.645 80.085 C 347.513 77.916, 346.332 77.665, 347.162 78.495 M 338 94.930 C 331.066 96.316, 328 99.250, 328 104.500 C 328 109.981, 332.118 113.356, 333.498 109.006 C 334.724 105.145, 336.902 104, 343.022 104 C 350.965 104, 358.297 105.643, 365.500 109.037 C 378.795 115.302, 386.655 124.294, 389.844 136.885 C 391.972 145.287, 393.333 144.897, 393.333 135.886 C 393.333 127.598, 388.646 118.441, 380.083 110 C 367.581 97.677, 352.060 92.118, 338 94.930 M 294.871 112.976 C 287.889 114.218, 281.505 117.405, 274.835 122.978 C 271.530 125.740, 268.132 128, 267.286 128 C 266.439 128, 262.473 126.193, 258.471 123.984 C 250.429 119.545, 238.222 116, 230.977 116 C 218.970 116, 206.981 120.615, 197.991 128.698 L 192.813 133.354 181.106 133.427 C 169.679 133.498, 169.220 133.589, 161.879 137.216 C 144.314 145.896, 136 158.647, 136 176.910 L 136 184.884 131.232 190.332 C 122.328 200.508, 118.642 211.492, 120.753 221.560 C 125.667 244.988, 149.332 256.976, 190.703 256.994 C 198.236 256.997, 204.952 257.477, 206.343 258.110 C 209.438 259.521, 211 262.946, 211 268.325 C 211 276.252, 206.461 279.485, 193.251 280.966 C 184.001 282.003, 180.632 284.152, 180.193 289.292 C 179.972 291.874, 180.465 293.465, 181.943 294.943 C 183.853 296.853, 185.181 297, 200.532 297 C 218.670 297, 222.083 296.253, 225.854 291.459 C 227.058 289.928, 228.304 287.511, 228.622 286.088 C 230.900 275.897, 230.728 276.158, 236.281 274.509 C 247.803 271.087, 256.705 271.621, 262.365 276.073 C 263.810 277.209, 266.646 281.595, 268.668 285.819 C 273.963 296.881, 276.797 300.797, 281.509 303.558 C 285.938 306.154, 289.529 306.569, 294.704 305.085 C 296.973 304.434, 298.190 304.524, 298.911 305.393 C 299.470 306.066, 301.074 313.116, 302.477 321.059 C 309.400 360.274, 312.889 365.181, 347.500 384.381 C 368.312 395.926, 384.703 400.957, 401.500 400.956 C 418.144 400.956, 423.491 395.903, 424.999 378.754 C 425.446 373.664, 426.281 368.294, 426.855 366.821 C 427.841 364.284, 427.524 363.840, 420.865 358.460 C 413.941 352.866, 405 342.115, 405 339.383 C 405 338.259, 406.361 338.113, 411.976 338.634 C 417.808 339.176, 420.751 338.815, 429.919 336.431 L 440.885 333.579 440.307 327.386 C 439.479 318.523, 442.008 313.599, 449.731 309.039 C 458.008 304.151, 460 302.135, 460 298.648 C 460 296.755, 456.320 288.775, 450.049 277.072 C 432.326 243.995, 432.357 244.111, 436.909 226.642 C 439.147 218.057, 439.998 212.536, 439.992 206.642 C 439.984 197.753, 438.581 187.082, 436.850 182.741 L 435.750 179.983 428.613 186.741 C 424.687 190.459, 418.458 195.525, 414.770 198 C 411.081 200.475, 408.049 202.776, 408.032 203.114 C 408.014 203.452, 410.083 204.014, 412.630 204.363 C 415.176 204.712, 418.728 205.905, 420.523 207.014 C 424.756 209.631, 427.592 215.414, 426.360 218.917 C 425.018 222.732, 422.476 222.612, 418.923 218.565 C 412.345 211.073, 397.206 209.914, 384.349 215.917 C 373.832 220.827, 368 227.302, 368 234.067 L 368 237.233 371.793 233.806 C 376.694 229.378, 385.916 226.680, 396.500 226.578 C 404.797 226.497, 417 228.622, 417 230.146 C 417 230.627, 416.100 231.790, 415 232.732 C 412.156 235.167, 412.381 241.375, 415.512 246.852 C 416.880 249.246, 418 251.383, 418 251.602 C 418 252.828, 413.856 251.612, 409.478 249.100 C 403.196 245.497, 400.464 240.727, 402.119 236.250 C 403.153 233.453, 401.637 233.332, 393.932 235.596 C 387.550 237.472, 382.263 241.178, 380.916 244.720 C 379.399 248.711, 381.104 249.646, 391.072 250.292 C 399.723 250.852, 406.876 253.123, 407.688 255.566 C 407.872 256.122, 400.204 256.519, 388.749 256.548 C 361.317 256.616, 359.082 257.440, 347.091 271.917 C 340.249 280.178, 332.319 282.832, 324.383 279.515 C 322.429 278.699, 318.101 275.751, 314.766 272.964 C 309.587 268.636, 308.176 267.941, 305.101 268.199 L 301.500 268.500 301.252 278.500 C 300.927 291.594, 300.724 292.255, 296.074 295.333 L 292.113 297.954 291.806 293.727 C 291.540 290.052, 291.174 289.466, 289 289.237 C 279.671 288.257, 276.926 285.739, 273.482 275 C 271.034 267.365, 268.700 264.433, 263.487 262.442 C 257.499 260.155, 252.334 260.952, 240.192 266.035 C 223.376 273.076, 218.090 272.407, 216.746 263.071 C 216.320 260.112, 215.071 256.233, 213.970 254.452 C 210.549 248.917, 206.773 247.864, 187.035 246.948 C 161.255 245.751, 149.991 242.551, 141.313 233.959 C 135.630 228.332, 133.657 223.818, 133.189 215.377 C 132.784 208.067, 133.936 204, 136.413 204 C 138.762 204, 140.191 206.786, 141.578 214.064 C 143.835 225.907, 148.056 230.491, 161.273 235.456 C 171.043 239.126, 171.859 238.707, 166.020 233.020 C 160.025 227.180, 157.111 221.111, 154.081 208.156 C 152.880 203.016, 150.991 196.515, 149.885 193.708 C 146.755 185.767, 145.965 179.909, 147.085 172.951 C 148.328 165.235, 150.071 161.700, 155.359 156.167 C 161.830 149.398, 172.115 145.039, 181.683 145.012 C 185.066 145.002, 185.993 145.403, 186.535 147.112 C 187.483 150.098, 185.532 151.557, 178.082 153.430 C 167.047 156.206, 161.219 161.298, 158.416 170.614 C 156.408 177.286, 156.640 181.080, 159.591 189.824 C 161.016 194.046, 163.293 201.325, 164.652 206 C 167.658 216.347, 170.466 221.331, 176.339 226.745 C 186.073 235.717, 196.440 238.859, 219 239.672 C 234.937 240.247, 245.636 239.138, 247.202 236.748 C 248.358 234.984, 247.207 230.881, 244.846 228.351 C 242.883 226.246, 236.208 223.005, 226.770 219.571 C 223.347 218.325, 220.347 216.004, 215.919 211.175 C 207.981 202.518, 206.455 199.688, 208.579 197.564 C 211.713 194.429, 213.358 195.684, 220.294 206.500 C 222.993 210.710, 224.775 212.132, 231.566 215.500 C 236.002 217.700, 240.823 220.287, 242.280 221.250 C 248.122 225.109, 248.235 224.782, 247.789 205.250 C 247.393 187.941, 247.290 187.214, 243.616 176 C 234.462 148.059, 230.178 137.818, 226.687 135.530 C 224.468 134.077, 223.807 134.054, 220.763 135.326 C 215.165 137.665, 211.984 142.951, 208.934 154.983 C 207.362 161.182, 201.114 167.295, 194.271 169.327 C 191.404 170.178, 184.770 171.190, 179.529 171.575 C 170.460 172.240, 170 172.178, 170 170.292 C 170 166.666, 173.415 164.843, 182.008 163.882 C 195.664 162.354, 198.189 160.576, 201.863 149.898 C 206.150 137.438, 210.776 131.778, 219.352 128.503 C 228.414 125.043, 232.836 127.859, 236.620 139.500 C 237.514 142.250, 239.795 148.289, 241.689 152.920 C 243.675 157.778, 245.655 164.971, 246.370 169.920 C 247.932 180.738, 249.572 181.184, 252.181 171.500 C 255.524 159.091, 261.078 143.181, 262.469 142.026 C 265.039 139.893, 264.796 142.540, 261.419 153.500 C 254.721 175.235, 253 183.045, 253 191.705 C 253 196.267, 253.209 200, 253.465 200 C 253.721 200, 256.084 198.634, 258.715 196.964 C 269.339 190.223, 286.653 187.320, 297.550 190.452 C 307.502 193.313, 316.933 200.467, 314.266 203.134 C 313.707 203.693, 311.613 203.093, 308.923 201.603 C 300.232 196.788, 292.192 194.746, 284 195.271 C 276.122 195.776, 262.679 199.626, 257.367 202.898 L 254.234 204.828 253.510 218.805 C 252.944 229.747, 253.083 233.403, 254.153 235.641 C 255.980 239.464, 268.917 246.093, 275.851 246.760 C 282.838 247.431, 289.781 246.219, 292.072 243.928 C 293.976 242.024, 294.024 242.024, 295.944 243.944 C 301.312 249.312, 319.187 246.993, 329.951 239.534 C 335.240 235.869, 337.712 230.827, 338.547 222 C 338.937 217.875, 339.685 213.960, 340.209 213.300 C 340.734 212.639, 343.638 210.702, 346.663 208.995 C 354.899 204.347, 360.599 198.559, 364.250 191.140 C 367.311 184.920, 367.496 183.923, 367.439 174.018 C 367.391 165.611, 366.932 162.367, 365.156 157.854 C 360.685 146.494, 349.646 132.310, 340.218 125.811 C 326.055 116.049, 307.354 110.756, 294.871 112.976 M 290.280 127.018 C 284.083 130.115, 275 138.698, 275 141.457 C 275 142.306, 275.413 143, 275.918 143 C 276.423 143, 277.484 143.248, 278.275 143.552 C 279.111 143.873, 281.976 142.146, 285.107 139.436 C 291.951 133.512, 297.251 131.050, 303.218 131.022 C 307.771 131.001, 308.101 131.204, 312.718 136.871 C 318.875 144.430, 321.458 145.931, 329.621 146.694 C 339.151 147.583, 340.304 148.971, 339.848 158.999 C 339.446 167.864, 337.626 171, 332.884 171 C 329.258 171, 326.455 168.011, 323.038 160.500 C 320.038 153.908, 317.980 151.661, 315.405 152.167 C 310.719 153.089, 312.598 158.975, 321.520 171.321 C 329.044 181.732, 340.968 180.887, 346.104 169.579 C 348.620 164.037, 348.612 152.944, 346.086 147.383 C 343.579 141.862, 340.668 140.001, 334.527 139.994 C 326.180 139.985, 322.234 138.392, 319.197 133.803 C 313.244 124.813, 311.963 124, 303.737 124 C 297.486 124, 295.369 124.475, 290.280 127.018 M 247.667 131.667 C 246.329 133.004, 246.940 147.706, 248.383 148.903 C 250.218 150.425, 251 148.374, 251 142.043 C 251 133.688, 249.698 129.635, 247.667 131.667 M 280.500 154.128 C 277.750 154.644, 273.717 155.389, 271.537 155.783 C 268.701 156.296, 267.145 157.266, 266.064 159.193 C 265.233 160.675, 264.801 162.134, 265.104 162.437 C 265.917 163.250, 289.907 160.120, 292.178 158.905 C 293.391 158.256, 294.005 157.045, 293.811 155.682 C 293.555 153.887, 292.791 153.473, 289.500 153.345 C 287.300 153.260, 283.250 153.613, 280.500 154.128 M 297.260 168.434 C 293.278 169.724, 287.877 172.154, 285.258 173.835 C 280.600 176.824, 276.420 182.087, 277.693 183.360 C 279.071 184.738, 282.771 183.880, 286.056 181.421 C 292.273 176.766, 299.224 173.790, 305.132 173.254 C 311.751 172.654, 313.514 170.644, 309.950 167.759 C 307.188 165.522, 306.068 165.582, 297.260 168.434 M 218.400 168.399 C 218.105 169.168, 219.013 172.066, 220.419 174.839 C 221.824 177.613, 223.931 183.396, 225.102 187.691 C 226.273 191.986, 227.645 196.287, 228.150 197.250 C 229.271 199.382, 233.844 199.570, 234.632 197.516 C 235.288 195.808, 228.519 172.620, 226.381 169.250 C 224.751 166.681, 219.283 166.098, 218.400 168.399 M 107.095 173.699 C 103.134 178.500, 100.257 186.139, 98.958 195.298 C 97.080 208.537, 100.795 224.890, 106.944 230.451 L 109.101 232.401 106.961 227.451 C 104.026 220.659, 102.038 210.791, 102.017 202.910 C 101.997 195.249, 104.964 182.648, 108.464 175.536 C 109.807 172.806, 110.754 170.420, 110.568 170.235 C 110.382 170.049, 108.819 171.608, 107.095 173.699 M 354.020 176.958 C 351.185 183.010, 348.549 185.559, 339.500 190.998 C 327.625 198.135, 320 207.022, 320 213.727 C 320 219.874, 324.722 218.995, 327.507 212.330 C 330.102 206.119, 333.925 202.346, 342.062 197.967 C 351.592 192.837, 355.362 188.886, 357.457 181.833 C 360.529 171.487, 358.158 168.123, 354.020 176.958 M 193.200 180.672 C 184.533 184.943, 179.576 195.320, 180.151 207.987 C 180.460 214.783, 180.910 216.409, 183.504 220.080 C 187.129 225.212, 191.882 227.817, 200.226 229.245 C 210.599 231.020, 217.143 228.635, 214.305 224.114 C 213.539 222.893, 211.091 222.376, 204.241 221.991 C 197.100 221.589, 194.718 221.061, 192.956 219.491 C 186.201 213.468, 186.377 198.550, 193.290 191.192 C 194.497 189.907, 197.154 187.917, 199.196 186.770 C 203.391 184.412, 204.564 182.384, 202.895 180.373 C 201.378 178.545, 197.258 178.672, 193.200 180.672 M 282.200 209.200 C 279.365 212.035, 282.124 217, 286.536 217 C 288.747 217, 291 214.546, 291 212.137 C 291 208.846, 284.667 206.733, 282.200 209.200 M 298.861 215.999 C 296.544 217.961, 296.536 218.027, 298.441 219.499 C 301.880 222.158, 310.364 220.820, 311.671 217.414 C 312.515 215.215, 310.321 214.034, 305.361 214.015 C 302.658 214.005, 300.402 214.694, 298.861 215.999 M 271.250 223.662 C 269.382 224.416, 269.742 227.794, 271.750 228.351 C 272.712 228.618, 276.200 229.137, 279.500 229.505 C 282.800 229.873, 288.200 230.803, 291.500 231.572 C 301.287 233.853, 307.405 233.411, 316.702 229.750 C 321.241 227.963, 324.965 226.135, 324.978 225.690 C 324.990 225.244, 318.587 225.171, 310.750 225.526 C 299.569 226.034, 294.924 225.832, 289.185 224.587 C 282.108 223.052, 273.821 222.625, 271.250 223.662 M 285.195 271.750 C 285.451 275.732, 285.823 276.500, 287.500 276.500 C 289.177 276.500, 289.549 275.732, 289.805 271.750 C 290.096 267.219, 289.989 267, 287.500 267 C 285.011 267, 284.904 267.219, 285.195 271.750 M 213.763 278.565 C 210.720 280.216, 209.168 284.452, 210.706 286.905 C 211.257 287.782, 212.899 288.925, 214.356 289.444 C 220.008 291.458, 225.442 283.356, 221.420 278.912 C 219.366 276.642, 217.465 276.556, 213.763 278.565 M 186.011 287.487 C 183.987 289.925, 185.561 292, 189.433 292 C 192.997 292, 195.208 289.834, 194.282 287.250 C 193.656 285.507, 187.508 285.683, 186.011 287.487 M 438.500 297.719 C 435.234 298.515, 433 301.121, 433 304.136 C 433 308.220, 436.493 308.789, 444.272 305.972 C 452.504 302.991, 455 301.364, 455 298.977 C 455 297.179, 454.344 297.010, 447.750 297.116 C 443.762 297.180, 439.600 297.451, 438.500 297.719 M 426.441 350.532 C 428.941 352.423, 431 352.408, 431 350.500 C 431 349.468, 429.986 349.010, 427.750 349.032 C 424.676 349.062, 424.605 349.143, 426.441 350.532" stroke="none" fill="black" fill-rule="evenodd"/>
</svg>