<svg xmlns="http://www.w3.org/2000/svg" width="512" height="512" viewBox="0 0 512 512" version="1.1">
	<path d="M 237.325 16.027 C 215.376 18.794, 194.081 25.049, 174.117 34.595 C 150.392 45.938, 133.365 59.446, 121.125 76.636 C 102.418 102.907, 92.785 139.922, 96.195 172.429 C 97.881 188.491, 97.675 193.558, 95.101 199.401 C 88.879 213.523, 90.093 225.771, 99.778 246.594 C 106.084 260.150, 108 266.801, 108 275.132 C 108 278.591, 108.984 282.407, 111.146 287.332 C 115.676 297.653, 115.682 305.775, 111.165 313.042 L 107.915 318.270 112.707 317.583 C 115.343 317.206, 118.260 316.808, 119.190 316.699 C 120.297 316.568, 122.216 318.700, 124.757 322.882 L 128.635 329.265 123.689 340.882 C 117.391 355.673, 104.794 377.885, 99.118 384.207 C 96.708 386.891, 91.765 391.205, 88.134 393.794 C 79.028 400.285, 64.052 413.346, 60.834 417.604 C 59.368 419.544, 57.630 423.464, 56.972 426.315 C 56.314 429.167, 54.229 434.313, 52.339 437.750 C 50.449 441.188, 49.355 444, 49.908 444 C 50.461 444, 55.237 439.062, 60.521 433.027 C 69.646 422.606, 83.565 408.916, 89.010 405.007 L 91.520 403.206 107.510 416.196 C 136.698 439.909, 160.467 462.137, 174.935 479.250 L 183.177 489 197.589 489 C 211.116 489, 212 488.883, 212 487.087 C 212 485.961, 209.425 483.029, 205.750 479.968 C 198.249 473.720, 163 441.878, 163 441.350 C 163 440.084, 199.317 469.590, 211.495 480.750 L 220.498 489 233.249 489 C 242.429 489, 246 488.667, 246 487.812 C 246 485.091, 211.929 453.893, 167 415.475 C 136.918 389.752, 126.967 380.298, 123.911 374.539 L 121.554 370.096 125.940 359.298 C 129.823 349.738, 134.628 339.180, 135.576 338.128 C 135.760 337.924, 139.193 340.771, 143.205 344.456 C 158.068 358.105, 177.726 369.526, 209.500 382.972 C 218.850 386.929, 232.569 393.075, 239.988 396.630 C 252.967 402.850, 273.564 415.624, 277.299 419.769 C 279.047 421.710, 278.974 421.942, 274.654 428.132 C 268.792 436.534, 250.291 468.993, 249.446 472.359 C 248.906 474.510, 249.128 474.993, 250.642 474.963 C 251.853 474.939, 254.752 471.593, 258.974 465.346 C 262.535 460.077, 266.027 455.543, 266.736 455.271 C 269.266 454.300, 289.936 473.703, 289.979 477.089 C 289.991 477.964, 288.868 479.195, 287.485 479.825 C 284.211 481.316, 282.418 485.137, 283.817 487.637 C 284.788 489.372, 286.247 489.471, 306.178 489.148 C 318.697 488.945, 328.016 488.380, 328.750 487.779 C 331.963 485.148, 327.747 478.755, 319.574 473.867 C 313.617 470.304, 313 468.926, 313 459.179 L 313 453.607 315.587 458.798 C 319.474 466.600, 335.237 480.096, 337.647 477.686 C 338.017 477.316, 337.128 473.073, 335.672 468.257 C 332.923 459.166, 330.605 446.288, 331.181 443.301 C 331.398 442.173, 334.064 445.180, 338.927 452.040 C 343.005 457.793, 350.575 468.463, 355.750 475.750 L 365.158 489 374.520 489 C 379.669 489, 384.152 488.563, 384.482 488.029 C 385.629 486.173, 382.282 480.929, 372.076 468.595 C 371.209 467.548, 375.860 470.360, 382.411 474.845 C 392.061 481.452, 395.027 483, 398.038 483 C 405.946 483, 404.983 481.654, 379.817 457.524 C 366.638 444.888, 356.301 434.400, 356.845 434.218 C 357.390 434.037, 368.335 439.483, 381.168 446.322 C 394.001 453.161, 410.125 461.569, 417 465.007 C 432.973 472.995, 437.072 475.857, 442.128 482.554 C 446.009 487.694, 446.486 488, 450.620 488 C 453.029 488, 455 487.530, 455 486.955 C 455 486.380, 452.787 482.630, 450.082 478.621 C 441.392 465.744, 438.366 463.702, 399.017 444.164 C 379.450 434.449, 358.020 423.955, 351.393 420.845 C 336.931 414.058, 332.879 410.569, 330.668 403 C 329.785 399.975, 327.923 395.836, 326.531 393.803 C 323.354 389.162, 323.347 386.930, 326.496 383.187 C 329.534 379.577, 334.708 377.404, 343.687 375.970 C 356.234 373.966, 363.345 369.060, 368.701 358.717 C 371.214 353.863, 371.450 352.316, 372.086 336.500 C 372.700 321.223, 373.049 318.790, 375.526 312.500 C 377.903 306.466, 378.379 303.480, 378.978 290.861 L 379.673 276.223 385.359 264.296 C 393.829 246.529, 394.359 239.195, 388.495 220.936 C 386.706 215.363, 385.773 210.243, 385.746 205.851 C 385.710 199.952, 386.140 198.427, 389.552 192.351 C 397.543 178.119, 398.435 175.878, 398.468 169.946 C 398.497 164.763, 398.074 163.641, 393.703 157.297 C 387.930 148.921, 386.389 144.156, 384.984 130.338 C 383.875 119.438, 381.699 112.289, 376.134 101.265 C 374.410 97.851, 373 94.654, 373 94.161 C 373 93.669, 374.835 92.051, 377.079 90.567 C 381.684 87.519, 384.492 82.098, 383.505 78.164 C 383.153 76.760, 380.480 73.321, 377.566 70.520 C 373.396 66.514, 371.917 64.225, 370.625 59.781 C 367.908 50.437, 363.520 46.506, 351.850 42.960 C 348.743 42.016, 343.343 39.207, 339.850 36.717 C 320.455 22.888, 295.833 16.172, 262 15.481 C 252.375 15.284, 241.271 15.530, 237.325 16.027 M 298.286 38.696 C 297.807 39.945, 299.788 42.410, 305.795 48.043 C 319.042 60.463, 334.221 66.979, 346.864 65.675 C 353.939 64.944, 356.134 63, 349.884 63 C 336.233 63, 325.661 58.346, 309.979 45.435 C 304.345 40.796, 299.555 37, 299.336 37 C 299.117 37, 298.644 37.763, 298.286 38.696 M 287.464 48.058 C 286.356 49.851, 300.252 64.209, 308.378 69.668 C 319.102 76.872, 331.042 81.090, 342.556 81.741 C 349.758 82.147, 352.265 81.914, 354.806 80.600 C 356.563 79.692, 358 78.699, 358 78.395 C 358 78.090, 355.185 78.142, 351.743 78.511 C 347.275 78.989, 343.631 78.703, 338.993 77.510 C 329.945 75.181, 312.331 65.805, 304.429 59.112 C 289.630 46.575, 288.739 45.995, 287.464 48.058 M 281.922 70.750 C 277.149 78.739, 271.396 83.399, 258.324 89.863 C 239.281 99.281, 220.013 102.632, 203.393 99.416 C 199.135 98.592, 198.686 100.365, 201.186 108.144 C 202.604 112.558, 203.382 118.319, 203.731 127 C 204.198 138.623, 204.045 140.061, 201.558 147.500 C 200.087 151.900, 196.459 159.775, 193.496 165 C 190.534 170.225, 187.635 175.767, 187.055 177.315 C 185.503 181.457, 185.763 193.085, 187.672 204.819 C 189.069 213.411, 189.167 216.701, 188.256 224.481 C 187.330 232.393, 187.412 234.757, 188.791 239.903 C 190.894 247.751, 189.883 249.153, 184.023 246.510 C 181.799 245.508, 179.850 244.870, 179.692 245.094 C 179.534 245.317, 178.873 246.738, 178.224 248.250 C 176.006 253.415, 173.680 251.803, 168.124 241.250 C 161.682 229.012, 158.466 224.878, 157.039 227 C 156.484 227.825, 156.024 231.449, 156.015 235.054 C 156.002 240.678, 156.439 242.301, 159.095 246.488 C 162.930 252.537, 164.109 255.552, 163.380 257.453 C 162.483 259.790, 159.670 260.148, 155.041 258.514 C 152.680 257.682, 147.920 257, 144.463 257 C 138.719 257, 137.962 256.744, 135.675 254.025 C 130.768 248.194, 129.682 240.747, 131.430 224.901 C 132.236 217.596, 132.177 217.237, 129.912 215.651 C 126.741 213.430, 122.701 213.568, 120.526 215.971 C 112.555 224.780, 121.823 252.547, 135.570 261.043 C 139.268 263.329, 139.864 264.731, 137.520 265.631 C 135.327 266.472, 126.604 259.635, 120.942 252.637 C 110.198 239.358, 106.012 226.826, 108.064 214.081 C 109.288 206.482, 109.984 205.033, 114.054 201.608 C 118.676 197.719, 125.226 197.959, 131.605 202.250 C 137.685 206.340, 141.711 212.059, 144.608 220.724 L 146.873 227.500 146.937 221.693 C 147.078 208.769, 142.966 202.076, 131.394 196.394 C 119.927 190.763, 108.848 193.523, 103.862 203.251 C 100.631 209.553, 100.209 219.865, 102.873 227.408 C 108.782 244.138, 131.152 273.756, 144.209 282.134 C 153.206 287.907, 162.541 286.052, 167.556 277.494 C 169.005 275.022, 170.604 273.255, 171.109 273.568 C 172.795 274.609, 176.044 281.966, 181.151 296.301 C 189.543 319.858, 195.480 328.779, 206.771 334.797 C 210.021 336.529, 220.754 340.172, 230.685 342.913 C 240.594 345.648, 253.339 349.942, 259.006 352.455 C 264.673 354.967, 269.498 356.835, 269.727 356.606 C 269.957 356.377, 269.058 354.459, 267.729 352.344 C 265.411 348.654, 265.143 346, 267.087 346 C 267.594 346, 271.852 349.570, 276.550 353.933 C 290.808 367.175, 295.931 368.616, 323 366.998 C 332.625 366.423, 342.891 365.474, 345.813 364.890 C 351.998 363.654, 357.020 359.740, 360.309 353.595 C 362.312 349.851, 362.478 348.280, 362.243 335.285 C 361.993 321.383, 362.064 320.838, 365.477 310.636 C 368.734 300.904, 369.013 299.050, 369.643 283.039 C 370.316 265.923, 370.326 265.865, 373.294 262.188 C 378.214 256.092, 382.188 246.585, 382.695 239.696 C 383.095 234.258, 382.660 232.215, 379.143 223 L 375.135 212.500 364.567 212.288 C 358.755 212.172, 354.009 212.397, 354.020 212.788 C 354.032 213.180, 355.846 216.875, 358.052 221 C 365.070 234.124, 366.357 237.373, 366.762 243 C 367.362 251.340, 364.257 256.598, 356.430 260.500 C 353.119 262.150, 349.133 264.512, 347.571 265.750 C 343.534 268.948, 338.486 268.694, 332.661 265 C 327.315 261.610, 324.288 261.283, 319.788 263.610 C 314.117 266.542, 301.966 262.752, 297.552 256.675 C 293.487 251.079, 295.545 241.376, 302.308 234.250 C 305.540 230.845, 307.810 230.210, 309.766 232.166 C 310.654 233.054, 310.106 234.247, 307.466 237.169 C 304.801 240.119, 304 241.878, 304 244.780 C 304 252.218, 308.531 254.944, 314.429 251.056 C 316.040 249.994, 320.138 248.373, 323.536 247.453 C 329.664 245.794, 329.774 245.801, 337.182 248.358 C 345.832 251.344, 350.450 250.785, 353.955 246.331 C 357.482 241.846, 356.663 237.274, 349.500 221.463 C 345.925 213.572, 343 206.819, 343 206.458 C 343 206.096, 341.200 202.011, 339 197.381 C 336.800 192.750, 335.008 187.958, 335.017 186.731 C 335.026 185.504, 336.369 182.250, 338 179.500 C 340.265 175.682, 340.970 173.259, 340.983 169.250 C 340.992 166.363, 341.337 164.003, 341.750 164.007 C 342.163 164.010, 343.850 164.907, 345.500 166 C 347.150 167.093, 349.100 167.990, 349.833 167.993 C 351.981 168.004, 378.936 150.627, 378.969 149.210 C 378.986 148.501, 378.073 146.104, 376.941 143.885 C 373.370 136.885, 363.888 134.673, 349.601 137.508 C 344.816 138.458, 340.629 138.962, 340.296 138.630 C 339.963 138.297, 341.843 137.072, 344.473 135.909 C 350.921 133.057, 362.850 132.329, 369.453 134.385 C 372.178 135.233, 374.572 135.762, 374.773 135.560 C 374.975 135.358, 374.444 131.160, 373.593 126.231 C 371.483 114.005, 364.111 96.963, 359.548 93.765 C 358.972 93.361, 355.478 93.024, 351.785 93.015 C 348.092 93.007, 342.986 92.293, 340.440 91.428 C 337.894 90.564, 335.585 90.082, 335.309 90.358 C 335.033 90.633, 335.229 92.833, 335.744 95.246 C 336.719 99.822, 335.864 104, 333.951 104 C 333.338 104, 330.961 102.501, 328.668 100.668 C 326.376 98.835, 320.035 94.673, 314.578 91.418 C 308.045 87.521, 301.344 82.341, 294.956 76.250 C 289.621 71.162, 285.010 67, 284.709 67 C 284.409 67, 283.155 68.688, 281.922 70.750 M 333 123.552 C 327.495 125.286, 320.601 125.369, 307.500 123.858 C 298.766 122.850, 296.487 122.929, 289.500 124.480 C 284.590 125.571, 274.355 126.545, 263 127.004 C 242.791 127.820, 235.718 129.478, 230.994 134.506 C 227.704 138.009, 228.944 138.445, 234.098 135.597 C 241.314 131.611, 246.593 130.700, 264 130.437 C 275.402 130.265, 282.199 129.699, 286 128.606 C 292.475 126.743, 302.532 126.572, 315.516 128.104 C 324.369 129.148, 325.482 129.057, 336.187 126.430 C 342.409 124.902, 347.928 123.280, 348.450 122.826 C 350.025 121.457, 337.831 122.029, 333 123.552 M 247.932 149.062 C 242.390 149.936, 234.325 153.898, 229.544 158.095 C 225.612 161.548, 216 175.378, 216 177.584 C 216 179.908, 218.849 179.223, 226.377 175.086 C 241.212 166.934, 252.116 166.146, 269.750 171.954 C 274.838 173.629, 280.590 175, 282.532 175 C 285.951 175, 293 177.325, 293 178.453 C 293 178.758, 292.100 180.686, 291 182.739 C 289.900 184.791, 289 187.037, 289 187.729 C 289 188.421, 286.147 187.034, 282.661 184.647 C 279.030 182.161, 274.591 180.030, 272.269 179.659 C 263.260 178.218, 249.718 183.162, 237.750 192.260 C 234.037 195.083, 231 197.803, 231 198.305 C 231 198.808, 232.583 199.034, 234.517 198.808 C 239.592 198.216, 238.365 199.927, 231.180 203.461 C 227.781 205.132, 225 206.838, 225 207.250 C 225 208.499, 231.377 208.093, 236.591 206.511 C 239.291 205.692, 243.975 205.014, 247 205.004 C 250.792 204.992, 253.432 204.370, 255.500 203 C 257.150 201.907, 259.895 201.010, 261.601 201.007 C 269.355 200.990, 273 197.748, 273 190.868 C 273 188.219, 273.265 187.946, 275.250 188.548 C 278.437 189.514, 282 193.019, 282 195.187 C 282 196.432, 283.763 197.861, 287.458 199.610 C 290.460 201.032, 293.441 202.826, 294.081 203.597 C 295.838 205.714, 297.941 205.285, 298.961 202.603 C 299.704 200.649, 300.846 200.071, 305.134 199.482 C 308.953 198.956, 311.165 197.989, 313.198 195.956 C 316.572 192.582, 316.702 190.124, 313.812 184.339 L 311.625 179.959 314.887 177.229 C 317.760 174.826, 318.217 173.753, 318.714 168.250 C 319.024 164.813, 318.961 162, 318.574 162 C 318.187 162, 316.735 163.350, 315.347 165 C 312.003 168.974, 309.660 168.813, 300.724 163.993 C 289.331 157.847, 266.508 150.082, 256 148.776 C 254.075 148.537, 250.444 148.666, 247.932 149.062 M 376 172.343 C 371.325 174.130, 366.607 175.936, 365.517 176.355 C 363.886 176.981, 364.593 177.547, 369.496 179.540 C 372.776 180.873, 376.732 182.905, 378.289 184.055 C 380.548 185.726, 381.410 185.904, 382.569 184.943 C 385.732 182.318, 387.944 168.860, 385.183 169.046 C 384.807 169.071, 380.675 170.555, 376 172.343 M 359.630 188.134 C 358.120 189.022, 358.024 189.401, 359.130 190.102 C 361.641 191.692, 365.179 191.169, 364.812 189.261 C 364.404 187.143, 362.149 186.652, 359.630 188.134 M 264.226 188.839 C 262.466 189.956, 266.359 193.460, 268.463 192.653 C 270.467 191.884, 270.439 189.383, 268.418 188.607 C 266.377 187.824, 265.773 187.857, 264.226 188.839 M 369 191.066 C 369 196.912, 367.650 198, 360.399 198 C 352.770 198, 350 199.172, 350 202.399 C 350 204.664, 350.322 204.748, 361.702 205.449 C 372.340 206.104, 373.524 206.004, 374.730 204.354 C 376.670 201.702, 375.886 199.674, 372.490 198.561 C 370.846 198.022, 369.348 197.485, 369.162 197.369 C 368.976 197.252, 369.783 195.860, 370.956 194.274 C 373.185 191.258, 372.893 188, 370.393 188 C 369.505 188, 369 189.112, 369 191.066 M 274 207.479 C 270.425 208.759, 263.471 210.294, 258.547 210.892 C 253.623 211.489, 248.971 212.601, 248.209 213.363 C 247.028 214.543, 247.803 214.853, 253.451 215.458 C 266.700 216.877, 290.231 210.418, 287.559 206.096 C 286.502 204.385, 281.107 204.935, 274 207.479 M 283.566 257.893 C 283.218 258.457, 279.010 261.472, 274.216 264.593 C 262.637 272.132, 259.388 275.361, 257.281 281.424 C 254.399 289.715, 255.310 306.316, 258.958 311.992 C 259.743 313.213, 260.151 313.248, 261.208 312.188 C 262.137 311.257, 262.413 308.081, 262.189 300.888 C 261.734 286.250, 263.185 282.620, 273.652 272.215 C 281.330 264.581, 285.835 258.502, 284.674 257.341 C 284.413 257.080, 283.915 257.328, 283.566 257.893 M 342 291.597 C 336.610 294.124, 336.398 294.144, 331.412 292.588 C 324.246 290.352, 317.267 290.603, 302.410 293.632 C 290.903 295.978, 288.873 296.136, 283.726 295.088 C 277.146 293.748, 276 294.119, 276 297.595 C 276 299.577, 276.947 300.505, 280.750 302.245 C 285.079 304.227, 287.185 304.424, 304.500 304.476 C 314.950 304.507, 326.743 304.926, 330.707 305.408 C 337.093 306.183, 338.498 306.032, 343.032 304.082 C 348.725 301.633, 351.771 301.663, 353.352 304.185 C 355.028 306.860, 352.154 311.037, 347.095 313.279 C 340.633 316.142, 321.910 315.304, 310.074 311.622 C 305.439 310.180, 300.757 309, 299.669 309 C 297.766 309, 297.758 309.075, 299.466 310.962 C 300.442 312.041, 305.462 315.478, 310.621 318.599 C 315.779 321.720, 320 324.443, 320 324.651 C 320 324.858, 318.538 326.408, 316.750 328.095 L 313.500 331.162 317 330.489 C 323.353 329.267, 335.391 328.109, 342.300 328.054 C 346.115 328.024, 350.306 327.376, 351.848 326.579 C 355.750 324.561, 360.036 316.152, 360.692 309.228 C 360.990 306.077, 361.857 302.503, 362.617 301.285 C 364.597 298.114, 364.330 295.649, 361.750 293.299 C 356.147 288.196, 350.327 287.695, 342 291.597 M 142.913 294.262 C 142.865 294.393, 142.740 298.100, 142.635 302.500 C 142.507 307.856, 141.875 311.558, 140.722 313.700 C 138.332 318.142, 138.568 320.713, 141.896 326.515 C 148.521 338.067, 162.022 349.675, 179.085 358.493 C 189.994 364.130, 223.277 379.056, 223.791 378.542 C 224.473 377.860, 220.112 370.347, 215.344 363.989 C 212.680 360.437, 205.062 351.821, 198.415 344.843 C 184.959 330.717, 181.192 324.672, 176.079 309 C 171.954 296.352, 171.701 295.995, 168.803 298.710 C 163.148 304.007, 158.175 303.682, 148.250 297.366 C 145.363 295.528, 142.961 294.132, 142.913 294.262 M 310.903 403.632 C 308.615 406.729, 304.550 411.684, 301.871 414.642 C 299.192 417.601, 297 420.298, 297 420.636 C 297 420.974, 298.293 420.991, 299.874 420.675 C 306.444 419.361, 317.894 432.901, 322.149 447.017 C 323.408 451.194, 323.520 450.169, 323.791 432 C 323.984 419.027, 323.678 411.039, 322.878 408.134 C 321.701 403.861, 317.689 398, 315.943 398 C 315.459 398, 313.191 400.534, 310.903 403.632" stroke="none" fill="black" fill-rule="evenodd"/>
</svg>