<svg xmlns="http://www.w3.org/2000/svg" width="512" height="512" viewBox="0 0 512 512" version="1.1">
	<path d="M 236 5.559 C 234.625 5.790, 229.675 6.478, 225 7.088 C 187.536 11.978, 150.447 25.571, 119.500 45.754 C 96.835 60.535, 73.235 81.394, 59.772 98.546 C 31.042 135.145, 11.483 181.757, 4.610 230 C 0.981 255.474, 1.572 263.153, 7.211 263.810 C 11.168 264.271, 12.664 261.002, 13.362 250.375 C 16.721 199.179, 37.816 143.707, 68.457 105.500 C 97.252 69.593, 144.154 38.584, 190 25.141 C 230.379 13.301, 273.030 12.565, 313.538 23.010 C 358.007 34.476, 403.179 62.259, 435.332 97.922 C 469.788 136.139, 492.546 190.673, 498.110 248.353 C 499.418 261.915, 500.274 264, 504.536 264 C 508.520 264, 509.355 260.889, 508.680 248.550 C 506.426 207.324, 489.023 155.433, 465.232 119 C 435.703 73.779, 387.881 36.414, 337.144 18.919 C 309.793 9.488, 289.615 5.976, 260 5.490 C 248.175 5.297, 237.375 5.327, 236 5.559 M 233.500 35.132 C 182.731 41.508, 131.413 67.743, 94.449 106.218 C 64.668 137.216, 45.290 177.428, 36.485 226.500 C 34.217 239.139, 33.424 268.128, 34.964 282.077 C 38.953 318.196, 51.300 352.014, 71.685 382.649 C 101.728 427.798, 156.722 463.923, 212.062 474.862 C 243.993 481.173, 279.210 480.176, 310.781 472.068 C 348.591 462.358, 388.908 438.405, 418.018 408.357 C 429.844 396.150, 437.230 386.661, 445.620 372.895 C 467.929 336.286, 479.506 288.172, 476.030 246.500 C 471.021 186.430, 443.848 130.128, 402.380 93.895 C 364.085 60.435, 321.313 40.507, 276.026 35.026 C 266.081 33.822, 243.481 33.879, 233.500 35.132 M 239.691 50.089 C 216.953 51.965, 196.212 57.942, 172.187 69.541 C 103.645 102.631, 62.559 160.079, 52.423 237 C 50.070 254.855, 50.952 281.946, 54.428 298.597 C 60.942 329.804, 75.752 361.552, 94.604 384.721 C 126.214 423.569, 173.304 451.247, 223 460.187 C 238.075 462.898, 266.512 463.104, 282 460.614 C 323.131 454, 357.719 438.158, 390.173 411.069 C 421.116 385.242, 443.147 349.895, 453.481 309.500 C 458.038 291.687, 459.376 280.506, 459.404 260 C 459.468 214.243, 443.540 167.099, 416.171 132.039 C 380.695 86.595, 324.602 55.235, 269.500 50.039 C 257.371 48.895, 254.095 48.901, 239.691 50.089 M 251.455 59.455 C 247.389 63.521, 248.216 70.026, 253.121 72.563 C 260.609 76.435, 266.726 65.635, 260.545 59.455 C 259.195 58.105, 257.150 57, 256 57 C 254.850 57, 252.805 58.105, 251.455 59.455 M 243 82.034 C 206.417 84.434, 165.578 103.390, 135.827 131.777 C 111.798 154.706, 95.385 185.806, 87.293 223.744 C 84.796 235.453, 84.571 238.346, 84.554 259 C 84.533 283.784, 85.797 292.546, 92.124 311.497 C 110.824 367.510, 162.575 412.649, 223.024 425.674 C 236.233 428.520, 273.724 428.260, 287.612 425.227 C 353.630 410.807, 405.850 361.377, 421.998 298.022 C 436.150 242.496, 418.785 179.109, 377.692 136.297 C 349.466 106.891, 306.870 84.979, 273.108 82.499 C 257.436 81.347, 254.222 81.298, 243 82.034 M 239 95.088 C 194.491 100.801, 149.569 128.703, 124.834 166 C 114.136 182.131, 105.206 204.163, 101.053 224.675 C 92.309 267.860, 99.972 309.284, 123.148 344.108 C 131.029 355.949, 150.958 376.005, 164 385.219 C 213.965 420.520, 272.031 425.137, 324.812 398.006 C 340.954 389.709, 353.474 380.518, 367.049 367 C 412.280 321.963, 424.896 257.022, 400.340 195.650 C 391.891 174.535, 379.561 156.506, 362.175 139.845 C 327.511 106.630, 280.935 89.705, 239 95.088 M 245.500 108.634 C 180.480 115.601, 125.829 165.122, 112.628 229.035 C 109.926 242.117, 108.889 257.782, 110.008 268.618 C 115.242 319.279, 145.514 362.258, 192.980 386.419 C 214.617 397.432, 230.302 401.263, 254 401.320 C 271.240 401.361, 281.050 399.879, 296.964 394.829 C 348.912 378.343, 389.925 331.643, 398.553 279.150 C 400.625 266.546, 400.084 240.762, 397.502 229 C 390.977 199.276, 377.974 175.842, 355.568 153.426 C 332.788 130.635, 306.130 115.896, 278.062 110.571 C 269.631 108.972, 252.089 107.928, 245.500 108.634 M 117.357 118.992 C 114.563 120.119, 112 123.839, 112 126.768 C 112 130.261, 116.274 134, 120.266 134 C 129.210 134, 131.714 122.868, 123.538 119.452 C 121.628 118.653, 119.937 118.029, 119.782 118.063 C 119.627 118.098, 118.536 118.516, 117.357 118.992 M 382.635 121.073 C 378.945 123.975, 379.101 128.255, 383.040 132.194 C 385.596 134.749, 386.591 135.132, 389.287 134.593 C 396.302 133.190, 398.726 125.741, 393.601 121.333 C 390.245 118.447, 386.098 118.348, 382.635 121.073 M 239.500 122.626 C 238.400 122.842, 235.025 123.495, 232 124.076 C 193.744 131.426, 155.517 161.129, 137.506 197.500 C 127.392 217.925, 123.662 234.037, 123.616 257.500 C 123.583 274.437, 125.211 284.741, 130.136 298.775 C 144.558 339.867, 181.829 374.049, 224.886 385.673 C 237.856 389.174, 261.952 390.065, 275.500 387.545 C 294.883 383.939, 316.220 374.531, 332.041 362.614 C 348.547 350.180, 365.085 330.707, 373.750 313.500 C 377.909 305.240, 382.591 291.648, 384.680 281.765 C 387.318 269.290, 387.062 243.782, 384.163 230.266 C 378.437 203.566, 366.097 181.076, 346.583 161.781 C 320.431 135.922, 287.627 121.815, 254.343 122.116 C 247.279 122.180, 240.600 122.409, 239.500 122.626 M 235 142.554 C 191.182 151.956, 154.950 186.977, 143.940 230.571 C 138.601 251.714, 139.075 268.451, 145.598 289.136 C 154.558 317.544, 177.636 344.716, 204.800 358.838 C 231.326 372.629, 261.244 374.917, 290 365.353 C 334.439 350.575, 367.327 308.103, 369.704 262.422 C 372.596 206.839, 331.058 154.390, 274.685 142.444 C 266.050 140.614, 243.752 140.676, 235 142.554 M 238 156.503 C 214.854 161.185, 192.759 175.305, 177.761 195 C 171.281 203.511, 162.550 221.441, 159.990 231.500 C 155.193 250.344, 155.370 265.691, 160.591 283.724 C 165.277 299.912, 172.558 312.373, 184.843 325.232 C 215.986 357.828, 257.805 365.847, 296.939 346.728 C 317.753 336.559, 334.105 319.739, 344.452 297.852 C 351.495 282.952, 353.438 274.151, 353.469 257 C 353.499 240.626, 351.627 231.316, 345.365 216.685 C 332.268 186.086, 300.708 161.021, 269 156.037 C 260.309 154.671, 245.993 154.886, 238 156.503 M 254 175.941 C 254 188.941, 254.711 192.621, 256.817 190.517 C 257.825 189.509, 258.317 173.691, 257.534 167.424 C 257.069 163.707, 256.407 162, 255.428 162 C 254.259 162, 254 164.528, 254 175.941 M 242.072 197.537 C 221.166 203.364, 204.881 220.319, 199.367 242 C 191.313 273.671, 212.942 307.660, 245.500 314.496 C 254.239 316.330, 256.761 316.330, 265.500 314.496 C 287.032 309.975, 305.864 291.870, 311.415 270.356 C 313.868 260.847, 313.501 247.682, 310.522 238.302 C 305.003 220.921, 289.859 204.792, 273.461 198.829 C 265.689 196.003, 249.907 195.353, 242.072 197.537 M 247.383 221.890 C 237.948 224.321, 228.068 232.283, 223.806 240.890 C 221.892 244.756, 221.521 247.115, 221.512 255.500 C 221.501 265.002, 221.671 265.815, 224.927 271.821 C 231.143 283.286, 241.207 289.951, 253.500 290.745 C 273.191 292.017, 289.572 275.936, 289.378 255.524 C 289.201 236.892, 275.444 222.282, 257.259 221.410 C 253.542 221.232, 249.097 221.448, 247.383 221.890 M 439.303 248.197 C 434.168 250.678, 434.569 259.750, 439.911 261.963 C 449.576 265.967, 455.555 253.084, 446.316 248.163 C 443.707 246.774, 442.233 246.781, 439.303 248.197 M 62.455 250.455 C 61.105 251.805, 60 254.075, 60 255.500 C 60 258.758, 64.140 263, 67.320 263 C 68.646 263, 70.916 262.067, 72.365 260.927 C 75.880 258.163, 76.107 251.889, 72.777 249.557 C 69.495 247.257, 65.286 247.623, 62.455 250.455 M 165 254.875 C 165 256.175, 165.958 256.942, 168.125 257.375 C 173.467 258.443, 181.532 258.063, 183.462 256.652 C 186.956 254.096, 184.248 253, 174.441 253 C 165.876 253, 165 253.174, 165 254.875 M 327.685 254.378 C 326.706 256.930, 329.345 258, 336.618 258 C 345.134 258, 347 257.441, 347 254.893 C 347 253.170, 346.156 253, 337.607 253 C 330.549 253, 328.082 253.343, 327.685 254.378 M 253.560 325.534 C 252.520 331.075, 254.047 351, 255.511 351 C 256.186 351, 257.017 349.313, 257.358 347.250 C 258.158 342.412, 258.183 325.639, 257.393 323.582 C 256.331 320.814, 254.246 321.876, 253.560 325.534 M 117.315 378.985 C 112.663 380.906, 111.465 388.270, 115.250 391.677 C 116.487 392.791, 118.275 393.975, 119.222 394.309 C 121.615 395.152, 126.843 393.163, 128.021 390.961 C 131.564 384.341, 124.226 376.133, 117.315 378.985 M 385.315 379.007 C 380.779 380.835, 379.656 387.022, 383.073 391.365 C 385.856 394.904, 391.104 394.986, 394.545 391.545 C 401.009 385.082, 393.970 375.520, 385.315 379.007 M 251 438 C 248.052 440.948, 248.285 447.376, 251.455 450.545 C 254.539 453.630, 257.129 453.653, 260.646 450.628 C 262.823 448.755, 263.381 447.446, 263.295 444.406 C 263.098 437.477, 255.488 433.512, 251 438" stroke="none" fill="black" fill-rule="evenodd"/>
</svg>