<svg xmlns="http://www.w3.org/2000/svg" width="512" height="512" viewBox="0 0 512 512" version="1.1">
	<path d="M 237 31.959 C 222.050 33.510, 216.684 35.152, 207.500 40.982 C 205.850 42.029, 201.387 43.383, 197.582 43.989 C 181.551 46.545, 170.913 52.260, 164.095 61.980 C 156.955 72.159, 149.461 89.202, 145.023 105.351 C 142.779 113.519, 140.259 121.839, 139.423 123.839 C 136.208 131.534, 136.035 134.861, 138.195 147.430 C 140.682 161.895, 139.955 168.298, 135.010 175.485 C 127.845 185.900, 128.674 197.008, 137.760 212.301 C 140.766 217.360, 144.775 224.875, 146.668 229 C 154.501 246.068, 163.499 257, 169.716 257 C 173.804 257, 175.779 258.735, 176.492 262.950 C 177.501 268.924, 174.858 276.585, 169.746 282.500 C 167.370 285.250, 162.362 291.461, 158.618 296.301 C 147.565 310.593, 143.038 313.409, 102 331.526 C 56.197 351.745, 37.890 363.637, 28.750 379.107 C 24.781 385.825, 23.822 391.777, 26.367 393.890 C 27.592 394.906, 35.636 397.084, 74.840 407.016 C 97.719 412.812, 131.243 417.592, 142.792 416.706 C 154.017 415.845, 167.224 412.953, 171.575 410.403 C 175.314 408.212, 176.175 408.085, 181.033 409.006 C 183.973 409.564, 191.610 412.280, 198.005 415.043 C 211.349 420.808, 214.982 421.620, 220.627 420.100 C 228.327 418.027, 229.996 413.302, 226.123 404.545 L 224.110 399.994 228.015 400.618 C 230.968 401.091, 232.944 400.710, 236.113 399.058 C 239.145 397.478, 240.504 397.197, 241.027 398.043 C 241.424 398.687, 242.270 403.778, 242.905 409.357 C 243.541 414.935, 245.822 426.475, 247.973 435 L 251.886 450.500 251.287 415 C 250.747 383.025, 250.853 379.179, 252.361 376.267 C 254.826 371.503, 258.573 370, 267.982 370 C 277.460 370, 282.277 371.674, 284.297 375.671 C 286.102 379.241, 287.364 406.049, 286.392 420.163 L 285.698 430.230 273.349 446.641 C 265.426 457.171, 261 463.925, 261 465.487 C 261 466.827, 262.012 468.877, 263.250 470.045 C 266.899 473.488, 271.278 472.148, 287.182 462.725 C 299.729 455.290, 315.346 446.218, 358.428 421.335 C 373.294 412.749, 376.964 412.282, 388.247 417.535 C 391.136 418.880, 395.075 419.980, 397 419.979 C 398.925 419.979, 409.725 418.438, 421 416.556 C 448.318 411.996, 466.647 406.631, 480.529 399.132 C 486.210 396.062, 487.559 394.864, 487.819 392.653 C 488.556 386.394, 475.803 369.514, 462.045 358.536 C 444.555 344.581, 424.877 334.411, 391.450 322.051 C 383.777 319.214, 376.150 316.375, 374.500 315.743 C 371.226 314.489, 361.562 305.744, 356.758 299.689 L 353.735 295.878 356.545 290.324 C 362.178 279.190, 360.914 266.956, 353.058 256.577 C 350.434 253.110, 348.032 249.861, 347.721 249.358 C 347.410 248.854, 347.780 245.531, 348.543 241.971 C 349.306 238.412, 349.946 234.150, 349.965 232.500 C 349.984 230.850, 351.913 225.675, 354.250 221 C 358.974 211.552, 359.402 207.748, 356.643 199.715 C 353.838 191.545, 354.411 188.155, 360.590 176.373 C 363.664 170.511, 367.888 163.191, 369.976 160.107 C 375.242 152.329, 379.396 143.755, 382.156 134.965 C 384.115 128.727, 384.489 125.445, 384.434 115 C 384.360 101.075, 382.592 94.549, 375.877 83.419 C 370.926 75.213, 357.783 63.003, 349.525 58.938 C 343.070 55.760, 342.032 55.559, 331.038 55.359 C 317.858 55.120, 313.236 53.630, 302.003 46.002 C 298.622 43.706, 293.075 40.538, 289.678 38.962 C 277.933 33.514, 253.417 30.255, 237 31.959 M 225.495 51.454 C 221.643 52.154, 215.232 53.776, 211.249 55.059 C 204.181 57.335, 203.974 57.346, 202.625 55.501 C 201.364 53.778, 200.857 53.725, 196.871 54.902 C 188.305 57.432, 181.158 62.891, 177.761 69.499 C 176.630 71.699, 173.107 80.699, 169.932 89.499 C 166.757 98.300, 162.399 110.005, 160.247 115.512 C 155.933 126.555, 154.484 131.437, 155.752 130.654 C 156.209 130.371, 159.480 126.536, 163.019 122.131 C 166.559 117.726, 169.583 114.249, 169.738 114.405 C 169.894 114.561, 169.316 116.671, 168.455 119.094 C 166.514 124.553, 162.814 140.147, 163.336 140.669 C 164.137 141.471, 172.398 129.453, 176.075 122.135 C 182.066 110.214, 185.108 99.878, 185.739 89.299 C 186.044 84.185, 186.405 80, 186.541 80 C 186.677 80, 188.196 81.315, 189.916 82.922 C 194.186 86.910, 200.411 88.134, 219.500 88.737 C 247.528 89.622, 271.177 86.666, 293.823 79.445 C 307.441 75.103, 311 72.974, 311 69.170 C 311 67.597, 310.200 65.586, 309.223 64.702 C 304.491 60.419, 286.609 54.440, 270.074 51.612 C 258.799 49.684, 235.685 49.602, 225.495 51.454 M 322.534 69.227 C 322.850 70.051, 325.801 72.250, 329.091 74.113 C 347.006 84.257, 348.609 86.488, 334.250 81.292 C 321.081 76.527, 320.648 76.421, 321.161 78.098 C 321.397 78.869, 325.423 82.049, 330.108 85.164 C 340.652 92.176, 347.951 99.959, 355.912 112.682 C 362.971 123.963, 364.373 128.171, 363.783 136.318 C 363.397 141.659, 363.475 141.942, 364.692 139.619 C 366.618 135.942, 367.398 126.147, 366.135 121.480 C 365.158 117.872, 361.757 111.554, 356.591 103.750 C 355.589 102.237, 355.159 101.006, 355.635 101.014 C 357.027 101.036, 369.121 111.650, 371.236 114.705 L 373.170 117.500 372.516 113.622 C 371.345 106.686, 367.419 99.673, 359.569 90.500 C 343.146 71.308, 339.982 69.022, 328.729 68.214 C 322.999 67.803, 322.047 67.959, 322.534 69.227 M 272.500 77.029 C 269.750 77.448, 257.231 78.379, 244.679 79.097 C 217.653 80.644, 216.820 82.479, 243.500 81.694 C 259.692 81.218, 275.207 79.027, 277.450 76.901 C 277.972 76.405, 278.197 76.060, 277.950 76.134 C 277.702 76.207, 275.250 76.610, 272.500 77.029 M 304 87.077 C 288.638 95.180, 279.392 97.058, 245 99.064 C 229.782 99.951, 221.162 99.978, 211.545 99.168 C 204.420 98.568, 198.368 98.298, 198.098 98.569 C 197.827 98.839, 198.145 103.905, 198.803 109.826 C 200.829 128.047, 200.153 145.530, 196.844 160.500 C 196.236 163.250, 193.697 169.988, 191.201 175.472 C 188.655 181.069, 186.463 187.532, 186.206 190.203 C 185.806 194.371, 186.239 195.801, 189.700 201.731 C 191.873 205.454, 194.855 210.975, 196.326 214 C 202.273 226.223, 209.935 233.715, 219.345 236.510 C 233.373 240.676, 247.881 235.594, 257.566 223.123 C 260.112 219.844, 263.493 216.624, 265.078 215.968 C 270.092 213.891, 277 216.998, 277 221.329 C 277 223.310, 276.956 223.307, 274.686 221.174 C 270.344 217.096, 265 219.578, 265 225.674 C 265 230.036, 267.703 232, 273.706 232 C 277.190 232, 279.181 232.514, 280.128 233.658 C 284.249 238.638, 297.326 240.610, 303.940 237.248 C 310.125 234.105, 310.030 231.663, 303.154 217.205 C 296.452 203.113, 292.745 191.916, 292.903 186.240 C 293.407 168.164, 293.648 161.354, 293.813 160.500 C 293.920 159.950, 294.903 160.968, 295.997 162.763 C 297.091 164.558, 299.528 166.761, 301.411 167.659 L 304.836 169.292 311.162 164.538 C 323.116 155.551, 334.534 150.945, 340.069 152.874 C 341.859 153.498, 343.530 153.804, 343.781 153.553 C 344.636 152.697, 338.103 113.525, 335.937 106.522 C 334.334 101.340, 332.815 98.636, 330.038 96.022 C 325.680 91.919, 313.423 82.972, 312.281 83.061 C 311.852 83.094, 308.125 84.901, 304 87.077 M 185 114.722 C 178.817 125.294, 178.781 125.427, 179.568 134.928 C 180.390 144.857, 180.690 144.708, 187.319 131.077 C 190.973 123.563, 191.420 121.848, 191.458 115.173 C 191.481 111.035, 191.053 107.543, 190.500 107.359 C 189.950 107.176, 187.475 110.489, 185 114.722 M 226.935 155.578 C 226.215 156.446, 223.554 158.206, 221.023 159.489 C 213.051 163.528, 205.319 173.313, 204.764 180.064 C 204.443 183.971, 206.610 185.155, 207.895 181.775 C 209.428 177.743, 214.212 172.808, 218.459 170.880 C 221.419 169.535, 224.774 169.062, 231 169.111 L 239.500 169.179 234.994 170.423 C 225.092 173.159, 218.696 178.799, 216.351 186.863 L 214.790 192.235 210.895 191.713 C 206.537 191.128, 204.910 192.346, 207.906 193.950 C 210.402 195.286, 219.543 195.315, 222.010 193.995 C 224.092 192.880, 245.217 190.630, 254.339 190.551 C 259.303 190.508, 260.464 190.854, 262.089 192.861 C 263.140 194.159, 264 195.916, 264 196.766 C 264 198.090, 263.726 198.062, 262.078 196.570 C 259.222 193.986, 253.292 193.586, 244.565 195.391 C 240.286 196.276, 233.594 197, 229.693 197 C 224.176 197, 222.867 197.267, 223.800 198.200 C 225.750 200.150, 225.225 200.862, 221 202 C 218.800 202.592, 217 203.454, 217 203.914 C 217 205.404, 234.749 208.306, 239.702 207.627 C 242.249 207.278, 248.236 205.194, 253.008 202.996 C 257.779 200.798, 262.669 199, 263.874 199 C 267.427 199, 272.504 196.446, 274.832 193.486 C 276.433 191.451, 277 189.352, 277 185.463 C 277 180.592, 277.211 180.122, 279.803 179.219 C 282.570 178.254, 282.607 178.132, 282.700 169.616 C 282.796 160.848, 281.742 157.918, 280.073 162.309 C 278.843 165.543, 274.314 169, 271.307 169 C 269.973 169, 267.222 167.675, 265.191 166.055 C 260.471 162.289, 248.663 157.604, 238.792 155.580 C 229.246 153.623, 228.558 153.623, 226.935 155.578 M 340 165.596 C 337.525 167.010, 335.342 168.325, 335.149 168.518 C 334.956 168.711, 335.955 170.385, 337.368 172.238 C 338.782 174.091, 340.641 177.289, 341.499 179.344 C 343.352 183.777, 344.508 183.366, 347.182 177.322 C 349.188 172.786, 349.004 168.580, 346.632 164.783 C 345.232 162.541, 345.377 162.523, 340 165.596 M 325.500 180 L 322.626 183 328.313 183 C 334.454 183, 335.576 181.736, 332.171 178.655 C 329.654 176.377, 328.808 176.548, 325.500 180 M 244.945 184.107 L 242.815 188.282 248.140 187.576 C 251.068 187.187, 253.595 186.738, 253.755 186.578 C 254.566 185.768, 252.606 183.198, 250.006 181.663 L 247.076 179.932 244.945 184.107 M 323.500 185.727 C 317.450 185.893, 311.825 186.283, 311 186.594 C 310.137 186.919, 312.685 188.209, 317 189.632 C 323.250 191.692, 325.875 192.031, 332.750 191.663 C 342.062 191.164, 343.085 192.068, 338.025 196.325 C 331.829 201.539, 324.804 202.080, 315.879 198.031 C 308.421 194.647, 303 195.675, 303 200.473 C 303 203.526, 309.714 214.343, 315.746 221.008 C 321.987 227.905, 327.770 231, 334.416 231 C 338.496 231, 339.686 230.514, 342.503 227.697 C 345.756 224.444, 349 216.254, 349 211.292 C 349 209.251, 345.397 196.811, 342.913 190.278 C 342.255 188.547, 335.213 184.241, 334.628 185.212 C 334.558 185.329, 329.550 185.561, 323.500 185.727 M 149.890 197.110 C 147.308 199.692, 147.748 203.852, 151.627 213.541 C 154.411 220.495, 156.472 223.133, 154.936 217.776 C 152.838 210.462, 154.339 202.453, 158.446 199.044 C 159.650 198.046, 159.755 197.410, 158.890 196.367 C 157.185 194.313, 152.282 194.718, 149.890 197.110 M 172.075 206.315 C 170.518 210.393, 170.601 210.719, 175.078 218.128 C 179.960 226.209, 180.091 229.639, 175.500 229.238 C 168.188 228.600, 160 228.555, 160 229.153 C 160 230.543, 168.611 238.899, 170.623 239.461 C 172.139 239.885, 173.953 239.046, 176.968 236.527 C 181.672 232.597, 182.047 232.474, 183.912 234.250 C 184.979 235.266, 185.118 235.126, 184.651 233.500 C 184.336 232.400, 183.113 227.939, 181.934 223.587 C 179.595 214.955, 177.051 208.618, 174.674 205.500 C 173.180 203.540, 173.128 203.556, 172.075 206.315 M 314.093 238.827 C 313.484 239.964, 311.160 243.004, 308.929 245.583 C 306.117 248.831, 305.191 250.591, 305.912 251.312 C 306.633 252.033, 307.522 251.838, 308.805 250.676 C 312.555 247.283, 315.427 249.205, 324.233 261 C 333.418 273.302, 337.715 276.243, 333 267 C 330.615 262.326, 330.477 260.862, 332.491 261.635 C 334.833 262.534, 340.723 271.143, 342.172 275.787 C 343.537 280.159, 345 281.375, 345 278.136 C 345 275.723, 343.351 267.076, 342.400 264.500 C 340.908 260.462, 345.803 265.963, 348.478 271.331 C 350.789 275.969, 351 276.146, 350.994 273.446 C 350.976 263.891, 345.506 256.731, 334.104 251.339 C 329.247 249.042, 324.459 245.760, 320.850 242.252 C 315.475 237.028, 315.145 236.861, 314.093 238.827 M 254 243.855 C 250.975 244.852, 245.575 247.468, 242 249.668 C 238.425 251.868, 229.874 256.359, 222.998 259.647 C 210.129 265.801, 203.975 270.214, 201.449 275.099 C 199.238 279.374, 199.735 279.864, 202.599 276.230 C 204.016 274.432, 206.552 272.249, 208.234 271.379 C 211.136 269.878, 211.254 269.892, 210.553 271.649 C 209.371 274.612, 208.636 285.003, 209.611 284.968 C 210.100 284.950, 212.486 281.463, 214.913 277.218 C 219.395 269.379, 220.984 268.795, 219.069 275.690 C 217.897 279.912, 217.843 288.868, 218.961 293.500 C 219.825 297.075, 220.363 295.935, 221.794 287.500 C 223.150 279.510, 226.383 271.152, 230.106 266.012 C 231.779 263.703, 233.306 261.973, 233.500 262.166 C 233.693 262.360, 232.955 265.175, 231.859 268.422 C 230.049 273.784, 227.671 289.005, 228.513 289.846 C 228.704 290.037, 229.852 288.238, 231.064 285.847 C 234.401 279.262, 246.982 257.933, 249.702 254.250 C 252.954 249.846, 253.849 250.162, 253.247 255.500 C 252.613 261.127, 253.780 261.243, 258.268 256 C 262.189 251.419, 263.934 250.893, 263.245 254.500 C 262.545 258.160, 264.712 257.603, 267.133 253.500 C 269.692 249.162, 272 248.896, 272 252.941 C 272 257.296, 273.834 257.642, 275.521 253.604 C 276.334 251.657, 277 249.575, 277 248.977 C 277 247.595, 267.609 243.311, 263 242.590 C 260.895 242.261, 257.308 242.765, 254 243.855 M 301.250 251.662 C 299.866 252.221, 299.508 256, 300.839 256 C 301.301 256, 302.192 254.875, 302.818 253.500 C 303.947 251.022, 303.663 250.689, 301.250 251.662 M 281 254.941 C 281 258.662, 282.557 259.696, 284.027 256.950 C 285.379 254.424, 284.647 252, 282.531 252 C 281.503 252, 281 252.967, 281 254.941 M 292 256.441 C 292 257.848, 292.450 259, 293 259 C 293.550 259, 294 258.127, 294 257.059 C 294 255.991, 293.550 254.840, 293 254.500 C 292.433 254.149, 292 254.990, 292 256.441 M 300 265.695 C 294.362 268.161, 286.550 268.789, 277.674 267.488 C 264.643 265.578, 261.114 268.262, 270.493 272.951 C 276.366 275.888, 289.831 276.936, 296.964 275.012 C 301.731 273.726, 309.662 266.881, 308.522 265.036 C 307.637 263.604, 304.164 263.873, 300 265.695 M 305.910 278.068 C 300.735 283.366, 295.659 285.019, 284.701 284.976 C 275.304 284.939, 270.168 283.386, 262.699 278.325 C 256.354 274.027, 255.727 273.808, 253.356 275.077 C 249.472 277.156, 242.275 286.852, 241.073 291.626 C 238.942 300.087, 240.811 309.122, 245.492 312.997 C 247.206 314.416, 247.265 314.252, 246.612 309.898 C 245.928 305.334, 247.081 297.515, 248.671 295.934 C 249.127 295.481, 249.576 297.732, 249.669 300.937 C 249.853 307.256, 252.287 313.182, 256.063 316.500 L 258.339 318.500 257.559 316.500 C 257.130 315.400, 256.562 312.475, 256.297 310 L 255.815 305.500 258.157 308.170 C 259.446 309.639, 263.679 312.845, 267.565 315.295 C 271.451 317.745, 276.288 321.687, 278.315 324.055 C 282.311 328.723, 282.726 328.663, 280.648 323.718 C 279.183 320.232, 272.398 313.529, 267.264 310.497 C 263.286 308.147, 261.957 305.543, 265.256 306.562 C 278.973 310.798, 284.070 315.202, 285.997 324.484 C 286.645 327.608, 286.879 331.364, 286.517 332.832 C 285.315 337.703, 295.719 323.035, 299.159 315.008 C 300.928 310.879, 303.016 306.600, 303.797 305.500 C 305.073 303.702, 305.158 304.045, 304.638 308.896 L 304.060 314.293 306.625 311.896 C 308.036 310.578, 310.379 307.478, 311.833 305.007 C 313.827 301.616, 314.563 300.968, 314.832 302.366 C 315.455 305.600, 312.018 312.747, 307.821 316.943 C 303.304 321.461, 304.582 322.327, 310.166 318.533 C 314.380 315.670, 317.704 310.674, 320.137 303.547 L 321.860 298.500 321.930 303.507 C 321.968 306.260, 321.579 309.981, 321.064 311.776 C 319.838 316.051, 321.410 315.076, 324.033 309.935 C 329.349 299.516, 327.312 290.679, 317.196 280.263 L 310.500 273.370 305.910 278.068 M 194.422 312.500 C 195.071 322.966, 199.061 338.421, 203.137 346.254 C 205.506 350.806, 209.764 355.837, 218.838 364.805 C 228.124 373.982, 231.001 377.399, 230.155 378.245 C 228.524 379.876, 223.008 377.023, 217.094 371.491 C 214.453 369.021, 211.995 367, 211.632 367 C 209.440 367, 223.679 390.279, 226.543 391.378 C 231.045 393.106, 240.350 384.602, 246.163 373.448 C 250.270 365.566, 249.746 363.526, 242.300 358.435 C 218.236 341.982, 202.089 325.050, 196.111 310 L 193.927 304.500 194.422 312.500 M 213 319.409 C 213 319.594, 215.288 322.615, 218.084 326.123 C 224.857 334.620, 236.873 344.460, 238.495 342.838 C 238.769 342.564, 238.304 340.021, 237.462 337.185 C 236.419 333.670, 234.909 331.228, 232.716 329.508 C 229.792 327.215, 213 318.613, 213 319.409 M 310.571 336.532 C 309.524 338.130, 303.567 344.699, 297.333 351.129 C 290.745 357.926, 286 363.639, 286 364.775 C 286 367.516, 297.531 381.844, 300.296 382.538 C 305.438 383.829, 310.687 379.321, 314.928 369.972 C 316.043 367.512, 316.966 364.497, 316.978 363.271 C 316.997 361.383, 316.190 361.879, 311.693 366.521 C 306.641 371.738, 304 373.256, 304 370.945 C 304 370.365, 305.763 366.967, 307.918 363.394 C 312.522 355.760, 314.585 346.213, 313.294 338.513 L 312.475 333.626 310.571 336.532 M 125.331 367.373 C 124.863 368.210, 120.096 373.608, 114.740 379.369 C 109.383 385.129, 105 390.280, 105 390.814 C 105 392.770, 108.658 393.030, 127.388 392.403 C 148.697 391.689, 150.252 391.299, 161.074 383.950 C 168.126 379.161, 175 373.205, 175 371.884 C 175 370.054, 171.382 371.152, 161.099 376.103 C 155.270 378.910, 147.575 381.810, 144 382.547 C 134.964 384.411, 120 385.512, 120 384.314 C 120 383.785, 121.611 379.634, 123.580 375.090 C 125.550 370.546, 126.941 366.608, 126.672 366.339 C 126.403 366.070, 125.800 366.535, 125.331 367.373 M 347 370.839 C 347 372.267, 360.684 384.735, 366.538 388.640 C 370.457 391.255, 373.233 392.217, 379.038 392.970 C 389.162 394.284, 417.704 394.289, 418.514 392.977 C 419.159 391.934, 401.344 374, 399.663 374 C 399.128 374, 399.026 376.515, 399.420 380 C 400.076 385.795, 400.021 385.999, 397.800 385.978 C 390.683 385.911, 366.100 378.582, 356 373.516 C 350.086 370.550, 347 369.632, 347 370.839 M 263.455 380.455 C 258.959 384.950, 261.609 393, 267.584 393 C 271.087 393, 275 388.803, 275 385.045 C 275 378.615, 268.055 375.854, 263.455 380.455 M 295 394 C 293.351 395.649, 293.012 397.274, 293.070 403.250 C 293.109 407.238, 293.476 411.354, 293.885 412.397 C 294.544 414.076, 294.857 413.904, 296.618 410.897 C 299.210 406.468, 305 394.029, 305 392.888 C 305 391.072, 297.043 391.957, 295 394 M 264.635 403.073 C 261.333 405.670, 261.022 411.022, 264 414 C 266.675 416.675, 269.570 416.521, 272.545 413.545 C 275.576 410.515, 275.780 405.780, 273 403 C 270.445 400.445, 267.948 400.466, 264.635 403.073 M 265.441 426.419 C 262.774 428.369, 262.752 435.964, 265.405 438.895 C 268.187 441.969, 271.634 441.608, 273.474 438.050 C 277.697 429.884, 271.994 421.627, 265.441 426.419" stroke="none" fill="black" fill-rule="evenodd"/>
</svg>