<svg xmlns="http://www.w3.org/2000/svg" width="512" height="512" viewBox="0 0 512 512" version="1.1">
	<path d="M 224.500 34.508 C 221.200 35.250, 215.125 37.033, 211 38.470 C 206.875 39.906, 198.230 41.973, 191.788 43.062 C 165.575 47.493, 154.106 53.176, 135.500 70.955 C 130 76.210, 122.350 82.382, 118.500 84.670 C 104.209 93.164, 96.264 102.435, 86.939 121.500 C 79.896 135.899, 77.011 144.497, 72.343 165 C 67.433 186.563, 66.956 197.634, 70.449 209 C 72.925 217.058, 73.772 221.582, 76.052 238.924 C 77.986 253.642, 87.968 268.258, 101.293 275.881 C 108.455 279.979, 110.316 282.390, 112.909 290.928 C 114.500 296.165, 116.057 298.904, 119.396 302.339 C 127.740 310.925, 137.518 314.062, 155.238 313.840 C 163.732 313.733, 165.580 314.028, 169.699 316.148 C 175.988 319.385, 178.716 324.706, 180.229 336.689 C 182.608 355.535, 176.252 378.804, 159.332 413.200 C 152.344 427.404, 149.066 435.126, 149.421 436.542 C 149.990 438.808, 163.554 446.802, 174.500 451.322 C 203.067 463.119, 253.571 470.923, 301.750 470.985 C 311.651 470.998, 313 470.797, 313 469.310 C 313 468.381, 312.006 462.674, 310.792 456.628 L 308.584 445.636 311.382 432.068 C 317.555 402.142, 318.377 400.044, 325.264 396.667 C 329.398 394.640, 329.544 394.659, 348 399.497 C 368.462 404.861, 386.406 404.937, 394.086 399.692 C 399.090 396.275, 402.796 388.721, 403.501 380.500 C 404.609 367.594, 404.808 367.052, 410.743 360.831 C 415.971 355.349, 416.368 354.588, 416.782 349.232 C 417.100 345.127, 417.865 342.791, 419.479 341 C 423.208 336.863, 423.737 335.054, 423.241 328.126 C 422.647 319.825, 424.390 315.285, 429.644 311.446 C 443.710 301.166, 446.333 298.432, 446.333 294.053 C 446.333 292.498, 443.702 287.013, 440.154 281.174 C 431.947 267.665, 426.560 256.810, 424.465 249.561 C 422.165 241.604, 422.936 234.214, 427.987 215.791 C 432.481 199.402, 432.695 197.094, 430.356 190.285 C 427.076 180.736, 426.960 178.908, 429.162 171.500 C 433.039 158.457, 430.465 143.850, 420.910 124.674 C 413.991 110.786, 406.960 100.988, 396 89.957 C 375.396 69.220, 354.621 56.136, 332.546 49.994 C 328.171 48.777, 320.562 46.007, 315.636 43.840 C 298.691 36.383, 291.955 34.972, 268.500 33.969 C 240.687 32.779, 231.700 32.889, 224.500 34.508 M 230.869 51.318 C 228.323 52.040, 222.923 54.626, 218.869 57.065 L 211.500 61.500 197.664 61.214 C 173.211 60.709, 160.198 66.534, 148.993 82.999 C 143.171 91.554, 140.257 93.936, 129.377 99.038 C 117.331 104.686, 110.199 111.253, 104.750 121.716 C 99.608 131.589, 96.845 139.981, 90.469 165.085 C 83.527 192.419, 83.352 195.868, 88.266 208.500 C 90.704 214.769, 92.113 220.535, 92.907 227.500 C 93.679 234.268, 94.852 239.156, 96.536 242.625 C 99.414 248.552, 106.783 255.843, 113.108 259.021 C 122.925 263.955, 125.762 267.412, 129.500 279 C 134.656 294.983, 138.269 296.924, 156.320 293.406 C 164.261 291.859, 164.665 291.874, 170.147 293.939 C 177.236 296.610, 184.364 302.812, 187.535 309.069 C 194.733 323.273, 197.548 343.479, 194.562 359.500 C 191.687 374.923, 183.431 397.953, 174.324 415.950 C 169.746 424.998, 166 432.526, 166 432.680 C 166 433.501, 175.068 437.360, 185.105 440.810 C 205.040 447.664, 228.403 452.480, 256 455.424 C 271.508 457.078, 296.376 457.928, 297.481 456.842 C 298.245 456.090, 292.757 436.241, 276.375 380.500 C 270.071 359.050, 263.568 336.100, 261.924 329.500 C 257.324 311.032, 257.982 312, 250.038 312 C 240.969 312, 233.214 308.159, 225.534 299.863 C 205.900 278.657, 204.720 251.766, 223.354 250.221 C 230.240 249.649, 234.621 251.673, 240.388 258.087 C 246.988 265.427, 252.438 282.133, 250.610 289.418 C 249.664 293.187, 246.472 294.539, 243.349 292.493 C 239.696 290.099, 237.930 284.919, 237.264 274.647 C 236.768 266.991, 236.322 265.231, 234.384 263.293 C 231.514 260.423, 226.712 260.288, 224 263 C 215.488 271.512, 235.807 301.956, 250 301.956 C 251.375 301.956, 254.462 301.066, 256.859 299.978 C 262.575 297.384, 265.612 297.463, 267.387 300.250 C 268.175 301.488, 270.453 308.125, 272.449 315 C 278.997 337.556, 282.538 344.757, 291.254 353.248 C 299.266 361.051, 322.011 375.476, 337.239 382.410 C 354.447 390.247, 377.928 394.146, 386.454 390.584 C 391.311 388.554, 392.700 385.641, 393.292 376.242 C 393.665 370.311, 394.414 366.964, 395.947 364.365 L 398.082 360.746 395.791 359.181 C 391.824 356.472, 379.230 343.939, 376.462 339.946 C 372.442 334.144, 373.834 333.204, 383.021 335.512 C 384.944 335.995, 386.486 335.385, 389.521 332.942 C 395.767 327.913, 402.778 325.021, 408.750 325.010 C 413.964 325, 414 324.979, 414 321.866 C 414 315.553, 416.190 310.987, 421.287 306.669 C 430.342 298.999, 432 297.168, 432 294.838 C 432 293.565, 428.847 285.951, 424.994 277.919 C 414.100 255.211, 412.919 251.134, 412.152 233.616 L 411.500 218.733 402.500 210.390 C 392.606 201.219, 384.531 196.309, 377.832 195.390 C 372.031 194.595, 358.504 197.207, 345.759 201.584 C 325.393 208.577, 295.009 225.166, 282.734 235.994 C 275.588 242.297, 273.022 247.426, 271.338 258.774 C 269.740 269.532, 268.385 272.436, 264.509 273.408 C 260.247 274.478, 257.031 271.992, 252.112 263.825 C 245.937 253.572, 243.743 251.422, 235.500 247.539 C 212.545 236.726, 186.355 240.435, 176.766 255.857 C 174.752 259.095, 174.500 260.786, 174.500 271.081 C 174.500 282.217, 174.389 282.822, 171.614 286.831 C 170.027 289.124, 168.130 291, 167.399 291 C 163.006 291, 162.394 276.717, 166.274 264.750 L 168.788 257 163.644 257.010 C 157.265 257.022, 151.239 259.752, 140.525 267.482 C 130.755 274.531, 130 274.853, 130 271.973 C 130 265.197, 135.896 255.656, 142.051 252.474 C 143.970 251.481, 147.978 251, 154.325 251 C 165.355 251, 169.494 249.769, 178.620 243.775 L 185.127 239.500 179.814 238.787 C 164.945 236.791, 153.535 232.725, 137.965 223.872 C 128.922 218.730, 123.556 213.689, 122.774 209.600 C 121.564 203.266, 125.616 203.524, 131.738 210.170 C 139.185 218.255, 141.232 220.068, 145.210 222.103 C 147.251 223.146, 149.203 224, 149.548 224 C 149.893 224, 148.195 221.188, 145.774 217.750 C 143.353 214.313, 139.934 208.912, 138.177 205.750 L 134.983 200 137.590 200 C 141.370 200, 146.738 202.823, 149 206.001 C 150.079 207.515, 151.612 211.253, 152.408 214.306 C 154.577 222.635, 155.471 223.764, 161.267 225.496 C 170.168 228.156, 179.670 229.047, 197.421 228.887 C 206.814 228.803, 216.253 229.081, 218.395 229.505 C 224.305 230.676, 222.448 228.880, 207.917 219.370 C 179.971 201.081, 169.388 197.361, 148.180 198.372 C 141.206 198.705, 133.532 199.260, 131.128 199.605 C 124.425 200.568, 126.263 198.098, 135.075 194.300 C 145.773 189.690, 153.253 188, 162.958 188 L 171.497 188 165.144 181.750 C 161.650 178.313, 157.877 173.700, 156.758 171.500 C 155.640 169.300, 153.887 166.427, 152.863 165.115 C 150.844 162.530, 150.183 153, 152.022 153 C 154.833 153, 162.191 161.769, 166.552 170.315 C 172.942 182.838, 178.712 188.123, 198.650 199.715 C 207.368 204.783, 219.675 212.269, 226 216.351 C 232.325 220.433, 237.640 223.404, 237.811 222.953 C 238.126 222.123, 233.348 213.963, 216.175 186 C 201.888 162.737, 193.888 152.763, 188.415 151.389 C 186.965 151.025, 181.666 151.498, 176.639 152.439 C 168.235 154.012, 166.903 154.024, 160.076 152.592 C 153.360 151.184, 144.996 147.101, 145.002 145.236 C 145.004 144.831, 147.816 144.437, 151.252 144.361 C 155.308 144.270, 159.877 143.305, 164.273 141.611 C 167.998 140.175, 172.243 139, 173.707 139 C 177.467 139, 184.042 142.405, 189.412 147.132 C 191.936 149.353, 194 150.875, 194 150.515 C 194 148.650, 186.456 139.323, 177.408 130 C 164.156 116.346, 160.632 109.919, 160.176 98.567 C 159.819 89.689, 161.047 85.475, 165.552 80.121 C 171.071 73.562, 172.522 77.197, 171.463 94.931 L 170.755 106.802 175.023 114.812 C 179.231 122.711, 188.858 136.476, 189.632 135.702 C 189.850 135.483, 188.794 133.098, 187.284 130.402 C 184.872 126.095, 184.460 124.045, 183.890 113.500 C 183.375 103.967, 182.726 100.266, 180.736 95.500 C 178.077 89.130, 175.231 75.435, 176.337 74.329 C 177.536 73.131, 186.442 81.570, 189.750 87.038 C 193.503 93.244, 194.013 99.638, 191.500 109 C 190.688 112.025, 190.016 116.750, 190.007 119.500 C 189.989 124.968, 194.062 137.631, 197.391 142.457 L 199.430 145.413 200.115 142.957 C 201.466 138.115, 200.965 128.241, 198.968 120.345 C 197.359 113.984, 196.995 109.767, 197.218 100.108 L 197.500 87.906 203.745 91.029 C 209.735 94.024, 214.935 99.099, 218.059 105 C 218.787 106.375, 220.387 111.550, 221.615 116.500 C 223.790 125.271, 223.834 125.348, 223.333 119.500 C 222.443 109.111, 219.987 96.042, 217.957 90.890 C 215.641 85.015, 215.347 74.471, 217.367 69.718 C 219.112 65.612, 223.676 60.726, 225.273 61.255 C 226.753 61.746, 228.771 69.848, 228.904 75.832 C 228.957 78.215, 227.826 83.565, 226.392 87.721 C 223.874 95.016, 223.821 95.634, 224.873 105.603 C 225.787 114.268, 229.650 128.984, 231.496 130.829 C 232.240 131.574, 232.080 128.327, 231.006 120.905 C 229.622 111.339, 231.187 99.569, 234.805 92.325 C 236.435 89.063, 238.006 83.932, 238.376 80.664 C 239.228 73.150, 240.647 70.534, 247.163 64.469 L 252.500 59.500 252.810 64.374 C 252.994 67.274, 252.293 71.970, 251.077 75.971 C 249.954 79.669, 248.620 85.629, 248.112 89.215 C 247.134 96.122, 245.741 99.409, 240.355 107.520 C 236.441 113.415, 234.499 122.152, 235.468 129.496 C 235.832 132.248, 238.093 140.575, 240.493 148 C 247.385 169.326, 248.550 173.862, 254.492 202.500 C 257.573 217.350, 260.445 230.377, 260.875 231.448 C 261.430 232.833, 262.716 228.925, 265.317 217.948 C 271.925 190.064, 272.265 187.970, 272.376 174.500 C 272.508 158.474, 271.527 156.056, 261.500 147.694 C 257.650 144.483, 253.257 140.012, 251.738 137.760 C 248.290 132.645, 245 122.199, 245 116.363 C 245 110.893, 246.251 107.847, 253.297 96.159 C 256.353 91.090, 259.139 85.645, 259.487 84.060 C 260.093 81.300, 258.532 66.550, 257.292 63.318 C 256.421 61.050, 259.596 62.928, 264.206 67.408 C 271.002 74.014, 270.056 80.317, 260.506 92.051 C 252.376 102.041, 249.492 116.133, 254.250 122.627 C 261.914 133.089, 264.300 136, 265.209 136 C 266.734 136, 265.271 125.584, 262.724 118.305 C 261.532 114.897, 260.891 111.776, 261.299 111.367 C 262.430 110.237, 267.786 116.830, 270.730 122.976 C 272.903 127.511, 273.479 130.516, 274.086 140.476 C 274.489 147.089, 275.526 155.650, 276.392 159.500 C 277.257 163.350, 277.987 168.750, 278.013 171.500 C 278.083 178.827, 279.309 175.583, 282.489 159.649 C 285.530 144.415, 285.585 134.966, 282.665 129.319 C 281.765 127.579, 279.148 123.982, 276.849 121.327 C 269.001 112.264, 266.523 102.289, 269.637 92.303 C 270.695 88.909, 271.458 83.356, 271.473 78.928 C 271.497 72.157, 271.803 70.958, 274.366 67.593 C 279.104 61.371, 287.497 57.759, 289.540 61.064 C 290.269 62.244, 282.788 75.108, 276.681 83.177 C 273.179 87.804, 272.893 88.596, 274.056 90.435 C 279.843 99.588, 281.134 102.287, 282.458 108 C 283.286 111.575, 285.150 119.782, 286.598 126.237 C 288.047 132.693, 289.599 137.748, 290.046 137.471 C 291.795 136.391, 292.229 124.906, 291.029 111.447 C 289.907 98.855, 289.945 97.008, 291.379 94.234 C 294.832 87.557, 296.479 88.733, 298.057 99.003 C 298.691 103.126, 299.544 107.110, 299.954 107.856 C 300.964 109.695, 303.517 103.179, 305.008 94.957 C 305.643 91.452, 306.772 87.407, 307.517 85.967 C 309.235 82.645, 316.799 75.758, 317.949 76.469 C 318.427 76.764, 318.189 79.367, 317.421 82.253 C 315.057 91.131, 315.157 91.275, 321.644 88.306 C 328.040 85.377, 336 84.052, 336 85.915 C 336 88.255, 330.965 92.035, 322.481 96.066 C 307.866 103.009, 302.430 110.728, 296.520 132.926 C 291.447 151.981, 291.758 152.696, 299.895 140.681 C 308.960 127.296, 321.746 117, 329.303 117 C 333.258 117, 341.500 121.056, 341.500 123.002 C 341.500 123.815, 339.238 124.856, 335.741 125.650 C 328.723 127.244, 326.139 128.541, 318.406 134.354 C 311.239 139.742, 304.463 148.099, 299.113 158.149 C 294.424 166.958, 291.762 174.859, 288.633 189.256 L 286.295 200.012 289.898 197.336 C 297.922 191.374, 303.976 185.775, 306.083 182.365 C 308.297 178.783, 308.300 178.722, 306.591 171.474 C 304.621 163.116, 305.267 158.977, 309.514 152.750 C 312.547 148.304, 315.602 147.822, 317.025 151.565 C 318.714 156.007, 318.152 167.069, 315.996 171.820 C 313.946 176.336, 310.023 181.911, 309.968 180.385 C 309.951 179.898, 309.276 180.374, 308.468 181.441 C 307.661 182.509, 307.020 184.084, 307.045 184.941 C 307.071 185.852, 309.362 184.038, 312.554 180.579 C 316.991 175.770, 318.410 173.327, 320.109 167.579 C 321.837 161.731, 323.052 159.674, 327.100 155.747 C 331.025 151.939, 332 150.334, 332 147.678 C 332 141.189, 334.768 134.651, 339.908 129.002 C 342.640 125.999, 345.023 123.757, 345.203 124.021 C 345.384 124.284, 345.251 133.275, 344.909 144 C 344.347 161.582, 344.027 164.238, 341.650 171 C 340.200 175.125, 339.011 178.871, 339.007 179.323 C 338.991 181.257, 354.780 171.161, 361.313 165.061 C 369.340 157.565, 371.575 151.497, 369.876 141.814 C 368.747 135.380, 368.806 134.917, 371.443 129.527 C 374.451 123.378, 378.351 119.951, 380.216 121.816 C 380.829 122.429, 381.531 125.354, 381.776 128.318 C 382.118 132.437, 381.701 134.861, 380.009 138.603 C 378.791 141.297, 376.499 147.273, 374.915 151.884 C 369.224 168.458, 363.611 174.340, 343.776 184.520 C 328.440 192.391, 323 195.647, 323 196.956 C 323 197.468, 326.262 196.518, 330.250 194.845 C 350.407 186.388, 363.362 183.453, 377.303 184.185 C 389.117 184.805, 394.983 187.827, 406.385 199.165 C 411.272 204.024, 415.413 208, 415.588 208 C 415.763 208, 416.349 206.396, 416.890 204.436 C 418.160 199.837, 416.958 192.773, 413.155 182.485 C 411.261 177.360, 409.813 170.869, 409.140 164.485 C 407.781 151.588, 406.673 147.984, 402.469 142.775 C 393.934 132.202, 393.107 130.763, 391.501 123.693 C 389.352 114.230, 387.016 109.131, 382.588 104.229 C 376.512 97.503, 367.593 92.495, 352.635 87.407 C 344.880 84.769, 336.853 81.326, 334.422 79.595 C 332.031 77.893, 326.570 74.051, 322.287 71.057 C 318.004 68.063, 312.025 63.607, 309 61.154 C 297.545 51.866, 288.674 49.584, 276.887 52.892 C 267.463 55.536, 262.871 55.545, 255.407 52.934 C 247.922 50.317, 236.954 49.594, 230.869 51.318 M 297.485 68.937 C 292.721 72.315, 278.754 87.794, 279.452 88.922 C 280.182 90.104, 290.926 88.157, 294.137 86.260 C 301.303 82.027, 308.218 65.855, 302.781 66.045 C 302.077 66.069, 299.693 67.371, 297.485 68.937 M 188.250 71.662 C 184.322 73.247, 190.955 80.441, 201.017 85.508 C 211.117 90.595, 214.172 90.083, 212.052 83.658 C 210.815 79.909, 206.032 74.996, 201.300 72.612 C 198.276 71.089, 190.985 70.559, 188.250 71.662 M 332.598 95.609 C 329.903 98.575, 322.577 104.440, 316.320 108.642 C 310.063 112.845, 304.686 116.699, 304.371 117.208 C 302.109 120.869, 312.754 118.005, 320.793 112.791 C 329.555 107.108, 336.268 99.295, 338.441 92.250 C 339.500 88.817, 337.974 89.694, 332.598 95.609 M 199 95.860 C 199 96.391, 201.183 99.452, 203.851 102.663 C 206.519 105.873, 209.219 109.483, 209.851 110.684 C 211.743 114.282, 211.171 122.549, 208.500 130.193 C 203.743 143.809, 204.978 147.529, 222.860 173.430 C 229.342 182.818, 235.738 192.300, 237.073 194.500 L 239.500 198.500 239.810 194.749 C 240.290 188.952, 237.510 176.021, 231.901 157.968 C 229.088 148.910, 225.224 136.119, 223.316 129.543 C 218.292 112.234, 216.826 109.697, 207.250 101.745 C 202.713 97.977, 199 95.328, 199 95.860 M 346.202 97.049 C 340.613 99.292, 331.561 108.894, 333.350 110.683 C 333.668 111.001, 336.933 110.506, 340.605 109.584 C 345.432 108.371, 349.154 108.091, 354.037 108.572 C 358.444 109.007, 362.568 108.783, 365.901 107.929 L 371.010 106.619 368.255 103.683 C 362.650 97.710, 352.308 94.598, 346.202 97.049 M 132.799 104.586 C 130.214 105.381, 127.775 106.555, 127.380 107.193 C 126.270 108.990, 132.674 113.724, 137.880 114.956 C 142.664 116.088, 161.239 118.038, 161.841 117.472 C 163.631 115.788, 155.519 106.533, 150.368 104.380 C 146.189 102.634, 138.863 102.720, 132.799 104.586 M 357.479 114.358 C 352.405 115.993, 348 118.848, 348 120.501 C 348 122.546, 354.394 125, 359.723 125 C 362.429 125, 366.673 124.309, 369.154 123.463 C 374.684 121.579, 380.931 116.584, 379.500 115.192 C 377.778 113.516, 361.951 112.917, 357.479 114.358 M 151.500 122.935 C 146.765 124.088, 142.745 126.511, 138.116 131.003 C 135.759 133.291, 133.981 135.260, 134.165 135.379 C 134.349 135.497, 142.262 135.415, 151.750 135.196 L 169 134.798 169 132.450 C 169 129.426, 163.555 124.279, 159 122.996 C 157.075 122.455, 155.275 122.055, 155 122.108 C 154.725 122.161, 153.150 122.533, 151.500 122.935 M 121.430 124.415 C 119.741 125.151, 115.708 128.220, 112.467 131.237 L 106.575 136.721 113.038 137.829 C 124.728 139.834, 135 135.340, 135 128.221 C 135 123.549, 127.956 121.573, 121.430 124.415 M 358.041 131.942 C 353.906 137.750, 352.886 141.732, 353.200 150.837 C 353.365 155.601, 353.132 160.512, 352.683 161.750 C 350.715 167.167, 358.871 161.084, 362.236 154.624 C 363.937 151.360, 364.362 148.885, 364.272 142.752 C 364.072 129.012, 362.308 125.951, 358.041 131.942 M 383.053 142.660 C 381.902 144.123, 380.007 148.511, 378.842 152.410 C 377.676 156.310, 376.271 160.073, 375.719 160.774 C 375.167 161.475, 374.892 162.205, 375.107 162.396 C 375.323 162.587, 379.146 162.005, 383.603 161.103 C 392.540 159.293, 398.543 155.669, 399.604 151.442 C 401.022 145.790, 395.433 144.384, 388.259 148.588 C 385.830 150.012, 383.602 150.935, 383.307 150.640 C 383.012 150.345, 383.947 147.999, 385.385 145.426 C 388.437 139.966, 388.430 140, 386.573 140 C 385.787 140, 384.204 141.197, 383.053 142.660 M 101.441 142.095 C 99.521 145.201, 106.507 151.377, 116.665 155.553 C 126.253 159.496, 126.991 158.697, 121.750 150.049 C 119.796 146.824, 117.111 143.951, 115.016 142.843 C 111.190 140.820, 102.524 140.342, 101.441 142.095 M 130.598 147.841 C 130.279 148.358, 129.923 152.092, 129.807 156.140 C 129.615 162.811, 129.915 164.097, 133.005 169.877 C 138.525 180.202, 150.357 186.617, 156.481 182.605 C 158.051 181.576, 159 180.021, 159 178.477 C 159 175.907, 157.189 175.211, 155.332 177.068 C 153.747 178.653, 147.720 175.829, 145.290 172.363 C 144.186 170.788, 142.289 166.800, 141.075 163.500 C 137.398 153.510, 132.042 145.505, 130.598 147.841 M 98 155.283 C 98 157.644, 103.582 164.578, 107.363 166.916 C 113.038 170.422, 117.121 170.661, 120.575 167.686 L 123.500 165.167 113 160.150 C 100.351 154.106, 98 153.343, 98 155.283 M 333.403 161.914 C 321.285 177.958, 310.568 189.729, 298.235 200.540 C 289.699 208.023, 284.379 213.416, 284.180 214.790 C 284.005 216.005, 284.171 217, 284.550 217 C 286.687 217, 309.519 201.980, 316.673 195.868 C 327.777 186.380, 338 170.733, 338 163.226 C 338 160.967, 337.619 158.882, 337.153 158.595 C 336.687 158.307, 335 159.801, 333.403 161.914 M 178.206 161.048 C 174.837 162.400, 172.842 167.845, 174.078 172.319 C 176.251 180.192, 186.305 182.849, 192.077 177.077 C 200.546 168.608, 189.931 156.342, 178.206 161.048 M 381.754 164.871 C 373.629 167.628, 372.342 169.210, 375.750 172.252 C 377.990 174.251, 385.245 176.195, 388.213 175.591 C 389.471 175.335, 391.749 174.861, 393.275 174.537 C 396.393 173.877, 404 167.457, 404 165.486 C 404 164.696, 401.575 163.783, 397.668 163.103 C 390.062 161.778, 391.257 161.645, 381.754 164.871 M 108.500 173.875 C 102.870 176.451, 89.639 189.973, 91.211 191.544 C 91.480 191.813, 95.480 191.160, 100.100 190.092 C 104.720 189.024, 111.875 187.840, 116 187.459 C 120.125 187.079, 124.850 186.093, 126.500 185.269 C 129.695 183.674, 135 179.091, 135 177.926 C 135 177.542, 132.889 176.911, 130.309 176.524 C 127.729 176.137, 123.437 174.961, 120.772 173.910 C 114.822 171.565, 113.554 171.561, 108.500 173.875 M 105.984 197.856 C 102.188 199.878, 96 210.214, 96 214.534 L 96 216.892 101.402 215.034 C 104.374 214.011, 107.861 212.613, 109.152 211.927 C 112.965 209.900, 123 200.812, 123 199.385 C 123 195.753, 111.819 194.748, 105.984 197.856 M 168.558 211.492 C 164.163 213.058, 160.185 215.759, 158.619 218.242 C 157.841 219.475, 158.047 220.394, 159.447 221.941 C 163.029 225.900, 172.181 223.829, 178.816 217.559 C 184.578 212.115, 184.143 209.981, 177.281 210.044 C 174.652 210.068, 170.726 210.720, 168.558 211.492 M 111.432 221.472 C 106.020 224.169, 97.161 232.494, 98.392 233.725 C 100.055 235.389, 115.030 235.260, 119.524 233.544 C 127.659 230.437, 133.187 221.087, 127.750 219.630 C 122.802 218.304, 116.320 219.036, 111.432 221.472 M 362.176 226.009 C 355.910 227.330, 348.625 230.916, 339.370 237.234 C 334.899 240.286, 329.611 243.373, 327.620 244.093 C 320.587 246.636, 324.593 250.460, 333.249 249.466 L 338.500 248.863 334.750 251.128 C 331.221 253.260, 329.891 256.197, 331.894 257.434 C 332.385 257.738, 334.456 257.290, 336.495 256.438 C 338.534 255.586, 341.620 255.050, 343.351 255.247 L 346.500 255.605 342.750 257.316 C 338.844 259.098, 338.129 260.340, 340.250 261.660 C 340.938 262.088, 350.500 262.486, 361.500 262.544 C 378.462 262.634, 382.008 262.916, 384.843 264.399 C 386.682 265.361, 388.430 265.903, 388.728 265.605 C 389.957 264.376, 385.787 260.078, 381.302 257.953 C 378.661 256.701, 376.439 255.637, 376.365 255.588 C 376.290 255.540, 376.765 252.856, 377.419 249.624 L 378.608 243.748 382.642 248.331 C 384.861 250.852, 387.761 254.958, 389.087 257.457 C 390.412 259.956, 391.883 262, 392.356 262 C 392.829 262, 392.898 257.563, 392.510 252.140 C 391.923 243.944, 392.084 241.738, 393.462 239.073 C 394.374 237.310, 394.981 234.660, 394.810 233.184 C 394.545 230.889, 393.920 230.416, 390.500 229.920 C 388.300 229.602, 384.700 228.563, 382.500 227.613 C 377.660 225.522, 368.074 224.766, 362.176 226.009 M 132.051 234.131 C 126.969 235.082, 123.620 237.258, 115.351 244.984 L 109.500 250.450 115 251.300 C 123.177 252.563, 131.866 251.462, 140.748 248.037 C 149.732 244.572, 154.048 240.968, 152.068 238.582 C 149.238 235.172, 138.841 232.860, 132.051 234.131 M 357.235 244.980 C 351.921 247.392, 350.875 249.671, 353.944 252.156 C 357.235 254.820, 362.550 254.541, 365.545 251.545 C 368.390 248.701, 368.634 246.776, 366.429 244.571 C 364.387 242.529, 362.443 242.616, 357.235 244.980 M 179.883 258.750 C 178.690 261.822, 179.396 271.918, 181.171 277.152 C 182.475 280.998, 185.747 286, 186.960 286 C 188.583 286, 191 277.854, 191 272.381 C 191 265.848, 188.868 260.754, 184.972 257.980 C 181.395 255.433, 181.157 255.469, 179.883 258.750 M 160.166 260.200 C 151.718 264.295, 141 276.383, 141 281.816 C 141 284.352, 148.626 283.100, 153.589 279.750 C 157.751 276.940, 158.980 275.247, 162.665 267.250 C 165.186 261.778, 166.431 258.020, 165.713 258.050 C 165.046 258.077, 162.550 259.045, 160.166 260.200 M 408.223 298.557 C 405.660 300.352, 405.233 304.769, 407.538 305.653 C 409.698 306.482, 417.692 303.245, 418.466 301.227 C 419.888 297.522, 412.464 295.586, 408.223 298.557 M 220 307.460 C 217.525 308.777, 212.452 310.380, 208.727 311.022 C 198.481 312.787, 196.059 316.717, 203.003 320.309 C 212.091 325.009, 228.812 316.848, 227.811 308.201 C 227.406 304.706, 225.512 304.526, 220 307.460" stroke="none" fill="black" fill-rule="evenodd"/>
</svg>