<svg xmlns="http://www.w3.org/2000/svg" width="512" height="512" viewBox="0 0 512 512" version="1.1">
	<path d="M 230.265 4.152 C 209.511 5.356, 187.789 11.444, 167.777 21.666 C 139.289 36.217, 117.564 57.926, 103.590 85.804 C 88.599 115.709, 84.949 147.084, 91.942 185.921 L 93.880 196.683 90.953 205.091 C 87.476 215.082, 87.235 221.313, 89.982 230.207 C 92.592 238.658, 98.357 246.515, 107.801 254.494 C 121.222 265.832, 135.492 271.987, 148.432 272.016 L 155.500 272.032 160.500 279.167 C 163.394 283.297, 168.894 289.139, 173.559 293.041 C 179.792 298.253, 181.884 300.669, 182.793 303.703 C 184.371 308.971, 186.249 322.787, 185.543 323.931 C 185.231 324.435, 182.725 325.595, 179.974 326.509 C 176.570 327.639, 174.115 329.294, 172.289 331.688 C 170.464 334.081, 166.871 336.503, 161.053 339.263 C 154.762 342.247, 150.960 344.891, 146.677 349.260 L 140.854 355.201 136.484 354.100 C 124.616 351.112, 112.796 355.550, 109.810 364.116 C 109.046 366.307, 107.848 367.233, 104.674 368.088 C 95.255 370.624, 89 375.135, 89 379.392 C 89 381.472, 96.635 385.782, 105.036 388.446 C 108.856 389.657, 112.262 390.929, 112.606 391.273 C 112.950 391.617, 110.534 396.759, 107.238 402.699 C 96.449 422.141, 56 501.581, 56 503.328 C 56 504.898, 58.074 505.012, 82.250 504.767 L 108.500 504.500 114.124 494 C 134.696 455.593, 138.541 448.730, 139.742 448.269 C 140.481 447.985, 141.285 447.952, 141.528 448.195 C 141.771 448.438, 141.217 460.143, 140.296 474.206 C 138.719 498.306, 138.721 499.925, 140.334 502.388 L 142.046 505 171.438 505 L 200.829 505 201.400 497.750 C 201.715 493.762, 202.585 480.053, 203.335 467.285 C 204.293 450.955, 205.099 443.586, 206.049 442.440 C 207.216 441.034, 207.066 440.554, 204.951 438.928 C 203.603 437.892, 202.181 437.034, 201.792 437.022 C 201.403 437.010, 199.940 435.048, 198.542 432.662 C 192.526 422.396, 197.641 410.059, 209.205 406.945 C 220.063 404.021, 231 411.806, 231 422.460 C 231 425.787, 231.196 426, 234.250 426.001 C 245.073 426.005, 286.403 432.540, 290.930 434.963 C 293.363 436.265, 293.643 438.539, 291.473 439.372 C 289.126 440.273, 257.452 442.790, 238.908 443.549 L 222.317 444.229 221.655 473.704 C 221.290 489.915, 221.246 503.588, 221.555 504.089 C 221.880 504.615, 241.266 505, 267.437 505 C 305.566 505, 312.944 504.773, 313.945 503.566 C 315.045 502.241, 314.057 483.286, 311.456 455.834 C 311.148 452.582, 311.339 449.909, 311.903 449.560 C 313.147 448.791, 315.295 452.481, 330.303 481.179 L 342.500 504.500 367.775 504.767 C 387.856 504.980, 393.153 504.766, 393.551 503.727 C 393.827 503.008, 381.615 477.762, 366.412 447.624 C 351.210 417.487, 339.160 392.506, 339.636 392.111 C 340.111 391.716, 343.667 390.410, 347.537 389.207 C 356.255 386.500, 364 381.757, 364 379.126 C 364 376.110, 357.508 371.175, 351.028 369.265 C 345.798 367.724, 344.953 367.108, 343.701 363.922 C 340.778 356.480, 331.365 352.300, 320.217 353.493 L 313.848 354.175 309.571 349.838 C 305.189 345.394, 302.928 344.074, 287.750 337.108 C 280.124 333.607, 279 332.768, 279 330.569 C 279 327.341, 281.252 325.902, 292.500 321.941 C 304.024 317.883, 310.469 314.605, 321.703 307.091 C 342.154 293.411, 351.538 280.546, 354.394 262.271 C 355.510 255.131, 356.733 251.397, 359.800 245.771 C 364.694 236.794, 365.564 234.097, 367.979 220.397 C 369.036 214.404, 371.021 203.650, 372.391 196.500 C 373.761 189.350, 375.381 178.597, 375.990 172.604 C 376.728 165.347, 377.917 159.762, 379.549 155.884 C 380.897 152.681, 382.006 149.034, 382.014 147.780 C 382.050 141.695, 382.548 141.330, 391.775 140.621 C 406.716 139.472, 429.707 133.901, 431.504 130.994 C 431.802 130.511, 426.298 125.494, 419.273 119.844 C 403.070 106.813, 389.760 93.941, 370.317 72.500 C 339.977 39.042, 319.919 23.495, 293.615 13.046 C 274.881 5.604, 254.516 2.745, 230.265 4.152 M 297.586 40.873 C 298.089 41.313, 300.975 42.700, 304 43.955 C 313.849 48.040, 329.744 58.372, 333.918 63.401 C 335.541 65.357, 335.234 65.363, 326.539 63.544 C 322.711 62.743, 319.423 62.244, 319.232 62.435 C 318.632 63.035, 323.879 66.390, 345.500 79.226 C 382.914 101.438, 389 104.915, 389 104.078 C 389 103.624, 383.206 98.495, 376.125 92.678 C 369.043 86.862, 356.713 75.892, 348.725 68.301 C 332.425 52.812, 327.350 49.359, 313.879 44.595 C 304.641 41.329, 295.800 39.309, 297.586 40.873 M 218.500 50.455 C 184.092 57.726, 156.673 75.977, 144.720 99.567 C 141.301 106.312, 137.779 118.209, 138.176 121.667 C 138.438 123.951, 139.135 122.811, 141.824 115.700 C 144.712 108.063, 155.378 90.121, 157.989 88.507 C 158.487 88.199, 157.297 91.405, 155.344 95.631 C 151.218 104.561, 147.205 119.605, 148.581 120.981 C 149.143 121.543, 151.161 121.160, 153.751 120 C 156.088 118.954, 157.990 118.413, 157.978 118.799 C 157.967 119.185, 155.540 121.231, 152.587 123.346 C 147.467 127.013, 129.407 143.590, 131.500 142.701 C 132.050 142.468, 136.775 139.793, 142 136.757 C 147.225 133.721, 159.375 127.076, 169 121.990 C 205.948 102.468, 224.584 87.379, 239.089 65.240 C 244.364 57.188, 245.682 53.142, 244.031 50.059 C 243.081 48.283, 242.008 48.009, 236.215 48.065 C 232.522 48.101, 224.550 49.177, 218.500 50.455 M 284 123.685 C 211.133 140.758, 169.398 153.831, 161.858 161.946 C 156.517 167.695, 155.731 185.699, 159.929 206.162 C 161.504 213.843, 161.564 215.230, 160.343 215.699 C 159.557 216, 158.735 216.079, 158.517 215.874 C 158.298 215.668, 152.731 210.210, 146.146 203.744 C 132.684 190.526, 126.878 187.015, 118.500 187.026 C 112.287 187.035, 107.061 189.863, 102.109 195.897 L 98.500 200.294 102.988 198.005 C 109.526 194.671, 116.127 194.836, 122.839 198.500 C 133.124 204.115, 141.446 215.642, 150.996 237.500 C 167.870 276.120, 171.730 281.432, 192.310 294.352 C 208 304.203, 232.867 313.409, 250.914 316.048 C 261.282 317.564, 274.915 316.721, 285.040 313.939 C 305.166 308.409, 330.708 291.217, 338.782 277.765 C 341.119 273.872, 342.759 269.014, 344.479 260.894 C 346.122 253.137, 348.336 246.447, 351.402 239.975 C 354.414 233.618, 356.404 227.645, 357.400 221.980 C 358.219 217.316, 359.579 210.551, 360.421 206.947 C 361.263 203.343, 362.392 197.291, 362.929 193.498 C 363.877 186.802, 363.814 186.430, 360.735 180.654 C 357.219 174.057, 353.253 171.009, 348.178 171.004 C 346.285 171.002, 340.224 173.152, 334.096 176 C 322.933 181.187, 317.266 182.230, 315.011 179.513 C 313.160 177.283, 314.595 173.397, 318.258 170.720 C 323.875 166.613, 338.192 160.701, 343.690 160.218 C 347.787 159.858, 349.607 160.212, 352.333 161.897 C 356.288 164.341, 360.338 169.314, 362.801 174.750 L 364.500 178.500 364.796 166.500 C 365.082 154.941, 363.864 143.482, 361.974 139.952 C 361.438 138.949, 358.305 137.577, 354.285 136.582 C 350.553 135.658, 335.987 131.775, 321.916 127.951 C 307.844 124.128, 295.919 121.051, 295.416 121.113 C 294.912 121.175, 289.775 122.332, 284 123.685 M 209.214 161.480 C 199.361 166.067, 187.202 181.500, 188.183 188.173 C 188.484 190.222, 188.860 189.938, 191.333 185.792 C 194.691 180.162, 199.882 175.412, 205.435 172.890 C 212.168 169.832, 219.069 170.436, 235.053 175.482 C 242.863 177.948, 251.333 180.215, 253.876 180.520 C 259.334 181.176, 263.355 179.458, 263.813 176.277 C 264.386 172.292, 262.191 170.219, 254.089 167.094 C 231.899 158.537, 219.002 156.924, 209.214 161.480 M 224.871 190.971 C 214.010 192.916, 204.736 199.876, 199.905 209.708 C 197.942 213.703, 197.547 216.080, 197.525 224 C 197.503 232.218, 197.854 234.242, 200.123 239 C 203.430 245.937, 208.107 250.680, 214.500 253.584 C 221.341 256.691, 227.825 257.477, 234.215 255.971 C 250.513 252.132, 258.476 242.411, 258.355 226.500 C 258.299 219.076, 257.493 215.662, 253.401 205.503 C 252.617 203.557, 252.665 203.551, 255.263 205.253 C 258.680 207.492, 258.932 207.454, 258.239 204.806 C 257.248 201.018, 249.694 194.389, 244.410 192.670 C 237.987 190.581, 230.622 189.940, 224.871 190.971 M 327 191.740 C 321.458 194.422, 312.237 204.255, 309.216 210.704 C 306.827 215.801, 306.500 217.709, 306.500 226.527 C 306.500 235.317, 306.815 237.166, 309.055 241.518 C 312.111 247.457, 318.016 251.924, 323.842 252.706 C 332.588 253.879, 342.890 247.240, 347.064 237.742 C 350.373 230.212, 350.950 215.706, 348.257 207.750 C 345.972 201, 346.921 200.330, 350.573 206.115 C 352.319 208.882, 353.501 209.899, 354.179 209.221 C 355.422 207.978, 351.909 199.604, 348.701 196.165 C 343.227 190.296, 333.908 188.396, 327 191.740 M 106.270 207.483 C 101.525 209.545, 99.008 214.326, 99.004 221.282 C 98.999 228.138, 100.692 232.586, 105.962 239.565 C 113.899 250.078, 131.623 260.702, 142.937 261.728 C 150.345 262.400, 151.057 261.329, 147.972 254.156 L 145.804 249.118 140.873 249.230 C 134.261 249.381, 132.603 247.689, 136.399 244.662 C 138.719 242.812, 139.113 241.925, 138.494 239.942 C 137.317 236.174, 131.840 229, 130.141 229 C 129.305 229, 126.427 231.363, 123.746 234.250 L 118.871 239.500 116.435 236.694 C 113.309 233.092, 113.103 225.983, 115.989 221.250 C 118.202 217.621, 120.037 217.282, 125.378 219.513 C 129.429 221.206, 129.593 221.035, 127.589 217.200 C 125.579 213.353, 121.105 209.359, 116.782 207.553 C 112.273 205.669, 110.468 205.657, 106.270 207.483 M 206.455 213.455 C 203.074 216.835, 203.002 223.714, 206.314 226.826 C 208.895 229.250, 214.488 229.714, 217.087 227.718 C 221.338 224.454, 222.207 217.804, 218.927 213.635 C 216.087 210.024, 209.973 209.936, 206.455 213.455 M 316.357 212.992 C 311.240 215.057, 309.356 222.356, 313 226 C 317.506 230.506, 326 226.586, 326 220 C 326 218.052, 325.093 216.002, 323.545 214.455 C 320.937 211.846, 319.779 211.611, 316.357 212.992 M 335.118 236.548 C 329.881 240.666, 324.063 242.418, 318.260 241.622 C 313.487 240.968, 313.442 241.019, 315.425 244.855 C 318.953 251.677, 329.424 251.671, 335.633 244.845 C 339.494 240.601, 342.510 232.896, 340.250 233.051 C 339.837 233.080, 337.528 234.653, 335.118 236.548 M 236.905 241.428 C 236.623 241.710, 233.618 242.652, 230.228 243.520 C 225.192 244.810, 222.947 244.897, 217.969 243.994 C 214.618 243.387, 211.228 242.641, 210.438 242.338 C 207.711 241.291, 208.948 245.215, 212.358 248.431 C 217.892 253.650, 227.516 255.482, 234.364 252.621 C 240.812 249.927, 244.389 241.914, 239.459 241.208 C 238.336 241.047, 237.187 241.146, 236.905 241.428 M 292.500 255.195 C 288.013 257.739, 288.418 260.424, 293.026 258.684 C 295.321 257.818, 296.505 257.834, 297.975 258.752 C 300.919 260.591, 301.837 258.096, 299.048 255.838 C 296.441 253.726, 295.289 253.613, 292.500 255.195 M 259.898 283.282 C 255.570 286.189, 254.670 291.683, 258.012 294.797 C 263.521 299.929, 282.470 301.667, 292.402 297.951 C 302.228 294.274, 307.010 286.018, 301.430 282.362 C 299.029 280.789, 298.515 280.788, 293.592 282.339 C 287.068 284.396, 280.808 284.452, 274.409 282.511 C 267.563 280.434, 263.844 280.632, 259.898 283.282 M 263.939 287.061 C 258.380 292.620, 266.281 297.231, 280.500 296.724 C 289.160 296.416, 295.277 294.220, 297.132 290.753 C 297.944 289.237, 297.835 288.407, 296.674 287.245 C 295.403 285.974, 294.410 285.911, 290.634 286.862 C 284.526 288.400, 279.284 288.293, 273.409 286.511 C 267.027 284.575, 266.388 284.612, 263.939 287.061 M 195.586 315.750 C 195.891 318.913, 196.447 325.100, 196.821 329.500 L 197.500 337.500 204.500 339.250 C 221.971 343.619, 241.553 343.456, 256.801 338.816 C 259.984 337.847, 260.091 337.646, 259.801 333.171 L 259.500 328.532 246.367 325.887 C 232.531 323.101, 218.928 318.952, 205.307 313.362 C 200.800 311.513, 196.645 310, 196.072 310 C 195.407 310, 195.231 312.076, 195.586 315.750 M 171.500 347.615 C 162.494 353.034, 152.893 360.304, 153.746 361.059 C 154.161 361.425, 169.928 367.480, 188.785 374.513 L 223.070 387.301 254.285 376.161 C 271.453 370.034, 288.988 363.850, 293.250 362.420 C 297.512 360.990, 301 359.457, 301 359.014 C 301 358.149, 294.990 354.227, 285.783 349.084 L 280.067 345.891 264.783 348.529 C 235.322 353.614, 213.036 353.003, 190.576 346.494 C 185.843 345.122, 180.964 344.001, 179.735 344.003 C 178.506 344.004, 174.800 345.630, 171.500 347.615" stroke="none" fill="black" fill-rule="evenodd"/>
</svg>