<svg xmlns="http://www.w3.org/2000/svg" width="512" height="512" viewBox="0 0 512 512" version="1.1">
	<path d="M 255 2.035 C 227.770 3.694, 203.415 10.167, 178.500 22.366 C 135.276 43.530, 102.987 77.900, 87.717 119 C 81.232 136.455, 79.615 146.093, 79.748 166.500 C 79.850 182.068, 79.614 185.072, 77.998 188.731 C 76.020 193.210, 69.369 198.321, 63.976 199.505 C 57.348 200.961, 47.886 195.417, 46.737 189.405 C 46.013 185.618, 47.601 180.816, 50.251 178.776 C 52.257 177.231, 52.300 177.042, 50.650 177.022 C 49.633 177.010, 47.270 178.530, 45.400 180.400 C 42.334 183.466, 42 184.356, 42 189.463 C 42 204.826, 57.091 219.171, 79.500 225.108 C 88.474 227.486, 107.979 228.174, 122.845 226.637 C 131.010 225.794, 131.168 225.818, 130.118 227.779 C 129.528 228.881, 127.010 232.168, 124.523 235.082 C 117.513 243.294, 118.770 248.811, 129.499 256.912 C 137.199 262.725, 138.411 265.490, 137.643 275.484 C 137.085 282.737, 137.263 284.013, 139.392 288.029 C 140.695 290.488, 142.086 294.975, 142.482 298 C 142.965 301.676, 143.982 304.329, 145.549 306 C 149.476 310.187, 150.998 315.253, 151.022 324.218 C 151.047 333.540, 152.848 338.719, 157.624 343.197 C 163.431 348.643, 166.934 349.431, 185.500 349.467 C 203.837 349.503, 204.937 349.759, 209.384 355.044 C 213.847 360.349, 215.447 367.822, 215.475 383.500 C 215.502 398.377, 214.805 401.159, 209.633 406.845 C 205.619 411.258, 202.985 411.942, 190.870 411.714 C 177.985 411.472, 174.617 412.625, 166.583 420.031 C 155.927 429.852, 151.493 451.047, 155.450 473.239 C 156.943 481.612, 160.750 494, 161.832 494.001 C 162.199 494.001, 162.341 489.650, 162.148 484.331 C 161.051 454.233, 169.620 428.392, 181.703 425.360 C 184.824 424.576, 187.772 427.266, 188.594 431.648 C 188.942 433.504, 189.591 435.247, 190.036 435.522 C 190.480 435.797, 194.115 432.417, 198.113 428.011 C 202.111 423.605, 206.022 420, 206.804 420 C 208.865 420, 207.618 427.031, 203.418 439.098 C 199.018 451.737, 199.010 453, 203.322 453 C 209.310 453, 216.177 449.918, 221.053 445.042 C 224.780 441.315, 236.792 422.715, 242.876 411.250 C 245.029 407.193, 241.303 408.600, 235.594 414 C 232.686 416.750, 229.720 419, 229.004 419 C 226.991 419, 228.286 380.409, 230.546 373 C 234.542 359.907, 242.078 348.623, 258.637 330.939 C 269.156 319.706, 270.394 317.574, 274.537 303.560 C 277.672 292.956, 280.834 289.200, 288.867 286.539 C 295.501 284.342, 295.963 284.849, 295.985 294.343 C 296.016 308.142, 304.413 338.691, 314.033 360 C 317.898 368.562, 332.850 396.785, 337.967 405.178 C 340.095 408.668, 340.638 412, 339.079 412 C 335.609 412, 306.613 417.533, 297.245 419.983 C 270.309 427.026, 245.325 440.167, 228.439 456.172 C 219.748 464.409, 186 501.898, 186 503.314 C 186 505.941, 219.470 499.058, 277 484.599 C 317.411 474.442, 360.114 464.747, 382 460.759 C 386.125 460.007, 389.424 458.967, 389.330 458.446 C 389.237 457.926, 379.749 443.325, 368.247 426 C 339.282 382.373, 332.191 370.366, 325.665 353.887 C 322.521 345.948, 319.849 336.054, 320.545 334.928 C 320.821 334.481, 324.749 335.884, 329.274 338.047 C 361.722 353.558, 407.090 349.524, 436.540 328.508 C 450.380 318.633, 462.096 302.179, 465.465 287.886 C 467.494 279.280, 467.446 276.502, 465.338 280.500 C 461.363 288.041, 456.546 291, 448.246 291 C 433.004 291, 422 278.284, 422 260.671 C 422 251.964, 423.419 246.841, 430.148 231.244 C 439.879 208.692, 443.305 196.375, 445.026 177.750 C 447.329 152.830, 441.987 124.504, 430.143 98.842 C 404.878 44.099, 350.501 7.008, 288.998 2.567 C 272.298 1.361, 267.333 1.283, 255 2.035 M 249 28.106 C 226.431 30.653, 203.588 39.971, 183.790 54.704 C 178.364 58.743, 167.953 67.792, 160.655 74.814 C 151.067 84.040, 145.531 88.541, 140.697 91.041 C 137.018 92.943, 134.156 94.950, 134.337 95.500 C 135.098 97.817, 143.642 99.892, 152.640 99.946 C 167.650 100.035, 178.957 97.230, 208 86.211 C 226.497 79.193, 234.415 77.687, 249.975 78.228 C 261.234 78.619, 264.841 79.152, 271.500 81.407 C 302.716 91.977, 323.431 120.152, 328.109 158.403 C 330.691 179.516, 325.612 200.565, 313.772 217.820 C 312.141 220.196, 311.011 222.344, 311.260 222.593 C 312.096 223.429, 329.429 216.869, 336.824 212.917 C 354.590 203.423, 366.118 190.994, 373.163 173.741 C 384.814 145.207, 378.810 106.637, 358.167 77.394 C 339.084 50.362, 306.664 31.572, 273 28.033 C 262.264 26.905, 259.572 26.913, 249 28.106 M 177 118.103 C 156.931 133.270, 154.479 135.302, 150.705 139.888 C 145.809 145.839, 138.991 159.506, 138.398 164.561 C 137.962 168.274, 138.191 168.685, 142.384 171.719 C 147.411 175.356, 150.087 181.092, 152.071 192.484 C 152.972 197.661, 152.949 200.151, 151.967 203.810 C 150.083 210.832, 142.653 224.737, 137.265 231.329 C 127.022 243.859, 126.671 244.671, 130.041 248.041 C 131.919 249.919, 133.139 250.062, 145.291 249.828 C 152.556 249.688, 160.404 249.953, 162.732 250.416 C 166.230 251.113, 167.072 250.976, 167.590 249.627 C 168.553 247.118, 167.280 243.475, 164.527 240.864 C 161.556 238.046, 161.363 237, 163.813 237 C 166.404 237, 170.903 242.064, 172.071 246.295 C 173.466 251.349, 171.338 256.137, 166.722 258.328 C 162.363 260.396, 160.709 260.418, 156.921 258.459 C 153.008 256.436, 152.081 257.184, 152.708 261.856 C 152.999 264.033, 152.685 266.721, 151.985 268.029 C 150.765 270.308, 150.711 270.276, 148.622 265.974 C 147.455 263.570, 146.050 261.467, 145.500 261.301 C 144.882 261.114, 144.500 264.635, 144.500 270.509 C 144.500 278.569, 144.729 279.926, 146 279.406 C 153.227 276.448, 154.997 276.797, 168.981 283.942 C 175.197 287.117, 180.162 289, 182.319 289 C 184.262 289, 186.337 289.702, 187.095 290.615 C 188.708 292.557, 188.573 292.674, 173.972 301.980 C 164.207 308.204, 163.891 308.515, 165.958 309.888 C 168.087 311.302, 168.060 311.364, 163.555 315.500 C 159.261 319.443, 159 319.982, 159 324.918 C 159 329.332, 159.444 330.598, 161.829 332.983 C 166.743 337.897, 174.516 339, 189.678 336.934 C 213.290 333.717, 243.604 322.066, 253.575 312.375 C 258.874 307.225, 263.597 297.820, 265.192 289.241 C 266.815 280.515, 266.205 279.583, 259.396 280.383 L 253.833 281.037 254.496 278.019 C 255.154 275.021, 255.129 275, 250.803 275 C 244.836 275, 229.957 273.075, 228.162 272.071 C 227.104 271.479, 229.243 269.936, 235.856 266.520 C 242.922 262.871, 246.369 260.313, 250.935 255.330 C 269.501 235.068, 273.498 201.129, 259.140 185.655 C 257.688 184.090, 252.225 180.302, 247 177.238 C 241.775 174.174, 235.505 170.314, 233.067 168.660 L 228.635 165.653 231.332 170.478 C 232.815 173.133, 233.824 175.509, 233.574 175.760 C 233.323 176.010, 229.784 174.138, 225.710 171.599 C 215.608 165.302, 210.305 163.621, 202.512 164.247 C 194.226 164.912, 187.297 168.731, 180.828 176.199 C 178.064 179.389, 175.127 182, 174.301 182 C 173.475 182, 171.237 180.437, 169.327 178.527 C 164.174 173.374, 164.932 171.510, 174.500 165.815 C 190.087 156.538, 197.853 155.127, 210.189 159.331 C 213.868 160.585, 216.594 161.136, 216.246 160.556 C 215.899 159.975, 212.873 156.117, 209.521 151.982 C 198.693 138.625, 193.341 128.303, 190.956 116.181 C 190.287 112.781, 189.236 110.038, 188.620 110.084 C 188.004 110.130, 182.775 113.739, 177 118.103 M 138 119.700 C 130.217 124.459, 124.082 126.127, 111.669 126.860 C 102.465 127.404, 100.607 127.801, 99.305 129.500 C 93.328 137.300, 90.124 152.754, 92.021 164.630 C 92.611 168.323, 93.552 172.054, 94.113 172.922 C 94.865 174.086, 94.974 173.581, 94.529 171 C 92.839 161.217, 92.795 152.320, 94.407 146.043 C 96.557 137.667, 98.189 135.850, 102.895 136.588 C 111.514 137.940, 132.943 130.379, 141.308 123.035 C 144.807 119.962, 145.912 117.593, 144.250 116.727 C 143.838 116.512, 141.025 117.850, 138 119.700 M 132.422 178.453 C 131.589 181.775, 132.850 192, 134.093 192 C 134.616 192, 135.569 190.762, 136.212 189.250 C 136.855 187.738, 138.279 185.482, 139.377 184.238 C 141.371 181.976, 141.371 181.974, 139.336 179.238 C 136.528 175.463, 133.266 175.093, 132.422 178.453 M 182.704 181.596 C 177.456 184.442, 177.254 189.513, 181.909 201.591 C 183.862 206.659, 183.862 206.698, 181.882 209.954 C 180.788 211.753, 180.098 213.431, 180.349 213.683 C 180.601 213.934, 182.706 213.170, 185.028 211.986 C 189.175 209.870, 189.239 209.759, 188.672 205.621 C 188.354 203.305, 187.775 200.530, 187.385 199.455 C 186.845 197.966, 187.301 198.158, 189.299 200.260 C 190.743 201.778, 193.153 203.488, 194.657 204.060 C 198.406 205.485, 202.038 202.699, 203.976 196.909 C 204.787 194.484, 205.544 192.343, 205.657 192.152 C 205.770 191.961, 209.809 194.609, 214.633 198.037 C 225.693 205.898, 228.385 207, 236.527 207 C 243.552 207, 244.480 205.679, 238.261 204.534 C 232.178 203.414, 226.743 200.605, 216.827 193.455 C 200.033 181.344, 189.756 177.772, 182.704 181.596 M 141.750 194.679 C 137.787 195.738, 141.482 202.926, 146.972 204.840 C 151.139 206.293, 151.624 204.827, 148.835 199.207 C 146.541 194.582, 145.235 193.747, 141.750 194.679 M 203.581 206.869 C 202.425 208.739, 205.920 209.500, 215.664 209.500 C 223.884 209.500, 227.199 208.866, 225.879 207.545 C 225.628 207.295, 220.668 206.783, 214.856 206.407 C 207.337 205.921, 204.084 206.054, 203.581 206.869 M 342.001 227.123 C 338.588 228.484, 335 232, 335 233.983 C 335 234.882, 335.661 236.491, 336.468 237.559 C 338.471 240.207, 338.357 242.379, 335.973 247.053 C 333.250 252.391, 327.177 256.581, 318.594 259.044 C 306.804 262.428, 303.116 264.037, 301.011 266.713 C 298.123 270.385, 298.502 271.897, 302.750 273.647 C 304.813 274.496, 307.470 276.386, 308.655 277.846 C 311.712 281.610, 318.064 281.547, 323.886 277.694 C 328.721 274.495, 328.960 272.227, 324.680 270.175 C 320.716 268.275, 321.672 265.952, 327.186 264.086 C 329.763 263.214, 333.905 261.061, 336.391 259.302 C 346.839 251.909, 354.637 232.601, 349.171 227.655 C 347.112 225.792, 345.618 225.681, 342.001 227.123 M 151.667 293.667 C 151.300 294.033, 151 295.189, 151 296.234 C 151 297.746, 151.460 297.991, 153.250 297.434 C 158.285 295.865, 160 294.999, 160 294.025 C 160 292.903, 152.742 292.591, 151.667 293.667" stroke="none" fill="black" fill-rule="evenodd"/>
</svg>