<svg xmlns="http://www.w3.org/2000/svg" width="512" height="512" viewBox="0 0 512 512" version="1.1">
	<path d="M 257.769 34.053 C 215.604 39.904, 169.889 62.258, 138.144 92.547 C 130.600 99.746, 124.732 107, 126.455 107 C 126.767 107, 132.530 103.683, 139.261 99.629 C 185.442 71.818, 234.766 56.992, 281 57.027 C 319.421 57.055, 353.272 68.373, 384.905 91.767 C 392.751 97.569, 410.350 113.983, 409.566 114.767 C 409.314 115.020, 404.229 112.731, 398.267 109.681 C 365.633 92.988, 340.795 86.426, 305.971 85.295 C 265.216 83.972, 230.347 93.056, 192.041 114.976 C 162.866 131.672, 134.532 158.488, 117.665 185.366 C 105.987 203.977, 94.309 230.721, 86.972 255.661 C 84.732 263.273, 81.320 274.900, 79.388 281.500 C 74.929 296.738, 69.719 308.981, 60.453 326 C 56.411 333.425, 52.392 341.300, 51.523 343.500 L 49.942 347.500 52.521 344.500 C 56.921 339.381, 65.491 326.808, 69.219 320 C 72.433 314.132, 79.695 297.955, 103.479 243.677 C 115.177 216.982, 127.867 195.660, 142.568 178 C 149.319 169.890, 166.440 152.916, 174.500 146.342 C 195.360 129.329, 227.970 113.867, 256.117 107.643 C 296.224 98.774, 332.852 102.902, 367.403 120.186 C 382.461 127.719, 405 144.023, 405 147.382 C 405 150.561, 391.438 160.944, 383.317 163.983 C 376.617 166.489, 365.584 168.152, 362.708 167.088 C 360.743 166.361, 360.891 166.100, 364.717 163.568 C 369.572 160.356, 371.454 156.296, 372.435 146.919 C 373.140 140.175, 372.472 135, 370.897 135 C 370.409 135, 369.068 137.004, 367.916 139.454 C 366.765 141.904, 363.799 145.774, 361.325 148.054 C 356.265 152.719, 356.759 152.715, 344.460 148.171 C 325.641 141.217, 304.341 138.482, 275.500 139.315 C 251.615 140.006, 237.552 142.198, 219.919 147.981 C 196.637 155.617, 176.928 166.458, 160.500 180.664 C 147.866 191.590, 112.698 236.733, 115.971 237.824 C 116.615 238.038, 118.123 237.319, 119.321 236.224 C 120.520 235.130, 122.993 233.479, 124.818 232.556 C 128.024 230.935, 128.101 230.942, 127.122 232.772 C 126.565 233.813, 125.484 235.184, 124.719 235.818 C 122.785 237.423, 115.731 252.694, 116.231 254.194 C 116.456 254.868, 118.538 252.626, 120.857 249.210 C 124.934 243.207, 127.187 240.913, 125.009 244.983 C 124.425 246.074, 120.351 256.288, 115.954 267.681 C 111.558 279.073, 106.136 291.794, 103.907 295.947 C 98.671 305.702, 85.758 324.899, 82.031 328.470 L 79.134 331.246 81.549 334.895 C 84.515 339.377, 88.738 351.544, 89.610 358.121 C 89.966 360.805, 90.508 363, 90.813 363 C 91.119 363, 93.423 362.001, 95.934 360.779 C 99.678 358.958, 102.210 358.560, 110 358.568 C 126.068 358.583, 165.762 369.369, 201.167 383.340 C 231.172 395.180, 241.676 397.477, 265.500 397.413 C 285.584 397.359, 296.369 395.637, 312.688 389.878 C 351.030 376.347, 373.041 355.376, 399.522 307.149 C 415.018 278.928, 416.733 278.016, 429.407 291.246 C 439.403 301.681, 446.787 310.836, 451.391 318.500 C 453.373 321.800, 454.995 324.050, 454.994 323.500 C 454.994 322.950, 453.438 316.607, 451.536 309.405 C 447.262 293.220, 440.324 275.951, 431.645 259.894 C 428.003 253.156, 425.218 247.448, 425.456 247.210 C 427.070 245.597, 471.698 274.197, 481.627 283.207 C 484.857 286.138, 488.302 289.158, 489.282 289.917 C 490.927 291.192, 490.987 291.097, 490.070 288.683 C 484.387 273.735, 474.285 261.993, 448.986 240.926 C 440.193 233.605, 433 227.323, 433 226.966 C 433 226.610, 435.388 225.784, 438.306 225.131 C 441.225 224.478, 446.462 222.596, 449.945 220.948 C 453.450 219.291, 457.083 218.209, 458.081 218.526 C 461.207 219.518, 474.509 234.528, 481.115 244.517 C 484.606 249.795, 487.593 253.722, 487.752 253.243 C 488.892 249.823, 476.669 217.173, 466.819 197.331 C 463.497 190.639, 460.978 184.566, 461.221 183.836 C 461.465 183.106, 465.415 179.580, 470 176 C 479.561 168.535, 481.068 166.330, 475.884 167.386 C 470.251 168.534, 457.400 169.317, 454.818 168.669 C 453.020 168.218, 451.784 166.566, 450.037 162.280 C 439.549 136.552, 419.909 104.720, 404.063 87.768 C 379.872 61.887, 346.081 43.024, 311.087 35.865 C 299.976 33.592, 268.739 32.531, 257.769 34.053 M 287.971 150.015 C 283.829 150.483, 276.179 152.243, 270.971 153.925 C 261.618 156.946, 250.279 162.612, 251.382 163.715 C 251.694 164.027, 258.148 163.702, 265.725 162.993 C 275.551 162.072, 285.090 161.934, 299 162.511 C 332.331 163.893, 337.876 163.746, 343 161.346 L 347.500 159.239 342.713 157.057 C 330.738 151.596, 304.191 148.182, 287.971 150.015 M 266.500 171 C 264.595 171.485, 268.064 171.809, 276 171.888 C 282.875 171.956, 292.961 172.684, 298.413 173.506 C 309.798 175.222, 311.488 175.281, 308 173.841 C 300.305 170.666, 274.703 168.913, 266.500 171 M 346 177.456 C 346 177.896, 361.425 183, 362.752 183 C 364.688 183, 360.684 180.783, 355.566 179.023 C 349.993 177.105, 346 176.452, 346 177.456 M 431.044 200.295 C 429.143 201.467, 424.196 203.403, 420.051 204.599 L 412.516 206.772 416.508 207.888 C 428.249 211.168, 443.850 211.862, 448.417 209.306 C 449.929 208.460, 449.196 207.593, 443.217 203.161 C 439.388 200.322, 435.860 198.037, 435.378 198.083 C 434.895 198.128, 432.945 199.124, 431.044 200.295 M 267.384 208.836 C 267.748 211.584, 268.657 215.558, 269.404 217.666 L 270.761 221.500 271.374 218 C 271.711 216.075, 272.102 212.250, 272.243 209.500 C 272.492 204.660, 272.408 204.489, 269.611 204.170 L 266.721 203.840 267.384 208.836 M 261 207.603 C 261 211.175, 264.117 221, 265.250 221 C 265.737 221, 265.911 220.213, 265.639 219.250 C 265.366 218.287, 264.584 214.892, 263.902 211.704 C 262.559 205.429, 261 203.226, 261 207.603 M 282.088 207.136 C 279.957 209.423, 277 220.627, 277 226.412 C 277 229.785, 278.949 232, 281.917 232 C 283.196 232, 286.951 224.690, 289.999 216.269 C 292.125 210.395, 292.160 209.893, 290.604 207.519 C 288.554 204.390, 284.803 204.222, 282.088 207.136 M 254 207.747 C 254 208.772, 255.002 212.512, 256.228 216.056 C 258.928 223.868, 260.014 221.001, 257.557 212.548 C 255.944 206.999, 254 204.375, 254 207.747 M 248.096 211.931 C 249.241 217.027, 252.278 224.692, 252.658 223.443 C 253.199 221.662, 249.500 208.652, 248.345 208.274 C 247.501 207.998, 247.434 208.984, 248.096 211.931 M 241 210.489 C 241 212.686, 246.048 224.912, 247.266 225.664 C 248.663 226.528, 247.729 222.025, 244.998 214.724 C 242.972 209.309, 241 207.220, 241 210.489 M 301.964 214.583 C 300.884 217.104, 300 219.416, 300 219.722 C 300 220.028, 298.627 222.510, 296.949 225.237 C 295.271 227.964, 294.067 230.702, 294.273 231.320 C 294.867 233.100, 305.501 222.422, 308.126 217.412 C 310.461 212.951, 310.469 212.854, 308.559 211.439 C 305.397 209.095, 304.039 209.742, 301.964 214.583 M 233.327 212.591 C 232.660 214.328, 234.452 218.588, 238.641 225.223 C 242.474 231.295, 242.625 228.555, 238.978 219.099 C 235.888 211.087, 234.512 209.502, 233.327 212.591 M 221.227 218.153 C 219.452 219.277, 218 220.562, 218 221.008 C 218 222.127, 225.071 230.866, 228.844 234.409 C 231.448 236.855, 232.039 237.061, 232.559 235.707 C 232.899 234.821, 232.886 233.624, 232.530 233.048 C 231.521 231.415, 234.603 231.817, 236 233.500 C 236.685 234.325, 237.685 235, 238.224 235 C 239.737 235, 235.051 227.865, 229.477 221.682 L 224.454 216.110 221.227 218.153 M 320 217.883 C 318.514 218.289, 316.206 220.581, 314.308 223.533 C 312.553 226.265, 310.028 229.850, 308.698 231.500 C 305.583 235.366, 302.914 240.581, 303.667 241.333 C 304.556 242.223, 309.850 239.287, 316.120 234.428 C 321.943 229.914, 323 229.783, 323 233.574 C 323 235.337, 321.560 236.542, 316.250 239.225 C 310.728 242.015, 309.442 243.124, 309.184 245.318 C 308.826 248.345, 309.731 248.670, 312.559 246.532 C 313.832 245.569, 316.950 245.053, 321.615 245.032 C 327.142 245.007, 329.288 244.561, 331.230 243.034 C 339.098 236.845, 336.250 222.509, 326.329 218.364 C 324.533 217.614, 322.937 217.045, 322.782 217.100 C 322.627 217.155, 321.375 217.507, 320 217.883 M 211.250 229.662 C 209.015 230.564, 209.913 232.491, 214.750 237.172 C 221.555 243.757, 226 245.774, 226 242.277 C 226 240.639, 214.609 228.913, 213.179 229.079 C 212.806 229.122, 211.938 229.385, 211.250 229.662 M 170.438 235.194 C 168.204 237.562, 163.718 242.875, 160.469 247 C 157.221 251.125, 150.854 258.100, 146.322 262.500 C 138.326 270.261, 135.596 274.381, 125.283 294.247 C 123.487 297.705, 124.719 304.473, 129.516 317.500 C 136.683 336.965, 138.261 344.339, 135.789 346.811 C 134.841 347.759, 135.014 348.459, 136.588 350.032 C 138.190 351.635, 140.716 352.230, 149.049 352.967 C 163.647 354.258, 183.230 358.768, 205.500 365.968 C 241.111 377.481, 262.555 378.816, 295.097 371.546 C 323.877 365.116, 348.117 350.751, 365.653 329.731 C 376.182 317.110, 376.321 316.748, 376.211 302.194 C 376.027 277.845, 371.352 259.823, 364.032 255.252 C 362.430 254.252, 362.244 255.017, 361.706 264.832 C 360.456 287.620, 350.771 312.644, 336.301 330.475 C 325.213 344.139, 304.607 357.296, 287.500 361.634 C 276.945 364.311, 253.244 364.065, 242.500 361.169 C 208.677 352.049, 181.416 321.993, 173.888 285.522 C 171.539 274.138, 171.385 254.461, 173.557 243.014 C 175.840 230.977, 175.417 229.916, 170.438 235.194 M 301.250 233.662 C 300.563 233.940, 300 234.537, 300 234.990 C 300 236.012, 303.832 235.082, 304.575 233.879 C 305.153 232.944, 303.326 232.825, 301.250 233.662 M 275.223 237.557 C 273.803 238.551, 273 240.151, 273 241.985 C 273 247.347, 278.995 250.544, 283.507 247.587 C 286.573 245.578, 286.732 242.200, 283.927 238.635 C 281.582 235.653, 278.488 235.270, 275.223 237.557 M 21.524 240.500 C 23.575 252.687, 27.988 266.914, 32.533 276 C 35.923 282.775, 38.794 287.206, 48.313 300.355 C 53.903 308.076, 54 308.152, 54 304.815 C 54 295.701, 47.302 280.243, 34.956 260.864 C 31.229 255.014, 26.531 247.139, 24.515 243.364 C 21.055 236.882, 20.888 236.722, 21.524 240.500 M 248.542 240.466 C 234.970 244.108, 238.302 257, 252.815 257 C 259.854 257, 263 254.338, 263 248.382 C 263 244.966, 262.420 243.329, 260.545 241.455 C 257.797 238.706, 255.731 238.536, 248.542 240.466 M 203 241.013 C 203 242.320, 215.034 250, 217.083 250 C 219.482 250, 218.629 247.642, 215.485 245.582 C 212.121 243.378, 203 240.040, 203 241.013 M 200 249.959 C 200 250.487, 202.956 252.287, 206.570 253.959 C 212.878 256.879, 216 257.685, 216 256.394 C 216 255.679, 211.554 252.018, 208.583 250.285 C 206.092 248.833, 200 248.602, 200 249.959 M 317.250 251.584 C 314.465 253.779, 312.848 257, 314.532 257 C 317.453 257, 326 251.667, 326 249.845 C 326 248.029, 320.331 249.155, 317.250 251.584 M 319.750 258.566 C 314.506 261.295, 313.387 263.427, 317.750 262.375 C 322.806 261.156, 329.406 258.283, 329.788 257.135 C 330.447 255.158, 324.732 255.972, 319.750 258.566 M 198.519 258.969 C 198.169 259.536, 198.246 260.007, 198.691 260.015 C 199.136 260.024, 198.877 260.425, 198.115 260.908 C 197.005 261.611, 197.143 262.006, 198.813 262.900 C 201.633 264.409, 213.178 264.809, 213.672 263.415 C 214.481 261.131, 199.838 256.835, 198.519 258.969 M 323.079 264.823 C 315.074 267.334, 315.109 269.292, 323.146 268.483 C 331.449 267.647, 332 267.432, 332 265.031 C 332 262.564, 330.400 262.526, 323.079 264.823 M 196 267.893 C 196 269.235, 198.324 269.879, 205.763 270.599 C 211.117 271.117, 212.260 270.996, 211.330 270.006 C 209.276 267.819, 196 265.990, 196 267.893 M 323.255 274.416 C 312.603 276.533, 313.368 278.320, 325.157 278.856 L 333.154 279.219 332.827 276.368 C 332.438 272.975, 331.484 272.780, 323.255 274.416 M 197.667 276.667 C 197.300 277.033, 197 277.997, 197 278.809 C 197 280.011, 198.082 280.172, 202.833 279.675 C 209.657 278.962, 212.204 278.139, 211.435 276.895 C 210.799 275.865, 198.670 275.664, 197.667 276.667 M 203.194 283.652 C 196.824 285.178, 195.276 287.227, 200.077 287.778 C 203.148 288.130, 213.500 284.831, 213.500 283.500 C 213.500 281.950, 210.086 282, 203.194 283.652 M 316.267 284.025 C 311.501 285.942, 316.551 289.686, 325.301 290.722 C 328.904 291.149, 330.430 290.932, 331.082 289.901 C 332.498 287.665, 332.139 284.267, 330.418 283.607 C 328.091 282.714, 318.848 282.987, 316.267 284.025 M 209 293.656 C 201.145 296.797, 200.621 297.229, 201.458 299.869 C 202.079 301.825, 202.499 301.684, 209.058 297.323 C 212.876 294.784, 216 292.323, 216 291.853 C 216 290.774, 216.581 290.624, 209 293.656 M 314.500 294.513 C 315.600 295.419, 318.720 297.298, 321.433 298.689 C 326.132 301.099, 326.429 301.134, 327.683 299.419 C 330.679 295.321, 329.296 294.346, 319.237 293.460 C 312.880 292.900, 312.613 292.959, 314.500 294.513 M 213.010 302.346 C 207.055 305.266, 203.811 309, 207.231 309 C 210.132 309, 221.131 300.798, 219.892 299.558 C 219.675 299.342, 216.579 300.596, 213.010 302.346 M 311.550 299.893 C 314.050 302.242, 324 307.937, 324 307.018 C 324 305.803, 313.691 299, 311.848 299 C 311.073 299, 310.960 299.339, 311.550 299.893 M 306.342 305.551 C 305.878 306.759, 307.220 308.600, 311.098 312.074 C 317.117 317.466, 318.562 317.956, 319.523 314.928 C 320.366 312.272, 318.366 310.061, 311.972 306.581 C 307.509 304.152, 306.920 304.044, 306.342 305.551 M 221.456 306.961 C 219.280 307.964, 215.976 310.092, 214.114 311.688 C 211 314.357, 210.839 314.769, 212.104 316.795 C 212.862 318.008, 213.723 319, 214.019 319 C 215.292 319, 227.117 306.190, 226.307 305.689 C 225.814 305.385, 223.631 305.957, 221.456 306.961 M 110.712 321.058 C 107.496 326.677, 105.268 331.643, 105.666 332.308 C 107.618 335.575, 115.789 344.275, 118.986 346.490 C 124.743 350.480, 132 349.396, 132 344.546 C 132 341.587, 123.656 318.607, 120.989 314.223 C 119.911 312.450, 118.454 311, 117.750 311 C 117.046 311, 113.879 315.526, 110.712 321.058 M 298.327 312.591 C 297.563 314.582, 300.101 319.999, 304.174 325.067 L 307.290 328.944 310.573 326.222 C 312.378 324.725, 313.888 323.022, 313.928 322.437 C 314.018 321.104, 309.727 317.092, 304.518 313.640 C 299.880 310.565, 299.151 310.442, 298.327 312.591 M 223.292 317.394 C 217.752 322.792, 217.584 323.101, 219.430 324.511 C 221.133 325.811, 221.557 325.806, 223.033 324.470 C 225.218 322.493, 230.361 313.027, 229.641 312.308 C 229.335 312.001, 226.477 314.290, 223.292 317.394 M 231.640 321.809 C 226.085 329.684, 225.876 330.192, 227.640 331.528 C 229.288 332.777, 229.716 332.684, 231.396 330.719 C 234.300 327.320, 238.179 318.284, 237.820 315.756 C 237.558 313.906, 236.445 314.996, 231.640 321.809 M 244.861 319.633 C 242.446 322.384, 235.849 335.946, 236.451 336.921 C 236.736 337.382, 237.885 337.998, 239.004 338.291 C 240.498 338.681, 241.409 338.110, 242.423 336.148 C 244.529 332.076, 247.180 322.272, 246.820 319.886 C 246.509 317.827, 246.453 317.820, 244.861 319.633 M 291.045 319.300 C 290.967 320.691, 294.165 326.361, 297.225 330.255 C 300.033 333.828, 302 334.383, 302 331.603 C 302 330.211, 291.119 317.990, 291.045 319.300 M 284.032 321.892 C 284.014 323.208, 284.919 327.370, 286.042 331.142 C 287.830 337.146, 288.384 338, 290.483 338 C 291.803 338, 293.166 337.540, 293.514 336.977 C 294.115 336.005, 288.881 325.768, 285.601 321.500 C 284.088 319.532, 284.063 319.539, 284.032 321.892 M 273.041 331.691 C 273.018 337.296, 273.352 342.100, 273.783 342.366 C 274.214 342.632, 276.706 342.394, 279.322 341.836 C 283.543 340.935, 284.007 340.578, 283.446 338.661 C 282.177 334.317, 278.991 328.415, 276.072 325 L 273.081 321.500 273.041 331.691 M 431.238 324.250 C 430.684 324.938, 428.544 328.875, 426.481 333 C 400.661 384.632, 371.796 416.441, 333.500 435.467 C 310.239 447.023, 293.635 451.184, 270.500 451.253 C 238.526 451.349, 209.115 442.761, 161 419.279 C 136.795 407.466, 129 403.846, 129 404.418 C 129 405.120, 166.306 432.642, 177.560 440.242 C 198.721 454.534, 218.540 463.721, 240 469.185 C 264.447 475.409, 294.376 473.811, 321.417 464.835 C 354.516 453.849, 384.164 430.760, 404.834 399.872 C 418.395 379.608, 428.708 352.438, 432.401 327.250 C 433.060 322.750, 432.861 322.235, 431.238 324.250 M 250.126 331.027 C 245.602 341.145, 245.630 341.222, 254.372 342.533 L 259 343.227 258.930 333.364 C 258.884 326.922, 258.561 324.194, 258 325.500 C 257.527 326.600, 257.102 328.625, 257.055 330 C 256.987 331.991, 256.772 332.195, 256 331 C 255.467 330.175, 255.024 328.514, 255.015 327.309 C 254.984 322.846, 253.165 324.230, 250.126 331.027 M 264.649 325.472 C 264.292 326.403, 264 330.952, 264 335.582 C 264 343.526, 264.121 344, 266.148 344 C 268.229 344, 268.275 343.736, 267.633 335.385 C 266.922 326.139, 265.810 322.446, 264.649 325.472" stroke="none" fill="black" fill-rule="evenodd"/>
</svg>