<svg xmlns="http://www.w3.org/2000/svg" width="512" height="512" viewBox="0 0 512 512" version="1.1">
	<path d="M 253.500 18.647 C 228.738 21.518, 208.381 28.574, 190.462 40.496 C 176.601 49.720, 161.717 65.613, 148.289 85.531 C 140.356 97.297, 132.903 110.258, 133.199 111.772 C 133.628 113.962, 139.637 116.813, 146.558 118.111 C 152.015 119.135, 162.075 118.875, 172.500 117.441 L 176.500 116.891 173.717 118.495 C 169.089 121.162, 156.118 124, 148.590 123.994 C 139.562 123.987, 134.947 122.687, 131.059 119.055 L 127.960 116.160 126.496 119.664 C 124.655 124.071, 123.372 129.129, 122.513 135.365 L 121.843 140.230 117.792 139.583 C 112.414 138.723, 103.770 134.413, 100.430 130.927 C 98.848 129.276, 97.228 125.933, 96.495 122.810 C 95.260 117.547, 95.239 117.525, 94.125 120.315 C 91.630 126.561, 93.418 131.634, 100.144 137.392 C 108.225 144.308, 122.441 147.568, 141.156 146.797 C 151.833 146.357, 152.200 146.406, 148.449 147.776 C 146.277 148.569, 139.910 149.451, 134.301 149.737 L 124.102 150.258 124.654 153.379 C 124.958 155.095, 126.555 162.350, 128.204 169.500 C 131.686 184.600, 131.550 190.312, 127.509 198.571 C 122.706 208.389, 114.215 213.316, 102 213.374 C 91.321 213.424, 84.866 210.996, 78.348 204.479 C 69.913 196.043, 67.981 184.915, 72.959 173.439 C 74.790 169.217, 79.984 163.376, 86 158.774 L 89.500 156.096 86.215 156.989 C 78.118 159.187, 70.520 166.528, 65.717 176.792 C 63.100 182.384, 62.592 184.806, 62.203 193.534 C 61.821 202.139, 62.089 204.758, 63.918 210.253 C 69.006 225.544, 80.038 234.861, 97.267 238.420 C 101.474 239.289, 107.373 240, 110.376 240 C 119.223 240, 119.402 240.475, 112.884 246.692 C 95.463 263.309, 93.324 282.726, 107.179 298.466 L 111.170 303 106.266 303 C 103.570 303, 98.919 302.275, 95.932 301.388 C 82.406 297.375, 73.546 290.360, 68.286 279.500 L 64.896 272.500 65.335 278.553 C 66.412 293.387, 76.692 304.741, 93.381 309.530 C 105.221 312.928, 125.127 310.790, 124.931 306.141 C 124.893 305.239, 122.248 302.394, 119.054 299.820 C 111.055 293.374, 108.659 288.255, 109.175 278.712 C 109.639 270.105, 112.053 264.664, 121.232 251.531 C 125.673 245.178, 129.249 241.325, 133.500 238.316 C 136.800 235.980, 139.942 234.053, 140.481 234.034 C 141.021 234.015, 136.454 238.844, 130.333 244.765 C 117.866 256.824, 115.955 260.407, 117.980 267.927 C 119.393 273.173, 123.599 276.498, 131.981 278.994 C 142.375 282.090, 142.443 284.611, 132.634 303 L 126.500 314.500 126.500 326.500 C 126.500 337.983, 126.641 338.798, 129.775 345.415 C 131.576 349.219, 135.341 355.694, 138.142 359.804 C 144.294 368.831, 147.326 375.397, 146.518 377.944 C 145.799 380.210, 141.117 382, 135.910 382 C 133.824 382, 131.869 382.403, 131.565 382.895 C 129.912 385.570, 143.742 385.755, 149.509 383.135 C 151.713 382.133, 154.928 379.707, 156.653 377.743 C 165.296 367.898, 163.503 355.603, 150.346 334.500 C 144.834 325.660, 142.576 320.601, 146.273 325.376 C 147.498 326.958, 152.335 333.033, 157.023 338.876 C 167.163 351.517, 170 357.440, 170 365.975 C 170 379.337, 161.614 387.364, 138.637 395.994 C 118.104 403.707, 112.218 407.818, 107.843 417.500 C 104.427 425.062, 104.585 436.615, 108.206 444 C 111.009 449.716, 118.431 457.902, 119.679 456.654 C 120.073 456.261, 119.674 454.715, 118.794 453.219 C 115.877 448.266, 113.726 438.964, 114.325 433.901 C 115.566 423.423, 121.842 416.673, 133.770 412.989 C 143.012 410.135, 143.403 410.302, 139.838 415.586 C 133.778 424.564, 130.863 436.025, 132.996 442.487 C 134.454 446.905, 135.947 447.530, 147.270 448.461 L 156.040 449.183 154.917 446.718 C 153.156 442.853, 154.912 440.951, 165.665 435.076 C 177.714 428.494, 191.712 419.276, 198.815 413.246 C 204.042 408.809, 204.225 408.743, 209.871 409.255 C 215.078 409.727, 223.563 413.224, 229.202 417.222 C 231.673 418.975, 232.274 417.732, 231.088 413.325 C 230.088 409.614, 225.423 404.243, 220.152 400.737 L 217.804 399.174 220.312 397.531 C 221.691 396.628, 225.774 395.399, 229.385 394.801 C 239.735 393.085, 239.476 393.790, 239.635 366.921 C 239.709 354.345, 240.031 343.011, 240.352 341.735 C 240.761 340.102, 243.539 337.965, 249.717 334.529 C 262.217 327.576, 267.410 324.140, 278.617 315.408 C 293.379 303.904, 303.271 294.697, 309.151 286.987 C 312.047 283.190, 314.518 280.185, 314.643 280.309 C 314.767 280.434, 313.950 285.703, 312.827 292.018 C 311.648 298.647, 310.757 308.150, 310.717 314.500 C 310.659 323.951, 311.029 326.602, 313.344 333.328 C 316.604 342.800, 321.694 351, 327.888 356.757 C 333.339 361.824, 347.541 371.422, 361.500 379.473 C 383.926 392.407, 385.184 393.216, 384.272 394.128 C 382.485 395.915, 355.186 399.951, 327.500 402.521 C 271.955 407.678, 260.235 409.977, 252.327 417.267 C 247.884 421.362, 246.463 424.815, 249.750 423.529 C 260.505 419.320, 282.581 415.453, 321 411.048 C 335.575 409.376, 348.995 407.805, 350.823 407.555 L 354.146 407.102 347.823 413.871 C 337.806 424.595, 331.659 436.640, 330.285 448.239 L 329.704 453.149 333.017 452.824 C 336.027 452.530, 336.565 451.944, 338.915 446.414 C 347.771 425.563, 363.180 411.139, 383.839 404.361 C 391.545 401.832, 392.606 401.714, 397.820 402.808 C 416.285 406.681, 428.795 420.786, 435.056 444.793 C 437.351 453.593, 437.614 454.071, 439.990 453.793 C 442.210 453.534, 442.534 452.971, 442.798 448.916 C 443.248 442, 440.466 430.394, 436.348 422 C 431.649 412.424, 422.189 402.782, 412.754 397.953 C 409.043 396.054, 406.010 394.050, 406.013 393.500 C 406.017 392.950, 410.409 389.719, 415.773 386.321 C 442.484 369.399, 457.920 347.411, 462.006 320.462 C 465.035 300.487, 458.166 275.257, 445.546 260.007 C 443.046 256.986, 441 254.219, 441 253.858 C 441 253.496, 442.536 250.918, 444.413 248.129 C 448.742 241.697, 451.423 230.686, 450.494 223.163 C 449.776 217.352, 446.630 206.977, 444.380 203 C 443.090 200.719, 443.033 201.026, 443.733 206.500 C 445.123 217.376, 444.553 228.062, 442.315 233.070 C 439.954 238.351, 434.398 244.109, 429.354 246.502 C 422.210 249.892, 409.200 247.918, 401.905 242.337 C 400.032 240.904, 399.400 240.069, 400.500 240.481 C 408.288 243.399, 418.981 243.792, 425.003 241.382 L 429.046 239.764 421.773 232.590 C 406.521 217.546, 403.009 202.994, 408.500 177.597 C 409.875 171.237, 411 164.023, 411 161.566 C 411 156.674, 409.095 146.571, 408.319 147.347 C 408.052 147.614, 407.426 151.083, 406.927 155.055 C 404.196 176.803, 388.181 189.984, 364.500 189.973 C 357.722 189.969, 345.782 188.114, 344.537 186.871 C 344.332 186.667, 350.766 186.500, 358.833 186.500 C 375.089 186.500, 380.456 185.312, 389.281 179.759 C 395.201 176.035, 395.986 174.595, 396.673 166.199 C 399.153 135.879, 372.773 80.978, 341.255 50.866 C 315.581 26.337, 284.764 15.023, 253.500 18.647 M 290.465 67.952 C 287.324 69.225, 285.714 71.724, 286.364 74.316 C 287.836 80.179, 301.942 80.713, 304.989 75.021 C 305.929 73.263, 305.644 72.490, 303.127 69.973 C 300.035 66.882, 295.063 66.088, 290.465 67.952 M 226.722 75.763 C 225.862 80.650, 221.193 90.747, 217.636 95.411 C 210.911 104.228, 197.107 115.458, 184.666 122.233 C 172.770 128.712, 171.290 130.193, 169.068 137.837 C 166.243 147.554, 165.737 154.524, 167.013 166.122 C 167.637 171.792, 168.343 176.747, 168.583 177.134 C 168.822 177.521, 170.448 177.124, 172.197 176.252 C 176.741 173.985, 183.838 175.702, 196.948 182.239 C 206.134 186.819, 207.500 187.824, 207.500 190 C 207.500 193.801, 204.620 193.135, 193.390 186.737 C 181.738 180.099, 175.851 178.256, 171.614 179.920 C 168.829 181.014, 168.749 181.234, 169.332 186.154 C 170.019 191.954, 172.978 198.360, 175.169 198.789 C 175.980 198.948, 177.156 197.953, 177.782 196.578 C 179.200 193.466, 188.326 190.490, 193.267 191.528 C 202.816 193.535, 214 201.528, 214 206.344 C 214 208.430, 212.635 208.470, 210.945 206.434 C 209.731 204.970, 204.776 202, 203.550 202 C 203.247 202, 203 203.260, 203 204.800 C 203 208.456, 201.340 210, 197.409 210 C 194.619 210, 194.016 209.497, 192.617 206 C 190.861 201.612, 190.739 201.534, 187.934 203.035 C 185.501 204.338, 185.292 209.514, 187.636 210.414 C 189.127 210.986, 189.113 211.217, 187.481 213.021 C 185.164 215.581, 184.615 215.517, 183 212.500 C 182.124 210.863, 180.804 210, 179.178 210 L 176.693 210 177.373 225.890 C 178.120 243.374, 179.328 249.323, 184.703 262 C 189.141 272.467, 193.398 279.638, 205.477 297 C 220.059 317.958, 220.307 318.275, 223.683 320.247 C 230.461 324.205, 248.457 323.440, 259.412 318.727 C 269.577 314.355, 286.978 299.750, 300.752 284.031 C 312.823 270.254, 316.301 262.569, 320.002 241.500 C 322.693 226.182, 322.580 226.512, 325.578 225.147 C 328.426 223.849, 332.547 215.707, 331.351 213.738 C 330.937 213.057, 328.598 209.800, 326.152 206.500 C 320.938 199.464, 316.645 190.602, 307.502 168 C 303.832 158.925, 300.476 151.131, 300.045 150.680 C 299.613 150.230, 295.575 148.951, 291.070 147.839 C 280.085 145.128, 267.372 140.042, 258.658 134.872 C 241.439 124.657, 220.633 96.840, 224.732 89.515 C 225.477 88.183, 226.745 89.586, 231.324 96.809 C 241.569 112.969, 253.870 122.315, 273.564 128.902 C 298.687 137.305, 325.209 134.479, 345.165 121.272 C 349.403 118.467, 353.323 113.734, 354.500 110 C 355.180 107.843, 354.685 108.086, 350.894 111.772 C 345.463 117.052, 331.147 124.269, 320.500 127.095 C 310.428 129.767, 287.912 130.823, 278.742 129.051 C 265.893 126.570, 249.200 116.079, 239.992 104.699 C 231.971 94.785, 228.679 87.714, 228.030 79 C 227.497 71.840, 227.438 71.693, 226.722 75.763 M 313.500 83.021 C 304.974 88.726, 286.619 90.685, 271.569 87.497 C 263.337 85.753, 261.964 86.171, 268.685 88.374 C 283.835 93.340, 300.818 94.657, 308.755 91.481 C 313.121 89.735, 318 84.954, 318 82.423 C 318 80.512, 317.062 80.637, 313.500 83.021 M 354.140 94.005 C 350.818 101.607, 339.957 108.374, 325.076 112.113 C 313.450 115.035, 289.218 114.466, 278.500 111.021 C 270.413 108.421, 260.955 103.872, 256.184 100.289 C 254.361 98.919, 252.674 97.993, 252.436 98.231 C 252.198 98.469, 254.004 100.100, 256.449 101.856 C 281.838 120.089, 330.851 123.326, 348.347 107.926 C 353.020 103.813, 356.445 97.022, 355.836 93.076 C 355.535 91.118, 355.360 91.213, 354.140 94.005 M 374.620 124.148 C 372.559 134.453, 349.161 146, 330.340 146 C 325.531 146, 323 146.391, 323 147.135 C 323 147.948, 326.477 148.124, 335.250 147.756 C 344.972 147.349, 348.899 146.725, 354.279 144.735 C 363.019 141.502, 368.284 137.972, 371.985 132.863 C 374.738 129.062, 376.882 122.549, 375.752 121.419 C 375.484 121.150, 374.974 122.378, 374.620 124.148 M 379.799 151.495 C 378.314 152.773, 374.489 154.845, 371.299 156.099 C 366.268 158.076, 363.625 158.386, 351.336 158.439 C 343.546 158.473, 337.312 158.641, 337.482 158.813 C 337.653 158.985, 340.202 159.781, 343.147 160.582 C 349.561 162.326, 365.098 162.589, 370.810 161.051 C 375.612 159.758, 380.779 155.713, 382.114 152.200 C 383.379 148.872, 382.986 148.752, 379.799 151.495 M 270.500 171.040 C 267.200 172.099, 260.225 175.112, 255 177.733 C 246.177 182.160, 245.478 182.732, 245.187 185.750 C 244.897 188.750, 245.099 189, 247.808 189 C 249.657 189, 253.660 187.091, 258.622 183.845 C 271.624 175.336, 276.175 173.626, 286 173.559 C 290.675 173.526, 296.253 173.900, 298.395 174.388 C 304.827 175.856, 301.779 173.321, 294.352 171.027 C 286.232 168.519, 278.335 168.523, 270.500 171.040 M 264.500 188.880 C 258.248 192.065, 253.899 196.603, 251.426 202.522 C 249.634 206.813, 250.242 206.872, 254.817 202.856 C 259.127 199.072, 266.232 195.768, 268.330 196.573 C 269.431 196.996, 269.701 198.067, 269.312 200.465 C 268.904 202.978, 269.283 204.283, 270.887 205.887 C 275.323 210.323, 283 207.225, 283 201 C 283 197.496, 284.204 197.204, 287.023 200.023 C 288.566 201.566, 288.812 202.483, 288.058 203.891 C 286.847 206.155, 287.585 207, 290.774 207 C 292.494 207, 293.050 206.572, 292.658 205.551 C 292.308 204.640, 292.918 203.855, 294.301 203.436 C 297.164 202.569, 300.828 199.195, 302.595 195.800 C 304.764 191.630, 304.339 190.960, 300.532 192.551 C 296.312 194.314, 295.212 194.388, 296.800 192.800 C 298.669 190.931, 298.215 189.710, 295.879 190.321 C 294.713 190.626, 291.458 189.969, 288.645 188.860 C 285.832 187.751, 280.599 186.614, 277.015 186.333 C 271.174 185.875, 269.879 186.139, 264.500 188.880 M 274.655 196.829 C 272.209 199.532, 272.611 201.864, 275.656 202.628 C 280.077 203.738, 282.978 198.129, 279.066 196.035 C 276.560 194.694, 276.592 194.688, 274.655 196.829 M 195.556 202.910 C 194.757 204.201, 195.996 207.003, 197.357 206.985 C 199.553 206.955, 201.286 205.189, 200.677 203.601 C 200.018 201.884, 196.484 201.407, 195.556 202.910 M 283.597 209.506 C 281.880 210.803, 281.856 211.007, 283.347 211.579 C 285.522 212.414, 288.272 211.316, 287.771 209.812 C 287.172 208.016, 285.710 207.909, 283.597 209.506 M 270 213 C 270 213.550, 270.675 214, 271.500 214 C 272.325 214, 273 213.550, 273 213 C 273 212.450, 272.325 212, 271.500 212 C 270.675 212, 270 212.450, 270 213 M 276 213 C 276 213.550, 276.675 214, 277.500 214 C 278.325 214, 279 213.550, 279 213 C 279 212.450, 278.325 212, 277.500 212 C 276.675 212, 276 212.450, 276 213 M 190.200 215.200 C 189.540 215.860, 189 216.760, 189 217.200 C 189 218.392, 191.779 218.167, 192.554 216.913 C 193.584 215.247, 191.598 213.802, 190.200 215.200 M 332.667 217.667 C 331.228 219.106, 332.114 222.966, 334.223 224.443 C 337.270 226.578, 337.716 226.449, 339.545 222.912 C 341.036 220.029, 341.021 219.733, 339.321 218.444 C 337.387 216.978, 333.777 216.556, 332.667 217.667 M 330.200 227.200 C 328.503 228.897, 328.711 232.516, 330.595 234.079 C 331.924 235.182, 332.621 235.161, 334.765 233.952 C 338.353 231.928, 339.100 229.542, 335.654 231.112 C 332.905 232.364, 330 231.746, 330 229.909 C 330 229.078, 330.419 229.103, 331.500 230 C 332.697 230.993, 333.303 230.993, 334.500 230 C 335.325 229.315, 336 228.135, 336 227.378 C 336 225.679, 331.848 225.552, 330.200 227.200 M 243.500 253.767 C 241.850 253.914, 236.547 254.727, 231.715 255.574 C 226.884 256.420, 221.934 256.827, 220.715 256.477 C 219.497 256.127, 217.713 255.622, 216.750 255.353 C 215.787 255.085, 215 255.365, 215 255.975 C 215 257.382, 226.763 262.998, 229.712 262.999 C 230.929 263, 234.398 262.075, 237.421 260.943 C 246.531 257.535, 250.230 253.168, 243.500 253.767 M 392.807 262.312 C 398.325 271.095, 399.387 282.437, 395.417 290.196 L 393.726 293.500 396.001 291.500 C 397.252 290.400, 398.927 287.960, 399.723 286.079 C 401.470 281.949, 402.420 282.979, 404.048 290.767 C 405.424 297.350, 403.833 308.913, 400.852 313.998 L 398.798 317.500 401.421 315.055 C 405.229 311.505, 409.034 303.068, 409.689 296.721 C 410.778 286.177, 403.413 270.188, 393.007 260.500 L 389.784 257.500 392.807 262.312 M 424 268.367 C 424 268.662, 426.043 271.826, 428.540 275.398 C 433.961 283.153, 440.446 296.651, 442.058 303.536 C 443.847 311.175, 443.656 327.457, 441.688 335 C 439.020 345.226, 433.251 355.676, 426 363.417 C 420.465 369.326, 420.008 370.070, 422.920 368.428 C 427.877 365.633, 439.967 353.073, 443.762 346.777 C 450.895 334.939, 453.698 319.498, 451.039 306.689 C 448.672 295.286, 439.947 281.691, 428.750 271.959 C 426.137 269.688, 424 268.072, 424 268.367 M 264.581 273.045 C 262.975 273.525, 254.215 274.444, 245.114 275.087 C 229.686 276.177, 219.140 275.989, 209.500 274.454 L 205.500 273.816 209.145 277.158 C 211.149 278.996, 214.686 283.081, 217.005 286.236 C 222.965 294.348, 226.712 296.419, 235.460 296.437 C 240.767 296.448, 243.485 295.924, 246.500 294.308 C 250.233 292.308, 270.096 274.813, 270.833 272.876 C 271.242 271.802, 268.488 271.877, 264.581 273.045 M 242.500 282.517 C 238.650 283.246, 233.025 283.914, 230 284.003 L 224.500 284.163 228 285.731 C 233.237 288.076, 239.759 287.663, 245.799 284.602 C 248.660 283.152, 251 281.749, 251 281.483 C 251 280.897, 251.163 280.877, 242.500 282.517 M 353 292.724 C 353 295.851, 366.904 304.043, 372 303.920 C 374.175 303.867, 374.038 303.689, 370.945 302.550 C 365.310 300.473, 359.528 297.315, 356.134 294.459 C 354.410 293.009, 353 292.228, 353 292.724 M 363 317.067 C 374.465 326.935, 408.582 350.751, 409.681 349.652 C 410.659 348.674, 403.504 340.797, 397.617 336.372 C 394.382 333.939, 388.757 330.322, 385.117 328.332 C 381.478 326.343, 374.516 322.304, 369.648 319.357 C 364.779 316.411, 360.504 314.012, 360.148 314.027 C 359.791 314.042, 361.075 315.410, 363 317.067 M 175.653 337.615 C 178.417 340.852, 182.177 345.637, 184.009 348.250 C 185.840 350.863, 187.497 353, 187.690 353 C 187.883 353, 187.163 351.280, 186.091 349.179 C 183.544 344.187, 175.492 334.334, 172.768 332.876 C 171.506 332.201, 172.691 334.146, 175.653 337.615 M 278.265 362.390 C 277.044 363.943, 274.838 367.753, 273.364 370.857 C 262.290 394.174, 259 401.325, 259 402.075 C 259 404.043, 262.106 401.489, 266.472 395.933 C 274.120 386.198, 281.967 367.261, 280.821 361.307 C 280.543 359.865, 280.106 360.050, 278.265 362.390 M 182.726 386.946 C 178.451 390.615, 170.933 396.066, 166.020 399.059 C 152.778 407.124, 154.381 408.399, 168.808 401.275 C 178.835 396.324, 193.353 382.677, 190.841 380.562 C 190.654 380.404, 187.002 383.277, 182.726 386.946" stroke="none" fill="black" fill-rule="evenodd"/>
</svg>