<svg xmlns="http://www.w3.org/2000/svg" width="512" height="512" viewBox="0 0 512 512" version="1.1">
	<path d="M 206.330 20.414 C 190.266 23.480, 174.073 30.143, 157.383 40.554 C 122.872 62.081, 108.161 73.952, 98.774 87.844 C 87.330 104.783, 82.743 119.018, 82.775 137.500 C 82.800 151.851, 84.960 161.226, 91.183 174 C 94.905 181.639, 96.719 183.867, 109.106 196 C 124.362 210.944, 127.762 216.288, 128.717 226.821 C 129.132 231.387, 128.698 234.017, 126.542 240.012 C 121.642 253.635, 120.764 258.010, 121.225 266.500 C 121.559 272.663, 122.286 275.726, 124.392 279.840 C 131.976 294.657, 146.968 303.329, 165 303.327 C 174.618 303.326, 179.554 302.195, 189.279 297.765 C 195.530 294.917, 197.860 292.101, 193.392 292.793 C 184.800 294.123, 172.816 294.043, 166.750 292.616 C 152.831 289.343, 140.335 280.502, 134.444 269.761 C 131.932 265.181, 131.563 263.465, 131.586 256.500 C 131.609 249.643, 132.140 247.184, 135.306 239.288 C 139.448 228.958, 140.106 221.583, 137.452 215.232 C 135.533 210.639, 133.313 208.208, 124.775 201.354 C 110.223 189.671, 102.349 179.145, 103.182 172.487 L 103.500 169.949 109.429 174.395 C 115.253 178.761, 123.358 182, 124.779 180.529 C 125.175 180.118, 124.375 179.043, 123 178.141 C 118.123 174.940, 111.824 168.555, 109.308 164.262 C 107.905 161.868, 106.935 159.732, 107.152 159.515 C 107.369 159.298, 109.469 160.412, 111.819 161.990 C 114.168 163.568, 119.240 166.094, 123.088 167.604 C 135.080 172.309, 136.815 175.471, 133.455 186.500 C 130.544 196.059, 133.008 201.078, 149.325 218.822 C 154.478 224.426, 158.107 229.525, 160.436 234.433 C 166.449 247.103, 171.198 251, 180.630 251 C 183.212 251, 187.732 250.241, 190.675 249.313 C 197.423 247.186, 198.273 247.919, 198.808 256.323 C 199.338 264.656, 196.553 271.274, 189.892 277.504 C 187.202 280.021, 185 282.287, 185 282.540 C 185 282.793, 185.983 283, 187.184 283 C 193.046 283, 204.257 274.310, 208.106 266.783 C 211.563 260.023, 212.332 253.845, 210.571 246.972 C 209.707 243.599, 209 240.587, 209 240.280 C 209 239.973, 211.627 239.960, 214.838 240.252 C 227.775 241.425, 237.366 250.149, 239.448 262.637 C 241.176 273.002, 235.606 280.524, 219.564 289.488 C 208.610 295.609, 207.920 296.486, 210.500 301 C 213.151 305.637, 211.632 313.072, 206.942 318.413 C 202.383 323.605, 200.822 328.549, 199.910 340.675 C 198.633 357.672, 196.021 363.607, 179.743 386.500 C 167.370 403.903, 163.036 414.274, 163.012 426.540 C 162.993 435.972, 165.503 443.464, 173.294 457.237 C 180.177 469.403, 182.056 471.702, 184.090 470.444 C 185.870 469.344, 184.941 465.843, 180.553 457.105 C 173.533 443.129, 171.726 436.875, 171.705 426.500 C 171.679 413.074, 174.147 407.417, 190.028 384.500 C 197.447 373.793, 203.111 363.078, 204.917 356.331 C 205.531 354.038, 206.724 346.838, 207.568 340.331 C 208.987 329.397, 209.459 327.873, 213.802 320.235 L 218.500 311.969 219.866 315.235 C 223.842 324.739, 213.212 363.644, 199.439 390 C 183.647 420.218, 183.497 420.594, 183.527 429.965 C 183.552 437.911, 183.946 439.520, 189.236 453.285 C 192.361 461.417, 195.879 472.217, 197.054 477.285 C 199.994 489.968, 200.559 491.202, 203.260 490.818 C 204.789 490.601, 206.293 488.940, 208 485.580 C 210.015 481.614, 211.267 480.398, 214.456 479.311 C 216.631 478.569, 219.432 477.004, 220.679 475.832 C 222.779 473.859, 222.936 472.918, 222.809 463.101 C 222.684 453.394, 222.897 452.079, 225.336 447.508 C 226.801 444.762, 228 441.786, 228 440.893 C 228 437.983, 224.042 434, 221.150 434 C 215.046 434, 210.600 440.584, 208.487 452.751 C 206.619 463.508, 205.633 463.867, 203.923 454.413 C 203.335 451.161, 201.762 444.694, 200.427 440.043 C 199.092 435.392, 198 430.090, 198 428.260 C 198 423.583, 201.870 416.536, 208.364 409.389 C 215.805 401.199, 236.403 383, 238.230 383 C 239.900 383, 242.376 385.603, 243.380 388.414 C 243.756 389.467, 243.402 393.517, 242.593 397.414 C 241.756 401.452, 240.899 412.889, 240.600 424 C 240.227 437.919, 239.519 446.076, 238.126 452.500 C 234.140 470.888, 234.221 476, 238.496 476 C 241.675 476, 243.787 473.682, 247.134 466.517 C 251.203 457.808, 252.788 445.389, 253.892 413.566 C 254.927 383.722, 254.836 382.876, 250.102 378.593 C 248.946 377.546, 248 375.819, 248 374.755 C 248 373.691, 251.079 369.373, 254.841 365.160 C 258.604 360.947, 263.144 355.336, 264.929 352.692 C 269.433 346.022, 271.759 346.455, 274.643 354.500 C 275.826 357.800, 277.960 362.525, 279.385 365 C 282.984 371.251, 282.972 378.292, 279.354 383.610 C 276.259 388.159, 275.349 393.983, 276.871 399.496 C 277.779 402.784, 277.675 403.812, 276.227 405.835 C 271.551 412.374, 271.010 413.695, 271.005 418.600 C 271.001 422.659, 271.599 424.526, 273.934 427.750 C 275.548 429.978, 277.356 432.102, 277.952 432.470 C 278.675 432.917, 278.816 435.770, 278.376 441.047 C 277.646 449.794, 278.505 452, 282.639 452 C 285.002 452, 285.737 450.918, 288.741 443.020 C 289.607 440.744, 289.866 441.087, 291.898 447.193 C 294.723 455.683, 300.827 463, 305.085 463 C 308.821 463, 308.805 461.844, 304.934 452.177 C 303.248 447.967, 301.175 440.017, 300.326 434.511 C 298.086 419.974, 296.505 414.984, 291.998 408.236 L 287.979 402.216 289.964 397.584 C 291.056 395.037, 292.254 389.976, 292.627 386.338 C 293.507 377.750, 296.011 374.864, 308.188 368.409 C 324.139 359.953, 332.316 352.624, 346.025 334.500 C 352.195 326.342, 358.301 314.124, 357.829 310.878 C 357.558 309.020, 356.798 309.760, 353.535 315.060 C 344.296 330.067, 317.266 352.392, 305.750 354.527 C 300.775 355.450, 300.920 354.298, 306.666 347.243 C 311.992 340.704, 316.228 332.192, 318.461 323.540 C 320.831 314.359, 320.197 312.752, 316.969 319.758 C 313.606 327.056, 309.543 333.132, 304.846 337.887 C 302.202 340.564, 301.432 340.928, 301.174 339.622 C 300.774 337.595, 304.171 327.171, 308.658 316.654 C 312.301 308.119, 316.303 293.747, 315.766 291.134 C 315.578 290.217, 313.815 292.791, 311.748 297 C 309.723 301.125, 305.507 307.650, 302.379 311.500 L 296.692 318.500 297.415 314.628 C 297.812 312.498, 299.239 307.098, 300.586 302.628 C 304.803 288.635, 307.170 279.006, 306.706 277.729 C 305.795 275.220, 293.004 303.289, 290.645 312.973 L 288.339 322.446 286.537 319.698 C 284.961 317.292, 284.802 315.361, 285.264 304.224 C 286.983 262.806, 307.454 236, 337.366 236 C 357.262 236, 370.199 244.193, 378.984 262.355 C 385.427 275.675, 387.446 285.697, 387.475 304.500 C 387.505 323.493, 386.269 328.699, 379.472 338.209 C 370.490 350.778, 368.479 359.248, 371.286 372.682 C 373.438 382.983, 372.344 387.033, 365.071 395.673 C 358.084 403.973, 355.290 409.195, 352.856 418.500 C 350.940 425.824, 347.755 451.550, 347.594 461 C 347.505 466.182, 347.647 466.517, 350.055 466.798 C 355.390 467.419, 361.981 458.404, 362.018 450.434 C 362.031 447.761, 362.970 445.122, 364.949 442.203 C 368.511 436.946, 371.037 426.641, 371.872 413.954 C 372.562 403.462, 372.839 402.834, 380.896 393.482 C 390.278 382.592, 394.946 369.613, 394.983 354.309 C 394.992 350.354, 395.450 346.840, 396 346.500 C 397.458 345.599, 397.255 362.683, 395.502 388.345 C 393.740 414.135, 392.577 418.194, 386.469 419.881 C 378.370 422.117, 376.995 426.971, 381.994 435.687 C 385.209 441.294, 389.892 445.443, 394.224 446.524 C 398.099 447.491, 404.106 444.222, 412.415 436.626 C 419.835 429.843, 420.477 427.573, 415.293 426.461 C 407.100 424.703, 405.763 422.041, 408.512 412.961 C 409.805 408.689, 410.083 405.801, 409.539 402.301 C 409.128 399.660, 408.621 391.252, 408.413 383.616 C 408.205 375.979, 407.153 362.479, 406.074 353.616 C 404.898 343.957, 404.152 331.890, 404.210 323.500 C 404.438 291.065, 393.706 261.175, 374.646 241.155 C 371.266 237.604, 363.438 230.935, 357.250 226.335 C 351.063 221.734, 346 217.826, 346 217.651 C 346 217.476, 348.488 215.619, 351.530 213.524 C 359.470 208.055, 366.523 199.952, 368.486 194.043 C 369.400 191.291, 370.130 185.967, 370.118 182.143 C 370.080 170.161, 364.907 159.211, 352.570 145 C 331.887 121.175, 329.335 117.461, 318.441 95.331 C 306.025 70.108, 298.655 58.741, 287.455 47.541 C 274.303 34.389, 261.170 26.347, 245.539 21.877 C 236.338 19.245, 216.359 18.500, 206.330 20.414 M 254.473 63.043 C 253.865 64.028, 257.017 68.874, 260.591 72.448 C 261.843 73.700, 262.529 73.806, 263.606 72.912 C 265.641 71.223, 265.387 70.434, 261.384 66.003 C 257.757 61.988, 255.676 61.097, 254.473 63.043 M 238.647 65.250 C 239.067 65.938, 241.681 68.582, 244.456 71.127 C 247.230 73.672, 251.224 78.622, 253.332 82.127 C 256.725 87.771, 257.083 88.099, 256.461 85 C 254.990 77.667, 250.471 71.152, 243.951 66.969 C 238.964 63.769, 237.438 63.274, 238.647 65.250 M 237.558 74.907 C 237.249 75.406, 238.982 77.855, 241.407 80.351 C 243.832 82.846, 246.119 86.263, 246.488 87.944 C 246.857 89.625, 247.582 91, 248.099 91 C 250.301 91, 246.150 80.059, 242.600 76.510 C 239.960 73.869, 238.488 73.401, 237.558 74.907 M 152.500 80.966 C 136.624 88.139, 125.649 94.114, 121 98.116 C 118.051 100.654, 119.075 100.306, 127.500 95.902 C 133 93.028, 137.950 90.346, 138.500 89.943 C 140.609 88.397, 166.347 78.014, 166.842 78.509 C 167.565 79.231, 161.400 85.451, 156.804 88.636 C 151.696 92.176, 151.970 93.562, 157.250 90.889 C 165.240 86.843, 175 80.042, 175 78.520 C 175 76.642, 174.064 76.637, 171.603 78.500 C 169.351 80.204, 168 79.620, 168 76.941 C 168 75.873, 167.438 75.021, 166.750 75.047 C 166.063 75.072, 159.650 77.736, 152.500 80.966 M 231.576 78.876 C 231.223 79.448, 232.338 80.641, 234.053 81.528 C 236.229 82.653, 237.915 84.820, 239.628 88.694 C 240.979 91.749, 242.325 94.008, 242.619 93.714 C 243.397 92.936, 239.949 81.202, 238.617 80.097 C 236.739 78.538, 232.265 77.762, 231.576 78.876 M 194.453 98.065 C 192.279 100.301, 186.138 105.577, 180.806 109.788 C 175.475 114, 171.250 117.583, 171.417 117.751 C 171.585 117.919, 172.939 117.593, 174.426 117.028 C 179.385 115.143, 189.594 116.146, 193.971 118.949 C 196.727 120.714, 194.207 121.141, 188.116 119.943 C 182.333 118.805, 181.773 118.876, 176.610 121.403 C 171.328 123.986, 158.991 134.967, 155.715 140 C 154.337 142.118, 153.931 142.271, 153.059 141 C 151.737 139.073, 151.713 134.405, 153.012 131.978 C 153.836 130.439, 152.491 130.793, 145.762 133.889 L 137.500 137.690 137.500 142.095 C 137.500 145.902, 137.194 146.543, 135.250 146.820 C 133.372 147.086, 133 147.761, 133 150.903 C 133 155.782, 133.719 156.366, 136.769 153.967 C 140.096 151.350, 142.170 151.487, 145.013 154.514 C 148.424 158.145, 148.958 167.045, 146.147 173.400 C 145.007 175.977, 143.793 179.584, 143.450 181.415 C 142.855 184.588, 142.988 184.775, 146.301 185.397 C 150.701 186.222, 154.705 190.189, 156.003 195.010 C 156.996 198.700, 157.071 198.746, 161.255 198.286 C 163.811 198.004, 168.659 198.650, 173.438 199.909 C 177.804 201.059, 182.192 202, 183.188 202 C 185.922 202, 185.470 205.829, 182.581 207.145 C 181.250 207.752, 178.730 210.240, 176.982 212.675 C 175.233 215.110, 172.037 218.271, 169.880 219.698 C 165.581 222.543, 165.608 222.053, 169.224 231.815 C 171.458 237.846, 174.029 239.592, 179.236 238.616 C 183.907 237.739, 194.530 231.005, 208.620 219.988 C 215.154 214.880, 224.876 207.823, 230.224 204.306 C 241.137 197.131, 243 195.060, 243 190.104 C 243 187.265, 242.188 185.931, 238.416 182.577 C 224.666 170.348, 224 169.541, 224 165.116 C 224 162.244, 225.155 158.740, 227.710 153.865 C 232.789 144.167, 233.418 136.095, 229.600 129.580 C 228.154 127.113, 224.390 123.103, 221.236 120.668 C 212.943 114.267, 204.631 105.178, 201.599 99.196 C 200.151 96.338, 198.840 94, 198.686 94 C 198.532 94, 196.627 95.829, 194.453 98.065 M 264.691 115.250 C 257.537 127.132, 254.229 134.101, 253.653 138.500 C 253.192 142.020, 251.815 145.187, 248.999 149.201 C 246.800 152.337, 245 156.003, 245 157.348 C 245 162.254, 254.490 168.016, 262.500 167.972 C 266.089 167.953, 272.942 164.992, 274.914 162.608 C 276.142 161.124, 276.109 160.681, 274.663 159.235 C 273.110 157.681, 272.804 157.685, 270.095 159.285 C 268.498 160.228, 265.461 160.986, 263.346 160.968 L 259.500 160.937 262.322 158.454 C 263.875 157.089, 265.533 156.211, 266.007 156.504 C 267.127 157.197, 271.465 151.484, 273.646 146.446 C 276.005 140.996, 276.001 125.994, 273.639 120.537 C 270.408 113.070, 267.160 111.151, 264.691 115.250 M 267.333 128.426 C 270.487 136.643, 270.528 147.145, 267.430 153.135 C 265.012 157.812, 267.598 155.541, 270.680 150.282 C 273.935 144.728, 274.258 138.117, 271.567 132.149 C 269.876 128.399, 266.023 125.011, 267.333 128.426 M 177.383 131.041 C 175.668 131.562, 172.406 134.006, 170.133 136.472 C 165.773 141.201, 165.438 142.618, 166.625 151.279 L 167.250 155.838 171.106 153.828 C 174.016 152.311, 175.935 151.982, 178.927 152.488 C 182.347 153.066, 183.998 152.582, 190.946 148.967 C 199.590 144.470, 201.116 142.534, 195.500 143.190 C 193.575 143.415, 192 143.507, 192 143.394 C 192 143.282, 193.972 142.034, 196.383 140.622 C 201.858 137.413, 203.066 135.009, 199.219 134.978 C 197.723 134.966, 194.530 134.062, 192.121 132.969 C 186.664 130.493, 181.435 129.809, 177.383 131.041 M 120.502 138.997 C 119.820 140.101, 124.607 151.427, 126.380 152.904 C 127.193 153.581, 127.413 152.008, 127.183 147.169 C 126.960 142.477, 126.385 140.129, 125.242 139.250 C 123.285 137.744, 121.340 137.640, 120.502 138.997 M 253.177 257.100 C 253.355 267.220, 253.118 278.317, 252.651 281.760 L 251.801 288.019 255.369 289.510 C 257.331 290.329, 259.621 291, 260.458 291 C 261.375 291, 263.804 287.368, 266.568 281.864 C 269.092 276.840, 273.355 269.221, 276.042 264.933 C 281.259 256.608, 282.788 252.605, 281.139 251.586 C 280.576 251.238, 277.520 250.474, 274.348 249.887 C 267.868 248.689, 260.864 245.439, 256.070 241.405 L 252.855 238.700 253.177 257.100 M 238.100 291.623 C 232.902 297.529, 232.255 300.021, 234.581 305.180 C 236.340 309.081, 236.344 309.691, 234.673 321.215 C 233.718 327.804, 232.038 337.049, 230.939 341.760 C 229.841 346.471, 229.068 350.682, 229.221 351.117 C 229.374 351.551, 233.670 344.616, 238.767 335.704 C 243.863 326.792, 250.128 315.984, 252.689 311.687 L 257.345 303.875 253.423 299.969 L 249.500 296.064 245.100 299.032 C 237.454 304.189, 236.350 302.845, 240.603 293.557 C 242.034 290.430, 242.990 287.656, 242.726 287.393 C 242.462 287.129, 240.381 289.033, 238.100 291.623 M 220.158 406.520 C 214.314 411.438, 216.590 421, 223.604 421 C 233.159 421, 235.159 406.656, 225.908 404.474 C 223.980 404.019, 222.508 404.543, 220.158 406.520" stroke="none" fill="black" fill-rule="evenodd"/>
</svg>