<svg xmlns="http://www.w3.org/2000/svg" width="512" height="512" viewBox="0 0 512 512" version="1.1">
	<path d="M 234.589 27.030 C 191.656 31.935, 145.923 50.985, 112.003 78.095 C 101.895 86.173, 85.200 102.714, 77.483 112.295 C 63.267 129.948, 46.488 161.149, 39.129 183.615 C 30.526 209.881, 27.477 229.117, 27.579 256.500 C 27.638 272.493, 28.102 279.071, 29.896 289.333 C 46.004 381.493, 108.511 453.609, 193.302 477.859 C 265.524 498.514, 339.120 483.242, 398.500 435.279 C 443.774 398.709, 474.339 344.552, 482.589 286.288 C 484.748 271.045, 484.711 245.613, 482.506 228.500 C 477.059 186.225, 458.013 141.521, 431.593 109 C 399.163 69.081, 345.488 38.270, 292 28.870 C 278.823 26.554, 247.531 25.552, 234.589 27.030 M 231 43.090 C 178.691 48.118, 123.788 78.110, 90.775 119.689 C 69.528 146.448, 52.894 181.673, 46.519 213.406 C 36.960 260.982, 44.727 309.267, 69.612 356.969 C 78.041 373.128, 90.641 390.692, 92.482 388.851 C 93.751 387.583, 87.792 370.961, 76.584 344.500 C 62.940 312.287, 62.332 310.703, 58.163 296.500 C 53.042 279.056, 51.614 268.464, 51.554 247.500 C 51.492 225.521, 52.983 215.387, 58.993 196.972 C 64.211 180.980, 69.058 171.856, 84.677 148.616 C 100.656 124.843, 106.136 117.953, 118.184 106.487 C 133.557 91.858, 146.619 83.805, 168 75.774 C 173.775 73.605, 184.125 69.433, 191 66.503 C 197.875 63.573, 212.050 58.184, 222.500 54.529 C 253.097 43.825, 253.239 43.768, 251.808 42.860 C 250.259 41.878, 242.742 41.961, 231 43.090 M 271.500 43.593 C 261.266 46.151, 254 49.811, 254 52.408 C 254 53.384, 257.660 53.674, 269.750 53.656 C 284.213 53.635, 286.452 53.886, 297.153 56.723 C 312.853 60.887, 326.623 66.532, 344 75.928 C 351.975 80.240, 362.930 85.688, 368.344 88.034 C 380.472 93.290, 386.882 97.977, 398.625 110.174 C 413.717 125.850, 425.481 143.046, 434.945 163.269 C 443.280 181.077, 456.853 216.229, 458.202 223.500 C 459.017 227.897, 459.488 238.495, 459.468 252 C 459.439 271.728, 459.205 274.571, 456.632 286.500 C 453.090 302.922, 446.777 321.658, 437.256 344 C 433.155 353.625, 428.008 366, 425.818 371.500 C 420.328 385.290, 417.039 390.700, 409.541 398.272 C 395.095 412.862, 368.872 431.374, 347.929 441.767 C 327.301 452.005, 302.205 459.267, 282.652 460.657 C 272.600 461.372, 269.763 462.887, 270.191 467.312 L 270.500 470.500 279 470.409 C 320.052 469.971, 380.285 436.994, 415.802 395.512 C 443.026 363.714, 461.500 323.751, 467.427 283.838 C 469.483 269.993, 469.499 242.195, 467.459 228.128 C 460.421 179.596, 437.919 133.707, 405.681 102.138 C 394.204 90.901, 388.301 86.142, 374.791 77.238 C 352.686 62.669, 332.703 53.697, 308.474 47.460 C 294.962 43.982, 277.324 42.138, 271.500 43.593 M 229 63.884 C 219.028 66.592, 197.553 75.501, 187.214 81.219 C 176.841 86.956, 170.684 92.873, 169.081 98.645 C 165.346 112.100, 172.144 133.906, 186.931 155.897 C 196.008 169.397, 195.533 169.254, 208.951 162.525 C 215.075 159.453, 220.326 156.315, 220.619 155.551 C 220.912 154.786, 219.549 149.203, 217.591 143.144 C 211.551 124.461, 208.743 98.803, 212.578 97.332 C 215.179 96.334, 216.686 98.991, 219.428 109.407 C 222.531 121.193, 229.124 138.118, 233.420 145.324 C 236.044 149.725, 237.013 150.548, 239.891 150.824 C 248.228 151.621, 249.751 149.586, 252.383 134.137 C 256.125 112.171, 255.408 92.216, 250.323 76.829 C 247.734 68.998, 243.061 63, 239.547 63 C 238.786 63, 237.564 62.802, 236.832 62.559 C 236.099 62.317, 232.575 62.913, 229 63.884 M 264.869 65.510 C 261.250 67.476, 260.862 69.088, 262.531 75.214 C 263.323 78.121, 264.873 83.827, 265.975 87.893 C 269.084 99.362, 270.153 110.990, 269.813 129.640 C 269.526 145.344, 269.660 146.956, 271.405 148.890 C 275.425 153.343, 276.460 152.157, 286.375 131.750 C 296.574 110.757, 304.770 98, 308.057 98 C 311.468 98, 311.342 100.697, 307.618 107.355 C 300.162 120.689, 287.589 151.724, 288.834 153.724 C 289.200 154.313, 294.789 157.376, 301.254 160.531 L 313.007 166.267 317.180 163.383 C 324.806 158.114, 339.636 139.390, 347.009 125.721 C 355.297 110.355, 357.031 100.568, 352.434 95.104 C 349.295 91.374, 336.167 83.340, 323.742 77.546 C 300.807 66.852, 272.899 61.146, 264.869 65.510 M 150.725 97.959 C 147.891 99.756, 145.810 101.910, 145.425 103.442 C 144.092 108.753, 150.306 127.800, 158.984 145 C 166.617 160.129, 177.238 178.246, 178.776 178.759 C 181.907 179.802, 180.569 175.113, 173.987 161.974 C 160.982 136.014, 157.291 122.625, 158.353 105.267 C 159.085 93.306, 158.678 92.916, 150.725 97.959 M 365.004 111.250 C 360.002 127.808, 348.388 144.863, 331.016 161.166 C 325.024 166.788, 320.346 171.751, 320.620 172.194 C 320.894 172.637, 322.240 173, 323.611 173 C 325.476 173, 330.181 169.037, 342.308 157.250 C 351.220 148.588, 364.267 136.550, 371.300 130.501 C 384.150 119.448, 386.385 116.390, 383.862 113.315 C 381.785 110.784, 370.919 104, 368.942 104 C 367.641 104, 366.635 105.851, 365.004 111.250 M 132 109.716 C 122.478 113.262, 94.313 150.074, 80.603 176.892 C 73.953 189.898, 73.198 193.313, 75.977 197.791 C 80.087 204.411, 107.619 219.607, 124.500 224.573 C 130.507 226.340, 136.908 227.394, 143.746 227.741 L 153.993 228.262 155.557 224.518 C 156.417 222.459, 157.371 218.660, 157.677 216.076 L 158.234 211.376 148.867 206.732 C 131.942 198.341, 117 186.937, 117 182.411 C 117 181.050, 117.644 179.690, 118.432 179.388 C 119.219 179.086, 124.739 181.555, 130.698 184.876 C 152.193 196.855, 162.285 200.523, 166.920 198.043 C 169.527 196.648, 172.991 191.266, 172.996 188.603 C 172.998 187.559, 168.775 179.885, 163.610 171.550 C 149.152 148.214, 143.622 136.195, 139.522 119.202 C 137.921 112.566, 135.970 108.871, 134.179 109.079 C 133.805 109.122, 132.825 109.409, 132 109.716 M 371.723 141.248 C 341.097 170.320, 335 177.128, 335 182.259 C 335 184.840, 341.390 194.629, 344.222 196.386 C 345.972 197.472, 349.980 196.319, 373.001 188.106 C 377.677 186.438, 384.652 184.409, 388.501 183.598 C 394.705 182.289, 395.763 182.292, 397.812 183.625 C 399.084 184.451, 399.956 185.633, 399.750 186.250 C 399.544 186.868, 392.879 190.351, 384.938 193.989 C 376.997 197.628, 366.675 202.607, 362 205.053 C 354.031 209.222, 353.508 209.693, 353.629 212.583 C 353.700 214.278, 354.666 217.717, 355.775 220.224 C 357.716 224.613, 357.971 224.797, 362.646 225.190 C 370.381 225.841, 388 224.174, 396.597 221.977 C 414.016 217.527, 430.493 206.309, 432.936 197.238 C 434.698 190.693, 431.567 180.024, 422.742 162.500 C 413.589 144.326, 397.355 123, 392.674 123 C 391.724 123, 382.296 131.211, 371.723 141.248 M 243.500 172.590 C 191.487 184.182, 162.610 236.945, 180.354 287.969 C 192.200 322.031, 228.523 345.019, 264.126 340.986 C 292.496 337.772, 316.362 321.333, 329.451 295.990 C 336.736 281.886, 338.483 274.176, 338.402 256.500 C 338.341 243.155, 338.033 240.507, 335.608 232.500 C 327.217 204.793, 307.113 183.980, 280 174.932 C 268.266 171.016, 254.521 170.134, 243.500 172.590 M 241 184.058 C 201.069 194.431, 177.058 236.271, 188.122 276.196 C 194.563 299.440, 212.563 318.238, 235.479 325.653 C 245.702 328.960, 261.840 329.380, 272 326.602 C 282.449 323.745, 295.504 316.433, 303.321 309.058 C 320.376 292.969, 327.811 274.560, 326.725 251.110 C 325.945 234.269, 321.306 221.794, 311.022 208.880 C 293.586 186.986, 266.580 177.413, 241 184.058 M 243 200.888 C 233.174 204.068, 226.697 208.062, 219.497 215.381 C 207.516 227.560, 202.353 241.468, 203.301 259 C 205.558 300.704, 249.216 324.618, 284.500 303.478 C 310.269 288.038, 318.897 257.634, 305.351 230 C 298.624 216.276, 284.089 204.342, 269.458 200.531 C 261.660 198.500, 249.887 198.659, 243 200.888 M 431.967 215.286 C 425.551 221.333, 416.711 226.308, 407.202 229.224 C 401.685 230.916, 396.920 231.361, 380.250 231.742 C 359.102 232.226, 357.676 232.587, 361.882 236.393 C 368.050 241.975, 410.567 240.640, 434.634 234.108 C 440.077 232.630, 441.394 230.829, 441.306 224.989 C 441.226 219.666, 439.181 209.979, 438.150 210.036 C 437.793 210.057, 435.010 212.419, 431.967 215.286 M 71.549 214.250 C 70.807 216.037, 69.609 221.036, 68.887 225.358 C 67.156 235.716, 67.467 235.964, 81.291 235.261 C 93.544 234.638, 104.610 235.997, 124 240.505 C 142.977 244.917, 145.509 245.340, 148.493 244.591 C 151.921 243.731, 151.778 240.544, 148.250 239.177 C 146.738 238.591, 140.325 236.760, 134 235.109 C 112.520 229.501, 98.773 224.001, 80.015 213.509 C 74.194 210.252, 73.171 210.341, 71.549 214.250 M 424 247.009 C 413.757 249.908, 386.807 255.632, 372.227 258.005 C 362.711 259.553, 361.621 260.695, 362.244 268.456 C 362.574 272.560, 362.330 274.903, 361.491 275.686 C 360.809 276.323, 359.932 278.968, 359.543 281.562 C 358.677 287.337, 359.836 288.687, 368.500 291.997 C 383.709 297.808, 404.824 310.749, 408.667 316.615 C 410.339 319.167, 409.900 321.717, 407.639 322.585 C 406.866 322.882, 403.663 321.480, 400.521 319.470 C 386.959 310.795, 356.845 299.519, 353.371 301.816 C 351.719 302.907, 344.944 315.032, 344.363 317.933 C 343.670 321.400, 345.017 322.880, 359 334.013 C 381.874 352.224, 398.510 362, 406.630 362 C 410.808 362, 411.728 361.560, 415.212 357.898 C 420.498 352.341, 432.672 327.092, 438.367 309.874 C 444.832 290.328, 448.189 273.833, 448.360 260.782 C 448.495 250.454, 448.404 249.968, 445.868 247.422 C 441.990 243.531, 436.646 243.430, 424 247.009 M 72 246.861 C 64.452 248.519, 64 249.169, 64 258.360 C 64 281.032, 72.604 308.493, 91.771 347 C 95.818 355.130, 97.060 356.774, 100.385 358.397 C 104.095 360.208, 104.610 360.221, 111.885 358.669 C 130.978 354.596, 160.825 334.584, 166.467 322.074 L 168.346 317.906 164.399 310.293 C 162.228 306.106, 159.253 301.784, 157.787 300.690 L 155.122 298.700 140.311 301.873 C 114.275 307.450, 102 308.157, 102 304.077 C 102 301.470, 103.476 300.630, 112.500 298.101 C 134.524 291.928, 148.723 286.924, 150.957 284.546 C 153.244 282.112, 153.255 281.980, 152 272.293 C 150.623 261.658, 149.904 259.554, 147.140 258.075 C 145.232 257.054, 117.156 250.830, 103.500 248.401 C 93.670 246.652, 76.723 245.824, 72 246.861 M 340.750 330.080 C 339.788 330.641, 339 331.861, 339 332.793 C 339 333.724, 345.437 340.789, 353.305 348.493 C 369.420 364.273, 375.757 372.958, 380.641 385.961 C 382.406 390.657, 384.465 394.628, 385.218 394.783 C 387.085 395.170, 398.600 387.617, 399.928 385.134 C 402.435 380.449, 400.375 377.695, 384.439 364.428 C 378.327 359.339, 366.956 349.286, 359.171 342.088 C 351.386 334.889, 344.450 329.014, 343.758 329.030 C 343.066 329.047, 341.712 329.519, 340.750 330.080 M 164.171 338.453 C 152.372 348.320, 140.839 356.235, 125.500 364.993 C 119.450 368.448, 113.487 372.191, 112.250 373.312 C 109.548 375.758, 109.283 380.480, 111.649 384.027 C 114.367 388.101, 120.322 394.071, 123.149 395.556 C 126.351 397.237, 126.519 397.068, 130.925 387.733 C 137.697 373.384, 149.469 360.599, 170.165 345.115 C 175.481 341.138, 180.104 337.171, 180.438 336.301 C 181.257 334.167, 178.399 330, 176.117 330 C 175.107 330, 169.731 333.804, 164.171 338.453 M 311 348.174 C 309.075 349.366, 303.900 351.757, 299.500 353.488 C 293.389 355.893, 291.427 357.133, 291.190 358.742 C 290.466 363.669, 301.346 390.577, 309.468 403.948 C 315.683 414.178, 313.135 418.468, 305.348 410.885 C 298.864 404.572, 290.883 392.145, 284.115 377.825 C 277.645 364.137, 276.060 362, 272.378 362 C 269.262 362, 267.788 365.281, 265.391 377.552 C 263.175 388.901, 263.170 409.519, 265.380 424.424 C 266.271 430.432, 267 438.608, 267 442.592 C 267 451.667, 267.509 453, 270.969 453 C 278.945 453, 308.548 445.531, 322.613 439.970 C 340.444 432.920, 365.164 418.204, 371.130 411.087 C 373.922 407.757, 374.113 407.024, 373.792 400.852 C 373.227 389.990, 363.766 372.909, 350.629 359.033 C 348.008 356.265, 345.444 354, 344.932 354 C 343.384 354, 343.880 359.338, 346 365.500 C 350.942 379.864, 347.200 380.825, 337.241 367.750 C 329.702 357.853, 318.033 345.998, 315.837 346.004 C 315.101 346.006, 312.925 346.983, 311 348.174 M 191.843 352.835 C 183.927 361.648, 175.039 375.151, 168.924 387.655 C 164.395 396.916, 162.418 400, 161.011 400 C 153.691 400, 162.174 376.836, 175.477 360.499 C 181.454 353.160, 183.197 349.991, 181.250 350.006 C 180.838 350.009, 177.350 352.512, 173.500 355.570 C 149.700 374.468, 136.165 394.930, 139.038 407.669 C 140.074 412.264, 143.717 415.986, 152.996 421.932 C 177.542 437.660, 214.941 451.610, 235.500 452.705 C 258.169 453.912, 261.774 448.875, 256.401 423.500 C 253.910 411.734, 253.632 408.355, 253.477 387.901 C 253.382 375.471, 252.985 364.784, 252.593 364.151 C 251.346 362.133, 241.659 362.738, 239.248 364.984 C 233.952 369.917, 224.891 386.067, 216.521 405.488 C 213.442 412.632, 210.566 418.834, 210.129 419.271 C 209.692 419.708, 208.523 419.754, 207.531 419.374 C 203.223 417.720, 208.330 392.414, 216.961 372.649 C 219.808 366.132, 221.922 360.240, 221.660 359.557 C 221.398 358.874, 219.455 357.513, 217.342 356.532 C 215.229 355.551, 210.438 353.230, 206.695 351.374 C 202.952 349.518, 199.056 348, 198.038 348 C 197.019 348, 194.231 350.176, 191.843 352.835 M 98 396.410 C 98 401.174, 121.619 423.970, 137.657 434.686 C 163.261 451.794, 187.659 462.180, 215.917 468.001 C 229.016 470.700, 251.631 472.722, 253.752 471.385 C 255.851 470.061, 256.197 468.864, 255.022 467 C 254.288 465.837, 250.866 465.349, 239.788 464.829 C 219.104 463.857, 198.549 458.446, 173 447.249 C 147.154 435.922, 129.254 423.832, 107.898 403.279 C 103.167 398.725, 99.004 395, 98.648 395 C 98.292 395, 98 395.635, 98 396.410" stroke="none" fill="black" fill-rule="evenodd"/>
</svg>