<svg xmlns="http://www.w3.org/2000/svg" width="512" height="512" viewBox="0 0 512 512" version="1.1">
	<path d="M 105 28.922 C 105 29.430, 106.659 30.392, 108.687 31.062 C 112.335 32.266, 122 40.912, 122 42.971 C 122 43.558, 123.013 43.829, 124.250 43.574 C 125.487 43.318, 128.637 42.832, 131.250 42.493 C 135.872 41.894, 136 41.948, 136 44.517 C 136 46.959, 136.281 47.132, 139.750 46.828 L 143.500 46.500 143.500 96.500 L 143.500 146.500 140.114 154.913 L 136.729 163.327 139.364 165.247 C 142.522 167.547, 142.911 172.682, 140.404 178.948 L 138.809 182.936 134.306 182.318 C 128.964 181.586, 128.038 182.533, 128.015 188.750 C 128.002 192.482, 127.726 193.002, 125.750 193.015 C 122.459 193.038, 120.827 194.385, 121.612 196.431 C 122.438 198.583, 120.549 199.964, 116.750 199.985 C 114.665 199.996, 114 200.487, 114 202.015 C 114 203.123, 113.247 206.739, 112.327 210.049 C 110.848 215.369, 110.802 217.153, 111.938 225.422 C 112.971 232.951, 112.978 236.139, 111.972 241.768 C 110.483 250.099, 110.997 257.098, 113.481 262.325 C 115.677 266.944, 118.589 269.001, 123.953 269.721 C 127.980 270.261, 127.982 270.263, 127.383 274.005 C 127.031 276.208, 127.219 278.017, 127.840 278.401 C 128.516 278.819, 127.655 281.644, 125.448 286.249 C 122.598 292.196, 122.002 294.575, 122.010 299.972 C 122.020 306.736, 124.470 313.440, 128.963 319 C 130.612 321.040, 131.091 323.523, 131.569 332.500 C 131.891 338.550, 133.095 348, 134.244 353.500 C 136.088 362.325, 136.399 365.965, 136.051 374.670 C 136.003 375.864, 135.291 378.452, 134.468 380.422 C 132.133 386.010, 130.293 396.147, 128.555 413 C 127.676 421.525, 126.310 430.943, 125.522 433.928 C 124.685 437.094, 124.334 441.157, 124.679 443.678 C 125.182 447.347, 125.009 448, 123.529 448 C 122.444 448, 121.989 448.530, 122.324 449.403 C 122.620 450.174, 122.206 452.987, 121.403 455.653 C 120.601 458.319, 119.505 462.127, 118.969 464.116 L 117.995 467.732 89.248 468.289 C 73.436 468.596, 59.488 469.159, 58.250 469.540 C 57.013 469.921, 56 471.010, 56 471.960 C 56 473.331, 57.766 474.034, 64.553 475.368 C 69.257 476.292, 75.445 478.050, 78.303 479.274 L 83.500 481.500 255.140 481.764 L 426.779 482.028 434.140 479.117 C 438.188 477.516, 444.781 475.634, 448.791 474.936 C 454.412 473.956, 456.014 473.312, 455.785 472.122 C 455.259 469.393, 449.176 468.853, 412.750 468.303 L 377 467.764 377 257.882 C 377 142.447, 376.887 47.663, 376.750 47.251 C 376.613 46.840, 377.400 46.502, 378.500 46.501 C 379.600 46.501, 380.917 45.552, 381.426 44.393 C 382.220 42.584, 382.975 42.356, 386.758 42.782 C 391.013 43.262, 391.311 43.110, 395.468 38.358 C 397.835 35.652, 401.399 32.562, 403.386 31.491 C 405.374 30.421, 407 29.198, 407 28.773 C 407 28.348, 339.050 28, 256 28 C 164.463 28, 105 28.363, 105 28.922 M 172.530 46.952 C 171.858 48.038, 258.087 48.887, 304.250 48.248 C 326.113 47.945, 344 47.307, 344 46.830 C 344 45.775, 173.182 45.896, 172.530 46.952 M 169.970 91.744 C 169.953 92.160, 169.967 104.617, 170 119.427 C 170.059 145.931, 170.094 146.378, 172.244 147.927 C 173.446 148.792, 175.768 149.981, 177.404 150.569 C 181.778 152.140, 181.673 153.747, 177.076 155.586 C 172.614 157.372, 172.212 158.576, 174.563 163.121 C 175.649 165.222, 175.814 166.519, 175.105 167.374 C 174.543 168.050, 174.348 169.614, 174.670 170.848 C 175.051 172.304, 174.682 173.514, 173.618 174.296 C 171.539 175.823, 170.377 195.453, 171.443 211.040 L 172.164 221.579 175.832 221.241 C 177.849 221.055, 180.512 220.691, 181.750 220.432 L 184 219.962 184 159.981 L 184 100 257.336 100 L 330.671 100 331.336 175.165 C 331.701 216.506, 332 299.306, 332 359.165 L 332 468 263.250 468.070 C 223.958 468.110, 195.357 468.509, 196.500 469 C 197.600 469.473, 231.282 469.891, 271.349 469.930 L 344.198 470 343.763 280.750 L 343.328 91.500 256.664 91.244 C 208.999 91.104, 169.986 91.329, 169.970 91.744 M 293 115.567 C 281.725 116.842, 256.831 118.992, 237.680 120.346 C 218.529 121.700, 202.554 123.113, 202.180 123.486 C 201.806 123.859, 201.364 142.618, 201.198 165.173 L 200.896 206.182 203.948 205.511 C 207.812 204.663, 207.987 206.383, 204.250 208.478 L 201.500 210.020 205.500 209.448 C 209.702 208.847, 209.619 209.087, 204.337 212.786 C 202.681 213.946, 202.765 214.019, 205.189 213.533 C 209.056 212.756, 209.596 214.641, 206.033 216.483 C 202.168 218.482, 202.154 219.345, 206 218.500 C 209.817 217.662, 209.966 219.412, 206.250 221.428 L 203.500 222.920 206.250 222.960 C 210.184 223.017, 209.644 224.525, 205.029 226.372 L 201.058 227.960 200.779 257.730 C 200.626 274.104, 200.618 323.096, 200.762 366.602 L 201.024 445.704 220.762 446.404 C 231.618 446.790, 257.600 447.750, 278.500 448.538 C 299.400 449.325, 317.962 449.977, 319.750 449.985 L 323 450 323 397.166 C 323 368.107, 322.701 292.282, 322.335 228.666 L 321.670 113 317.585 113.125 C 315.338 113.194, 304.275 114.293, 293 115.567 M 267.424 135.910 C 267.191 136.143, 267 144.358, 267 154.167 L 267 172 285.418 172 C 295.548 172, 304.548 171.727, 305.418 171.393 C 306.779 170.871, 307 168.279, 307 152.806 L 307 134.827 287.424 135.156 C 276.657 135.338, 267.657 135.676, 267.424 135.910 M 229.750 136.748 L 216 137.056 216 155.528 L 216 174 224.250 173.995 C 228.787 173.993, 237.563 173.699, 243.750 173.343 L 255 172.694 255 154.347 L 255 136 249.250 136.219 C 246.088 136.340, 237.313 136.578, 229.750 136.748 M 280.214 144.741 L 273.929 145.097 274.214 154.799 L 274.500 164.500 279 164.834 C 281.475 165.017, 287.154 164.869, 291.620 164.505 L 299.740 163.842 300.404 157.361 C 300.769 153.796, 300.778 149.332, 300.423 147.440 L 299.777 144 293.139 144.193 C 289.487 144.299, 283.671 144.546, 280.214 144.741 M 356 183 C 356 208.333, 356.350 222, 357 222 C 357.650 222, 358 208.333, 358 183 C 358 157.667, 357.650 144, 357 144 C 356.350 144, 356 157.667, 356 183 M 233.500 145.944 L 223.500 146.500 223.214 156.250 L 222.928 166 235.464 166 L 248 166 248 156.107 C 248 148.008, 247.713 146.104, 246.418 145.607 C 245.548 145.273, 244.536 145.087, 244.168 145.194 C 243.801 145.300, 239 145.638, 233.500 145.944 M 273.750 184.742 L 267 185.091 267 233.546 L 267 282 285.918 282 C 296.323 282, 305.548 281.727, 306.418 281.393 C 307.830 280.851, 308 275.599, 308 232.393 L 308 184 294.250 184.196 C 286.688 184.304, 277.462 184.549, 273.750 184.742 M 225.408 185.727 L 216.316 186.071 215.615 232.341 C 215.229 257.789, 215.199 279.356, 215.549 280.267 C 216.585 282.966, 219.286 283.229, 238.102 282.469 L 256.019 281.744 255.760 233.622 L 255.500 185.500 245 185.442 C 239.225 185.410, 230.409 185.538, 225.408 185.727 M 159.395 189.708 C 158.448 191.233, 158.057 191.292, 156.645 190.121 C 153.493 187.505, 154.774 192.172, 158.169 195.675 C 161.281 198.885, 161.314 199.019, 159.984 203.047 C 158.762 206.751, 158.893 208.480, 161.337 220.825 C 162.825 228.346, 164.033 235.711, 164.022 237.191 C 164.010 238.671, 164.338 240.089, 164.750 240.343 C 165.162 240.597, 165.500 229.036, 165.500 214.652 L 165.500 188.500 163 188.215 C 161.452 188.039, 160.079 188.608, 159.395 189.708 M 279.750 192.721 L 274 193.100 274 232.578 L 274 272.056 287.750 271.778 L 301.500 271.500 301.500 232 L 301.500 192.500 293.500 192.421 C 289.100 192.377, 282.913 192.512, 279.750 192.721 M 223.750 193.689 C 222.120 194.115, 222 196.896, 222 234.223 L 222 274.299 231.154 273.650 C 236.188 273.292, 242.263 273, 244.654 273 L 249 273 249 233 L 249 193 237.250 193.116 C 230.787 193.180, 224.713 193.438, 223.750 193.689 M 180.250 242.556 C 178.463 244.355, 177 245.991, 177 246.190 C 177 246.390, 178.800 246.381, 181 246.171 C 184.806 245.808, 185 245.626, 185 242.395 C 185 238.304, 184.454 238.323, 180.250 242.556 M 180 251 C 178.835 251.753, 179.128 251.973, 181.309 251.985 C 182.930 251.994, 183.857 251.577, 183.500 251 C 182.733 249.758, 181.921 249.758, 180 251 M 182.736 255.598 C 182.407 255.927, 182.386 256.843, 182.690 257.635 C 183.410 259.510, 180.225 263, 177.795 263 C 176.753 263, 174.531 262.292, 172.857 261.426 C 171.184 260.561, 169.668 259.998, 169.490 260.177 C 168.539 261.127, 168.866 285.853, 169.861 288.315 C 171.545 292.477, 171.268 293.895, 168.643 294.554 C 166.443 295.106, 166.340 295.440, 167.110 299.560 C 167.564 301.989, 168.816 307.019, 169.892 310.738 C 171.203 315.268, 172.043 322.122, 172.437 331.500 C 172.760 339.200, 173.535 352.290, 174.159 360.590 L 175.293 375.680 172.647 381.461 L 170 387.242 170 415.998 C 170 439.968, 170.243 444.956, 171.458 445.965 C 172.400 446.747, 172.717 448.166, 172.353 449.983 C 171.880 452.350, 172.564 453.592, 176.712 457.895 C 185.747 467.269, 185.002 474.757, 184.985 374.750 C 184.975 319.501, 184.607 285.939, 184 285 C 183.285 283.894, 183.027 284.559, 183.015 287.527 C 182.999 291.818, 180.778 296, 178.515 296 C 176.442 296, 175.428 285.949, 177.147 282.443 C 178.486 279.714, 179.806 278.671, 183.298 277.585 C 184.898 277.087, 185.077 275.822, 184.931 266.013 C 184.781 255.887, 184.375 253.959, 182.736 255.598 M 178.813 257.683 C 179.534 257.972, 180.397 257.936, 180.729 257.604 C 181.061 257.272, 180.471 257.036, 179.417 257.079 C 178.252 257.127, 178.015 257.364, 178.813 257.683 M 205.580 284.563 C 203.602 286.541, 203.876 287.842, 206.661 289.691 C 208.450 290.879, 209.020 290.801, 211.106 289.089 C 213.054 287.491, 213.295 286.788, 212.398 285.313 C 210.917 282.877, 207.628 282.515, 205.580 284.563 M 205.897 298.883 C 203.845 300.544, 203.712 301.072, 204.765 303.383 C 206.686 307.600, 213 306.441, 213 301.871 C 213 300.090, 210.488 297, 209.039 297 C 208.590 297, 207.175 297.847, 205.897 298.883 M 216.750 323.689 C 215.118 324.116, 215 327.009, 215 366.594 L 215 409.041 235.250 408.771 L 255.500 408.500 255.778 368 C 255.931 345.725, 255.810 326.488, 255.509 325.250 C 254.965 323.014, 254.852 323.001, 236.731 323.116 C 226.704 323.180, 217.713 323.438, 216.750 323.689 M 268 366 L 268 409.042 287.750 408.771 L 307.500 408.500 307.500 366 L 307.500 323.500 287.750 323.229 L 268 322.958 268 366 M 221.868 332.722 C 221.665 334.250, 221.636 350.012, 221.802 367.750 L 222.104 400 235.565 400 L 249.026 400 248.763 365.250 L 248.500 330.500 235.368 330.222 L 222.235 329.944 221.868 332.722 M 275.667 330.667 C 275.300 331.033, 275 346.783, 275 365.667 L 275 400 288 400 L 301 400 301 365 L 301 330 288.667 330 C 281.883 330, 276.033 330.300, 275.667 330.667 M 144.186 434.698 C 141.846 446.930, 141.845 447.628, 144.170 452.413 C 145.396 454.936, 146.828 457, 147.354 457 C 148.548 457, 147.420 431.020, 146.172 429.772 C 145.670 429.270, 144.821 431.375, 144.186 434.698" stroke="none" fill="black" fill-rule="evenodd"/>
</svg>